<svg width="331" height="99" viewBox="0 0 331 99" fill="none" xmlns="http://www.w3.org/2000/svg">
<path d="M4.128 62L24.608 17.2H29.28L49.76 62H44.768L25.952 19.952H27.872L9.056 62H4.128ZM12.192 50.032L13.6 46.192H39.648L41.056 50.032H12.192ZM73.555 62.32C70.611 62.32 67.9657 61.6587 65.619 60.336C63.2723 58.9707 61.4163 57.008 60.051 54.448C58.6857 51.888 58.003 48.7947 58.003 45.168C58.003 41.4987 58.6857 38.4053 60.051 35.888C61.459 33.328 63.3363 31.3867 65.683 30.064C68.0297 28.7413 70.6537 28.08 73.555 28.08C76.755 28.08 79.6137 28.8053 82.131 30.256C84.691 31.664 86.6963 33.648 88.147 36.208C89.5977 38.768 90.323 41.7547 90.323 45.168C90.323 48.5387 89.5977 51.5253 88.147 54.128C86.6963 56.688 84.691 58.6933 82.131 60.144C79.6137 61.5947 76.755 62.32 73.555 62.32ZM56.211 62V14.512H60.755V38.32L60.115 45.104L60.563 51.888V62H56.211ZM73.235 58.288C75.6243 58.288 77.7577 57.7547 79.635 56.688C81.5123 55.5787 83.0057 54.0427 84.115 52.08C85.2243 50.0747 85.779 47.7707 85.779 45.168C85.779 42.5227 85.2243 40.2187 84.115 38.256C83.0057 36.2933 81.5123 34.7787 79.635 33.712C77.7577 32.6027 75.6243 32.048 73.235 32.048C70.8457 32.048 68.691 32.6027 66.771 33.712C64.8937 34.7787 63.4003 36.2933 62.291 38.256C61.2243 40.2187 60.691 42.5227 60.691 45.168C60.691 47.7707 61.2243 50.0747 62.291 52.08C63.4003 54.0427 64.8937 55.5787 66.771 56.688C68.691 57.7547 70.8457 58.288 73.235 58.288ZM113.282 62.32C110.039 62.32 107.117 61.5947 104.514 60.144C101.954 58.6507 99.9273 56.624 98.434 54.064C96.9407 51.4613 96.194 48.496 96.194 45.168C96.194 41.7973 96.9407 38.832 98.434 36.272C99.9273 33.712 101.954 31.7067 104.514 30.256C107.074 28.8053 109.997 28.08 113.282 28.08C116.61 28.08 119.554 28.8053 122.114 30.256C124.717 31.7067 126.743 33.712 128.194 36.272C129.687 38.832 130.434 41.7973 130.434 45.168C130.434 48.496 129.687 51.4613 128.194 54.064C126.743 56.624 124.717 58.6507 122.114 60.144C119.511 61.5947 116.567 62.32 113.282 62.32ZM113.282 58.288C115.714 58.288 117.869 57.7547 119.746 56.688C121.623 55.5787 123.095 54.0427 124.162 52.08C125.271 50.0747 125.826 47.7707 125.826 45.168C125.826 42.5227 125.271 40.2187 124.162 38.256C123.095 36.2933 121.623 34.7787 119.746 33.712C117.869 32.6027 115.735 32.048 113.346 32.048C110.957 32.048 108.823 32.6027 106.946 33.712C105.069 34.7787 103.575 36.2933 102.466 38.256C101.357 40.2187 100.802 42.5227 100.802 45.168C100.802 47.7707 101.357 50.0747 102.466 52.08C103.575 54.0427 105.069 55.5787 106.946 56.688C108.823 57.7547 110.935 58.288 113.282 58.288ZM153.599 62.32C150.74 62.32 148.244 61.7867 146.111 60.72C143.978 59.6533 142.314 58.0533 141.119 55.92C139.967 53.7867 139.391 51.12 139.391 47.92V28.4H143.935V47.408C143.935 50.992 144.81 53.7013 146.559 55.536C148.351 57.328 150.847 58.224 154.047 58.224C156.394 58.224 158.42 57.7547 160.127 56.816C161.876 55.8347 163.199 54.4267 164.095 52.592C165.034 50.7573 165.503 48.56 165.503 46V28.4H170.047V62H165.695V52.784L166.399 54.448C165.332 56.9227 163.668 58.864 161.407 60.272C159.188 61.6373 156.586 62.32 153.599 62.32ZM193.335 62.32C190.178 62.32 187.746 61.4667 186.039 59.76C184.332 58.0533 183.479 55.6427 183.479 52.528V20.976H188.023V52.272C188.023 54.2347 188.514 55.7493 189.495 56.816C190.519 57.8827 191.97 58.416 193.847 58.416C195.852 58.416 197.516 57.84 198.839 56.688L200.439 59.952C199.543 60.7627 198.455 61.36 197.175 61.744C195.938 62.128 194.658 62.32 193.335 62.32ZM177.463 32.176V28.4H198.263V32.176H177.463ZM267.445 28.08C270.176 28.08 272.544 28.6133 274.549 29.68C276.597 30.704 278.176 32.2827 279.285 34.416C280.437 36.5493 281.013 39.2373 281.013 42.48V62H276.469V42.928C276.469 39.3867 275.616 36.72 273.909 34.928C272.245 33.0933 269.877 32.176 266.805 32.176C264.501 32.176 262.496 32.6667 260.789 33.648C259.125 34.5867 257.824 35.9733 256.885 37.808C255.989 39.6 255.541 41.776 255.541 44.336V62H250.997V42.928C250.997 39.3867 250.144 36.72 248.437 34.928C246.73 33.0933 244.341 32.176 241.269 32.176C239.008 32.176 237.024 32.6667 235.317 33.648C233.61 34.5867 232.288 35.9733 231.349 37.808C230.453 39.6 230.005 41.776 230.005 44.336V62H225.461V28.4H229.813V37.488L229.109 35.888C230.133 33.456 231.776 31.5573 234.037 30.192C236.341 28.784 239.05 28.08 242.165 28.08C245.45 28.08 248.245 28.912 250.549 30.576C252.853 32.1973 254.346 34.6507 255.029 37.936L253.237 37.232C254.218 34.5013 255.946 32.304 258.421 30.64C260.938 28.9333 263.946 28.08 267.445 28.08ZM307.608 62.32C304.109 62.32 301.037 61.5947 298.392 60.144C295.747 58.6507 293.677 56.624 292.184 54.064C290.691 51.4613 289.944 48.496 289.944 45.168C289.944 41.84 290.648 38.896 292.056 36.336C293.507 33.776 295.469 31.7707 297.944 30.32C300.461 28.8267 303.277 28.08 306.392 28.08C309.549 28.08 312.344 28.8053 314.776 30.256C317.251 31.664 319.192 33.6693 320.6 36.272C322.008 38.832 322.712 41.7973 322.712 45.168C322.712 45.3813 322.691 45.616 322.648 45.872C322.648 46.0853 322.648 46.32 322.648 46.576H293.4V43.184H320.216L318.424 44.528C318.424 42.096 317.891 39.9413 316.824 38.064C315.8 36.144 314.392 34.6507 312.6 33.584C310.808 32.5173 308.739 31.984 306.392 31.984C304.088 31.984 302.019 32.5173 300.184 33.584C298.349 34.6507 296.92 36.144 295.896 38.064C294.872 39.984 294.36 42.1813 294.36 44.656V45.36C294.36 47.92 294.915 50.1813 296.024 52.144C297.176 54.064 298.755 55.5787 300.76 56.688C302.808 57.7547 305.133 58.288 307.736 58.288C309.784 58.288 311.683 57.9253 313.432 57.2C315.224 56.4747 316.76 55.3653 318.04 53.872L320.6 56.816C319.107 58.608 317.229 59.9733 314.968 60.912C312.749 61.8507 310.296 62.32 307.608 62.32Z" fill="white"/>
<line y1="98.5" x2="331" y2="98.5" stroke="white"/>
</svg>
