<svg width="115" height="133" viewBox="0 0 115 133" fill="none" xmlns="http://www.w3.org/2000/svg">
<path d="M22.1557 44.0598H92.4738V101.361C92.4738 104.766 89.7139 107.525 86.3139 107.525H79.2706V124.977C79.2706 129.408 75.7359 133 71.3725 133C66.9979 133 63.4684 129.408 63.4684 124.977V107.525H51.1671V124.977C51.1671 129.408 47.6253 133 43.2622 133C38.8998 133 35.3583 129.408 35.3583 124.977V107.525H28.3213C24.9205 107.525 22.1555 104.766 22.1555 101.361L22.1557 44.0598ZM8.37583 43.5921C3.96804 43.5921 0.397705 47.218 0.397705 51.6941V83.3586C0.397705 87.8295 3.96804 91.4617 8.37583 91.4617C12.7844 91.4617 16.354 87.8295 16.354 83.3586V51.6941C16.354 47.218 12.7844 43.5921 8.37583 43.5921ZM92.474 38.2856H22.1557C23.0236 28.2676 29.522 19.6468 38.877 14.6552L32.1913 4.83833C31.2897 3.51448 31.6299 1.70815 32.9563 0.806808C34.2812 -0.0945396 36.0839 0.248237 36.9899 1.57104L44.2768 12.2781C48.3169 10.8811 52.7023 10.0789 57.3148 10.0789C61.9326 10.0789 66.3184 10.8811 70.3582 12.28L77.6451 1.57494C78.5399 0.248497 80.3483 -0.0942799 81.6732 0.807067C82.9996 1.70841 83.3398 3.51474 82.4382 4.83859L75.758 14.6555C85.1127 19.6439 91.6067 28.2648 92.474 38.2856ZM46.3732 24.6734C46.3732 22.5251 44.6336 20.7826 42.486 20.7826C40.333 20.7826 38.5934 22.5251 38.5934 24.6734C38.5934 26.8207 40.3387 28.5624 42.486 28.5624C44.6333 28.5624 46.3732 26.8207 46.3732 24.6734ZM76.5289 24.6734C76.5289 22.5251 74.7834 20.7826 72.6364 20.7826C70.4834 20.7826 68.749 22.5251 68.749 24.6734C68.749 26.8207 70.4834 28.5624 72.6364 28.5624C74.7836 28.5624 76.5289 26.8207 76.5289 24.6734ZM106.259 43.5809C101.856 43.5809 98.2755 47.2123 98.2755 51.6886V83.3643C98.2755 87.8407 101.856 91.4731 106.259 91.4731C110.668 91.4731 114.232 87.8409 114.232 83.3643V51.6886C114.232 47.2123 110.668 43.5809 106.259 43.5809Z" fill="white"/>
</svg>
