<svg width="329" height="102" viewBox="0 0 329 102" fill="none" xmlns="http://www.w3.org/2000/svg">
<path d="M37.0579 82C18.6739 82 0 78.0446 0 70.4829C0 63.7355 14.3824 60.9434 20.5297 60.0709H20.7617C21.6316 60.0709 22.3855 60.7108 22.5015 61.5833C22.5595 62.0486 22.4435 62.5139 22.1536 62.8629C21.8636 63.212 21.4576 63.5028 20.9937 63.561C8.1771 65.4223 3.42162 68.796 3.42162 70.541C3.42162 73.7984 16.5282 78.5681 36.9999 78.5681C57.4717 78.5681 70.5782 73.7984 70.5782 70.541C70.5782 68.796 65.7648 65.4223 52.8322 63.561C52.3682 63.5028 51.9623 63.2701 51.6723 62.8629C51.3824 62.5139 51.2664 62.0486 51.3244 61.5833C51.4403 60.7108 52.1943 60.0709 53.0642 60.0709H53.2961C59.5015 60.9434 73.9999 63.7355 73.9999 70.4829C74.0579 77.9865 55.4419 82 37.0579 82ZM35.8401 69.6685C34.9702 68.8542 14.9044 49.8335 14.9044 31.1618C14.9044 18.9466 24.8213 9 36.9999 9C49.1786 9 59.0955 18.9466 59.0955 31.1618C59.0955 49.31 39.0297 68.796 38.1598 69.6104L36.9999 70.7737L35.8401 69.6685ZM37.0579 12.49C26.7931 12.49 18.442 20.8661 18.442 31.1618C18.442 45.7618 32.6504 61.4088 37.0579 65.8877C41.5234 61.2924 55.7319 45.3546 55.7319 31.1618C55.6739 20.9243 47.3228 12.49 37.0579 12.49ZM37.0579 41.0502C31.2586 41.0502 26.5611 36.3386 26.5611 30.5219C26.5611 24.7052 31.2586 19.9936 37.0579 19.9936C42.8573 19.9936 47.5548 24.7052 47.5548 30.5219C47.5548 36.3386 42.8573 41.0502 37.0579 41.0502ZM37.0579 23.4837C33.1724 23.4837 30.0407 26.6247 30.0407 30.5219C30.0407 34.4191 33.1724 37.5602 37.0579 37.5602C40.9435 37.5602 44.0752 34.4191 44.0752 30.5219C44.0752 26.6247 40.8855 23.4837 37.0579 23.4837Z" fill="white"/>
<path d="M98.064 31L108.304 8.6H110.64L120.88 31H118.384L108.976 9.976H109.936L100.528 31H98.064ZM102.096 25.016L102.8 23.096H115.824L116.528 25.016H102.096ZM130.637 31.16C129.037 31.16 127.597 30.7973 126.317 30.072C125.059 29.3467 124.067 28.344 123.341 27.064C122.616 25.7627 122.253 24.2693 122.253 22.584C122.253 20.8773 122.616 19.384 123.341 18.104C124.067 16.824 125.059 15.832 126.317 15.128C127.597 14.4027 129.037 14.04 130.637 14.04C132.109 14.04 133.421 14.3707 134.573 15.032C135.747 15.6933 136.675 16.664 137.357 17.944C138.061 19.2027 138.413 20.7493 138.413 22.584C138.413 24.3973 138.072 25.944 137.389 27.224C136.707 28.504 135.779 29.4853 134.605 30.168C133.453 30.8293 132.131 31.16 130.637 31.16ZM130.797 29.144C131.992 29.144 133.059 28.8773 133.997 28.344C134.957 27.7893 135.704 27.0213 136.237 26.04C136.792 25.0373 137.069 23.8853 137.069 22.584C137.069 21.2613 136.792 20.1093 136.237 19.128C135.704 18.1467 134.957 17.3893 133.997 16.856C133.059 16.3013 131.992 16.024 130.797 16.024C129.624 16.024 128.568 16.3013 127.629 16.856C126.691 17.3893 125.944 18.1467 125.389 19.128C124.835 20.1093 124.557 21.2613 124.557 22.584C124.557 23.8853 124.835 25.0373 125.389 26.04C125.944 27.0213 126.691 27.7893 127.629 28.344C128.568 28.8773 129.624 29.144 130.797 29.144ZM137.133 31V25.944L137.357 22.552L137.037 19.16V7.256H139.309V31H137.133ZM152.325 31.16C150.725 31.16 149.285 30.7973 148.005 30.072C146.746 29.3467 145.754 28.344 145.029 27.064C144.303 25.7627 143.941 24.2693 143.941 22.584C143.941 20.8773 144.303 19.384 145.029 18.104C145.754 16.824 146.746 15.832 148.005 15.128C149.285 14.4027 150.725 14.04 152.325 14.04C153.797 14.04 155.109 14.3707 156.261 15.032C157.434 15.6933 158.362 16.664 159.045 17.944C159.749 19.2027 160.101 20.7493 160.101 22.584C160.101 24.3973 159.759 25.944 159.077 27.224C158.394 28.504 157.466 29.4853 156.293 30.168C155.141 30.8293 153.818 31.16 152.325 31.16ZM152.485 29.144C153.679 29.144 154.746 28.8773 155.685 28.344C156.645 27.7893 157.391 27.0213 157.925 26.04C158.479 25.0373 158.757 23.8853 158.757 22.584C158.757 21.2613 158.479 20.1093 157.925 19.128C157.391 18.1467 156.645 17.3893 155.685 16.856C154.746 16.3013 153.679 16.024 152.485 16.024C151.311 16.024 150.255 16.3013 149.317 16.856C148.378 17.3893 147.631 18.1467 147.077 19.128C146.522 20.1093 146.245 21.2613 146.245 22.584C146.245 23.8853 146.522 25.0373 147.077 26.04C147.631 27.0213 148.378 27.7893 149.317 28.344C150.255 28.8773 151.311 29.144 152.485 29.144ZM158.821 31V25.944L159.045 22.552L158.725 19.16V7.256H160.997V31H158.821ZM167.324 31V14.2H169.5V18.776L169.276 17.976C169.746 16.696 170.535 15.7253 171.644 15.064C172.754 14.3813 174.13 14.04 175.772 14.04V16.248C175.687 16.248 175.602 16.248 175.516 16.248C175.431 16.2267 175.346 16.216 175.26 16.216C173.49 16.216 172.103 16.76 171.1 17.848C170.098 18.9147 169.596 20.44 169.596 22.424V31H167.324ZM186.898 31.16C185.148 31.16 183.612 30.7973 182.29 30.072C180.967 29.3253 179.932 28.312 179.186 27.032C178.439 25.7307 178.066 24.248 178.066 22.584C178.066 20.92 178.418 19.448 179.122 18.168C179.847 16.888 180.828 15.8853 182.066 15.16C183.324 14.4133 184.732 14.04 186.29 14.04C187.868 14.04 189.266 14.4027 190.482 15.128C191.719 15.832 192.69 16.8347 193.394 18.136C194.098 19.416 194.45 20.8987 194.45 22.584C194.45 22.6907 194.439 22.808 194.418 22.936C194.418 23.0427 194.418 23.16 194.418 23.288H179.794V21.592H193.202L192.306 22.264C192.306 21.048 192.039 19.9707 191.506 19.032C190.994 18.072 190.29 17.3253 189.394 16.792C188.498 16.2587 187.463 15.992 186.29 15.992C185.138 15.992 184.103 16.2587 183.186 16.792C182.268 17.3253 181.554 18.072 181.042 19.032C180.53 19.992 180.274 21.0907 180.274 22.328V22.68C180.274 23.96 180.551 25.0907 181.106 26.072C181.682 27.032 182.471 27.7893 183.474 28.344C184.498 28.8773 185.66 29.144 186.962 29.144C187.986 29.144 188.935 28.9627 189.81 28.6C190.706 28.2373 191.474 27.6827 192.114 26.936L193.394 28.408C192.647 29.304 191.708 29.9867 190.578 30.456C189.468 30.9253 188.242 31.16 186.898 31.16ZM203.586 31.16C202.2 31.16 200.888 30.968 199.65 30.584C198.413 30.1787 197.442 29.6773 196.738 29.08L197.762 27.288C198.445 27.8 199.32 28.248 200.386 28.632C201.453 28.9947 202.573 29.176 203.746 29.176C205.346 29.176 206.498 28.9307 207.202 28.44C207.906 27.928 208.258 27.256 208.258 26.424C208.258 25.8053 208.056 25.3253 207.65 24.984C207.266 24.6213 206.754 24.3547 206.114 24.184C205.474 23.992 204.76 23.832 203.97 23.704C203.181 23.576 202.392 23.4267 201.602 23.256C200.834 23.0853 200.13 22.84 199.49 22.52C198.85 22.1787 198.328 21.72 197.922 21.144C197.538 20.568 197.346 19.8 197.346 18.84C197.346 17.9227 197.602 17.1013 198.114 16.376C198.626 15.6507 199.373 15.0853 200.354 14.68C201.357 14.2533 202.573 14.04 204.002 14.04C205.09 14.04 206.178 14.1893 207.266 14.488C208.354 14.7653 209.25 15.1387 209.954 15.608L208.962 17.432C208.216 16.92 207.416 16.5573 206.562 16.344C205.709 16.1093 204.856 15.992 204.002 15.992C202.488 15.992 201.368 16.2587 200.642 16.792C199.938 17.304 199.586 17.9653 199.586 18.776C199.586 19.416 199.778 19.9173 200.162 20.28C200.568 20.6427 201.09 20.9307 201.73 21.144C202.392 21.336 203.106 21.496 203.874 21.624C204.664 21.752 205.442 21.912 206.21 22.104C207 22.2747 207.714 22.52 208.354 22.84C209.016 23.1387 209.538 23.576 209.922 24.152C210.328 24.7067 210.53 25.4427 210.53 26.36C210.53 27.3413 210.253 28.1947 209.698 28.92C209.165 29.624 208.376 30.1787 207.33 30.584C206.306 30.968 205.058 31.16 203.586 31.16ZM219.211 31.16C217.825 31.16 216.513 30.968 215.275 30.584C214.038 30.1787 213.067 29.6773 212.363 29.08L213.387 27.288C214.07 27.8 214.945 28.248 216.011 28.632C217.078 28.9947 218.198 29.176 219.371 29.176C220.971 29.176 222.123 28.9307 222.827 28.44C223.531 27.928 223.883 27.256 223.883 26.424C223.883 25.8053 223.681 25.3253 223.275 24.984C222.891 24.6213 222.379 24.3547 221.739 24.184C221.099 23.992 220.385 23.832 219.595 23.704C218.806 23.576 218.017 23.4267 217.227 23.256C216.459 23.0853 215.755 22.84 215.115 22.52C214.475 22.1787 213.953 21.72 213.547 21.144C213.163 20.568 212.971 19.8 212.971 18.84C212.971 17.9227 213.227 17.1013 213.739 16.376C214.251 15.6507 214.998 15.0853 215.979 14.68C216.982 14.2533 218.198 14.04 219.627 14.04C220.715 14.04 221.803 14.1893 222.891 14.488C223.979 14.7653 224.875 15.1387 225.579 15.608L224.587 17.432C223.841 16.92 223.041 16.5573 222.187 16.344C221.334 16.1093 220.481 15.992 219.627 15.992C218.113 15.992 216.993 16.2587 216.267 16.792C215.563 17.304 215.211 17.9653 215.211 18.776C215.211 19.416 215.403 19.9173 215.787 20.28C216.193 20.6427 216.715 20.9307 217.355 21.144C218.017 21.336 218.731 21.496 219.499 21.624C220.289 21.752 221.067 21.912 221.835 22.104C222.625 22.2747 223.339 22.52 223.979 22.84C224.641 23.1387 225.163 23.576 225.547 24.152C225.953 24.7067 226.155 25.4427 226.155 26.36C226.155 27.3413 225.878 28.1947 225.323 28.92C224.79 29.624 224.001 30.1787 222.955 30.584C221.931 30.968 220.683 31.16 219.211 31.16Z" fill="white"/>
<path d="M108.08 51.52C108.763 51.52 109.355 51.6533 109.856 51.92C110.368 52.176 110.763 52.5707 111.04 53.104C111.328 53.6373 111.472 54.3093 111.472 55.12V60H110.336V55.232C110.336 54.3467 110.123 53.68 109.696 53.232C109.28 52.7733 108.688 52.544 107.92 52.544C107.344 52.544 106.843 52.6667 106.416 52.912C106 53.1467 105.675 53.4933 105.44 53.952C105.216 54.4 105.104 54.944 105.104 55.584V60H103.968V55.232C103.968 54.3467 103.755 53.68 103.328 53.232C102.901 52.7733 102.304 52.544 101.536 52.544C100.971 52.544 100.475 52.6667 100.048 52.912C99.6213 53.1467 99.2907 53.4933 99.056 53.952C98.832 54.4 98.72 54.944 98.72 55.584V60H97.584V51.6H98.672V53.872L98.496 53.472C98.752 52.864 99.1627 52.3893 99.728 52.048C100.304 51.696 100.981 51.52 101.76 51.52C102.581 51.52 103.28 51.728 103.856 52.144C104.432 52.5493 104.805 53.1627 104.976 53.984L104.528 53.808C104.773 53.1253 105.205 52.576 105.824 52.16C106.453 51.7333 107.205 51.52 108.08 51.52ZM117.977 60.08C117.166 60.08 116.435 59.8987 115.785 59.536C115.145 59.1627 114.638 58.656 114.265 58.016C113.891 57.3653 113.705 56.624 113.705 55.792C113.705 54.9493 113.891 54.208 114.265 53.568C114.638 52.928 115.145 52.4267 115.785 52.064C116.425 51.7013 117.155 51.52 117.977 51.52C118.809 51.52 119.545 51.7013 120.185 52.064C120.835 52.4267 121.342 52.928 121.705 53.568C122.078 54.208 122.265 54.9493 122.265 55.792C122.265 56.624 122.078 57.3653 121.705 58.016C121.342 58.656 120.835 59.1627 120.185 59.536C119.534 59.8987 118.798 60.08 117.977 60.08ZM117.977 59.072C118.585 59.072 119.123 58.9387 119.593 58.672C120.062 58.3947 120.43 58.0107 120.697 57.52C120.974 57.0187 121.113 56.4427 121.113 55.792C121.113 55.1307 120.974 54.5547 120.697 54.064C120.43 53.5733 120.062 53.1947 119.593 52.928C119.123 52.6507 118.59 52.512 117.993 52.512C117.395 52.512 116.862 52.6507 116.393 52.928C115.923 53.1947 115.55 53.5733 115.273 54.064C114.995 54.5547 114.857 55.1307 114.857 55.792C114.857 56.4427 114.995 57.0187 115.273 57.52C115.55 58.0107 115.923 58.3947 116.393 58.672C116.862 58.9387 117.39 59.072 117.977 59.072ZM128.872 51.52C129.555 51.52 130.152 51.6533 130.664 51.92C131.187 52.176 131.592 52.5707 131.88 53.104C132.179 53.6373 132.328 54.3093 132.328 55.12V60H131.192V55.232C131.192 54.3467 130.968 53.68 130.52 53.232C130.083 52.7733 129.464 52.544 128.664 52.544C128.067 52.544 127.544 52.6667 127.096 52.912C126.659 53.1467 126.317 53.4933 126.072 53.952C125.837 54.4 125.72 54.944 125.72 55.584V60H124.584V48.128H125.72V53.904L125.496 53.472C125.763 52.864 126.189 52.3893 126.776 52.048C127.363 51.696 128.061 51.52 128.872 51.52ZM140.661 60V58.144L140.613 57.84V54.736C140.613 54.0213 140.41 53.472 140.005 53.088C139.61 52.704 139.018 52.512 138.229 52.512C137.685 52.512 137.167 52.6027 136.677 52.784C136.186 52.9653 135.77 53.2053 135.429 53.504L134.917 52.656C135.343 52.2933 135.855 52.016 136.453 51.824C137.05 51.6213 137.679 51.52 138.341 51.52C139.429 51.52 140.266 51.792 140.853 52.336C141.45 52.8693 141.749 53.6853 141.749 54.784V60H140.661ZM137.765 60.08C137.135 60.08 136.586 59.9787 136.117 59.776C135.658 59.5627 135.306 59.2747 135.061 58.912C134.815 58.5387 134.693 58.112 134.693 57.632C134.693 57.1947 134.794 56.8 134.997 56.448C135.21 56.0853 135.551 55.7973 136.021 55.584C136.501 55.36 137.141 55.248 137.941 55.248H140.837V56.096H137.973C137.162 56.096 136.597 56.24 136.277 56.528C135.967 56.816 135.812 57.1733 135.812 57.6C135.812 58.08 135.999 58.464 136.373 58.752C136.746 59.04 137.269 59.184 137.941 59.184C138.581 59.184 139.13 59.04 139.589 58.752C140.058 58.4533 140.399 58.0267 140.613 57.472L140.869 58.256C140.655 58.8107 140.282 59.2533 139.749 59.584C139.226 59.9147 138.565 60.08 137.765 60.08ZM144.834 60V48.128H145.97V60H144.834ZM149.131 60V48.128H150.267V60H149.131ZM158.692 60V58.144L158.644 57.84V54.736C158.644 54.0213 158.441 53.472 158.036 53.088C157.641 52.704 157.049 52.512 156.26 52.512C155.716 52.512 155.198 52.6027 154.708 52.784C154.217 52.9653 153.801 53.2053 153.46 53.504L152.948 52.656C153.374 52.2933 153.886 52.016 154.484 51.824C155.081 51.6213 155.71 51.52 156.372 51.52C157.46 51.52 158.297 51.792 158.884 52.336C159.481 52.8693 159.78 53.6853 159.78 54.784V60H158.692ZM155.796 60.08C155.166 60.08 154.617 59.9787 154.148 59.776C153.689 59.5627 153.337 59.2747 153.092 58.912C152.846 58.5387 152.724 58.112 152.724 57.632C152.724 57.1947 152.825 56.8 153.028 56.448C153.241 56.0853 153.582 55.7973 154.052 55.584C154.532 55.36 155.172 55.248 155.972 55.248H158.868V56.096H156.004C155.193 56.096 154.628 56.24 154.308 56.528C153.998 56.816 153.844 57.1733 153.844 57.6C153.844 58.08 154.03 58.464 154.404 58.752C154.777 59.04 155.3 59.184 155.972 59.184C156.612 59.184 157.161 59.04 157.62 58.752C158.089 58.4533 158.43 58.0267 158.644 57.472L158.9 58.256C158.686 58.8107 158.313 59.2533 157.78 59.584C157.257 59.9147 156.596 60.08 155.796 60.08ZM169.709 60.08C168.919 60.08 168.311 59.8667 167.885 59.44C167.458 59.0133 167.245 58.4107 167.245 57.632V49.744H168.381V57.568C168.381 58.0587 168.503 58.4373 168.749 58.704C169.005 58.9707 169.367 59.104 169.837 59.104C170.338 59.104 170.754 58.96 171.085 58.672L171.485 59.488C171.261 59.6907 170.989 59.84 170.669 59.936C170.359 60.032 170.039 60.08 169.709 60.08ZM165.741 52.544V51.6H170.941V52.544H165.741ZM178.817 60V58.144L178.769 57.84V54.736C178.769 54.0213 178.566 53.472 178.161 53.088C177.766 52.704 177.174 52.512 176.385 52.512C175.841 52.512 175.323 52.6027 174.833 52.784C174.342 52.9653 173.926 53.2053 173.585 53.504L173.073 52.656C173.499 52.2933 174.011 52.016 174.609 51.824C175.206 51.6213 175.835 51.52 176.497 51.52C177.585 51.52 178.422 51.792 179.009 52.336C179.606 52.8693 179.905 53.6853 179.905 54.784V60H178.817ZM175.921 60.08C175.291 60.08 174.742 59.9787 174.273 59.776C173.814 59.5627 173.462 59.2747 173.217 58.912C172.971 58.5387 172.849 58.112 172.849 57.632C172.849 57.1947 172.95 56.8 173.153 56.448C173.366 56.0853 173.707 55.7973 174.177 55.584C174.657 55.36 175.297 55.248 176.097 55.248H178.993V56.096H176.129C175.318 56.096 174.753 56.24 174.433 56.528C174.123 56.816 173.969 57.1733 173.969 57.6C173.969 58.08 174.155 58.464 174.529 58.752C174.902 59.04 175.425 59.184 176.097 59.184C176.737 59.184 177.286 59.04 177.745 58.752C178.214 58.4533 178.555 58.0267 178.769 57.472L179.025 58.256C178.811 58.8107 178.438 59.2533 177.905 59.584C177.382 59.9147 176.721 60.08 175.921 60.08ZM187.278 51.52C187.961 51.52 188.558 51.6533 189.07 51.92C189.593 52.176 189.998 52.5707 190.286 53.104C190.585 53.6373 190.734 54.3093 190.734 55.12V60H189.598V55.232C189.598 54.3467 189.374 53.68 188.926 53.232C188.489 52.7733 187.87 52.544 187.07 52.544C186.473 52.544 185.95 52.6667 185.502 52.912C185.065 53.1467 184.724 53.4933 184.478 53.952C184.244 54.4 184.126 54.944 184.126 55.584V60H182.99V51.6H184.078V53.904L183.902 53.472C184.169 52.864 184.596 52.3893 185.182 52.048C185.769 51.696 186.468 51.52 187.278 51.52ZM197.147 60.08C196.347 60.08 195.627 59.8987 194.987 59.536C194.357 59.1733 193.861 58.672 193.499 58.032C193.136 57.3813 192.955 56.6347 192.955 55.792C192.955 54.9387 193.136 54.192 193.499 53.552C193.861 52.912 194.357 52.416 194.987 52.064C195.627 51.7013 196.347 51.52 197.147 51.52C197.883 51.52 198.539 51.6853 199.115 52.016C199.701 52.3467 200.165 52.832 200.507 53.472C200.859 54.1013 201.035 54.8747 201.035 55.792C201.035 56.6987 200.864 57.472 200.523 58.112C200.181 58.752 199.717 59.2427 199.131 59.584C198.555 59.9147 197.893 60.08 197.147 60.08ZM197.227 59.072C197.824 59.072 198.357 58.9387 198.827 58.672C199.307 58.3947 199.68 58.0107 199.947 57.52C200.224 57.0187 200.363 56.4427 200.363 55.792C200.363 55.1307 200.224 54.5547 199.947 54.064C199.68 53.5733 199.307 53.1947 198.827 52.928C198.357 52.6507 197.824 52.512 197.227 52.512C196.64 52.512 196.112 52.6507 195.643 52.928C195.173 53.1947 194.8 53.5733 194.523 54.064C194.245 54.5547 194.107 55.1307 194.107 55.792C194.107 56.4427 194.245 57.0187 194.523 57.52C194.8 58.0107 195.173 58.3947 195.643 58.672C196.112 58.9387 196.64 59.072 197.227 59.072ZM200.395 60V57.472L200.507 55.776L200.347 54.08V48.128H201.483V60H200.395ZM208.071 60.08C207.26 60.08 206.529 59.8987 205.879 59.536C205.239 59.1627 204.732 58.656 204.359 58.016C203.985 57.3653 203.799 56.624 203.799 55.792C203.799 54.9493 203.985 54.208 204.359 53.568C204.732 52.928 205.239 52.4267 205.879 52.064C206.519 51.7013 207.249 51.52 208.071 51.52C208.903 51.52 209.639 51.7013 210.279 52.064C210.929 52.4267 211.436 52.928 211.799 53.568C212.172 54.208 212.359 54.9493 212.359 55.792C212.359 56.624 212.172 57.3653 211.799 58.016C211.436 58.656 210.929 59.1627 210.279 59.536C209.628 59.8987 208.892 60.08 208.071 60.08ZM208.071 59.072C208.679 59.072 209.217 58.9387 209.687 58.672C210.156 58.3947 210.524 58.0107 210.791 57.52C211.068 57.0187 211.207 56.4427 211.207 55.792C211.207 55.1307 211.068 54.5547 210.791 54.064C210.524 53.5733 210.156 53.1947 209.687 52.928C209.217 52.6507 208.684 52.512 208.087 52.512C207.489 52.512 206.956 52.6507 206.487 52.928C206.017 53.1947 205.644 53.5733 205.367 54.064C205.089 54.5547 204.951 55.1307 204.951 55.792C204.951 56.4427 205.089 57.0187 205.367 57.52C205.644 58.0107 206.017 58.3947 206.487 58.672C206.956 58.9387 207.484 59.072 208.071 59.072ZM214.678 60V48.128H215.814V60H214.678ZM224.239 60V58.144L224.191 57.84V54.736C224.191 54.0213 223.988 53.472 223.583 53.088C223.188 52.704 222.596 52.512 221.807 52.512C221.263 52.512 220.745 52.6027 220.255 52.784C219.764 52.9653 219.348 53.2053 219.007 53.504L218.495 52.656C218.921 52.2933 219.433 52.016 220.031 51.824C220.628 51.6213 221.257 51.52 221.919 51.52C223.007 51.52 223.844 51.792 224.431 52.336C225.028 52.8693 225.327 53.6853 225.327 54.784V60H224.239ZM221.343 60.08C220.713 60.08 220.164 59.9787 219.695 59.776C219.236 59.5627 218.884 59.2747 218.639 58.912C218.393 58.5387 218.271 58.112 218.271 57.632C218.271 57.1947 218.372 56.8 218.575 56.448C218.788 56.0853 219.129 55.7973 219.599 55.584C220.079 55.36 220.719 55.248 221.519 55.248H224.415V56.096H221.551C220.74 56.096 220.175 56.24 219.855 56.528C219.545 56.816 219.391 57.1733 219.391 57.6C219.391 58.08 219.577 58.464 219.951 58.752C220.324 59.04 220.847 59.184 221.519 59.184C222.159 59.184 222.708 59.04 223.167 58.752C223.636 58.4533 223.977 58.0267 224.191 57.472L224.447 58.256C224.233 58.8107 223.86 59.2533 223.327 59.584C222.804 59.9147 222.143 60.08 221.343 60.08ZM235.256 60.08C234.466 60.08 233.858 59.8667 233.432 59.44C233.005 59.0133 232.792 58.4107 232.792 57.632V49.744H233.928V57.568C233.928 58.0587 234.05 58.4373 234.296 58.704C234.552 58.9707 234.914 59.104 235.384 59.104C235.885 59.104 236.301 58.96 236.632 58.672L237.032 59.488C236.808 59.6907 236.536 59.84 236.216 59.936C235.906 60.032 235.586 60.08 235.256 60.08ZM231.288 52.544V51.6H236.488V52.544H231.288ZM242.371 60.08C241.496 60.08 240.728 59.8987 240.067 59.536C239.405 59.1627 238.888 58.656 238.515 58.016C238.141 57.3653 237.955 56.624 237.955 55.792C237.955 54.96 238.131 54.224 238.483 53.584C238.845 52.944 239.336 52.4427 239.955 52.08C240.584 51.7067 241.288 51.52 242.067 51.52C242.856 51.52 243.555 51.7013 244.163 52.064C244.781 52.416 245.267 52.9173 245.619 53.568C245.971 54.208 246.147 54.9493 246.147 55.792C246.147 55.8453 246.141 55.904 246.131 55.968C246.131 56.0213 246.131 56.08 246.131 56.144H238.819V55.296H245.523L245.075 55.632C245.075 55.024 244.941 54.4853 244.675 54.016C244.419 53.536 244.067 53.1627 243.619 52.896C243.171 52.6293 242.653 52.496 242.067 52.496C241.491 52.496 240.973 52.6293 240.515 52.896C240.056 53.1627 239.699 53.536 239.443 54.016C239.187 54.496 239.059 55.0453 239.059 55.664V55.84C239.059 56.48 239.197 57.0453 239.475 57.536C239.763 58.016 240.157 58.3947 240.659 58.672C241.171 58.9387 241.752 59.072 242.403 59.072C242.915 59.072 243.389 58.9813 243.827 58.8C244.275 58.6187 244.659 58.3413 244.979 57.968L245.619 58.704C245.245 59.152 244.776 59.4933 244.211 59.728C243.656 59.9627 243.043 60.08 242.371 60.08ZM252.747 51.52C253.43 51.52 254.027 51.6533 254.539 51.92C255.062 52.176 255.467 52.5707 255.755 53.104C256.054 53.6373 256.203 54.3093 256.203 55.12V60H255.067V55.232C255.067 54.3467 254.843 53.68 254.395 53.232C253.958 52.7733 253.339 52.544 252.539 52.544C251.942 52.544 251.419 52.6667 250.971 52.912C250.534 53.1467 250.192 53.4933 249.947 53.952C249.712 54.4 249.595 54.944 249.595 55.584V60H248.459V48.128H249.595V53.904L249.371 53.472C249.638 52.864 250.064 52.3893 250.651 52.048C251.238 51.696 251.936 51.52 252.747 51.52ZM261.528 60.08C260.834 60.08 260.178 59.984 259.56 59.792C258.941 59.5893 258.456 59.3387 258.104 59.04L258.616 58.144C258.957 58.4 259.394 58.624 259.928 58.816C260.461 58.9973 261.021 59.088 261.608 59.088C262.408 59.088 262.984 58.9653 263.336 58.72C263.688 58.464 263.864 58.128 263.864 57.712C263.864 57.4027 263.762 57.1627 263.56 56.992C263.368 56.8107 263.112 56.6773 262.792 56.592C262.472 56.496 262.114 56.416 261.72 56.352C261.325 56.288 260.93 56.2133 260.536 56.128C260.152 56.0427 259.8 55.92 259.48 55.76C259.16 55.5893 258.898 55.36 258.696 55.072C258.504 54.784 258.408 54.4 258.408 53.92C258.408 53.4613 258.536 53.0507 258.792 52.688C259.048 52.3253 259.421 52.0427 259.912 51.84C260.413 51.6267 261.021 51.52 261.736 51.52C262.28 51.52 262.824 51.5947 263.368 51.744C263.912 51.8827 264.36 52.0693 264.712 52.304L264.216 53.216C263.842 52.96 263.442 52.7787 263.016 52.672C262.589 52.5547 262.162 52.496 261.736 52.496C260.978 52.496 260.418 52.6293 260.056 52.896C259.704 53.152 259.528 53.4827 259.528 53.888C259.528 54.208 259.624 54.4587 259.816 54.64C260.018 54.8213 260.28 54.9653 260.6 55.072C260.93 55.168 261.288 55.248 261.672 55.312C262.066 55.376 262.456 55.456 262.84 55.552C263.234 55.6373 263.592 55.76 263.912 55.92C264.242 56.0693 264.504 56.288 264.696 56.576C264.898 56.8533 265 57.2213 265 57.68C265 58.1707 264.861 58.5973 264.584 58.96C264.317 59.312 263.922 59.5893 263.4 59.792C262.888 59.984 262.264 60.08 261.528 60.08ZM267.084 60V51.6H268.22V60H267.084ZM267.66 49.744C267.425 49.744 267.228 49.664 267.068 49.504C266.908 49.344 266.828 49.152 266.828 48.928C266.828 48.704 266.908 48.5173 267.068 48.368C267.228 48.208 267.425 48.128 267.66 48.128C267.895 48.128 268.092 48.2027 268.252 48.352C268.412 48.5013 268.492 48.688 268.492 48.912C268.492 49.1467 268.412 49.344 268.252 49.504C268.103 49.664 267.905 49.744 267.66 49.744ZM271.381 60V48.128H272.517V60H271.381ZM282.521 60.08C281.732 60.08 281.124 59.8667 280.697 59.44C280.271 59.0133 280.057 58.4107 280.057 57.632V49.744H281.193V57.568C281.193 58.0587 281.316 58.4373 281.561 58.704C281.817 58.9707 282.18 59.104 282.649 59.104C283.151 59.104 283.567 58.96 283.897 58.672L284.297 59.488C284.073 59.6907 283.801 59.84 283.481 59.936C283.172 60.032 282.852 60.08 282.521 60.08ZM278.553 52.544V51.6H283.753V52.544H278.553ZM291.629 60V58.144L291.581 57.84V54.736C291.581 54.0213 291.379 53.472 290.973 53.088C290.579 52.704 289.987 52.512 289.197 52.512C288.653 52.512 288.136 52.6027 287.645 52.784C287.155 52.9653 286.739 53.2053 286.397 53.504L285.885 52.656C286.312 52.2933 286.824 52.016 287.421 51.824C288.019 51.6213 288.648 51.52 289.309 51.52C290.397 51.52 291.235 51.792 291.821 52.336C292.419 52.8693 292.717 53.6853 292.717 54.784V60H291.629ZM288.733 60.08C288.104 60.08 287.555 59.9787 287.085 59.776C286.627 59.5627 286.275 59.2747 286.029 58.912C285.784 58.5387 285.661 58.112 285.661 57.632C285.661 57.1947 285.763 56.8 285.965 56.448C286.179 56.0853 286.52 55.7973 286.989 55.584C287.469 55.36 288.109 55.248 288.909 55.248H291.805V56.096H288.941C288.131 56.096 287.565 56.24 287.245 56.528C286.936 56.816 286.781 57.1733 286.781 57.6C286.781 58.08 286.968 58.464 287.341 58.752C287.715 59.04 288.237 59.184 288.909 59.184C289.549 59.184 290.099 59.04 290.557 58.752C291.027 58.4533 291.368 58.0267 291.581 57.472L291.837 58.256C291.624 58.8107 291.251 59.2533 290.717 59.584C290.195 59.9147 289.533 60.08 288.733 60.08ZM300.091 51.52C300.773 51.52 301.371 51.6533 301.883 51.92C302.405 52.176 302.811 52.5707 303.099 53.104C303.397 53.6373 303.547 54.3093 303.547 55.12V60H302.411V55.232C302.411 54.3467 302.187 53.68 301.739 53.232C301.301 52.7733 300.683 52.544 299.883 52.544C299.285 52.544 298.763 52.6667 298.315 52.912C297.877 53.1467 297.536 53.4933 297.291 53.952C297.056 54.4 296.939 54.944 296.939 55.584V60H295.803V51.6H296.891V53.904L296.715 53.472C296.981 52.864 297.408 52.3893 297.995 52.048C298.581 51.696 299.28 51.52 300.091 51.52ZM309.959 60.08C309.159 60.08 308.439 59.8987 307.799 59.536C307.17 59.1733 306.674 58.672 306.311 58.032C305.949 57.3813 305.767 56.6347 305.767 55.792C305.767 54.9387 305.949 54.192 306.311 53.552C306.674 52.912 307.17 52.416 307.799 52.064C308.439 51.7013 309.159 51.52 309.959 51.52C310.695 51.52 311.351 51.6853 311.927 52.016C312.514 52.3467 312.978 52.832 313.319 53.472C313.671 54.1013 313.847 54.8747 313.847 55.792C313.847 56.6987 313.677 57.472 313.335 58.112C312.994 58.752 312.53 59.2427 311.943 59.584C311.367 59.9147 310.706 60.08 309.959 60.08ZM310.039 59.072C310.637 59.072 311.17 58.9387 311.639 58.672C312.119 58.3947 312.493 58.0107 312.759 57.52C313.037 57.0187 313.175 56.4427 313.175 55.792C313.175 55.1307 313.037 54.5547 312.759 54.064C312.493 53.5733 312.119 53.1947 311.639 52.928C311.17 52.6507 310.637 52.512 310.039 52.512C309.453 52.512 308.925 52.6507 308.455 52.928C307.986 53.1947 307.613 53.5733 307.335 54.064C307.058 54.5547 306.919 55.1307 306.919 55.792C306.919 56.4427 307.058 57.0187 307.335 57.52C307.613 58.0107 307.986 58.3947 308.455 58.672C308.925 58.9387 309.453 59.072 310.039 59.072ZM313.207 60V57.472L313.319 55.776L313.159 54.08V48.128H314.295V60H313.207ZM322.723 60V58.144L322.675 57.84V54.736C322.675 54.0213 322.472 53.472 322.067 53.088C321.672 52.704 321.08 52.512 320.291 52.512C319.747 52.512 319.23 52.6027 318.739 52.784C318.248 52.9653 317.832 53.2053 317.491 53.504L316.979 52.656C317.406 52.2933 317.918 52.016 318.515 51.824C319.112 51.6213 319.742 51.52 320.403 51.52C321.491 51.52 322.328 51.792 322.915 52.336C323.512 52.8693 323.811 53.6853 323.811 54.784V60H322.723ZM319.827 60.08C319.198 60.08 318.648 59.9787 318.179 59.776C317.72 59.5627 317.368 59.2747 317.123 58.912C316.878 58.5387 316.755 58.112 316.755 57.632C316.755 57.1947 316.856 56.8 317.059 56.448C317.272 56.0853 317.614 55.7973 318.083 55.584C318.563 55.36 319.203 55.248 320.003 55.248H322.899V56.096H320.035C319.224 56.096 318.659 56.24 318.339 56.528C318.03 56.816 317.875 57.1733 317.875 57.6C317.875 58.08 318.062 58.464 318.435 58.752C318.808 59.04 319.331 59.184 320.003 59.184C320.643 59.184 321.192 59.04 321.651 58.752C322.12 58.4533 322.462 58.0267 322.675 57.472L322.931 58.256C322.718 58.8107 322.344 59.2533 321.811 59.584C321.288 59.9147 320.627 60.08 319.827 60.08ZM100.928 80.08C100.128 80.08 99.408 79.8987 98.768 79.536C98.1387 79.1733 97.6427 78.672 97.28 78.032C96.9173 77.3813 96.736 76.6347 96.736 75.792C96.736 74.9387 96.9173 74.192 97.28 73.552C97.6427 72.912 98.1387 72.416 98.768 72.064C99.408 71.7013 100.128 71.52 100.928 71.52C101.664 71.52 102.32 71.6853 102.896 72.016C103.483 72.3467 103.947 72.832 104.288 73.472C104.64 74.1013 104.816 74.8747 104.816 75.792C104.816 76.6987 104.645 77.472 104.304 78.112C103.963 78.752 103.499 79.2427 102.912 79.584C102.336 79.9147 101.675 80.08 100.928 80.08ZM101.008 79.072C101.605 79.072 102.139 78.9387 102.608 78.672C103.088 78.3947 103.461 78.0107 103.728 77.52C104.005 77.0187 104.144 76.4427 104.144 75.792C104.144 75.1307 104.005 74.5547 103.728 74.064C103.461 73.5733 103.088 73.1947 102.608 72.928C102.139 72.6507 101.605 72.512 101.008 72.512C100.421 72.512 99.8933 72.6507 99.424 72.928C98.9547 73.1947 98.5813 73.5733 98.304 74.064C98.0267 74.5547 97.888 75.1307 97.888 75.792C97.888 76.4427 98.0267 77.0187 98.304 77.52C98.5813 78.0107 98.9547 78.3947 99.424 78.672C99.8933 78.9387 100.421 79.072 101.008 79.072ZM104.176 80V77.472L104.288 75.776L104.128 74.08V68.128H105.264V80H104.176ZM108.428 80V71.6H109.564V80H108.428ZM109.004 69.744C108.769 69.744 108.572 69.664 108.412 69.504C108.252 69.344 108.172 69.152 108.172 68.928C108.172 68.704 108.252 68.5173 108.412 68.368C108.572 68.208 108.769 68.128 109.004 68.128C109.238 68.128 109.436 68.2027 109.596 68.352C109.756 68.5013 109.836 68.688 109.836 68.912C109.836 69.1467 109.756 69.344 109.596 69.504C109.446 69.664 109.249 69.744 109.004 69.744ZM114.981 80.08C114.287 80.08 113.631 79.984 113.013 79.792C112.394 79.5893 111.909 79.3387 111.557 79.04L112.069 78.144C112.41 78.4 112.847 78.624 113.381 78.816C113.914 78.9973 114.474 79.088 115.061 79.088C115.861 79.088 116.437 78.9653 116.789 78.72C117.141 78.464 117.317 78.128 117.317 77.712C117.317 77.4027 117.215 77.1627 117.013 76.992C116.821 76.8107 116.565 76.6773 116.245 76.592C115.925 76.496 115.567 76.416 115.173 76.352C114.778 76.288 114.383 76.2133 113.989 76.128C113.605 76.0427 113.253 75.92 112.933 75.76C112.613 75.5893 112.351 75.36 112.149 75.072C111.957 74.784 111.861 74.4 111.861 73.92C111.861 73.4613 111.989 73.0507 112.245 72.688C112.501 72.3253 112.874 72.0427 113.365 71.84C113.866 71.6267 114.474 71.52 115.189 71.52C115.733 71.52 116.277 71.5947 116.821 71.744C117.365 71.8827 117.813 72.0693 118.165 72.304L117.669 73.216C117.295 72.96 116.895 72.7787 116.469 72.672C116.042 72.5547 115.615 72.496 115.189 72.496C114.431 72.496 113.871 72.6293 113.509 72.896C113.157 73.152 112.981 73.4827 112.981 73.888C112.981 74.208 113.077 74.4587 113.269 74.64C113.471 74.8213 113.733 74.9653 114.053 75.072C114.383 75.168 114.741 75.248 115.125 75.312C115.519 75.376 115.909 75.456 116.293 75.552C116.687 75.6373 117.045 75.76 117.365 75.92C117.695 76.0693 117.957 76.288 118.149 76.576C118.351 76.8533 118.453 77.2213 118.453 77.68C118.453 78.1707 118.314 78.5973 118.037 78.96C117.77 79.312 117.375 79.5893 116.853 79.792C116.341 79.984 115.717 80.08 114.981 80.08ZM123.193 80.08C122.404 80.08 121.796 79.8667 121.369 79.44C120.942 79.0133 120.729 78.4107 120.729 77.632V69.744H121.865V77.568C121.865 78.0587 121.988 78.4373 122.233 78.704C122.489 78.9707 122.852 79.104 123.321 79.104C123.822 79.104 124.238 78.96 124.569 78.672L124.969 79.488C124.745 79.6907 124.473 79.84 124.153 79.936C123.844 80.032 123.524 80.08 123.193 80.08ZM119.225 72.544V71.6H124.425V72.544H119.225ZM127.037 80V71.6H128.125V73.888L128.013 73.488C128.248 72.848 128.642 72.3627 129.197 72.032C129.752 71.6907 130.44 71.52 131.261 71.52V72.624C131.218 72.624 131.176 72.624 131.133 72.624C131.09 72.6133 131.048 72.608 131.005 72.608C130.12 72.608 129.426 72.88 128.925 73.424C128.424 73.9573 128.173 74.72 128.173 75.712V80H127.037ZM133.334 80V71.6H134.47V80H133.334ZM133.91 69.744C133.675 69.744 133.478 69.664 133.318 69.504C133.158 69.344 133.078 69.152 133.078 68.928C133.078 68.704 133.158 68.5173 133.318 68.368C133.478 68.208 133.675 68.128 133.91 68.128C134.145 68.128 134.342 68.2027 134.502 68.352C134.662 68.5013 134.742 68.688 134.742 68.912C134.742 69.1467 134.662 69.344 134.502 69.504C134.353 69.664 134.155 69.744 133.91 69.744ZM141.119 80.08C140.287 80.08 139.54 79.8987 138.879 79.536C138.228 79.1627 137.716 78.656 137.343 78.016C136.97 77.3653 136.783 76.624 136.783 75.792C136.783 74.9493 136.97 74.208 137.343 73.568C137.716 72.928 138.228 72.4267 138.879 72.064C139.54 71.7013 140.287 71.52 141.119 71.52C141.834 71.52 142.479 71.6587 143.055 71.936C143.631 72.2133 144.084 72.6293 144.415 73.184L143.567 73.76C143.279 73.3333 142.922 73.0187 142.495 72.816C142.068 72.6133 141.604 72.512 141.103 72.512C140.506 72.512 139.967 72.6507 139.487 72.928C139.007 73.1947 138.628 73.5733 138.351 74.064C138.074 74.5547 137.935 75.1307 137.935 75.792C137.935 76.4533 138.074 77.0293 138.351 77.52C138.628 78.0107 139.007 78.3947 139.487 78.672C139.967 78.9387 140.506 79.072 141.103 79.072C141.604 79.072 142.068 78.9707 142.495 78.768C142.922 78.5653 143.279 78.256 143.567 77.84L144.415 78.416C144.084 78.96 143.631 79.376 143.055 79.664C142.479 79.9413 141.834 80.08 141.119 80.08ZM149.396 80.08C148.607 80.08 147.999 79.8667 147.572 79.44C147.146 79.0133 146.932 78.4107 146.932 77.632V69.744H148.068V77.568C148.068 78.0587 148.191 78.4373 148.436 78.704C148.692 78.9707 149.055 79.104 149.524 79.104C150.026 79.104 150.442 78.96 150.772 78.672L151.172 79.488C150.948 79.6907 150.676 79.84 150.356 79.936C150.047 80.032 149.727 80.08 149.396 80.08ZM145.428 72.544V71.6H150.628V72.544H145.428ZM157.428 80V71.6H158.516V73.888L158.404 73.488C158.638 72.848 159.033 72.3627 159.588 72.032C160.142 71.6907 160.83 71.52 161.652 71.52V72.624C161.609 72.624 161.566 72.624 161.524 72.624C161.481 72.6133 161.438 72.608 161.396 72.608C160.51 72.608 159.817 72.88 159.316 73.424C158.814 73.9573 158.564 74.72 158.564 75.712V80H157.428ZM168.364 80V78.144L168.316 77.84V74.736C168.316 74.0213 168.113 73.472 167.708 73.088C167.313 72.704 166.721 72.512 165.932 72.512C165.388 72.512 164.87 72.6027 164.38 72.784C163.889 72.9653 163.473 73.2053 163.132 73.504L162.62 72.656C163.046 72.2933 163.558 72.016 164.156 71.824C164.753 71.6213 165.382 71.52 166.044 71.52C167.132 71.52 167.969 71.792 168.556 72.336C169.153 72.8693 169.452 73.6853 169.452 74.784V80H168.364ZM165.468 80.08C164.838 80.08 164.289 79.9787 163.82 79.776C163.361 79.5627 163.009 79.2747 162.764 78.912C162.518 78.5387 162.396 78.112 162.396 77.632C162.396 77.1947 162.497 76.8 162.7 76.448C162.913 76.0853 163.254 75.7973 163.724 75.584C164.204 75.36 164.844 75.248 165.644 75.248H168.54V76.096H165.676C164.865 76.096 164.3 76.24 163.98 76.528C163.67 76.816 163.516 77.1733 163.516 77.6C163.516 78.08 163.702 78.464 164.076 78.752C164.449 79.04 164.972 79.184 165.644 79.184C166.284 79.184 166.833 79.04 167.292 78.752C167.761 78.4533 168.102 78.0267 168.316 77.472L168.572 78.256C168.358 78.8107 167.985 79.2533 167.452 79.584C166.929 79.9147 166.268 80.08 165.468 80.08ZM183.033 71.52C183.716 71.52 184.308 71.6533 184.809 71.92C185.321 72.176 185.716 72.5707 185.993 73.104C186.281 73.6373 186.425 74.3093 186.425 75.12V80H185.289V75.232C185.289 74.3467 185.076 73.68 184.649 73.232C184.233 72.7733 183.641 72.544 182.873 72.544C182.297 72.544 181.796 72.6667 181.369 72.912C180.953 73.1467 180.628 73.4933 180.393 73.952C180.169 74.4 180.057 74.944 180.057 75.584V80H178.921V75.232C178.921 74.3467 178.708 73.68 178.281 73.232C177.854 72.7733 177.257 72.544 176.489 72.544C175.924 72.544 175.428 72.6667 175.001 72.912C174.574 73.1467 174.244 73.4933 174.009 73.952C173.785 74.4 173.673 74.944 173.673 75.584V80H172.537V71.6H173.625V73.872L173.449 73.472C173.705 72.864 174.116 72.3893 174.681 72.048C175.257 71.696 175.934 71.52 176.713 71.52C177.534 71.52 178.233 71.728 178.809 72.144C179.385 72.5493 179.758 73.1627 179.929 73.984L179.481 73.808C179.726 73.1253 180.158 72.576 180.777 72.16C181.406 71.7333 182.158 71.52 183.033 71.52ZM193.842 80.08C193.117 80.08 192.461 79.9147 191.874 79.584C191.287 79.2427 190.818 78.7573 190.466 78.128C190.125 77.488 189.954 76.7093 189.954 75.792C189.954 74.8747 190.125 74.1013 190.466 73.472C190.807 72.832 191.271 72.3467 191.858 72.016C192.445 71.6853 193.106 71.52 193.842 71.52C194.642 71.52 195.357 71.7013 195.986 72.064C196.626 72.416 197.127 72.9173 197.49 73.568C197.853 74.208 198.034 74.9493 198.034 75.792C198.034 76.6453 197.853 77.392 197.49 78.032C197.127 78.672 196.626 79.1733 195.986 79.536C195.357 79.8987 194.642 80.08 193.842 80.08ZM189.506 83.104V71.6H190.594V74.128L190.482 75.808L190.642 77.504V83.104H189.506ZM193.762 79.072C194.359 79.072 194.893 78.9387 195.362 78.672C195.831 78.3947 196.205 78.0107 196.482 77.52C196.759 77.0187 196.898 76.4427 196.898 75.792C196.898 75.1413 196.759 74.5707 196.482 74.08C196.205 73.5893 195.831 73.2053 195.362 72.928C194.893 72.6507 194.359 72.512 193.762 72.512C193.165 72.512 192.626 72.6507 192.146 72.928C191.677 73.2053 191.303 73.5893 191.026 74.08C190.759 74.5707 190.626 75.1413 190.626 75.792C190.626 76.4427 190.759 77.0187 191.026 77.52C191.303 78.0107 191.677 78.3947 192.146 78.672C192.626 78.9387 193.165 79.072 193.762 79.072ZM203.822 80.08C203.107 80.08 202.483 79.9467 201.95 79.68C201.416 79.4133 201 79.0133 200.702 78.48C200.414 77.9467 200.27 77.28 200.27 76.48V71.6H201.406V76.352C201.406 77.248 201.624 77.9253 202.062 78.384C202.51 78.832 203.134 79.056 203.934 79.056C204.52 79.056 205.027 78.9387 205.454 78.704C205.891 78.4587 206.222 78.1067 206.446 77.648C206.68 77.1893 206.798 76.64 206.798 76V71.6H207.934V80H206.846V77.696L207.022 78.112C206.755 78.7307 206.339 79.216 205.774 79.568C205.219 79.9093 204.568 80.08 203.822 80.08ZM211.1 80V71.6H212.188V73.888L212.076 73.488C212.31 72.848 212.705 72.3627 213.26 72.032C213.814 71.6907 214.502 71.52 215.324 71.52V72.624C215.281 72.624 215.238 72.624 215.196 72.624C215.153 72.6133 215.11 72.608 215.068 72.608C214.182 72.608 213.489 72.88 212.988 73.424C212.486 73.9573 212.236 74.72 212.236 75.712V80H211.1ZM225.181 80.08C224.466 80.08 223.842 79.9467 223.309 79.68C222.776 79.4133 222.36 79.0133 222.061 78.48C221.773 77.9467 221.629 77.28 221.629 76.48V71.6H222.765V76.352C222.765 77.248 222.984 77.9253 223.421 78.384C223.869 78.832 224.493 79.056 225.293 79.056C225.88 79.056 226.386 78.9387 226.813 78.704C227.25 78.4587 227.581 78.1067 227.805 77.648C228.04 77.1893 228.157 76.64 228.157 76V71.6H229.293V80H228.205V77.696L228.381 78.112C228.114 78.7307 227.698 79.216 227.133 79.568C226.578 79.9093 225.928 80.08 225.181 80.08ZM232.571 80.08C232.336 80.08 232.134 79.9947 231.963 79.824C231.803 79.6533 231.723 79.4453 231.723 79.2C231.723 78.944 231.803 78.736 231.963 78.576C232.134 78.416 232.336 78.336 232.571 78.336C232.806 78.336 233.003 78.416 233.163 78.576C233.334 78.736 233.419 78.944 233.419 79.2C233.419 79.4453 233.334 79.6533 233.163 79.824C233.003 79.9947 232.806 80.08 232.571 80.08ZM240.186 80.08C239.46 80.08 238.804 79.9147 238.218 79.584C237.631 79.2427 237.162 78.7573 236.81 78.128C236.468 77.488 236.298 76.7093 236.298 75.792C236.298 74.8747 236.468 74.1013 236.81 73.472C237.151 72.832 237.615 72.3467 238.202 72.016C238.788 71.6853 239.45 71.52 240.186 71.52C240.986 71.52 241.7 71.7013 242.33 72.064C242.97 72.416 243.471 72.9173 243.834 73.568C244.196 74.208 244.378 74.9493 244.378 75.792C244.378 76.6453 244.196 77.392 243.834 78.032C243.471 78.672 242.97 79.1733 242.33 79.536C241.7 79.8987 240.986 80.08 240.186 80.08ZM235.85 83.104V71.6H236.938V74.128L236.826 75.808L236.986 77.504V83.104H235.85ZM240.106 79.072C240.703 79.072 241.236 78.9387 241.706 78.672C242.175 78.3947 242.548 78.0107 242.826 77.52C243.103 77.0187 243.242 76.4427 243.242 75.792C243.242 75.1413 243.103 74.5707 242.826 74.08C242.548 73.5893 242.175 73.2053 241.706 72.928C241.236 72.6507 240.703 72.512 240.106 72.512C239.508 72.512 238.97 72.6507 238.49 72.928C238.02 73.2053 237.647 73.5893 237.37 74.08C237.103 74.5707 236.97 75.1413 236.97 75.792C236.97 76.4427 237.103 77.0187 237.37 77.52C237.647 78.0107 238.02 78.3947 238.49 78.672C238.97 78.9387 239.508 79.072 240.106 79.072ZM249.921 80V79.184L254.577 74.624C255.004 74.208 255.324 73.8453 255.537 73.536C255.75 73.216 255.894 72.9173 255.969 72.64C256.044 72.3627 256.081 72.1013 256.081 71.856C256.081 71.2053 255.857 70.6933 255.409 70.32C254.972 69.9467 254.321 69.76 253.457 69.76C252.796 69.76 252.209 69.8613 251.697 70.064C251.196 70.2667 250.764 70.5813 250.401 71.008L249.585 70.304C250.022 69.792 250.582 69.3973 251.265 69.12C251.948 68.8427 252.71 68.704 253.553 68.704C254.31 68.704 254.966 68.8267 255.521 69.072C256.076 69.3067 256.502 69.6533 256.801 70.112C257.11 70.5707 257.265 71.1093 257.265 71.728C257.265 72.0907 257.212 72.448 257.105 72.8C257.009 73.152 256.828 73.5253 256.561 73.92C256.305 74.304 255.926 74.7413 255.425 75.232L251.153 79.424L250.833 78.976H257.777V80H249.921ZM258.671 77.056V76.224L264.607 68.8H265.887L259.999 76.224L259.375 76.032H268.383V77.056H258.671ZM264.991 80V77.056L265.023 76.032V73.44H266.143V80H264.991ZM269.249 77.056V76.224L275.185 68.8H276.465L270.577 76.224L269.953 76.032H278.961V77.056H269.249ZM275.569 80V77.056L275.601 76.032V73.44H276.721V80H275.569ZM283.383 68.704C284.375 68.704 285.212 68.928 285.895 69.376C286.577 69.8133 287.095 70.448 287.447 71.28C287.799 72.112 287.975 73.12 287.975 74.304C287.975 75.5627 287.756 76.624 287.319 77.488C286.892 78.352 286.295 79.0027 285.527 79.44C284.759 79.8773 283.868 80.096 282.855 80.096C282.353 80.096 281.873 80.048 281.414 79.952C280.967 79.856 280.561 79.7013 280.199 79.488L280.663 78.56C280.951 78.752 281.281 78.8907 281.655 78.976C282.039 79.0507 282.433 79.088 282.839 79.088C284.044 79.088 285.004 78.704 285.719 77.936C286.444 77.168 286.807 76.0213 286.807 74.496C286.807 74.2507 286.791 73.9573 286.759 73.616C286.737 73.2747 286.679 72.9333 286.583 72.592L286.983 72.896C286.876 73.4507 286.647 73.9253 286.295 74.32C285.953 74.704 285.527 74.9973 285.015 75.2C284.513 75.4027 283.953 75.504 283.335 75.504C282.599 75.504 281.943 75.3653 281.367 75.088C280.801 74.8107 280.359 74.4213 280.039 73.92C279.719 73.4187 279.559 72.8267 279.559 72.144C279.559 71.44 279.724 70.832 280.055 70.32C280.385 69.808 280.839 69.4133 281.414 69.136C282.001 68.848 282.657 68.704 283.383 68.704ZM283.431 69.68C282.897 69.68 282.423 69.7813 282.007 69.984C281.601 70.176 281.281 70.4533 281.047 70.816C280.812 71.1787 280.695 71.6107 280.695 72.112C280.695 72.848 280.945 73.4347 281.447 73.872C281.959 74.3093 282.647 74.528 283.511 74.528C284.087 74.528 284.588 74.4213 285.015 74.208C285.452 73.9947 285.788 73.7013 286.023 73.328C286.268 72.9547 286.391 72.5387 286.391 72.08C286.391 71.664 286.279 71.2747 286.055 70.912C285.831 70.5493 285.5 70.256 285.063 70.032C284.625 69.7973 284.081 69.68 283.431 69.68ZM289.437 80V79.184L294.093 74.624C294.519 74.208 294.839 73.8453 295.053 73.536C295.266 73.216 295.41 72.9173 295.485 72.64C295.559 72.3627 295.597 72.1013 295.597 71.856C295.597 71.2053 295.373 70.6933 294.925 70.32C294.487 69.9467 293.837 69.76 292.973 69.76C292.311 69.76 291.725 69.8613 291.213 70.064C290.711 70.2667 290.279 70.5813 289.917 71.008L289.101 70.304C289.538 69.792 290.098 69.3973 290.781 69.12C291.463 68.8427 292.226 68.704 293.069 68.704C293.826 68.704 294.482 68.8267 295.037 69.072C295.591 69.3067 296.018 69.6533 296.317 70.112C296.626 70.5707 296.781 71.1093 296.781 71.728C296.781 72.0907 296.727 72.448 296.621 72.8C296.525 73.152 296.343 73.5253 296.077 73.92C295.821 74.304 295.442 74.7413 294.941 75.232L290.669 79.424L290.349 78.976H297.293V80H289.437ZM302.274 80.096C301.474 80.096 300.712 79.968 299.986 79.712C299.261 79.4453 298.685 79.0933 298.258 78.656L298.818 77.744C299.17 78.1173 299.65 78.4267 300.258 78.672C300.877 78.9173 301.544 79.04 302.258 79.04C303.208 79.04 303.928 78.832 304.418 78.416C304.92 77.9893 305.17 77.4347 305.17 76.752C305.17 76.272 305.053 75.8613 304.818 75.52C304.594 75.168 304.21 74.896 303.666 74.704C303.122 74.512 302.376 74.416 301.426 74.416H299.042L299.618 68.8H305.746V69.824H300.082L300.674 69.264L300.178 73.968L299.586 73.392H301.682C302.813 73.392 303.72 73.5307 304.402 73.808C305.085 74.0853 305.576 74.4747 305.874 74.976C306.184 75.4667 306.338 76.0427 306.338 76.704C306.338 77.3333 306.189 77.9093 305.89 78.432C305.592 78.944 305.144 79.3493 304.546 79.648C303.949 79.9467 303.192 80.096 302.274 80.096Z" fill="white" fill-opacity="0.8"/>
</svg>
