<svg width="46" height="51" viewBox="0 0 46 51" fill="none" xmlns="http://www.w3.org/2000/svg">
<path d="M25.7062 49.8508C24.2094 51.3831 21.7786 51.3831 20.2818 49.8508L1.12261 30.2378C-0.374203 28.7055 -0.374203 26.2171 1.12261 24.6848C2.61942 23.1526 5.05024 23.1526 6.54705 24.6848L23 41.5275L39.4529 24.6971C40.9498 23.1648 43.3806 23.1648 44.8774 24.6971C46.3742 26.2294 46.3742 28.7178 44.8774 30.25L25.7182 49.8631L25.7062 49.8508ZM44.8654 6.70214L25.7062 26.3152C24.2094 27.8474 21.7786 27.8474 20.2818 26.3152L1.12261 6.70214C-0.374203 5.16987 -0.374203 2.68147 1.12261 1.1492C2.61942 -0.383067 5.05024 -0.383067 6.54705 1.1492L23 17.9919L39.4529 1.16146C40.9498 -0.370809 43.3806 -0.370809 44.8774 1.16146C46.3742 2.69373 46.3742 5.18213 44.8774 6.7144L44.8654 6.70214Z" fill="white"/>
</svg>
