<svg id="visual" viewBox="0 0 900 530" width="900" height="530" xmlns="http://www.w3.org/2000/svg" xmlns:xlink="http://www.w3.org/1999/xlink" version="1.1"><rect x="0" y="0" width="900" height="530" fill="#333"></rect><path d="M0 369L129 385L257 360L386 401L514 398L643 394L771 363L900 382L900 531L771 531L643 531L514 531L386 531L257 531L129 531L0 531Z" fill="#ffffff"></path><path d="M0 422L129 423L257 432L386 392L514 439L643 392L771 429L900 396L900 531L771 531L643 531L514 531L386 531L257 531L129 531L0 531Z" fill="#c7c7c7"></path><path d="M0 442L129 432L257 419L386 461L514 426L643 467L771 433L900 465L900 531L771 531L643 531L514 531L386 531L257 531L129 531L0 531Z" fill="#929292"></path><path d="M0 460L129 459L257 446L386 455L514 462L643 457L771 454L900 468L900 531L771 531L643 531L514 531L386 531L257 531L129 531L0 531Z" fill="#606060"></path><path d="M0 492L129 510L257 496L386 491L514 478L643 496L771 496L900 483L900 531L771 531L643 531L514 531L386 531L257 531L129 531L0 531Z" fill="#333333"></path></svg>