<?xml version="1.0" standalone="no"?>
<svg viewBox="0 0 200 200" xmlns="http://www.w3.org/2000/svg">
  <path fill="#666666" d="M30.3,-53.1C38.5,-47.7,43.8,-38,54.9,-28.5C66,-18.9,82.8,-9.5,84.4,0.9C86,11.3,72.4,22.7,62.5,34.1C52.5,45.6,46.1,57.2,36.3,62.7C26.5,68.2,13.3,67.5,-1,69.2C-15.2,71,-30.5,75.1,-44.6,72.1C-58.7,69.1,-71.6,58.9,-76.3,45.7C-81.1,32.5,-77.7,16.3,-72.3,3.1C-67,-10.1,-59.6,-20.1,-55.4,-34.3C-51.2,-48.4,-50.1,-66.7,-41.4,-71.8C-32.7,-76.9,-16.4,-68.9,-2.7,-64.3C11,-59.6,22.1,-58.5,30.3,-53.1Z" transform="translate(100 100)" />
</svg>
