<svg width="331" height="99" viewBox="0 0 331 99" fill="none" xmlns="http://www.w3.org/2000/svg">
<path d="M60.752 62.384C57.3813 62.384 54.2667 61.8293 51.408 60.72C48.5493 59.568 46.0747 57.968 43.984 55.92C41.8933 53.872 40.2507 51.4613 39.056 48.688C37.904 45.9147 37.328 42.8853 37.328 39.6C37.328 36.3147 37.904 33.2853 39.056 30.512C40.2507 27.7387 41.8933 25.328 43.984 23.28C46.1173 21.232 48.6133 19.6533 51.472 18.544C54.3307 17.392 57.4453 16.816 60.816 16.816C64.0587 16.816 67.1093 17.3707 69.968 18.48C72.8267 19.5467 75.2373 21.168 77.2 23.344L74.192 26.352C72.3573 24.4747 70.3307 23.1307 68.112 22.32C65.8933 21.4667 63.504 21.04 60.944 21.04C58.256 21.04 55.76 21.5093 53.456 22.448C51.152 23.344 49.1467 24.6453 47.44 26.352C45.7333 28.016 44.3893 29.9787 43.408 32.24C42.4693 34.4587 42 36.912 42 39.6C42 42.288 42.4693 44.7627 43.408 47.024C44.3893 49.2427 45.7333 51.2053 47.44 52.912C49.1467 54.576 51.152 55.8773 53.456 56.816C55.76 57.712 58.256 58.16 60.944 58.16C63.504 58.16 65.8933 57.7333 68.112 56.88C70.3307 56.0267 72.3573 54.6613 74.192 52.784L77.2 55.792C75.2373 57.968 72.8267 59.6107 69.968 60.72C67.1093 61.8293 64.0373 62.384 60.752 62.384ZM98.532 62.32C95.2893 62.32 92.3667 61.5947 89.764 60.144C87.204 58.6507 85.1773 56.624 83.684 54.064C82.1907 51.4613 81.444 48.496 81.444 45.168C81.444 41.7973 82.1907 38.832 83.684 36.272C85.1773 33.712 87.204 31.7067 89.764 30.256C92.324 28.8053 95.2467 28.08 98.532 28.08C101.86 28.08 104.804 28.8053 107.364 30.256C109.967 31.7067 111.993 33.712 113.444 36.272C114.937 38.832 115.684 41.7973 115.684 45.168C115.684 48.496 114.937 51.4613 113.444 54.064C111.993 56.624 109.967 58.6507 107.364 60.144C104.761 61.5947 101.817 62.32 98.532 62.32ZM98.532 58.288C100.964 58.288 103.119 57.7547 104.996 56.688C106.873 55.5787 108.345 54.0427 109.412 52.08C110.521 50.0747 111.076 47.7707 111.076 45.168C111.076 42.5227 110.521 40.2187 109.412 38.256C108.345 36.2933 106.873 34.7787 104.996 33.712C103.119 32.6027 100.985 32.048 98.596 32.048C96.2067 32.048 94.0733 32.6027 92.196 33.712C90.3187 34.7787 88.8253 36.2933 87.716 38.256C86.6067 40.2187 86.052 42.5227 86.052 45.168C86.052 47.7707 86.6067 50.0747 87.716 52.08C88.8253 54.0427 90.3187 55.5787 92.196 56.688C94.0733 57.7547 96.1853 58.288 98.532 58.288ZM142.113 28.08C144.844 28.08 147.233 28.6133 149.281 29.68C151.372 30.704 152.993 32.2827 154.145 34.416C155.34 36.5493 155.937 39.2373 155.937 42.48V62H151.393V42.928C151.393 39.3867 150.497 36.72 148.705 34.928C146.956 33.0933 144.481 32.176 141.281 32.176C138.892 32.176 136.801 32.6667 135.009 33.648C133.26 34.5867 131.894 35.9733 130.913 37.808C129.974 39.6 129.505 41.776 129.505 44.336V62H124.961V28.4H129.313V37.616L128.609 35.888C129.676 33.456 131.382 31.5573 133.729 30.192C136.076 28.784 138.87 28.08 142.113 28.08ZM178.835 62.32C175.678 62.32 173.246 61.4667 171.539 59.76C169.832 58.0533 168.979 55.6427 168.979 52.528V20.976H173.523V52.272C173.523 54.2347 174.014 55.7493 174.995 56.816C176.019 57.8827 177.47 58.416 179.347 58.416C181.352 58.416 183.016 57.84 184.339 56.688L185.939 59.952C185.043 60.7627 183.955 61.36 182.675 61.744C181.438 62.128 180.158 62.32 178.835 62.32ZM162.963 32.176V28.4H183.763V32.176H162.963ZM215.267 62V54.576L215.075 53.36V40.944C215.075 38.0853 214.264 35.888 212.643 34.352C211.064 32.816 208.696 32.048 205.539 32.048C203.363 32.048 201.294 32.4107 199.331 33.136C197.368 33.8613 195.704 34.8213 194.339 36.016L192.291 32.624C193.998 31.1733 196.046 30.064 198.435 29.296C200.824 28.4853 203.342 28.08 205.987 28.08C210.339 28.08 213.688 29.168 216.035 31.344C218.424 33.4773 219.619 36.7413 219.619 41.136V62H215.267ZM203.683 62.32C201.166 62.32 198.968 61.9147 197.091 61.104C195.256 60.2507 193.848 59.0987 192.867 57.648C191.886 56.1547 191.395 54.448 191.395 52.528C191.395 50.7787 191.8 49.2 192.611 47.792C193.464 46.3413 194.83 45.1893 196.707 44.336C198.627 43.44 201.187 42.992 204.387 42.992H215.971V46.384H204.515C201.272 46.384 199.011 46.96 197.731 48.112C196.494 49.264 195.875 50.6933 195.875 52.4C195.875 54.32 196.622 55.856 198.115 57.008C199.608 58.16 201.699 58.736 204.387 58.736C206.947 58.736 209.144 58.16 210.979 57.008C212.856 55.8133 214.222 54.1067 215.075 51.888L216.099 55.024C215.246 57.2427 213.752 59.0133 211.619 60.336C209.528 61.6587 206.883 62.32 203.683 62.32ZM245.913 62.32C242.585 62.32 239.598 61.5947 236.953 60.144C234.35 58.6507 232.302 56.624 230.809 54.064C229.316 51.4613 228.569 48.496 228.569 45.168C228.569 41.7973 229.316 38.832 230.809 36.272C232.302 33.712 234.35 31.7067 236.953 30.256C239.598 28.8053 242.585 28.08 245.913 28.08C248.772 28.08 251.353 28.6347 253.657 29.744C255.961 30.8533 257.774 32.5173 259.097 34.736L255.705 37.04C254.553 35.3333 253.124 34.0747 251.417 33.264C249.71 32.4533 247.854 32.048 245.849 32.048C243.46 32.048 241.305 32.6027 239.385 33.712C237.465 34.7787 235.95 36.2933 234.841 38.256C233.732 40.2187 233.177 42.5227 233.177 45.168C233.177 47.8133 233.732 50.1173 234.841 52.08C235.95 54.0427 237.465 55.5787 239.385 56.688C241.305 57.7547 243.46 58.288 245.849 58.288C247.854 58.288 249.71 57.8827 251.417 57.072C253.124 56.2613 254.553 55.024 255.705 53.36L259.097 55.664C257.774 57.84 255.961 59.504 253.657 60.656C251.353 61.7653 248.772 62.32 245.913 62.32ZM279.023 62.32C275.865 62.32 273.433 61.4667 271.727 59.76C270.02 58.0533 269.167 55.6427 269.167 52.528V20.976H273.711V52.272C273.711 54.2347 274.201 55.7493 275.183 56.816C276.207 57.8827 277.657 58.416 279.535 58.416C281.54 58.416 283.204 57.84 284.527 56.688L286.127 59.952C285.231 60.7627 284.143 61.36 282.863 61.744C281.625 62.128 280.345 62.32 279.023 62.32ZM263.151 32.176V28.4H283.951V32.176H263.151Z" fill="white"/>
<line y1="98.5" x2="331" y2="98.5" stroke="white"/>
</svg>
