<svg width="241" height="16" viewBox="0 0 241 16" fill="none" xmlns="http://www.w3.org/2000/svg">
<path d="M5.434 13.078C4.74933 13.078 4.11667 12.9653 3.536 12.74C2.95533 12.506 2.45267 12.181 2.028 11.765C1.60333 11.349 1.26967 10.8593 1.027 10.296C0.793 9.73267 0.676 9.11733 0.676 8.45C0.676 7.78267 0.793 7.16733 1.027 6.604C1.26967 6.04067 1.60333 5.551 2.028 5.135C2.46133 4.719 2.96833 4.39833 3.549 4.173C4.12967 3.939 4.76233 3.822 5.447 3.822C6.10567 3.822 6.72533 3.93467 7.306 4.16C7.88667 4.37667 8.37633 4.706 8.775 5.148L8.164 5.759C7.79133 5.37767 7.37967 5.10467 6.929 4.94C6.47833 4.76667 5.993 4.68 5.473 4.68C4.927 4.68 4.42 4.77533 3.952 4.966C3.484 5.148 3.07667 5.41233 2.73 5.759C2.38333 6.097 2.11033 6.49567 1.911 6.955C1.72033 7.40567 1.625 7.904 1.625 8.45C1.625 8.996 1.72033 9.49867 1.911 9.958C2.11033 10.4087 2.38333 10.8073 2.73 11.154C3.07667 11.492 3.484 11.7563 3.952 11.947C4.42 12.129 4.927 12.22 5.473 12.22C5.993 12.22 6.47833 12.1333 6.929 11.96C7.37967 11.7867 7.79133 11.5093 8.164 11.128L8.775 11.739C8.37633 12.181 7.88667 12.5147 7.306 12.74C6.72533 12.9653 6.10133 13.078 5.434 13.078ZM13.1081 13.065C12.4494 13.065 11.8557 12.9177 11.3271 12.623C10.8071 12.3197 10.3954 11.908 10.0921 11.388C9.78873 10.8593 9.63706 10.257 9.63706 9.581C9.63706 8.89633 9.78873 8.294 10.0921 7.774C10.3954 7.254 10.8071 6.84667 11.3271 6.552C11.8471 6.25733 12.4407 6.11 13.1081 6.11C13.7841 6.11 14.3821 6.25733 14.9021 6.552C15.4307 6.84667 15.8424 7.254 16.1371 7.774C16.4404 8.294 16.5921 8.89633 16.5921 9.581C16.5921 10.257 16.4404 10.8593 16.1371 11.388C15.8424 11.908 15.4307 12.3197 14.9021 12.623C14.3734 12.9177 13.7754 13.065 13.1081 13.065ZM13.1081 12.246C13.6021 12.246 14.0397 12.1377 14.4211 11.921C14.8024 11.6957 15.1014 11.3837 15.3181 10.985C15.5434 10.5777 15.6561 10.1097 15.6561 9.581C15.6561 9.04367 15.5434 8.57567 15.3181 8.177C15.1014 7.77833 14.8024 7.47067 14.4211 7.254C14.0397 7.02867 13.6064 6.916 13.1211 6.916C12.6357 6.916 12.2024 7.02867 11.8211 7.254C11.4397 7.47067 11.1364 7.77833 10.9111 8.177C10.6857 8.57567 10.5731 9.04367 10.5731 9.581C10.5731 10.1097 10.6857 10.5777 10.9111 10.985C11.1364 11.3837 11.4397 11.6957 11.8211 11.921C12.2024 12.1377 12.6314 12.246 13.1081 12.246ZM21.9995 13.065C21.4101 13.065 20.8771 12.9307 20.4005 12.662C19.9238 12.3847 19.5425 11.9903 19.2565 11.479C18.9791 10.959 18.8405 10.3263 18.8405 9.581C18.8405 8.83567 18.9791 8.20733 19.2565 7.696C19.5338 7.176 19.9108 6.78167 20.3875 6.513C20.8641 6.24433 21.4015 6.11 21.9995 6.11C22.6495 6.11 23.2301 6.25733 23.7415 6.552C24.2615 6.838 24.6688 7.24533 24.9635 7.774C25.2581 8.294 25.4055 8.89633 25.4055 9.581C25.4055 10.2743 25.2581 10.881 24.9635 11.401C24.6688 11.921 24.2615 12.3283 23.7415 12.623C23.2301 12.9177 22.6495 13.065 21.9995 13.065ZM18.4765 15.522V6.175H19.3605V8.229L19.2695 9.594L19.3995 10.972V15.522H18.4765ZM21.9345 12.246C22.4198 12.246 22.8531 12.1377 23.2345 11.921C23.6158 11.6957 23.9191 11.3837 24.1445 10.985C24.3698 10.5777 24.4825 10.1097 24.4825 9.581C24.4825 9.05233 24.3698 8.58867 24.1445 8.19C23.9191 7.79133 23.6158 7.47933 23.2345 7.254C22.8531 7.02867 22.4198 6.916 21.9345 6.916C21.4491 6.916 21.0115 7.02867 20.6215 7.254C20.2401 7.47933 19.9368 7.79133 19.7115 8.19C19.4948 8.58867 19.3865 9.05233 19.3865 9.581C19.3865 10.1097 19.4948 10.5777 19.7115 10.985C19.9368 11.3837 20.2401 11.6957 20.6215 11.921C21.0115 12.1377 21.4491 12.246 21.9345 12.246ZM27.1486 15.587C26.8279 15.587 26.5202 15.535 26.2256 15.431C25.9396 15.327 25.6926 15.171 25.4846 14.963L25.9136 14.274C26.0869 14.4387 26.2732 14.5643 26.4726 14.651C26.6806 14.7463 26.9102 14.794 27.1616 14.794C27.4649 14.794 27.7249 14.7073 27.9416 14.534C28.1669 14.3693 28.3792 14.0747 28.5786 13.65L29.0206 12.649L29.1246 12.506L31.9326 6.175H32.8426L29.4236 13.819C29.2329 14.261 29.0206 14.612 28.7866 14.872C28.5612 15.132 28.3142 15.314 28.0456 15.418C27.7769 15.5307 27.4779 15.587 27.1486 15.587ZM28.9686 13.195L25.8226 6.175H26.7846L29.5666 12.441L28.9686 13.195ZM34.1425 13V6.175H35.0265V8.034L34.9355 7.709C35.1261 7.189 35.4468 6.79467 35.8975 6.526C36.3481 6.24867 36.9071 6.11 37.5745 6.11V7.007C37.5398 7.007 37.5051 7.007 37.4705 7.007C37.4358 6.99833 37.4011 6.994 37.3665 6.994C36.6471 6.994 36.0838 7.215 35.6765 7.657C35.2691 8.09033 35.0655 8.71 35.0655 9.516V13H34.1425ZM39.2587 13V6.175H40.1817V13H39.2587ZM39.7267 4.667C39.536 4.667 39.3757 4.602 39.2457 4.472C39.1157 4.342 39.0507 4.186 39.0507 4.004C39.0507 3.822 39.1157 3.67033 39.2457 3.549C39.3757 3.419 39.536 3.354 39.7267 3.354C39.9173 3.354 40.0777 3.41467 40.2077 3.536C40.3377 3.65733 40.4027 3.809 40.4027 3.991C40.4027 4.18167 40.3377 4.342 40.2077 4.472C40.0863 4.602 39.926 4.667 39.7267 4.667ZM45.6619 15.587C45.0379 15.587 44.4399 15.496 43.8679 15.314C43.2959 15.132 42.8322 14.872 42.4769 14.534L42.9449 13.832C43.2656 14.118 43.6599 14.3433 44.1279 14.508C44.6046 14.6813 45.1072 14.768 45.6359 14.768C46.5026 14.768 47.1396 14.5643 47.5469 14.157C47.9542 13.7583 48.1579 13.1343 48.1579 12.285V10.582L48.2879 9.412L48.1969 8.242V6.175H49.0809V12.168C49.0809 13.3467 48.7906 14.209 48.2099 14.755C47.6379 15.3097 46.7886 15.587 45.6619 15.587ZM45.4929 12.74C44.8429 12.74 44.2579 12.6013 43.7379 12.324C43.2179 12.038 42.8062 11.6437 42.5029 11.141C42.2082 10.6383 42.0609 10.062 42.0609 9.412C42.0609 8.762 42.2082 8.19 42.5029 7.696C42.8062 7.19333 43.2179 6.80333 43.7379 6.526C44.2579 6.24867 44.8429 6.11 45.4929 6.11C46.0996 6.11 46.6456 6.23567 47.1309 6.487C47.6162 6.73833 48.0019 7.111 48.2879 7.605C48.5739 8.099 48.7169 8.70133 48.7169 9.412C48.7169 10.1227 48.5739 10.725 48.2879 11.219C48.0019 11.713 47.6162 12.09 47.1309 12.35C46.6456 12.61 46.0996 12.74 45.4929 12.74ZM45.5839 11.921C46.0866 11.921 46.5329 11.817 46.9229 11.609C47.3129 11.3923 47.6206 11.0977 47.8459 10.725C48.0712 10.3437 48.1839 9.906 48.1839 9.412C48.1839 8.918 48.0712 8.48467 47.8459 8.112C47.6206 7.73933 47.3129 7.449 46.9229 7.241C46.5329 7.02433 46.0866 6.916 45.5839 6.916C45.0899 6.916 44.6436 7.02433 44.2449 7.241C43.8549 7.449 43.5472 7.73933 43.3219 8.112C43.1052 8.48467 42.9969 8.918 42.9969 9.412C42.9969 9.906 43.1052 10.3437 43.3219 10.725C43.5472 11.0977 43.8549 11.3923 44.2449 11.609C44.6436 11.817 45.0899 11.921 45.5839 11.921ZM55.1333 6.11C55.688 6.11 56.1733 6.21833 56.5893 6.435C57.014 6.643 57.3433 6.96367 57.5773 7.397C57.82 7.83033 57.9413 8.37633 57.9413 9.035V13H57.0183V9.126C57.0183 8.40667 56.8363 7.865 56.4723 7.501C56.117 7.12833 55.6143 6.942 54.9643 6.942C54.479 6.942 54.0543 7.04167 53.6903 7.241C53.335 7.43167 53.0576 7.71333 52.8583 8.086C52.6676 8.45 52.5723 8.892 52.5723 9.412V13H51.6493V3.354H52.5723V8.047L52.3903 7.696C52.607 7.202 52.9536 6.81633 53.4303 6.539C53.907 6.253 54.4746 6.11 55.1333 6.11ZM62.5925 13.065C61.9511 13.065 61.4571 12.8917 61.1105 12.545C60.7638 12.1983 60.5905 11.7087 60.5905 11.076V4.667H61.5135V11.024C61.5135 11.4227 61.6131 11.7303 61.8125 11.947C62.0205 12.1637 62.3151 12.272 62.6965 12.272C63.1038 12.272 63.4418 12.155 63.7105 11.921L64.0355 12.584C63.8535 12.7487 63.6325 12.87 63.3725 12.948C63.1211 13.026 62.8611 13.065 62.5925 13.065ZM59.3685 6.942V6.175H63.5935V6.942H59.3685Z" fill="white" fill-opacity="0.8"/>
<path d="M87.507 13V12.337L91.29 8.632C91.6367 8.294 91.8967 7.99933 92.07 7.748C92.2433 7.488 92.3603 7.24533 92.421 7.02C92.4817 6.79467 92.512 6.58233 92.512 6.383C92.512 5.85433 92.33 5.43833 91.966 5.135C91.6107 4.83167 91.082 4.68 90.38 4.68C89.8427 4.68 89.366 4.76233 88.95 4.927C88.5427 5.09167 88.1917 5.34733 87.897 5.694L87.234 5.122C87.5893 4.706 88.0443 4.38533 88.599 4.16C89.1537 3.93467 89.7733 3.822 90.458 3.822C91.0733 3.822 91.6063 3.92167 92.057 4.121C92.5077 4.31167 92.8543 4.59333 93.097 4.966C93.3483 5.33867 93.474 5.77633 93.474 6.279C93.474 6.57367 93.4307 6.864 93.344 7.15C93.266 7.436 93.1187 7.73933 92.902 8.06C92.694 8.372 92.3863 8.72733 91.979 9.126L88.508 12.532L88.248 12.168H93.89V13H87.507ZM98.6663 13.078C97.9643 13.078 97.3403 12.896 96.7943 12.532C96.2483 12.1593 95.8193 11.6307 95.5073 10.946C95.1953 10.2527 95.0393 9.42067 95.0393 8.45C95.0393 7.47933 95.1953 6.65167 95.5073 5.967C95.8193 5.27367 96.2483 4.745 96.7943 4.381C97.3403 4.00833 97.9643 3.822 98.6663 3.822C99.3683 3.822 99.9923 4.00833 100.538 4.381C101.084 4.745 101.513 5.27367 101.825 5.967C102.146 6.65167 102.306 7.47933 102.306 8.45C102.306 9.42067 102.146 10.2527 101.825 10.946C101.513 11.6307 101.084 12.1593 100.538 12.532C99.9923 12.896 99.3683 13.078 98.6663 13.078ZM98.6663 12.22C99.2036 12.22 99.6716 12.077 100.07 11.791C100.469 11.4963 100.781 11.0717 101.006 10.517C101.232 9.95367 101.344 9.26467 101.344 8.45C101.344 7.63533 101.232 6.95067 101.006 6.396C100.781 5.83267 100.469 5.408 100.07 5.122C99.6716 4.82733 99.2036 4.68 98.6663 4.68C98.1463 4.68 97.6826 4.82733 97.2753 5.122C96.8679 5.408 96.5516 5.83267 96.3263 6.396C96.1009 6.95067 95.9883 7.63533 95.9883 8.45C95.9883 9.26467 96.1009 9.95367 96.3263 10.517C96.5516 11.0717 96.8679 11.4963 97.2753 11.791C97.6826 12.077 98.1463 12.22 98.6663 12.22ZM103.478 13V12.337L107.261 8.632C107.607 8.294 107.867 7.99933 108.041 7.748C108.214 7.488 108.331 7.24533 108.392 7.02C108.452 6.79467 108.483 6.58233 108.483 6.383C108.483 5.85433 108.301 5.43833 107.937 5.135C107.581 4.83167 107.053 4.68 106.351 4.68C105.813 4.68 105.337 4.76233 104.921 4.927C104.513 5.09167 104.162 5.34733 103.868 5.694L103.205 5.122C103.56 4.706 104.015 4.38533 104.57 4.16C105.124 3.93467 105.744 3.822 106.429 3.822C107.044 3.822 107.577 3.92167 108.028 4.121C108.478 4.31167 108.825 4.59333 109.068 4.966C109.319 5.33867 109.445 5.77633 109.445 6.279C109.445 6.57367 109.401 6.864 109.315 7.15C109.237 7.436 109.089 7.73933 108.873 8.06C108.665 8.372 108.357 8.72733 107.95 9.126L104.479 12.532L104.219 12.168H109.861V13H103.478ZM113.752 13.078C113.094 13.078 112.47 12.974 111.88 12.766C111.3 12.5493 110.832 12.2633 110.476 11.908L110.931 11.167C111.226 11.4703 111.62 11.7217 112.114 11.921C112.617 12.1203 113.163 12.22 113.752 12.22C114.506 12.22 115.083 12.0553 115.481 11.726C115.889 11.3967 116.092 10.9547 116.092 10.4C116.092 9.84533 115.893 9.40333 115.494 9.074C115.104 8.74467 114.485 8.58 113.635 8.58H112.985V7.891L115.793 4.368L115.923 4.732H110.853V3.9H116.703V4.563L113.895 8.086L113.44 7.787H113.791C114.883 7.787 115.698 8.02967 116.235 8.515C116.781 9.00033 117.054 9.62433 117.054 10.387C117.054 10.8983 116.933 11.3577 116.69 11.765C116.448 12.1723 116.079 12.493 115.585 12.727C115.1 12.961 114.489 13.078 113.752 13.078ZM118.425 14.898L118.997 12.493L119.101 13.052C118.902 13.052 118.733 12.987 118.594 12.857C118.464 12.727 118.399 12.558 118.399 12.35C118.399 12.142 118.464 11.973 118.594 11.843C118.733 11.713 118.898 11.648 119.088 11.648C119.288 11.648 119.448 11.7173 119.569 11.856C119.699 11.9947 119.764 12.1593 119.764 12.35C119.764 12.4193 119.76 12.4887 119.751 12.558C119.743 12.6273 119.725 12.7053 119.699 12.792C119.673 12.8787 119.639 12.9827 119.595 13.104L119.049 14.898H118.425ZM123.88 13L128.04 3.9H128.989L133.149 13H132.135L128.313 4.459H128.703L124.881 13H123.88ZM125.518 10.569L125.804 9.789H131.095L131.381 10.569H125.518ZM134.46 13V3.354H135.383V13H134.46ZM137.951 13V3.354H138.874V13H137.951ZM144.845 13V6.175H145.729V8.034L145.638 7.709C145.828 7.189 146.149 6.79467 146.6 6.526C147.05 6.24867 147.609 6.11 148.277 6.11V7.007C148.242 7.007 148.207 7.007 148.173 7.007C148.138 6.99833 148.103 6.994 148.069 6.994C147.349 6.994 146.786 7.215 146.379 7.657C145.971 8.09033 145.768 8.71 145.768 9.516V13H144.845ZM149.961 13V6.175H150.884V13H149.961ZM150.429 4.667C150.238 4.667 150.078 4.602 149.948 4.472C149.818 4.342 149.753 4.186 149.753 4.004C149.753 3.822 149.818 3.67033 149.948 3.549C150.078 3.419 150.238 3.354 150.429 3.354C150.619 3.354 150.78 3.41467 150.91 3.536C151.04 3.65733 151.105 3.809 151.105 3.991C151.105 4.18167 151.04 4.342 150.91 4.472C150.788 4.602 150.628 4.667 150.429 4.667ZM156.364 15.587C155.74 15.587 155.142 15.496 154.57 15.314C153.998 15.132 153.534 14.872 153.179 14.534L153.647 13.832C153.968 14.118 154.362 14.3433 154.83 14.508C155.307 14.6813 155.809 14.768 156.338 14.768C157.205 14.768 157.842 14.5643 158.249 14.157C158.656 13.7583 158.86 13.1343 158.86 12.285V10.582L158.99 9.412L158.899 8.242V6.175H159.783V12.168C159.783 13.3467 159.493 14.209 158.912 14.755C158.34 15.3097 157.491 15.587 156.364 15.587ZM156.195 12.74C155.545 12.74 154.96 12.6013 154.44 12.324C153.92 12.038 153.508 11.6437 153.205 11.141C152.91 10.6383 152.763 10.062 152.763 9.412C152.763 8.762 152.91 8.19 153.205 7.696C153.508 7.19333 153.92 6.80333 154.44 6.526C154.96 6.24867 155.545 6.11 156.195 6.11C156.802 6.11 157.348 6.23567 157.833 6.487C158.318 6.73833 158.704 7.111 158.99 7.605C159.276 8.099 159.419 8.70133 159.419 9.412C159.419 10.1227 159.276 10.725 158.99 11.219C158.704 11.713 158.318 12.09 157.833 12.35C157.348 12.61 156.802 12.74 156.195 12.74ZM156.286 11.921C156.789 11.921 157.235 11.817 157.625 11.609C158.015 11.3923 158.323 11.0977 158.548 10.725C158.773 10.3437 158.886 9.906 158.886 9.412C158.886 8.918 158.773 8.48467 158.548 8.112C158.323 7.73933 158.015 7.449 157.625 7.241C157.235 7.02433 156.789 6.916 156.286 6.916C155.792 6.916 155.346 7.02433 154.947 7.241C154.557 7.449 154.249 7.73933 154.024 8.112C153.807 8.48467 153.699 8.918 153.699 9.412C153.699 9.906 153.807 10.3437 154.024 10.725C154.249 11.0977 154.557 11.3923 154.947 11.609C155.346 11.817 155.792 11.921 156.286 11.921ZM165.835 6.11C166.39 6.11 166.875 6.21833 167.291 6.435C167.716 6.643 168.045 6.96367 168.279 7.397C168.522 7.83033 168.643 8.37633 168.643 9.035V13H167.72V9.126C167.72 8.40667 167.538 7.865 167.174 7.501C166.819 7.12833 166.316 6.942 165.666 6.942C165.181 6.942 164.756 7.04167 164.392 7.241C164.037 7.43167 163.76 7.71333 163.56 8.086C163.37 8.45 163.274 8.892 163.274 9.412V13H162.351V3.354H163.274V8.047L163.092 7.696C163.309 7.202 163.656 6.81633 164.132 6.539C164.609 6.253 165.177 6.11 165.835 6.11ZM173.295 13.065C172.653 13.065 172.159 12.8917 171.813 12.545C171.466 12.1983 171.293 11.7087 171.293 11.076V4.667H172.216V11.024C172.216 11.4227 172.315 11.7303 172.515 11.947C172.723 12.1637 173.017 12.272 173.399 12.272C173.806 12.272 174.144 12.155 174.413 11.921L174.738 12.584C174.556 12.7487 174.335 12.87 174.075 12.948C173.823 13.026 173.563 13.065 173.295 13.065ZM170.071 6.942V6.175H174.296V6.942H170.071ZM178.251 13.065C177.688 13.065 177.155 12.987 176.652 12.831C176.149 12.6663 175.755 12.4627 175.469 12.22L175.885 11.492C176.162 11.7 176.518 11.882 176.951 12.038C177.384 12.1853 177.839 12.259 178.316 12.259C178.966 12.259 179.434 12.1593 179.72 11.96C180.006 11.752 180.149 11.479 180.149 11.141C180.149 10.8897 180.067 10.6947 179.902 10.556C179.746 10.4087 179.538 10.3003 179.278 10.231C179.018 10.153 178.728 10.088 178.407 10.036C178.086 9.984 177.766 9.92333 177.445 9.854C177.133 9.78467 176.847 9.685 176.587 9.555C176.327 9.41633 176.115 9.23 175.95 8.996C175.794 8.762 175.716 8.45 175.716 8.06C175.716 7.68733 175.82 7.35367 176.028 7.059C176.236 6.76433 176.539 6.53467 176.938 6.37C177.345 6.19667 177.839 6.11 178.42 6.11C178.862 6.11 179.304 6.17067 179.746 6.292C180.188 6.40467 180.552 6.55633 180.838 6.747L180.435 7.488C180.132 7.28 179.807 7.13267 179.46 7.046C179.113 6.95067 178.767 6.903 178.42 6.903C177.805 6.903 177.35 7.01133 177.055 7.228C176.769 7.436 176.626 7.70467 176.626 8.034C176.626 8.294 176.704 8.49767 176.86 8.645C177.025 8.79233 177.237 8.90933 177.497 8.996C177.766 9.074 178.056 9.139 178.368 9.191C178.689 9.243 179.005 9.308 179.317 9.386C179.638 9.45533 179.928 9.555 180.188 9.685C180.457 9.80633 180.669 9.984 180.825 10.218C180.99 10.4433 181.072 10.7423 181.072 11.115C181.072 11.5137 180.959 11.8603 180.734 12.155C180.517 12.441 180.197 12.6663 179.772 12.831C179.356 12.987 178.849 13.065 178.251 13.065ZM186.168 13V6.175H187.052V8.034L186.961 7.709C187.152 7.189 187.472 6.79467 187.923 6.526C188.374 6.24867 188.933 6.11 189.6 6.11V7.007C189.565 7.007 189.531 7.007 189.496 7.007C189.461 6.99833 189.427 6.994 189.392 6.994C188.673 6.994 188.109 7.215 187.702 7.657C187.295 8.09033 187.091 8.71 187.091 9.516V13H186.168ZM194.12 13.065C193.409 13.065 192.785 12.9177 192.248 12.623C191.71 12.3197 191.29 11.908 190.987 11.388C190.683 10.8593 190.532 10.257 190.532 9.581C190.532 8.905 190.675 8.307 190.961 7.787C191.255 7.267 191.654 6.85967 192.157 6.565C192.668 6.26167 193.24 6.11 193.873 6.11C194.514 6.11 195.082 6.25733 195.576 6.552C196.078 6.838 196.473 7.24533 196.759 7.774C197.045 8.294 197.188 8.89633 197.188 9.581C197.188 9.62433 197.183 9.672 197.175 9.724C197.175 9.76733 197.175 9.815 197.175 9.867H191.234V9.178H196.681L196.317 9.451C196.317 8.957 196.208 8.51933 195.992 8.138C195.784 7.748 195.498 7.44467 195.134 7.228C194.77 7.01133 194.349 6.903 193.873 6.903C193.405 6.903 192.984 7.01133 192.612 7.228C192.239 7.44467 191.949 7.748 191.741 8.138C191.533 8.528 191.429 8.97433 191.429 9.477V9.62C191.429 10.14 191.541 10.5993 191.767 10.998C192.001 11.388 192.321 11.6957 192.729 11.921C193.145 12.1377 193.617 12.246 194.146 12.246C194.562 12.246 194.947 12.1723 195.303 12.025C195.667 11.8777 195.979 11.6523 196.239 11.349L196.759 11.947C196.455 12.311 196.074 12.5883 195.615 12.779C195.164 12.9697 194.666 13.065 194.12 13.065ZM200.899 13.065C200.336 13.065 199.803 12.987 199.3 12.831C198.798 12.6663 198.403 12.4627 198.117 12.22L198.533 11.492C198.811 11.7 199.166 11.882 199.599 12.038C200.033 12.1853 200.488 12.259 200.964 12.259C201.614 12.259 202.082 12.1593 202.368 11.96C202.654 11.752 202.797 11.479 202.797 11.141C202.797 10.8897 202.715 10.6947 202.55 10.556C202.394 10.4087 202.186 10.3003 201.926 10.231C201.666 10.153 201.376 10.088 201.055 10.036C200.735 9.984 200.414 9.92333 200.093 9.854C199.781 9.78467 199.495 9.685 199.235 9.555C198.975 9.41633 198.763 9.23 198.598 8.996C198.442 8.762 198.364 8.45 198.364 8.06C198.364 7.68733 198.468 7.35367 198.676 7.059C198.884 6.76433 199.188 6.53467 199.586 6.37C199.994 6.19667 200.488 6.11 201.068 6.11C201.51 6.11 201.952 6.17067 202.394 6.292C202.836 6.40467 203.2 6.55633 203.486 6.747L203.083 7.488C202.78 7.28 202.455 7.13267 202.108 7.046C201.762 6.95067 201.415 6.903 201.068 6.903C200.453 6.903 199.998 7.01133 199.703 7.228C199.417 7.436 199.274 7.70467 199.274 8.034C199.274 8.294 199.352 8.49767 199.508 8.645C199.673 8.79233 199.885 8.90933 200.145 8.996C200.414 9.074 200.704 9.139 201.016 9.191C201.337 9.243 201.653 9.308 201.965 9.386C202.286 9.45533 202.576 9.555 202.836 9.685C203.105 9.80633 203.317 9.984 203.473 10.218C203.638 10.4433 203.72 10.7423 203.72 11.115C203.72 11.5137 203.608 11.8603 203.382 12.155C203.166 12.441 202.845 12.6663 202.42 12.831C202.004 12.987 201.497 13.065 200.899 13.065ZM208.313 13.065C207.602 13.065 206.978 12.9177 206.441 12.623C205.904 12.3197 205.483 11.908 205.18 11.388C204.877 10.8593 204.725 10.257 204.725 9.581C204.725 8.905 204.868 8.307 205.154 7.787C205.449 7.267 205.847 6.85967 206.35 6.565C206.861 6.26167 207.433 6.11 208.066 6.11C208.707 6.11 209.275 6.25733 209.769 6.552C210.272 6.838 210.666 7.24533 210.952 7.774C211.238 8.294 211.381 8.89633 211.381 9.581C211.381 9.62433 211.377 9.672 211.368 9.724C211.368 9.76733 211.368 9.815 211.368 9.867H205.427V9.178H210.874L210.51 9.451C210.51 8.957 210.402 8.51933 210.185 8.138C209.977 7.748 209.691 7.44467 209.327 7.228C208.963 7.01133 208.543 6.903 208.066 6.903C207.598 6.903 207.178 7.01133 206.805 7.228C206.432 7.44467 206.142 7.748 205.934 8.138C205.726 8.528 205.622 8.97433 205.622 9.477V9.62C205.622 10.14 205.735 10.5993 205.96 10.998C206.194 11.388 206.515 11.6957 206.922 11.921C207.338 12.1377 207.81 12.246 208.339 12.246C208.755 12.246 209.141 12.1723 209.496 12.025C209.86 11.8777 210.172 11.6523 210.432 11.349L210.952 11.947C210.649 12.311 210.267 12.5883 209.808 12.779C209.357 12.9697 208.859 13.065 208.313 13.065ZM213.26 13V6.175H214.144V8.034L214.053 7.709C214.243 7.189 214.564 6.79467 215.015 6.526C215.465 6.24867 216.024 6.11 216.692 6.11V7.007C216.657 7.007 216.622 7.007 216.588 7.007C216.553 6.99833 216.518 6.994 216.484 6.994C215.764 6.994 215.201 7.215 214.794 7.657C214.386 8.09033 214.183 8.71 214.183 9.516V13H213.26ZM220.423 13L217.394 6.175H218.356L221.138 12.506H220.683L223.504 6.175H224.414L221.372 13H220.423ZM228.422 13.065C227.712 13.065 227.088 12.9177 226.55 12.623C226.013 12.3197 225.593 11.908 225.289 11.388C224.986 10.8593 224.834 10.257 224.834 9.581C224.834 8.905 224.977 8.307 225.263 7.787C225.558 7.267 225.957 6.85967 226.459 6.565C226.971 6.26167 227.543 6.11 228.175 6.11C228.817 6.11 229.384 6.25733 229.878 6.552C230.381 6.838 230.775 7.24533 231.061 7.774C231.347 8.294 231.49 8.89633 231.49 9.581C231.49 9.62433 231.486 9.672 231.477 9.724C231.477 9.76733 231.477 9.815 231.477 9.867H225.536V9.178H230.983L230.619 9.451C230.619 8.957 230.511 8.51933 230.294 8.138C230.086 7.748 229.8 7.44467 229.436 7.228C229.072 7.01133 228.652 6.903 228.175 6.903C227.707 6.903 227.287 7.01133 226.914 7.228C226.542 7.44467 226.251 7.748 226.043 8.138C225.835 8.528 225.731 8.97433 225.731 9.477V9.62C225.731 10.14 225.844 10.5993 226.069 10.998C226.303 11.388 226.624 11.6957 227.031 11.921C227.447 12.1377 227.92 12.246 228.448 12.246C228.864 12.246 229.25 12.1723 229.605 12.025C229.969 11.8777 230.281 11.6523 230.541 11.349L231.061 11.947C230.758 12.311 230.377 12.5883 229.917 12.779C229.467 12.9697 228.968 13.065 228.422 13.065ZM236.086 13.065C235.436 13.065 234.851 12.9177 234.331 12.623C233.82 12.3283 233.417 11.921 233.122 11.401C232.827 10.8723 232.68 10.2657 232.68 9.581C232.68 8.88767 232.827 8.281 233.122 7.761C233.417 7.241 233.82 6.838 234.331 6.552C234.851 6.25733 235.436 6.11 236.086 6.11C236.684 6.11 237.217 6.24433 237.685 6.513C238.162 6.78167 238.539 7.176 238.816 7.696C239.102 8.20733 239.245 8.83567 239.245 9.581C239.245 10.3177 239.106 10.946 238.829 11.466C238.552 11.986 238.175 12.3847 237.698 12.662C237.23 12.9307 236.693 13.065 236.086 13.065ZM236.151 12.246C236.636 12.246 237.07 12.1377 237.451 11.921C237.841 11.6957 238.144 11.3837 238.361 10.985C238.586 10.5777 238.699 10.1097 238.699 9.581C238.699 9.04367 238.586 8.57567 238.361 8.177C238.144 7.77833 237.841 7.47067 237.451 7.254C237.07 7.02867 236.636 6.916 236.151 6.916C235.674 6.916 235.245 7.02867 234.864 7.254C234.483 7.47067 234.179 7.77833 233.954 8.177C233.729 8.57567 233.616 9.04367 233.616 9.581C233.616 10.1097 233.729 10.5777 233.954 10.985C234.179 11.3837 234.483 11.6957 234.864 11.921C235.245 12.1377 235.674 12.246 236.151 12.246ZM238.725 13V10.946L238.816 9.568L238.686 8.19V3.354H239.609V13H238.725Z" fill="white" fill-opacity="0.8"/>
<path fill-rule="evenodd" clip-rule="evenodd" d="M76 15C72.134 15 69 11.866 69 8C69 4.134 72.134 1 76 1C79.866 1 83 4.134 83 8C83 11.866 79.866 15 76 15ZM76.2 5.725C74.7984 5.725 73.725 6.7771 73.725 8C73.725 9.2229 74.7984 10.275 76.2 10.275C76.5582 10.275 76.8967 10.2053 77.2018 10.0809C77.4702 9.97141 77.7767 10.1003 77.8861 10.3688C77.9956 10.6372 77.8667 10.9436 77.5982 11.0531C77.1683 11.2285 76.6952 11.325 76.2 11.325C74.2879 11.325 72.675 9.86984 72.675 8C72.675 6.13013 74.2879 4.675 76.2 4.675C76.6952 4.675 77.1683 4.77154 77.5982 4.94685C77.8667 5.05634 77.9956 5.36274 77.8861 5.63123C77.7767 5.89971 77.4702 6.0286 77.2018 5.91912C76.8967 5.79473 76.5582 5.725 76.2 5.725Z" fill="white"/>
</svg>
