<svg width="279" height="49" viewBox="0 0 279 49" fill="none" xmlns="http://www.w3.org/2000/svg">
<path d="M80.2 23.52H95V26.04H80.2V23.52ZM80.52 36.44H97.36V39H77.56V11H96.76V13.56H80.52V36.44ZM111.765 39.2C109.765 39.2 107.965 38.7467 106.365 37.84C104.792 36.9333 103.552 35.68 102.645 34.08C101.739 32.4533 101.285 30.5867 101.285 28.48C101.285 26.3467 101.739 24.48 102.645 22.88C103.552 21.28 104.792 20.04 106.365 19.16C107.965 18.2533 109.765 17.8 111.765 17.8C113.605 17.8 115.245 18.2133 116.685 19.04C118.152 19.8667 119.312 21.08 120.165 22.68C121.045 24.2533 121.485 26.1867 121.485 28.48C121.485 30.7467 121.059 32.68 120.205 34.28C119.352 35.88 118.192 37.1067 116.725 37.96C115.285 38.7867 113.632 39.2 111.765 39.2ZM111.965 36.68C113.459 36.68 114.792 36.3467 115.965 35.68C117.165 34.9867 118.099 34.0267 118.765 32.8C119.459 31.5467 119.805 30.1067 119.805 28.48C119.805 26.8267 119.459 25.3867 118.765 24.16C118.099 22.9333 117.165 21.9867 115.965 21.32C114.792 20.6267 113.459 20.28 111.965 20.28C110.499 20.28 109.179 20.6267 108.005 21.32C106.832 21.9867 105.899 22.9333 105.205 24.16C104.512 25.3867 104.165 26.8267 104.165 28.48C104.165 30.1067 104.512 31.5467 105.205 32.8C105.899 34.0267 106.832 34.9867 108.005 35.68C109.179 36.3467 110.499 36.68 111.965 36.68ZM119.885 39V32.68L120.165 28.44L119.765 24.2V9.32H122.605V39H119.885ZM139.195 39.2C137.408 39.2 135.848 38.8667 134.515 38.2C133.181 37.5333 132.141 36.5333 131.395 35.2C130.675 33.8667 130.315 32.2 130.315 30.2V18H133.155V29.88C133.155 32.12 133.701 33.8133 134.795 34.96C135.915 36.08 137.475 36.64 139.475 36.64C140.941 36.64 142.208 36.3467 143.275 35.76C144.368 35.1467 145.195 34.2667 145.755 33.12C146.341 31.9733 146.635 30.6 146.635 29V18H149.475V39H146.755V33.24L147.195 34.28C146.528 35.8267 145.488 37.04 144.075 37.92C142.688 38.7733 141.061 39.2 139.195 39.2ZM166.11 39.2C164.03 39.2 162.163 38.7467 160.51 37.84C158.883 36.9067 157.603 35.64 156.67 34.04C155.736 32.4133 155.27 30.56 155.27 28.48C155.27 26.3733 155.736 24.52 156.67 22.92C157.603 21.32 158.883 20.0667 160.51 19.16C162.163 18.2533 164.03 17.8 166.11 17.8C167.896 17.8 169.51 18.1467 170.95 18.84C172.39 19.5333 173.523 20.5733 174.35 21.96L172.23 23.4C171.51 22.3333 170.616 21.5467 169.55 21.04C168.483 20.5333 167.323 20.28 166.07 20.28C164.576 20.28 163.23 20.6267 162.03 21.32C160.83 21.9867 159.883 22.9333 159.19 24.16C158.496 25.3867 158.15 26.8267 158.15 28.48C158.15 30.1333 158.496 31.5733 159.19 32.8C159.883 34.0267 160.83 34.9867 162.03 35.68C163.23 36.3467 164.576 36.68 166.07 36.68C167.323 36.68 168.483 36.4267 169.55 35.92C170.616 35.4133 171.51 34.64 172.23 33.6L174.35 35.04C173.523 36.4 172.39 37.44 170.95 38.16C169.51 38.8533 167.896 39.2 166.11 39.2ZM193.089 39V34.36L192.969 33.6V25.84C192.969 24.0533 192.462 22.68 191.449 21.72C190.462 20.76 188.982 20.28 187.009 20.28C185.649 20.28 184.355 20.5067 183.129 20.96C181.902 21.4133 180.862 22.0133 180.009 22.76L178.729 20.64C179.795 19.7333 181.075 19.04 182.569 18.56C184.062 18.0533 185.635 17.8 187.289 17.8C190.009 17.8 192.102 18.48 193.569 19.84C195.062 21.1733 195.809 23.2133 195.809 25.96V39H193.089ZM185.849 39.2C184.275 39.2 182.902 38.9467 181.729 38.44C180.582 37.9067 179.702 37.1867 179.089 36.28C178.475 35.3467 178.169 34.28 178.169 33.08C178.169 31.9867 178.422 31 178.929 30.12C179.462 29.2133 180.315 28.4933 181.489 27.96C182.689 27.4 184.289 27.12 186.289 27.12H193.529V29.24H186.369C184.342 29.24 182.929 29.6 182.129 30.32C181.355 31.04 180.969 31.9333 180.969 33C180.969 34.2 181.435 35.16 182.369 35.88C183.302 36.6 184.609 36.96 186.289 36.96C187.889 36.96 189.262 36.6 190.409 35.88C191.582 35.1333 192.435 34.0667 192.969 32.68L193.609 34.64C193.075 36.0267 192.142 37.1333 190.809 37.96C189.502 38.7867 187.849 39.2 185.849 39.2ZM210.163 39.2C208.189 39.2 206.669 38.6667 205.603 37.6C204.536 36.5333 204.003 35.0267 204.003 33.08V13.36H206.843V32.92C206.843 34.1467 207.149 35.0933 207.763 35.76C208.403 36.4267 209.309 36.76 210.483 36.76C211.736 36.76 212.776 36.4 213.603 35.68L214.603 37.72C214.043 38.2267 213.363 38.6 212.563 38.84C211.789 39.08 210.989 39.2 210.163 39.2ZM200.243 20.36V18H213.243V20.36H200.243ZM219.773 39V18H222.613V39H219.773ZM221.213 13.36C220.626 13.36 220.133 13.16 219.733 12.76C219.333 12.36 219.133 11.88 219.133 11.32C219.133 10.76 219.333 10.2933 219.733 9.92C220.133 9.52 220.626 9.32 221.213 9.32C221.799 9.32 222.293 9.50666 222.693 9.88C223.093 10.2533 223.293 10.72 223.293 11.28C223.293 11.8667 223.093 12.36 222.693 12.76C222.319 13.16 221.826 13.36 221.213 13.36ZM239.075 39.2C237.048 39.2 235.221 38.7467 233.595 37.84C231.995 36.9067 230.728 35.64 229.795 34.04C228.861 32.4133 228.395 30.56 228.395 28.48C228.395 26.3733 228.861 24.52 229.795 22.92C230.728 21.32 231.995 20.0667 233.595 19.16C235.195 18.2533 237.021 17.8 239.075 17.8C241.155 17.8 242.995 18.2533 244.595 19.16C246.221 20.0667 247.488 21.32 248.395 22.92C249.328 24.52 249.795 26.3733 249.795 28.48C249.795 30.56 249.328 32.4133 248.395 34.04C247.488 35.64 246.221 36.9067 244.595 37.84C242.968 38.7467 241.128 39.2 239.075 39.2ZM239.075 36.68C240.595 36.68 241.941 36.3467 243.115 35.68C244.288 34.9867 245.208 34.0267 245.875 32.8C246.568 31.5467 246.915 30.1067 246.915 28.48C246.915 26.8267 246.568 25.3867 245.875 24.16C245.208 22.9333 244.288 21.9867 243.115 21.32C241.941 20.6267 240.608 20.28 239.115 20.28C237.621 20.28 236.288 20.6267 235.115 21.32C233.941 21.9867 233.008 22.9333 232.315 24.16C231.621 25.3867 231.275 26.8267 231.275 28.48C231.275 30.1067 231.621 31.5467 232.315 32.8C233.008 34.0267 233.941 34.9867 235.115 35.68C236.288 36.3467 237.608 36.68 239.075 36.68ZM266.313 17.8C268.019 17.8 269.513 18.1333 270.793 18.8C272.099 19.44 273.113 20.4267 273.833 21.76C274.579 23.0933 274.953 24.7733 274.953 26.8V39H272.113V27.08C272.113 24.8667 271.553 23.2 270.433 22.08C269.339 20.9333 267.793 20.36 265.793 20.36C264.299 20.36 262.993 20.6667 261.873 21.28C260.779 21.8667 259.926 22.7333 259.313 23.88C258.726 25 258.433 26.36 258.433 27.96V39H255.593V18H258.313V23.76L257.873 22.68C258.539 21.16 259.606 19.9733 261.073 19.12C262.539 18.24 264.286 17.8 266.313 17.8Z" fill="white"/>
<path d="M49.2818 46.74C49.6966 46.74 50.0891 46.5531 50.3504 46.2307C50.6116 45.9084 50.7135 45.4856 50.6278 45.0798L49.7614 40.98C50.2548 40.5027 50.565 39.8364 50.565 39.0954C50.565 38.3154 50.2176 37.6236 49.6784 37.1429V22.9057L46.2055 25.0548V37.1429C45.6663 37.6236 45.3188 38.3154 45.3188 39.0954C45.3188 39.8364 45.629 40.5029 46.1224 40.98L45.256 45.0798C45.1703 45.4857 45.2723 45.9085 45.5334 46.2307C45.7947 46.553 46.1871 46.74 46.602 46.74H49.2818ZM50.4589 14.5977L27.8662 0.612172C27.2045 0.2046 26.4586 0 25.7127 0C24.9668 0 24.2204 0.204429 23.5627 0.612172L0.969685 14.5977C0.366403 14.971 0 15.6303 0 16.3399C0 17.0496 0.366403 17.7092 0.969685 18.0831L23.5626 32.0688C24.2203 32.4768 24.9667 32.6809 25.7126 32.6809C26.4585 32.6809 27.2045 32.4765 27.866 32.0688L50.4589 18.0831C51.0622 17.7093 51.4286 17.0496 51.4286 16.3399C51.4286 15.6303 51.0622 14.9708 50.4589 14.5977ZM25.7126 36.1536C24.3053 36.1536 22.9317 35.7627 21.7344 35.0217L8.55584 26.863V40.9114C8.55584 45.0693 16.2408 48.435 25.7126 48.435C35.1878 48.435 42.8721 45.0692 42.8721 40.9114V26.863L29.6941 35.0217C28.4968 35.7627 27.1199 36.1536 25.7126 36.1536Z" fill="white"/>
</svg>
