<svg width="280" height="97" viewBox="0 0 280 97" fill="none" xmlns="http://www.w3.org/2000/svg">
<path d="M72.71 76V65.5H77.24C78.41 65.5 79.315 65.735 79.955 66.205C80.605 66.675 80.93 67.34 80.93 68.2C80.93 68.77 80.795 69.25 80.525 69.64C80.265 70.03 79.905 70.325 79.445 70.525C78.995 70.725 78.5 70.825 77.96 70.825L78.215 70.465C78.885 70.465 79.46 70.57 79.94 70.78C80.43 70.98 80.81 71.285 81.08 71.695C81.35 72.095 81.485 72.595 81.485 73.195C81.485 74.085 81.155 74.775 80.495 75.265C79.845 75.755 78.86 76 77.54 76H72.71ZM73.82 75.085H77.525C78.445 75.085 79.15 74.93 79.64 74.62C80.13 74.3 80.375 73.795 80.375 73.105C80.375 72.425 80.13 71.93 79.64 71.62C79.15 71.3 78.445 71.14 77.525 71.14H73.7V70.225H77.165C78.005 70.225 78.655 70.065 79.115 69.745C79.585 69.425 79.82 68.95 79.82 68.32C79.82 67.68 79.585 67.205 79.115 66.895C78.655 66.575 78.005 66.415 77.165 66.415H73.82V75.085ZM88.5786 76.09C87.7886 76.09 87.0586 75.96 86.3886 75.7C85.7186 75.43 85.1386 75.055 84.6486 74.575C84.1586 74.095 83.7736 73.53 83.4936 72.88C83.2236 72.23 83.0886 71.52 83.0886 70.75C83.0886 69.98 83.2236 69.27 83.4936 68.62C83.7736 67.97 84.1586 67.405 84.6486 66.925C85.1486 66.445 85.7336 66.075 86.4036 65.815C87.0736 65.545 87.8036 65.41 88.5936 65.41C89.3536 65.41 90.0686 65.54 90.7386 65.8C91.4086 66.05 91.9736 66.43 92.4336 66.94L91.7286 67.645C91.2986 67.205 90.8236 66.89 90.3036 66.7C89.7836 66.5 89.2236 66.4 88.6236 66.4C87.9936 66.4 87.4086 66.51 86.8686 66.73C86.3286 66.94 85.8586 67.245 85.4586 67.645C85.0586 68.035 84.7436 68.495 84.5136 69.025C84.2936 69.545 84.1836 70.12 84.1836 70.75C84.1836 71.38 84.2936 71.96 84.5136 72.49C84.7436 73.01 85.0586 73.47 85.4586 73.87C85.8586 74.26 86.3286 74.565 86.8686 74.785C87.4086 74.995 87.9936 75.1 88.6236 75.1C89.2236 75.1 89.7836 75 90.3036 74.8C90.8236 74.6 91.2986 74.28 91.7286 73.84L92.4336 74.545C91.9736 75.055 91.4086 75.44 90.7386 75.7C90.0686 75.96 89.3486 76.09 88.5786 76.09ZM92.8562 76L97.6562 65.5H98.7512L103.551 76H102.381L97.9712 66.145H98.4212L94.0112 76H92.8562ZM94.7462 73.195L95.0762 72.295H101.181L101.511 73.195H94.7462ZM108.404 72.4V71.47H112.334V72.4H108.404ZM118.867 76V65.5H123.397C124.567 65.5 125.472 65.735 126.112 66.205C126.762 66.675 127.087 67.34 127.087 68.2C127.087 68.77 126.952 69.25 126.682 69.64C126.422 70.03 126.062 70.325 125.602 70.525C125.152 70.725 124.657 70.825 124.117 70.825L124.372 70.465C125.042 70.465 125.617 70.57 126.097 70.78C126.587 70.98 126.967 71.285 127.237 71.695C127.507 72.095 127.642 72.595 127.642 73.195C127.642 74.085 127.312 74.775 126.652 75.265C126.002 75.755 125.017 76 123.697 76H118.867ZM119.977 75.085H123.682C124.602 75.085 125.307 74.93 125.797 74.62C126.287 74.3 126.532 73.795 126.532 73.105C126.532 72.425 126.287 71.93 125.797 71.62C125.307 71.3 124.602 71.14 123.682 71.14H119.857V70.225H123.322C124.162 70.225 124.812 70.065 125.272 69.745C125.742 69.425 125.977 68.95 125.977 68.32C125.977 67.68 125.742 67.205 125.272 66.895C124.812 66.575 124.162 66.415 123.322 66.415H119.977V75.085ZM134.886 76V74.26L134.841 73.975V71.065C134.841 70.395 134.651 69.88 134.271 69.52C133.901 69.16 133.346 68.98 132.606 68.98C132.096 68.98 131.611 69.065 131.151 69.235C130.691 69.405 130.301 69.63 129.981 69.91L129.501 69.115C129.901 68.775 130.381 68.515 130.941 68.335C131.501 68.145 132.091 68.05 132.711 68.05C133.731 68.05 134.516 68.305 135.066 68.815C135.626 69.315 135.906 70.08 135.906 71.11V76H134.886ZM132.171 76.075C131.581 76.075 131.066 75.98 130.626 75.79C130.196 75.59 129.866 75.32 129.636 74.98C129.406 74.63 129.291 74.23 129.291 73.78C129.291 73.37 129.386 73 129.576 72.67C129.776 72.33 130.096 72.06 130.536 71.86C130.986 71.65 131.586 71.545 132.336 71.545H135.051V72.34H132.366C131.606 72.34 131.076 72.475 130.776 72.745C130.486 73.015 130.341 73.35 130.341 73.75C130.341 74.2 130.516 74.56 130.866 74.83C131.216 75.1 131.706 75.235 132.336 75.235C132.936 75.235 133.451 75.1 133.881 74.83C134.321 74.55 134.641 74.15 134.841 73.63L135.081 74.365C134.881 74.885 134.531 75.3 134.031 75.61C133.541 75.92 132.921 76.075 132.171 76.075ZM142.068 76.075C141.288 76.075 140.588 75.905 139.968 75.565C139.358 75.215 138.878 74.74 138.528 74.14C138.178 73.53 138.003 72.835 138.003 72.055C138.003 71.265 138.178 70.57 138.528 69.97C138.878 69.37 139.358 68.9 139.968 68.56C140.588 68.22 141.288 68.05 142.068 68.05C142.738 68.05 143.343 68.18 143.883 68.44C144.423 68.7 144.848 69.09 145.158 69.61L144.363 70.15C144.093 69.75 143.758 69.455 143.358 69.265C142.958 69.075 142.523 68.98 142.053 68.98C141.493 68.98 140.988 69.11 140.538 69.37C140.088 69.62 139.733 69.975 139.473 70.435C139.213 70.895 139.083 71.435 139.083 72.055C139.083 72.675 139.213 73.215 139.473 73.675C139.733 74.135 140.088 74.495 140.538 74.755C140.988 75.005 141.493 75.13 142.053 75.13C142.523 75.13 142.958 75.035 143.358 74.845C143.758 74.655 144.093 74.365 144.363 73.975L145.158 74.515C144.848 75.025 144.423 75.415 143.883 75.685C143.343 75.945 142.738 76.075 142.068 76.075ZM151.153 68.05C151.793 68.05 152.353 68.175 152.833 68.425C153.323 68.665 153.703 69.035 153.973 69.535C154.253 70.035 154.393 70.665 154.393 71.425V76H153.328V71.53C153.328 70.7 153.118 70.075 152.698 69.655C152.288 69.225 151.708 69.01 150.958 69.01C150.398 69.01 149.908 69.125 149.488 69.355C149.078 69.575 148.758 69.9 148.528 70.33C148.308 70.75 148.198 71.26 148.198 71.86V76H147.133V64.87H148.198V70.285L147.988 69.88C148.238 69.31 148.638 68.865 149.188 68.545C149.738 68.215 150.393 68.05 151.153 68.05ZM160.615 76.075C159.795 76.075 159.075 75.905 158.455 75.565C157.835 75.215 157.35 74.74 157 74.14C156.65 73.53 156.475 72.835 156.475 72.055C156.475 71.275 156.64 70.585 156.97 69.985C157.31 69.385 157.77 68.915 158.35 68.575C158.94 68.225 159.6 68.05 160.33 68.05C161.07 68.05 161.725 68.22 162.295 68.56C162.875 68.89 163.33 69.36 163.66 69.97C163.99 70.57 164.155 71.265 164.155 72.055C164.155 72.105 164.15 72.16 164.14 72.22C164.14 72.27 164.14 72.325 164.14 72.385H157.285V71.59H163.57L163.15 71.905C163.15 71.335 163.025 70.83 162.775 70.39C162.535 69.94 162.205 69.59 161.785 69.34C161.365 69.09 160.88 68.965 160.33 68.965C159.79 68.965 159.305 69.09 158.875 69.34C158.445 69.59 158.11 69.94 157.87 70.39C157.63 70.84 157.51 71.355 157.51 71.935V72.1C157.51 72.7 157.64 73.23 157.9 73.69C158.17 74.14 158.54 74.495 159.01 74.755C159.49 75.005 160.035 75.13 160.645 75.13C161.125 75.13 161.57 75.045 161.98 74.875C162.4 74.705 162.76 74.445 163.06 74.095L163.66 74.785C163.31 75.205 162.87 75.525 162.34 75.745C161.82 75.965 161.245 76.075 160.615 76.075ZM166.323 76V64.87H167.388V76H166.323ZM173.561 76.075C172.801 76.075 172.116 75.905 171.506 75.565C170.906 75.215 170.431 74.74 170.081 74.14C169.731 73.53 169.556 72.835 169.556 72.055C169.556 71.265 169.731 70.57 170.081 69.97C170.431 69.37 170.906 68.9 171.506 68.56C172.106 68.22 172.791 68.05 173.561 68.05C174.341 68.05 175.031 68.22 175.631 68.56C176.241 68.9 176.716 69.37 177.056 69.97C177.406 70.57 177.581 71.265 177.581 72.055C177.581 72.835 177.406 73.53 177.056 74.14C176.716 74.74 176.241 75.215 175.631 75.565C175.021 75.905 174.331 76.075 173.561 76.075ZM173.561 75.13C174.131 75.13 174.636 75.005 175.076 74.755C175.516 74.495 175.861 74.135 176.111 73.675C176.371 73.205 176.501 72.665 176.501 72.055C176.501 71.435 176.371 70.895 176.111 70.435C175.861 69.975 175.516 69.62 175.076 69.37C174.636 69.11 174.136 68.98 173.576 68.98C173.016 68.98 172.516 69.11 172.076 69.37C171.636 69.62 171.286 69.975 171.026 70.435C170.766 70.895 170.636 71.435 170.636 72.055C170.636 72.665 170.766 73.205 171.026 73.675C171.286 74.135 171.636 74.495 172.076 74.755C172.516 75.005 173.011 75.13 173.561 75.13ZM179.756 76V68.125H180.776V70.27L180.671 69.895C180.891 69.295 181.261 68.84 181.781 68.53C182.301 68.21 182.946 68.05 183.716 68.05V69.085C183.676 69.085 183.636 69.085 183.596 69.085C183.556 69.075 183.516 69.07 183.476 69.07C182.646 69.07 181.996 69.325 181.526 69.835C181.056 70.335 180.821 71.05 180.821 71.98V76H179.756ZM187.862 76.075C187.212 76.075 186.597 75.985 186.017 75.805C185.437 75.615 184.982 75.38 184.652 75.1L185.132 74.26C185.452 74.5 185.862 74.71 186.362 74.89C186.862 75.06 187.387 75.145 187.937 75.145C188.687 75.145 189.227 75.03 189.557 74.8C189.887 74.56 190.052 74.245 190.052 73.855C190.052 73.565 189.957 73.34 189.767 73.18C189.587 73.01 189.347 72.885 189.047 72.805C188.747 72.715 188.412 72.64 188.042 72.58C187.672 72.52 187.302 72.45 186.932 72.37C186.572 72.29 186.242 72.175 185.942 72.025C185.642 71.865 185.397 71.65 185.207 71.38C185.027 71.11 184.937 70.75 184.937 70.3C184.937 69.87 185.057 69.485 185.297 69.145C185.537 68.805 185.887 68.54 186.347 68.35C186.817 68.15 187.387 68.05 188.057 68.05C188.567 68.05 189.077 68.12 189.587 68.26C190.097 68.39 190.517 68.565 190.847 68.785L190.382 69.64C190.032 69.4 189.657 69.23 189.257 69.13C188.857 69.02 188.457 68.965 188.057 68.965C187.347 68.965 186.822 69.09 186.482 69.34C186.152 69.58 185.987 69.89 185.987 70.27C185.987 70.57 186.077 70.805 186.257 70.975C186.447 71.145 186.692 71.28 186.992 71.38C187.302 71.47 187.637 71.545 187.997 71.605C188.367 71.665 188.732 71.74 189.092 71.83C189.462 71.91 189.797 72.025 190.097 72.175C190.407 72.315 190.652 72.52 190.832 72.79C191.022 73.05 191.117 73.395 191.117 73.825C191.117 74.285 190.987 74.685 190.727 75.025C190.477 75.355 190.107 75.615 189.617 75.805C189.137 75.985 188.552 76.075 187.862 76.075ZM197.222 76V65.5H201.497C202.617 65.5 203.597 65.725 204.437 66.175C205.287 66.615 205.947 67.23 206.417 68.02C206.887 68.81 207.122 69.72 207.122 70.75C207.122 71.78 206.887 72.69 206.417 73.48C205.947 74.27 205.287 74.89 204.437 75.34C203.597 75.78 202.617 76 201.497 76H197.222ZM198.332 75.04H201.437C202.367 75.04 203.172 74.86 203.852 74.5C204.542 74.13 205.077 73.625 205.457 72.985C205.837 72.335 206.027 71.59 206.027 70.75C206.027 69.9 205.837 69.155 205.457 68.515C205.077 67.875 204.542 67.375 203.852 67.015C203.172 66.645 202.367 66.46 201.437 66.46H198.332V75.04ZM212.734 76.075C211.914 76.075 211.194 75.905 210.574 75.565C209.954 75.215 209.469 74.74 209.119 74.14C208.769 73.53 208.594 72.835 208.594 72.055C208.594 71.275 208.759 70.585 209.089 69.985C209.429 69.385 209.889 68.915 210.469 68.575C211.059 68.225 211.719 68.05 212.449 68.05C213.189 68.05 213.844 68.22 214.414 68.56C214.994 68.89 215.449 69.36 215.779 69.97C216.109 70.57 216.274 71.265 216.274 72.055C216.274 72.105 216.269 72.16 216.259 72.22C216.259 72.27 216.259 72.325 216.259 72.385H209.404V71.59H215.689L215.269 71.905C215.269 71.335 215.144 70.83 214.894 70.39C214.654 69.94 214.324 69.59 213.904 69.34C213.484 69.09 212.999 68.965 212.449 68.965C211.909 68.965 211.424 69.09 210.994 69.34C210.564 69.59 210.229 69.94 209.989 70.39C209.749 70.84 209.629 71.355 209.629 71.935V72.1C209.629 72.7 209.759 73.23 210.019 73.69C210.289 74.14 210.659 74.495 211.129 74.755C211.609 75.005 212.154 75.13 212.764 75.13C213.244 75.13 213.689 75.045 214.099 74.875C214.519 74.705 214.879 74.445 215.179 74.095L215.779 74.785C215.429 75.205 214.989 75.525 214.459 75.745C213.939 75.965 213.364 76.075 212.734 76.075ZM221.802 78.985C221.082 78.985 220.392 78.88 219.732 78.67C219.072 78.46 218.537 78.16 218.127 77.77L218.667 76.96C219.037 77.29 219.492 77.55 220.032 77.74C220.582 77.94 221.162 78.04 221.772 78.04C222.772 78.04 223.507 77.805 223.977 77.335C224.447 76.875 224.682 76.155 224.682 75.175V73.21L224.832 71.86L224.727 70.51V68.125H225.747V75.04C225.747 76.4 225.412 77.395 224.742 78.025C224.082 78.665 223.102 78.985 221.802 78.985ZM221.607 75.7C220.857 75.7 220.182 75.54 219.582 75.22C218.982 74.89 218.507 74.435 218.157 73.855C217.817 73.275 217.647 72.61 217.647 71.86C217.647 71.11 217.817 70.45 218.157 69.88C218.507 69.3 218.982 68.85 219.582 68.53C220.182 68.21 220.857 68.05 221.607 68.05C222.307 68.05 222.937 68.195 223.497 68.485C224.057 68.775 224.502 69.205 224.832 69.775C225.162 70.345 225.327 71.04 225.327 71.86C225.327 72.68 225.162 73.375 224.832 73.945C224.502 74.515 224.057 74.95 223.497 75.25C222.937 75.55 222.307 75.7 221.607 75.7ZM221.712 74.755C222.292 74.755 222.807 74.635 223.257 74.395C223.707 74.145 224.062 73.805 224.322 73.375C224.582 72.935 224.712 72.43 224.712 71.86C224.712 71.29 224.582 70.79 224.322 70.36C224.062 69.93 223.707 69.595 223.257 69.355C222.807 69.105 222.292 68.98 221.712 68.98C221.142 68.98 220.627 69.105 220.167 69.355C219.717 69.595 219.362 69.93 219.102 70.36C218.852 70.79 218.727 71.29 218.727 71.86C218.727 72.43 218.852 72.935 219.102 73.375C219.362 73.805 219.717 74.145 220.167 74.395C220.627 74.635 221.142 74.755 221.712 74.755ZM228.711 76V68.125H229.731V70.27L229.626 69.895C229.846 69.295 230.216 68.84 230.736 68.53C231.256 68.21 231.901 68.05 232.671 68.05V69.085C232.631 69.085 232.591 69.085 232.551 69.085C232.511 69.075 232.471 69.07 232.431 69.07C231.601 69.07 230.951 69.325 230.481 69.835C230.011 70.335 229.776 71.05 229.776 71.98V76H228.711ZM237.886 76.075C237.066 76.075 236.346 75.905 235.726 75.565C235.106 75.215 234.621 74.74 234.271 74.14C233.921 73.53 233.746 72.835 233.746 72.055C233.746 71.275 233.911 70.585 234.241 69.985C234.581 69.385 235.041 68.915 235.621 68.575C236.211 68.225 236.871 68.05 237.601 68.05C238.341 68.05 238.996 68.22 239.566 68.56C240.146 68.89 240.601 69.36 240.931 69.97C241.261 70.57 241.426 71.265 241.426 72.055C241.426 72.105 241.421 72.16 241.411 72.22C241.411 72.27 241.411 72.325 241.411 72.385H234.556V71.59H240.841L240.421 71.905C240.421 71.335 240.296 70.83 240.046 70.39C239.806 69.94 239.476 69.59 239.056 69.34C238.636 69.09 238.151 68.965 237.601 68.965C237.061 68.965 236.576 69.09 236.146 69.34C235.716 69.59 235.381 69.94 235.141 70.39C234.901 70.84 234.781 71.355 234.781 71.935V72.1C234.781 72.7 234.911 73.23 235.171 73.69C235.441 74.14 235.811 74.495 236.281 74.755C236.761 75.005 237.306 75.13 237.916 75.13C238.396 75.13 238.841 75.045 239.251 74.875C239.671 74.705 240.031 74.445 240.331 74.095L240.931 74.785C240.581 75.205 240.141 75.525 239.611 75.745C239.091 75.965 238.516 76.075 237.886 76.075ZM246.938 76.075C246.118 76.075 245.398 75.905 244.778 75.565C244.158 75.215 243.673 74.74 243.323 74.14C242.973 73.53 242.798 72.835 242.798 72.055C242.798 71.275 242.963 70.585 243.293 69.985C243.633 69.385 244.093 68.915 244.673 68.575C245.263 68.225 245.923 68.05 246.653 68.05C247.393 68.05 248.048 68.22 248.618 68.56C249.198 68.89 249.653 69.36 249.983 69.97C250.313 70.57 250.478 71.265 250.478 72.055C250.478 72.105 250.473 72.16 250.463 72.22C250.463 72.27 250.463 72.325 250.463 72.385H243.608V71.59H249.893L249.473 71.905C249.473 71.335 249.348 70.83 249.098 70.39C248.858 69.94 248.528 69.59 248.108 69.34C247.688 69.09 247.203 68.965 246.653 68.965C246.113 68.965 245.628 69.09 245.198 69.34C244.768 69.59 244.433 69.94 244.193 70.39C243.953 70.84 243.833 71.355 243.833 71.935V72.1C243.833 72.7 243.963 73.23 244.223 73.69C244.493 74.14 244.863 74.495 245.333 74.755C245.813 75.005 246.358 75.13 246.968 75.13C247.448 75.13 247.893 75.045 248.303 74.875C248.723 74.705 249.083 74.445 249.383 74.095L249.983 74.785C249.633 75.205 249.193 75.525 248.663 75.745C248.143 75.965 247.568 76.075 246.938 76.075ZM72.71 94V83.5H73.625L78.425 91.69H77.945L82.7 83.5H83.615V94H82.55V85.165H82.805L78.425 92.665H77.9L73.49 85.165H73.775V94H72.71ZM91.5962 94.09C90.8062 94.09 90.0762 93.96 89.4062 93.7C88.7362 93.43 88.1562 93.055 87.6662 92.575C87.1762 92.095 86.7912 91.53 86.5112 90.88C86.2412 90.23 86.1062 89.52 86.1062 88.75C86.1062 87.98 86.2412 87.27 86.5112 86.62C86.7912 85.97 87.1762 85.405 87.6662 84.925C88.1662 84.445 88.7512 84.075 89.4212 83.815C90.0912 83.545 90.8212 83.41 91.6112 83.41C92.3712 83.41 93.0862 83.54 93.7562 83.8C94.4262 84.05 94.9912 84.43 95.4512 84.94L94.7462 85.645C94.3162 85.205 93.8412 84.89 93.3212 84.7C92.8012 84.5 92.2412 84.4 91.6412 84.4C91.0112 84.4 90.4262 84.51 89.8862 84.73C89.3462 84.94 88.8762 85.245 88.4762 85.645C88.0762 86.035 87.7612 86.495 87.5312 87.025C87.3112 87.545 87.2012 88.12 87.2012 88.75C87.2012 89.38 87.3112 89.96 87.5312 90.49C87.7612 91.01 88.0762 91.47 88.4762 91.87C88.8762 92.26 89.3462 92.565 89.8862 92.785C90.4262 92.995 91.0112 93.1 91.6412 93.1C92.2412 93.1 92.8012 93 93.3212 92.8C93.8412 92.6 94.3162 92.28 94.7462 91.84L95.4512 92.545C94.9912 93.055 94.4262 93.44 93.7562 93.7C93.0862 93.96 92.3662 94.09 91.5962 94.09ZM95.8738 94L100.674 83.5H101.769L106.569 94H105.399L100.989 84.145H101.439L97.0288 94H95.8738ZM97.7638 91.195L98.0938 90.295H104.199L104.529 91.195H97.7638ZM111.421 90.4V89.47H115.351V90.4H111.421ZM121.885 94V83.5H122.8L127.6 91.69H127.12L131.875 83.5H132.79V94H131.725V85.165H131.98L127.6 92.665H127.075L122.665 85.165H122.95V94H121.885ZM140.921 94V92.26L140.876 91.975V89.065C140.876 88.395 140.686 87.88 140.306 87.52C139.936 87.16 139.381 86.98 138.641 86.98C138.131 86.98 137.646 87.065 137.186 87.235C136.726 87.405 136.336 87.63 136.016 87.91L135.536 87.115C135.936 86.775 136.416 86.515 136.976 86.335C137.536 86.145 138.126 86.05 138.746 86.05C139.766 86.05 140.551 86.305 141.101 86.815C141.661 87.315 141.941 88.08 141.941 89.11V94H140.921ZM138.206 94.075C137.616 94.075 137.101 93.98 136.661 93.79C136.231 93.59 135.901 93.32 135.671 92.98C135.441 92.63 135.326 92.23 135.326 91.78C135.326 91.37 135.421 91 135.611 90.67C135.811 90.33 136.131 90.06 136.571 89.86C137.021 89.65 137.621 89.545 138.371 89.545H141.086V90.34H138.401C137.641 90.34 137.111 90.475 136.811 90.745C136.521 91.015 136.376 91.35 136.376 91.75C136.376 92.2 136.551 92.56 136.901 92.83C137.251 93.1 137.741 93.235 138.371 93.235C138.971 93.235 139.486 93.1 139.916 92.83C140.356 92.55 140.676 92.15 140.876 91.63L141.116 92.365C140.916 92.885 140.566 93.3 140.066 93.61C139.576 93.92 138.956 94.075 138.206 94.075ZM146.949 94.075C146.299 94.075 145.684 93.985 145.104 93.805C144.524 93.615 144.069 93.38 143.739 93.1L144.219 92.26C144.539 92.5 144.949 92.71 145.449 92.89C145.949 93.06 146.474 93.145 147.024 93.145C147.774 93.145 148.314 93.03 148.644 92.8C148.974 92.56 149.139 92.245 149.139 91.855C149.139 91.565 149.044 91.34 148.854 91.18C148.674 91.01 148.434 90.885 148.134 90.805C147.834 90.715 147.499 90.64 147.129 90.58C146.759 90.52 146.389 90.45 146.019 90.37C145.659 90.29 145.329 90.175 145.029 90.025C144.729 89.865 144.484 89.65 144.294 89.38C144.114 89.11 144.024 88.75 144.024 88.3C144.024 87.87 144.144 87.485 144.384 87.145C144.624 86.805 144.974 86.54 145.434 86.35C145.904 86.15 146.474 86.05 147.144 86.05C147.654 86.05 148.164 86.12 148.674 86.26C149.184 86.39 149.604 86.565 149.934 86.785L149.469 87.64C149.119 87.4 148.744 87.23 148.344 87.13C147.944 87.02 147.544 86.965 147.144 86.965C146.434 86.965 145.909 87.09 145.569 87.34C145.239 87.58 145.074 87.89 145.074 88.27C145.074 88.57 145.164 88.805 145.344 88.975C145.534 89.145 145.779 89.28 146.079 89.38C146.389 89.47 146.724 89.545 147.084 89.605C147.454 89.665 147.819 89.74 148.179 89.83C148.549 89.91 148.884 90.025 149.184 90.175C149.494 90.315 149.739 90.52 149.919 90.79C150.109 91.05 150.204 91.395 150.204 91.825C150.204 92.285 150.074 92.685 149.814 93.025C149.564 93.355 149.194 93.615 148.704 93.805C148.224 93.985 147.639 94.075 146.949 94.075ZM154.648 94.075C153.908 94.075 153.338 93.875 152.938 93.475C152.538 93.075 152.338 92.51 152.338 91.78V84.385H153.403V91.72C153.403 92.18 153.518 92.535 153.748 92.785C153.988 93.035 154.328 93.16 154.768 93.16C155.238 93.16 155.628 93.025 155.938 92.755L156.313 93.52C156.103 93.71 155.848 93.85 155.548 93.94C155.258 94.03 154.958 94.075 154.648 94.075ZM150.928 87.01V86.125H155.803V87.01H150.928ZM161.318 94.075C160.498 94.075 159.778 93.905 159.158 93.565C158.538 93.215 158.053 92.74 157.703 92.14C157.353 91.53 157.178 90.835 157.178 90.055C157.178 89.275 157.343 88.585 157.673 87.985C158.013 87.385 158.473 86.915 159.053 86.575C159.643 86.225 160.303 86.05 161.033 86.05C161.773 86.05 162.428 86.22 162.998 86.56C163.578 86.89 164.033 87.36 164.363 87.97C164.693 88.57 164.858 89.265 164.858 90.055C164.858 90.105 164.853 90.16 164.843 90.22C164.843 90.27 164.843 90.325 164.843 90.385H157.988V89.59H164.273L163.853 89.905C163.853 89.335 163.728 88.83 163.478 88.39C163.238 87.94 162.908 87.59 162.488 87.34C162.068 87.09 161.583 86.965 161.033 86.965C160.493 86.965 160.008 87.09 159.578 87.34C159.148 87.59 158.813 87.94 158.573 88.39C158.333 88.84 158.213 89.355 158.213 89.935V90.1C158.213 90.7 158.343 91.23 158.603 91.69C158.873 92.14 159.243 92.495 159.713 92.755C160.193 93.005 160.738 93.13 161.348 93.13C161.828 93.13 162.273 93.045 162.683 92.875C163.103 92.705 163.463 92.445 163.763 92.095L164.363 92.785C164.013 93.205 163.573 93.525 163.043 93.745C162.523 93.965 161.948 94.075 161.318 94.075ZM167.026 94V86.125H168.046V88.27L167.941 87.895C168.161 87.295 168.531 86.84 169.051 86.53C169.571 86.21 170.216 86.05 170.986 86.05V87.085C170.946 87.085 170.906 87.085 170.866 87.085C170.826 87.075 170.786 87.07 170.746 87.07C169.916 87.07 169.266 87.325 168.796 87.835C168.326 88.335 168.091 89.05 168.091 89.98V94H167.026ZM175.132 94.075C174.482 94.075 173.867 93.985 173.287 93.805C172.707 93.615 172.252 93.38 171.922 93.1L172.402 92.26C172.722 92.5 173.132 92.71 173.632 92.89C174.132 93.06 174.657 93.145 175.207 93.145C175.957 93.145 176.497 93.03 176.827 92.8C177.157 92.56 177.322 92.245 177.322 91.855C177.322 91.565 177.227 91.34 177.037 91.18C176.857 91.01 176.617 90.885 176.317 90.805C176.017 90.715 175.682 90.64 175.312 90.58C174.942 90.52 174.572 90.45 174.202 90.37C173.842 90.29 173.512 90.175 173.212 90.025C172.912 89.865 172.667 89.65 172.477 89.38C172.297 89.11 172.207 88.75 172.207 88.3C172.207 87.87 172.327 87.485 172.567 87.145C172.807 86.805 173.157 86.54 173.617 86.35C174.087 86.15 174.657 86.05 175.327 86.05C175.837 86.05 176.347 86.12 176.857 86.26C177.367 86.39 177.787 86.565 178.117 86.785L177.652 87.64C177.302 87.4 176.927 87.23 176.527 87.13C176.127 87.02 175.727 86.965 175.327 86.965C174.617 86.965 174.092 87.09 173.752 87.34C173.422 87.58 173.257 87.89 173.257 88.27C173.257 88.57 173.347 88.805 173.527 88.975C173.717 89.145 173.962 89.28 174.262 89.38C174.572 89.47 174.907 89.545 175.267 89.605C175.637 89.665 176.002 89.74 176.362 89.83C176.732 89.91 177.067 90.025 177.367 90.175C177.677 90.315 177.922 90.52 178.102 90.79C178.292 91.05 178.387 91.395 178.387 91.825C178.387 92.285 178.257 92.685 177.997 93.025C177.747 93.355 177.377 93.615 176.887 93.805C176.407 93.985 175.822 94.075 175.132 94.075ZM184.492 94V83.5H188.767C189.887 83.5 190.867 83.725 191.707 84.175C192.557 84.615 193.217 85.23 193.687 86.02C194.157 86.81 194.392 87.72 194.392 88.75C194.392 89.78 194.157 90.69 193.687 91.48C193.217 92.27 192.557 92.89 191.707 93.34C190.867 93.78 189.887 94 188.767 94H184.492ZM185.602 93.04H188.707C189.637 93.04 190.442 92.86 191.122 92.5C191.812 92.13 192.347 91.625 192.727 90.985C193.107 90.335 193.297 89.59 193.297 88.75C193.297 87.9 193.107 87.155 192.727 86.515C192.347 85.875 191.812 85.375 191.122 85.015C190.442 84.645 189.637 84.46 188.707 84.46H185.602V93.04ZM200.005 94.075C199.185 94.075 198.465 93.905 197.845 93.565C197.225 93.215 196.74 92.74 196.39 92.14C196.04 91.53 195.865 90.835 195.865 90.055C195.865 89.275 196.03 88.585 196.36 87.985C196.7 87.385 197.16 86.915 197.74 86.575C198.33 86.225 198.99 86.05 199.72 86.05C200.46 86.05 201.115 86.22 201.685 86.56C202.265 86.89 202.72 87.36 203.05 87.97C203.38 88.57 203.545 89.265 203.545 90.055C203.545 90.105 203.54 90.16 203.53 90.22C203.53 90.27 203.53 90.325 203.53 90.385H196.675V89.59H202.96L202.54 89.905C202.54 89.335 202.415 88.83 202.165 88.39C201.925 87.94 201.595 87.59 201.175 87.34C200.755 87.09 200.27 86.965 199.72 86.965C199.18 86.965 198.695 87.09 198.265 87.34C197.835 87.59 197.5 87.94 197.26 88.39C197.02 88.84 196.9 89.355 196.9 89.935V90.1C196.9 90.7 197.03 91.23 197.29 91.69C197.56 92.14 197.93 92.495 198.4 92.755C198.88 93.005 199.425 93.13 200.035 93.13C200.515 93.13 200.96 93.045 201.37 92.875C201.79 92.705 202.15 92.445 202.45 92.095L203.05 92.785C202.7 93.205 202.26 93.525 201.73 93.745C201.21 93.965 200.635 94.075 200.005 94.075ZM209.073 96.985C208.353 96.985 207.663 96.88 207.003 96.67C206.343 96.46 205.808 96.16 205.398 95.77L205.938 94.96C206.308 95.29 206.763 95.55 207.303 95.74C207.853 95.94 208.433 96.04 209.043 96.04C210.043 96.04 210.778 95.805 211.248 95.335C211.718 94.875 211.953 94.155 211.953 93.175V91.21L212.103 89.86L211.998 88.51V86.125H213.018V93.04C213.018 94.4 212.683 95.395 212.013 96.025C211.353 96.665 210.373 96.985 209.073 96.985ZM208.878 93.7C208.128 93.7 207.453 93.54 206.853 93.22C206.253 92.89 205.778 92.435 205.428 91.855C205.088 91.275 204.918 90.61 204.918 89.86C204.918 89.11 205.088 88.45 205.428 87.88C205.778 87.3 206.253 86.85 206.853 86.53C207.453 86.21 208.128 86.05 208.878 86.05C209.578 86.05 210.208 86.195 210.768 86.485C211.328 86.775 211.773 87.205 212.103 87.775C212.433 88.345 212.598 89.04 212.598 89.86C212.598 90.68 212.433 91.375 212.103 91.945C211.773 92.515 211.328 92.95 210.768 93.25C210.208 93.55 209.578 93.7 208.878 93.7ZM208.983 92.755C209.563 92.755 210.078 92.635 210.528 92.395C210.978 92.145 211.333 91.805 211.593 91.375C211.853 90.935 211.983 90.43 211.983 89.86C211.983 89.29 211.853 88.79 211.593 88.36C211.333 87.93 210.978 87.595 210.528 87.355C210.078 87.105 209.563 86.98 208.983 86.98C208.413 86.98 207.898 87.105 207.438 87.355C206.988 87.595 206.633 87.93 206.373 88.36C206.123 88.79 205.998 89.29 205.998 89.86C205.998 90.43 206.123 90.935 206.373 91.375C206.633 91.805 206.988 92.145 207.438 92.395C207.898 92.635 208.413 92.755 208.983 92.755ZM215.981 94V86.125H217.001V88.27L216.896 87.895C217.116 87.295 217.486 86.84 218.006 86.53C218.526 86.21 219.171 86.05 219.941 86.05V87.085C219.901 87.085 219.861 87.085 219.821 87.085C219.781 87.075 219.741 87.07 219.701 87.07C218.871 87.07 218.221 87.325 217.751 87.835C217.281 88.335 217.046 89.05 217.046 89.98V94H215.981ZM225.156 94.075C224.336 94.075 223.616 93.905 222.996 93.565C222.376 93.215 221.891 92.74 221.541 92.14C221.191 91.53 221.016 90.835 221.016 90.055C221.016 89.275 221.181 88.585 221.511 87.985C221.851 87.385 222.311 86.915 222.891 86.575C223.481 86.225 224.141 86.05 224.871 86.05C225.611 86.05 226.266 86.22 226.836 86.56C227.416 86.89 227.871 87.36 228.201 87.97C228.531 88.57 228.696 89.265 228.696 90.055C228.696 90.105 228.691 90.16 228.681 90.22C228.681 90.27 228.681 90.325 228.681 90.385H221.826V89.59H228.111L227.691 89.905C227.691 89.335 227.566 88.83 227.316 88.39C227.076 87.94 226.746 87.59 226.326 87.34C225.906 87.09 225.421 86.965 224.871 86.965C224.331 86.965 223.846 87.09 223.416 87.34C222.986 87.59 222.651 87.94 222.411 88.39C222.171 88.84 222.051 89.355 222.051 89.935V90.1C222.051 90.7 222.181 91.23 222.441 91.69C222.711 92.14 223.081 92.495 223.551 92.755C224.031 93.005 224.576 93.13 225.186 93.13C225.666 93.13 226.111 93.045 226.521 92.875C226.941 92.705 227.301 92.445 227.601 92.095L228.201 92.785C227.851 93.205 227.411 93.525 226.881 93.745C226.361 93.965 225.786 94.075 225.156 94.075ZM234.209 94.075C233.389 94.075 232.669 93.905 232.049 93.565C231.429 93.215 230.944 92.74 230.594 92.14C230.244 91.53 230.069 90.835 230.069 90.055C230.069 89.275 230.234 88.585 230.564 87.985C230.904 87.385 231.364 86.915 231.944 86.575C232.534 86.225 233.194 86.05 233.924 86.05C234.664 86.05 235.319 86.22 235.889 86.56C236.469 86.89 236.924 87.36 237.254 87.97C237.584 88.57 237.749 89.265 237.749 90.055C237.749 90.105 237.744 90.16 237.734 90.22C237.734 90.27 237.734 90.325 237.734 90.385H230.879V89.59H237.164L236.744 89.905C236.744 89.335 236.619 88.83 236.369 88.39C236.129 87.94 235.799 87.59 235.379 87.34C234.959 87.09 234.474 86.965 233.924 86.965C233.384 86.965 232.899 87.09 232.469 87.34C232.039 87.59 231.704 87.94 231.464 88.39C231.224 88.84 231.104 89.355 231.104 89.935V90.1C231.104 90.7 231.234 91.23 231.494 91.69C231.764 92.14 232.134 92.495 232.604 92.755C233.084 93.005 233.629 93.13 234.239 93.13C234.719 93.13 235.164 93.045 235.574 92.875C235.994 92.705 236.354 92.445 236.654 92.095L237.254 92.785C236.904 93.205 236.464 93.525 235.934 93.745C235.414 93.965 234.839 94.075 234.209 94.075Z" fill="white" fill-opacity="0.8"/>
<path d="M80.2 23.52H95V26.04H80.2V23.52ZM80.52 36.44H97.36V39H77.56V11H96.76V13.56H80.52V36.44ZM111.765 39.2C109.765 39.2 107.965 38.7467 106.365 37.84C104.792 36.9333 103.552 35.68 102.645 34.08C101.739 32.4533 101.285 30.5867 101.285 28.48C101.285 26.3467 101.739 24.48 102.645 22.88C103.552 21.28 104.792 20.04 106.365 19.16C107.965 18.2533 109.765 17.8 111.765 17.8C113.605 17.8 115.245 18.2133 116.685 19.04C118.152 19.8667 119.312 21.08 120.165 22.68C121.045 24.2533 121.485 26.1867 121.485 28.48C121.485 30.7467 121.059 32.68 120.205 34.28C119.352 35.88 118.192 37.1067 116.725 37.96C115.285 38.7867 113.632 39.2 111.765 39.2ZM111.965 36.68C113.459 36.68 114.792 36.3467 115.965 35.68C117.165 34.9867 118.099 34.0267 118.765 32.8C119.459 31.5467 119.805 30.1067 119.805 28.48C119.805 26.8267 119.459 25.3867 118.765 24.16C118.099 22.9333 117.165 21.9867 115.965 21.32C114.792 20.6267 113.459 20.28 111.965 20.28C110.499 20.28 109.179 20.6267 108.005 21.32C106.832 21.9867 105.899 22.9333 105.205 24.16C104.512 25.3867 104.165 26.8267 104.165 28.48C104.165 30.1067 104.512 31.5467 105.205 32.8C105.899 34.0267 106.832 34.9867 108.005 35.68C109.179 36.3467 110.499 36.68 111.965 36.68ZM119.885 39V32.68L120.165 28.44L119.765 24.2V9.32H122.605V39H119.885ZM139.195 39.2C137.408 39.2 135.848 38.8667 134.515 38.2C133.181 37.5333 132.141 36.5333 131.395 35.2C130.675 33.8667 130.315 32.2 130.315 30.2V18H133.155V29.88C133.155 32.12 133.701 33.8133 134.795 34.96C135.915 36.08 137.475 36.64 139.475 36.64C140.941 36.64 142.208 36.3467 143.275 35.76C144.368 35.1467 145.195 34.2667 145.755 33.12C146.341 31.9733 146.635 30.6 146.635 29V18H149.475V39H146.755V33.24L147.195 34.28C146.528 35.8267 145.488 37.04 144.075 37.92C142.688 38.7733 141.061 39.2 139.195 39.2ZM166.11 39.2C164.03 39.2 162.163 38.7467 160.51 37.84C158.883 36.9067 157.603 35.64 156.67 34.04C155.736 32.4133 155.27 30.56 155.27 28.48C155.27 26.3733 155.736 24.52 156.67 22.92C157.603 21.32 158.883 20.0667 160.51 19.16C162.163 18.2533 164.03 17.8 166.11 17.8C167.896 17.8 169.51 18.1467 170.95 18.84C172.39 19.5333 173.523 20.5733 174.35 21.96L172.23 23.4C171.51 22.3333 170.616 21.5467 169.55 21.04C168.483 20.5333 167.323 20.28 166.07 20.28C164.576 20.28 163.23 20.6267 162.03 21.32C160.83 21.9867 159.883 22.9333 159.19 24.16C158.496 25.3867 158.15 26.8267 158.15 28.48C158.15 30.1333 158.496 31.5733 159.19 32.8C159.883 34.0267 160.83 34.9867 162.03 35.68C163.23 36.3467 164.576 36.68 166.07 36.68C167.323 36.68 168.483 36.4267 169.55 35.92C170.616 35.4133 171.51 34.64 172.23 33.6L174.35 35.04C173.523 36.4 172.39 37.44 170.95 38.16C169.51 38.8533 167.896 39.2 166.11 39.2ZM193.089 39V34.36L192.969 33.6V25.84C192.969 24.0533 192.462 22.68 191.449 21.72C190.462 20.76 188.982 20.28 187.009 20.28C185.649 20.28 184.355 20.5067 183.129 20.96C181.902 21.4133 180.862 22.0133 180.009 22.76L178.729 20.64C179.795 19.7333 181.075 19.04 182.569 18.56C184.062 18.0533 185.635 17.8 187.289 17.8C190.009 17.8 192.102 18.48 193.569 19.84C195.062 21.1733 195.809 23.2133 195.809 25.96V39H193.089ZM185.849 39.2C184.275 39.2 182.902 38.9467 181.729 38.44C180.582 37.9067 179.702 37.1867 179.089 36.28C178.475 35.3467 178.169 34.28 178.169 33.08C178.169 31.9867 178.422 31 178.929 30.12C179.462 29.2133 180.315 28.4933 181.489 27.96C182.689 27.4 184.289 27.12 186.289 27.12H193.529V29.24H186.369C184.342 29.24 182.929 29.6 182.129 30.32C181.355 31.04 180.969 31.9333 180.969 33C180.969 34.2 181.435 35.16 182.369 35.88C183.302 36.6 184.609 36.96 186.289 36.96C187.889 36.96 189.262 36.6 190.409 35.88C191.582 35.1333 192.435 34.0667 192.969 32.68L193.609 34.64C193.075 36.0267 192.142 37.1333 190.809 37.96C189.502 38.7867 187.849 39.2 185.849 39.2ZM210.163 39.2C208.189 39.2 206.669 38.6667 205.603 37.6C204.536 36.5333 204.003 35.0267 204.003 33.08V13.36H206.843V32.92C206.843 34.1467 207.149 35.0933 207.763 35.76C208.403 36.4267 209.309 36.76 210.483 36.76C211.736 36.76 212.776 36.4 213.603 35.68L214.603 37.72C214.043 38.2267 213.363 38.6 212.563 38.84C211.789 39.08 210.989 39.2 210.163 39.2ZM200.243 20.36V18H213.243V20.36H200.243ZM219.773 39V18H222.613V39H219.773ZM221.213 13.36C220.626 13.36 220.133 13.16 219.733 12.76C219.333 12.36 219.133 11.88 219.133 11.32C219.133 10.76 219.333 10.2933 219.733 9.92C220.133 9.52 220.626 9.32 221.213 9.32C221.799 9.32 222.293 9.50666 222.693 9.88C223.093 10.2533 223.293 10.72 223.293 11.28C223.293 11.8667 223.093 12.36 222.693 12.76C222.319 13.16 221.826 13.36 221.213 13.36ZM239.075 39.2C237.048 39.2 235.221 38.7467 233.595 37.84C231.995 36.9067 230.728 35.64 229.795 34.04C228.861 32.4133 228.395 30.56 228.395 28.48C228.395 26.3733 228.861 24.52 229.795 22.92C230.728 21.32 231.995 20.0667 233.595 19.16C235.195 18.2533 237.021 17.8 239.075 17.8C241.155 17.8 242.995 18.2533 244.595 19.16C246.221 20.0667 247.488 21.32 248.395 22.92C249.328 24.52 249.795 26.3733 249.795 28.48C249.795 30.56 249.328 32.4133 248.395 34.04C247.488 35.64 246.221 36.9067 244.595 37.84C242.968 38.7467 241.128 39.2 239.075 39.2ZM239.075 36.68C240.595 36.68 241.941 36.3467 243.115 35.68C244.288 34.9867 245.208 34.0267 245.875 32.8C246.568 31.5467 246.915 30.1067 246.915 28.48C246.915 26.8267 246.568 25.3867 245.875 24.16C245.208 22.9333 244.288 21.9867 243.115 21.32C241.941 20.6267 240.608 20.28 239.115 20.28C237.621 20.28 236.288 20.6267 235.115 21.32C233.941 21.9867 233.008 22.9333 232.315 24.16C231.621 25.3867 231.275 26.8267 231.275 28.48C231.275 30.1067 231.621 31.5467 232.315 32.8C233.008 34.0267 233.941 34.9867 235.115 35.68C236.288 36.3467 237.608 36.68 239.075 36.68ZM266.313 17.8C268.019 17.8 269.513 18.1333 270.793 18.8C272.099 19.44 273.113 20.4267 273.833 21.76C274.579 23.0933 274.953 24.7733 274.953 26.8V39H272.113V27.08C272.113 24.8667 271.553 23.2 270.433 22.08C269.339 20.9333 267.793 20.36 265.793 20.36C264.299 20.36 262.993 20.6667 261.873 21.28C260.779 21.8667 259.926 22.7333 259.313 23.88C258.726 25 258.433 26.36 258.433 27.96V39H255.593V18H258.313V23.76L257.873 22.68C258.539 21.16 259.606 19.9733 261.073 19.12C262.539 18.24 264.286 17.8 266.313 17.8Z" fill="white"/>
<path d="M49.2818 46.74C49.6966 46.74 50.0891 46.5531 50.3504 46.2307C50.6116 45.9084 50.7135 45.4856 50.6278 45.0798L49.7614 40.98C50.2548 40.5027 50.565 39.8364 50.565 39.0954C50.565 38.3154 50.2176 37.6236 49.6784 37.1429V22.9057L46.2055 25.0548V37.1429C45.6663 37.6236 45.3188 38.3154 45.3188 39.0954C45.3188 39.8364 45.629 40.5029 46.1224 40.98L45.256 45.0798C45.1703 45.4857 45.2723 45.9085 45.5334 46.2307C45.7947 46.553 46.1871 46.74 46.602 46.74H49.2818ZM50.4589 14.5977L27.8662 0.612172C27.2045 0.2046 26.4586 0 25.7127 0C24.9668 0 24.2204 0.204429 23.5627 0.612172L0.969685 14.5977C0.366403 14.971 0 15.6303 0 16.3399C0 17.0496 0.366403 17.7092 0.969685 18.0831L23.5626 32.0688C24.2203 32.4768 24.9667 32.6809 25.7126 32.6809C26.4585 32.6809 27.2045 32.4765 27.866 32.0688L50.4589 18.0831C51.0622 17.7093 51.4286 17.0496 51.4286 16.3399C51.4286 15.6303 51.0622 14.9708 50.4589 14.5977ZM25.7126 36.1536C24.3053 36.1536 22.9317 35.7627 21.7344 35.0217L8.55584 26.863V40.9114C8.55584 45.0693 16.2408 48.435 25.7126 48.435C35.1878 48.435 42.8721 45.0692 42.8721 40.9114V26.863L29.6941 35.0217C28.4968 35.7627 27.1199 36.1536 25.7126 36.1536Z" fill="white"/>
</svg>
