<svg width="28" height="21" viewBox="0 0 28 21" fill="none" xmlns="http://www.w3.org/2000/svg">
<path d="M24.1126 0H3.88735C1.74054 0 0 1.77686 0 3.96848V17.0315C0 19.2231 1.74054 21 3.88735 21H24.1126C26.2594 21 28 19.2231 28 17.0315V3.96848C28 1.77686 26.2594 0 24.1126 0ZM9.74345 14.1691L4.29986 18.91C3.9159 19.2446 3.33867 19.1981 3.01104 18.8057C2.68335 18.4137 2.72891 17.8245 3.1133 17.49L8.5569 12.749C8.9408 12.4145 9.51798 12.461 9.84566 12.8534C10.1734 13.2453 10.1278 13.8346 9.74345 14.1691ZM14 12.3667C13.2719 12.3648 12.5661 12.1179 12.0143 11.6307L12.0147 11.6311L12.013 11.6298C12.0134 11.6303 12.0139 11.6303 12.0143 11.6307L3.66198 4.23009C3.28027 3.89188 3.23963 3.30266 3.57044 2.91348C3.90168 2.5238 4.47891 2.48232 4.86008 2.82002L13.2147 10.2225C13.3933 10.3847 13.6875 10.5018 14 10.5C14.312 10.5009 14.6013 10.387 14.7897 10.2193L14.7937 10.2157L23.1399 2.82008C23.5211 2.48237 24.0983 2.52385 24.4296 2.91354C24.7603 3.30266 24.7197 3.89194 24.338 4.23015L15.9834 11.633C15.4334 12.1151 14.7285 12.3657 14 12.3667ZM24.9893 18.8057C24.6617 19.1981 24.0844 19.2446 23.7006 18.91L18.257 14.1691C17.8726 13.8345 17.8271 13.2453 18.1548 12.8534C18.4824 12.461 19.0596 12.4145 19.4435 12.749L24.8871 17.49C25.2715 17.8245 25.317 18.4137 24.9893 18.8057Z" fill="white"/>
</svg>
