<svg width="329" height="66" viewBox="0 0 329 66" fill="none" xmlns="http://www.w3.org/2000/svg">
<path d="M51.67 11H8.33004C3.72973 11 0 14.7297 0 19.33V46.75C0 51.3504 3.72973 55.0801 8.33004 55.0801H51.67C56.2702 55.0801 60 51.3504 60 46.75V19.33C60 14.7297 56.2702 11 51.67 11ZM20.8788 40.7416L9.21398 50.6932C8.39121 51.3954 7.1543 51.2977 6.45223 50.4741C5.75004 49.6514 5.84766 48.4145 6.67137 47.7124L18.3362 37.7608C19.1589 37.0586 20.3957 37.1562 21.0979 37.98C21.8 38.8026 21.7024 40.0395 20.8788 40.7416ZM30 36.9583C28.4398 36.9545 26.9273 36.436 25.7449 35.4134L25.7459 35.4144L25.7421 35.4116C25.743 35.4125 25.7441 35.4125 25.7449 35.4134L7.84711 19.8792C7.02914 19.1693 6.94207 17.9325 7.65094 17.1155C8.36074 16.2976 9.59766 16.2105 10.4145 16.9194L28.3173 32.4575C28.6999 32.798 29.3304 33.0439 30 33.04C30.6687 33.042 31.2885 32.8029 31.6922 32.4508L31.7009 32.4432L49.5854 16.9195C50.4023 16.2106 51.6393 16.2977 52.3491 17.1157C53.0578 17.9325 52.9709 19.1694 52.1529 19.8793L34.2502 35.4182C33.0716 36.4302 31.5612 36.9563 30 36.9583ZM53.5486 50.4741C52.8464 51.2977 51.6095 51.3954 50.787 50.6932L39.1221 40.7416C38.2985 40.0394 38.2009 38.8026 38.9031 37.98C39.6052 37.1562 40.8421 37.0588 41.6647 37.7608L53.3296 47.7124C54.1532 48.4145 54.2508 49.6514 53.5486 50.4741Z" fill="white"/>
<path d="M96.76 18.616H108.6V20.632H96.76V18.616ZM97.016 28.952H110.488V31H94.648V8.6H110.008V10.648H97.016V28.952ZM113.701 23.32V21.336H122.085V23.32H113.701ZM148.16 14.04C149.525 14.04 150.709 14.3067 151.712 14.84C152.736 15.352 153.525 16.1413 154.08 17.208C154.656 18.2747 154.944 19.6187 154.944 21.24V31H152.672V21.464C152.672 19.6933 152.245 18.36 151.392 17.464C150.56 16.5467 149.376 16.088 147.84 16.088C146.688 16.088 145.685 16.3333 144.832 16.824C144 17.2933 143.349 17.9867 142.88 18.904C142.432 19.8 142.208 20.888 142.208 22.168V31H139.936V21.464C139.936 19.6933 139.509 18.36 138.656 17.464C137.803 16.5467 136.608 16.088 135.072 16.088C133.941 16.088 132.949 16.3333 132.096 16.824C131.243 17.2933 130.581 17.9867 130.112 18.904C129.664 19.8 129.44 20.888 129.44 22.168V31H127.168V14.2H129.344V18.744L128.992 17.944C129.504 16.728 130.325 15.7787 131.456 15.096C132.608 14.392 133.963 14.04 135.52 14.04C137.163 14.04 138.56 14.456 139.712 15.288C140.864 16.0987 141.611 17.3253 141.952 18.968L141.056 18.616C141.547 17.2507 142.411 16.152 143.648 15.32C144.907 14.4667 146.411 14.04 148.16 14.04ZM171.634 31V27.288L171.538 26.68V20.472C171.538 19.0427 171.132 17.944 170.322 17.176C169.532 16.408 168.348 16.024 166.77 16.024C165.682 16.024 164.647 16.2053 163.666 16.568C162.684 16.9307 161.852 17.4107 161.17 18.008L160.146 16.312C160.999 15.5867 162.023 15.032 163.218 14.648C164.412 14.2427 165.671 14.04 166.994 14.04C169.17 14.04 170.844 14.584 172.018 15.672C173.212 16.7387 173.81 18.3707 173.81 20.568V31H171.634ZM165.842 31.16C164.583 31.16 163.484 30.9573 162.546 30.552C161.628 30.1253 160.924 29.5493 160.434 28.824C159.943 28.0773 159.698 27.224 159.698 26.264C159.698 25.3893 159.9 24.6 160.306 23.896C160.732 23.1707 161.415 22.5947 162.354 22.168C163.314 21.72 164.594 21.496 166.194 21.496H171.986V23.192H166.258C164.636 23.192 163.506 23.48 162.866 24.056C162.247 24.632 161.938 25.3467 161.938 26.2C161.938 27.16 162.311 27.928 163.058 28.504C163.804 29.08 164.85 29.368 166.194 29.368C167.474 29.368 168.572 29.08 169.49 28.504C170.428 27.9067 171.111 27.0533 171.538 25.944L172.05 27.512C171.623 28.6213 170.876 29.5067 169.81 30.168C168.764 30.8293 167.442 31.16 165.842 31.16ZM179.981 31V14.2H182.253V31H179.981ZM181.133 10.488C180.663 10.488 180.269 10.328 179.949 10.008C179.629 9.688 179.469 9.304 179.469 8.856C179.469 8.408 179.629 8.03466 179.949 7.736C180.269 7.416 180.663 7.256 181.133 7.256C181.602 7.256 181.997 7.40533 182.317 7.704C182.637 8.00267 182.797 8.376 182.797 8.824C182.797 9.29333 182.637 9.688 182.317 10.008C182.018 10.328 181.623 10.488 181.133 10.488ZM188.574 31V7.256H190.846V31H188.574Z" fill="white"/>
<path d="M103.08 53.52C103.763 53.52 104.355 53.6533 104.856 53.92C105.368 54.176 105.763 54.5707 106.04 55.104C106.328 55.6373 106.472 56.3093 106.472 57.12V62H105.336V57.232C105.336 56.3467 105.123 55.68 104.696 55.232C104.28 54.7733 103.688 54.544 102.92 54.544C102.344 54.544 101.843 54.6667 101.416 54.912C101 55.1467 100.675 55.4933 100.44 55.952C100.216 56.4 100.104 56.944 100.104 57.584V62H98.968V57.232C98.968 56.3467 98.7547 55.68 98.328 55.232C97.9013 54.7733 97.304 54.544 96.536 54.544C95.9707 54.544 95.4747 54.6667 95.048 54.912C94.6213 55.1467 94.2907 55.4933 94.056 55.952C93.832 56.4 93.72 56.944 93.72 57.584V62H92.584V53.6H93.672V55.872L93.496 55.472C93.752 54.864 94.1627 54.3893 94.728 54.048C95.304 53.696 95.9813 53.52 96.76 53.52C97.5813 53.52 98.28 53.728 98.856 54.144C99.432 54.5493 99.8053 55.1627 99.976 55.984L99.528 55.808C99.7733 55.1253 100.205 54.576 100.824 54.16C101.453 53.7333 102.205 53.52 103.08 53.52ZM112.977 62.08C112.166 62.08 111.435 61.8987 110.785 61.536C110.145 61.1627 109.638 60.656 109.265 60.016C108.891 59.3653 108.705 58.624 108.705 57.792C108.705 56.9493 108.891 56.208 109.265 55.568C109.638 54.928 110.145 54.4267 110.785 54.064C111.425 53.7013 112.155 53.52 112.977 53.52C113.809 53.52 114.545 53.7013 115.185 54.064C115.835 54.4267 116.342 54.928 116.705 55.568C117.078 56.208 117.265 56.9493 117.265 57.792C117.265 58.624 117.078 59.3653 116.705 60.016C116.342 60.656 115.835 61.1627 115.185 61.536C114.534 61.8987 113.798 62.08 112.977 62.08ZM112.977 61.072C113.585 61.072 114.123 60.9387 114.593 60.672C115.062 60.3947 115.43 60.0107 115.697 59.52C115.974 59.0187 116.113 58.4427 116.113 57.792C116.113 57.1307 115.974 56.5547 115.697 56.064C115.43 55.5733 115.062 55.1947 114.593 54.928C114.123 54.6507 113.59 54.512 112.993 54.512C112.395 54.512 111.862 54.6507 111.393 54.928C110.923 55.1947 110.55 55.5733 110.273 56.064C109.995 56.5547 109.857 57.1307 109.857 57.792C109.857 58.4427 109.995 59.0187 110.273 59.52C110.55 60.0107 110.923 60.3947 111.393 60.672C111.862 60.9387 112.39 61.072 112.977 61.072ZM123.872 53.52C124.555 53.52 125.152 53.6533 125.664 53.92C126.187 54.176 126.592 54.5707 126.88 55.104C127.179 55.6373 127.328 56.3093 127.328 57.12V62H126.192V57.232C126.192 56.3467 125.968 55.68 125.52 55.232C125.083 54.7733 124.464 54.544 123.664 54.544C123.067 54.544 122.544 54.6667 122.096 54.912C121.659 55.1467 121.317 55.4933 121.072 55.952C120.837 56.4 120.72 56.944 120.72 57.584V62H119.584V50.128H120.72V55.904L120.496 55.472C120.763 54.864 121.189 54.3893 121.776 54.048C122.363 53.696 123.061 53.52 123.872 53.52ZM133.741 62.08C132.941 62.08 132.221 61.8987 131.581 61.536C130.951 61.1733 130.455 60.672 130.093 60.032C129.73 59.3813 129.549 58.6347 129.549 57.792C129.549 56.9387 129.73 56.192 130.093 55.552C130.455 54.912 130.951 54.416 131.581 54.064C132.221 53.7013 132.941 53.52 133.741 53.52C134.477 53.52 135.133 53.6853 135.709 54.016C136.295 54.3467 136.759 54.832 137.101 55.472C137.453 56.1013 137.628 56.8747 137.628 57.792C137.628 58.6987 137.458 59.472 137.117 60.112C136.775 60.752 136.311 61.2427 135.725 61.584C135.149 61.9147 134.487 62.08 133.741 62.08ZM133.821 61.072C134.418 61.072 134.951 60.9387 135.421 60.672C135.901 60.3947 136.274 60.0107 136.541 59.52C136.818 59.0187 136.957 58.4427 136.957 57.792C136.957 57.1307 136.818 56.5547 136.541 56.064C136.274 55.5733 135.901 55.1947 135.421 54.928C134.951 54.6507 134.418 54.512 133.821 54.512C133.234 54.512 132.706 54.6507 132.237 54.928C131.767 55.1947 131.394 55.5733 131.117 56.064C130.839 56.5547 130.701 57.1307 130.701 57.792C130.701 58.4427 130.839 59.0187 131.117 59.52C131.394 60.0107 131.767 60.3947 132.237 60.672C132.706 60.9387 133.234 61.072 133.821 61.072ZM136.989 62V59.472L137.101 57.776L136.941 56.08V50.128H138.077V62H136.989ZM143.496 62.08C142.803 62.08 142.147 61.984 141.528 61.792C140.91 61.5893 140.424 61.3387 140.072 61.04L140.584 60.144C140.926 60.4 141.363 60.624 141.896 60.816C142.43 60.9973 142.99 61.088 143.576 61.088C144.376 61.088 144.952 60.9653 145.304 60.72C145.656 60.464 145.832 60.128 145.832 59.712C145.832 59.4027 145.731 59.1627 145.528 58.992C145.336 58.8107 145.08 58.6773 144.76 58.592C144.44 58.496 144.083 58.416 143.688 58.352C143.294 58.288 142.899 58.2133 142.504 58.128C142.12 58.0427 141.768 57.92 141.448 57.76C141.128 57.5893 140.867 57.36 140.664 57.072C140.472 56.784 140.376 56.4 140.376 55.92C140.376 55.4613 140.504 55.0507 140.76 54.688C141.016 54.3253 141.39 54.0427 141.88 53.84C142.382 53.6267 142.99 53.52 143.704 53.52C144.248 53.52 144.792 53.5947 145.336 53.744C145.88 53.8827 146.328 54.0693 146.68 54.304L146.184 55.216C145.811 54.96 145.411 54.7787 144.984 54.672C144.558 54.5547 144.131 54.496 143.704 54.496C142.947 54.496 142.387 54.6293 142.024 54.896C141.672 55.152 141.496 55.4827 141.496 55.888C141.496 56.208 141.592 56.4587 141.784 56.64C141.987 56.8213 142.248 56.9653 142.568 57.072C142.899 57.168 143.256 57.248 143.64 57.312C144.035 57.376 144.424 57.456 144.808 57.552C145.203 57.6373 145.56 57.76 145.88 57.92C146.211 58.0693 146.472 58.288 146.664 58.576C146.867 58.8533 146.968 59.2213 146.968 59.68C146.968 60.1707 146.83 60.5973 146.552 60.96C146.286 61.312 145.891 61.5893 145.368 61.792C144.856 61.984 144.232 62.08 143.496 62.08ZM154.317 62V60.144L154.269 59.84V56.736C154.269 56.0213 154.066 55.472 153.661 55.088C153.266 54.704 152.674 54.512 151.885 54.512C151.341 54.512 150.823 54.6027 150.333 54.784C149.842 54.9653 149.426 55.2053 149.085 55.504L148.573 54.656C148.999 54.2933 149.511 54.016 150.109 53.824C150.706 53.6213 151.335 53.52 151.997 53.52C153.085 53.52 153.922 53.792 154.509 54.336C155.106 54.8693 155.405 55.6853 155.405 56.784V62H154.317ZM151.421 62.08C150.791 62.08 150.242 61.9787 149.773 61.776C149.314 61.5627 148.962 61.2747 148.717 60.912C148.471 60.5387 148.349 60.112 148.349 59.632C148.349 59.1947 148.45 58.8 148.653 58.448C148.866 58.0853 149.207 57.7973 149.677 57.584C150.157 57.36 150.797 57.248 151.597 57.248H154.493V58.096H151.629C150.818 58.096 150.253 58.24 149.933 58.528C149.623 58.816 149.469 59.1733 149.469 59.6C149.469 60.08 149.655 60.464 150.029 60.752C150.402 61.04 150.925 61.184 151.597 61.184C152.237 61.184 152.786 61.04 153.245 60.752C153.714 60.4533 154.055 60.0267 154.269 59.472L154.525 60.256C154.311 60.8107 153.938 61.2533 153.405 61.584C152.882 61.9147 152.221 62.08 151.421 62.08ZM163.754 62V60.144L163.706 59.84V56.736C163.706 56.0213 163.504 55.472 163.098 55.088C162.704 54.704 162.112 54.512 161.322 54.512C160.778 54.512 160.261 54.6027 159.77 54.784C159.28 54.9653 158.864 55.2053 158.522 55.504L158.01 54.656C158.437 54.2933 158.949 54.016 159.546 53.824C160.144 53.6213 160.773 53.52 161.434 53.52C162.522 53.52 163.36 53.792 163.946 54.336C164.544 54.8693 164.842 55.6853 164.842 56.784V62H163.754ZM160.858 62.08C160.229 62.08 159.68 61.9787 159.21 61.776C158.752 61.5627 158.4 61.2747 158.154 60.912C157.909 60.5387 157.786 60.112 157.786 59.632C157.786 59.1947 157.888 58.8 158.09 58.448C158.304 58.0853 158.645 57.7973 159.114 57.584C159.594 57.36 160.234 57.248 161.034 57.248H163.93V58.096H161.066C160.256 58.096 159.69 58.24 159.37 58.528C159.061 58.816 158.906 59.1733 158.906 59.6C158.906 60.08 159.093 60.464 159.466 60.752C159.84 61.04 160.362 61.184 161.034 61.184C161.674 61.184 162.224 61.04 162.682 60.752C163.152 60.4533 163.493 60.0267 163.706 59.472L163.962 60.256C163.749 60.8107 163.376 61.2533 162.842 61.584C162.32 61.9147 161.658 62.08 160.858 62.08ZM171.272 62.08C170.472 62.08 169.752 61.8987 169.112 61.536C168.482 61.1733 167.986 60.672 167.624 60.032C167.261 59.3813 167.08 58.6347 167.08 57.792C167.08 56.9387 167.261 56.192 167.624 55.552C167.986 54.912 168.482 54.416 169.112 54.064C169.752 53.7013 170.472 53.52 171.272 53.52C172.008 53.52 172.664 53.6853 173.24 54.016C173.826 54.3467 174.29 54.832 174.632 55.472C174.984 56.1013 175.16 56.8747 175.16 57.792C175.16 58.6987 174.989 59.472 174.648 60.112C174.306 60.752 173.842 61.2427 173.256 61.584C172.68 61.9147 172.018 62.08 171.272 62.08ZM171.352 61.072C171.949 61.072 172.482 60.9387 172.952 60.672C173.432 60.3947 173.805 60.0107 174.072 59.52C174.349 59.0187 174.488 58.4427 174.488 57.792C174.488 57.1307 174.349 56.5547 174.072 56.064C173.805 55.5733 173.432 55.1947 172.952 54.928C172.482 54.6507 171.949 54.512 171.352 54.512C170.765 54.512 170.237 54.6507 169.768 54.928C169.298 55.1947 168.925 55.5733 168.648 56.064C168.37 56.5547 168.232 57.1307 168.232 57.792C168.232 58.4427 168.37 59.0187 168.648 59.52C168.925 60.0107 169.298 60.3947 169.768 60.672C170.237 60.9387 170.765 61.072 171.352 61.072ZM174.52 62V59.472L174.632 57.776L174.472 56.08V50.128H175.608V62H174.52ZM182.276 62.096C181.38 62.096 180.606 61.968 179.956 61.712C179.316 61.456 178.82 61.088 178.468 60.608C178.126 60.1173 177.956 59.5413 177.956 58.88C177.956 58.24 178.121 57.696 178.452 57.248C178.793 56.7893 179.284 56.4373 179.924 56.192C180.574 55.9467 181.358 55.824 182.276 55.824C183.182 55.824 183.961 55.9467 184.612 56.192C185.262 56.4373 185.758 56.7893 186.1 57.248C186.452 57.696 186.628 58.24 186.628 58.88C186.628 59.5413 186.452 60.1173 186.1 60.608C185.748 61.088 185.246 61.456 184.596 61.712C183.945 61.968 183.172 62.096 182.276 62.096ZM182.276 61.12C183.268 61.12 184.041 60.9173 184.596 60.512C185.161 60.1067 185.444 59.5573 185.444 58.864C185.444 58.1707 185.161 57.6267 184.596 57.232C184.041 56.8267 183.268 56.624 182.276 56.624C181.284 56.624 180.51 56.8267 179.956 57.232C179.401 57.6267 179.124 58.1707 179.124 58.864C179.124 59.5573 179.401 60.1067 179.956 60.512C180.51 60.9173 181.284 61.12 182.276 61.12ZM182.276 56.48C181.444 56.48 180.734 56.368 180.148 56.144C179.572 55.92 179.129 55.6 178.82 55.184C178.51 54.7573 178.356 54.2507 178.356 53.664C178.356 53.0453 178.516 52.5173 178.836 52.08C179.166 51.632 179.625 51.2907 180.212 51.056C180.798 50.8213 181.486 50.704 182.276 50.704C183.065 50.704 183.753 50.8213 184.34 51.056C184.937 51.2907 185.401 51.632 185.732 52.08C186.062 52.5173 186.227 53.0453 186.227 53.664C186.227 54.2507 186.073 54.7573 185.764 55.184C185.454 55.6 185.001 55.92 184.404 56.144C183.817 56.368 183.108 56.48 182.276 56.48ZM182.276 55.712C183.15 55.712 183.833 55.5307 184.324 55.168C184.814 54.8053 185.06 54.32 185.06 53.712C185.06 53.072 184.804 52.576 184.292 52.224C183.79 51.8613 183.118 51.68 182.276 51.68C181.433 51.68 180.761 51.8613 180.26 52.224C179.758 52.576 179.508 53.0667 179.508 53.696C179.508 54.3147 179.748 54.8053 180.228 55.168C180.718 55.5307 181.401 55.712 182.276 55.712ZM192.479 62.096C191.583 62.096 190.809 61.968 190.159 61.712C189.519 61.456 189.023 61.088 188.671 60.608C188.329 60.1173 188.159 59.5413 188.159 58.88C188.159 58.24 188.324 57.696 188.655 57.248C188.996 56.7893 189.487 56.4373 190.127 56.192C190.777 55.9467 191.561 55.824 192.479 55.824C193.385 55.824 194.164 55.9467 194.815 56.192C195.465 56.4373 195.961 56.7893 196.303 57.248C196.655 57.696 196.831 58.24 196.831 58.88C196.831 59.5413 196.655 60.1173 196.303 60.608C195.951 61.088 195.449 61.456 194.799 61.712C194.148 61.968 193.375 62.096 192.479 62.096ZM192.479 61.12C193.471 61.12 194.244 60.9173 194.799 60.512C195.364 60.1067 195.647 59.5573 195.647 58.864C195.647 58.1707 195.364 57.6267 194.799 57.232C194.244 56.8267 193.471 56.624 192.479 56.624C191.487 56.624 190.713 56.8267 190.159 57.232C189.604 57.6267 189.327 58.1707 189.327 58.864C189.327 59.5573 189.604 60.1067 190.159 60.512C190.713 60.9173 191.487 61.12 192.479 61.12ZM192.479 56.48C191.647 56.48 190.937 56.368 190.351 56.144C189.775 55.92 189.332 55.6 189.023 55.184C188.713 54.7573 188.559 54.2507 188.559 53.664C188.559 53.0453 188.719 52.5173 189.039 52.08C189.369 51.632 189.828 51.2907 190.415 51.056C191.001 50.8213 191.689 50.704 192.479 50.704C193.268 50.704 193.956 50.8213 194.543 51.056C195.14 51.2907 195.604 51.632 195.935 52.08C196.265 52.5173 196.431 53.0453 196.431 53.664C196.431 54.2507 196.276 54.7573 195.967 55.184C195.657 55.6 195.204 55.92 194.607 56.144C194.02 56.368 193.311 56.48 192.479 56.48ZM192.479 55.712C193.353 55.712 194.036 55.5307 194.527 55.168C195.017 54.8053 195.263 54.32 195.263 53.712C195.263 53.072 195.007 52.576 194.495 52.224C193.993 51.8613 193.321 51.68 192.479 51.68C191.636 51.68 190.964 51.8613 190.463 52.224C189.961 52.576 189.711 53.0667 189.711 53.696C189.711 54.3147 189.951 54.8053 190.431 55.168C190.921 55.5307 191.604 55.712 192.479 55.712ZM202.682 62.096C201.786 62.096 201.012 61.968 200.362 61.712C199.722 61.456 199.226 61.088 198.874 60.608C198.532 60.1173 198.362 59.5413 198.362 58.88C198.362 58.24 198.527 57.696 198.858 57.248C199.199 56.7893 199.69 56.4373 200.33 56.192C200.98 55.9467 201.764 55.824 202.682 55.824C203.588 55.824 204.367 55.9467 205.018 56.192C205.668 56.4373 206.164 56.7893 206.506 57.248C206.858 57.696 207.034 58.24 207.034 58.88C207.034 59.5413 206.858 60.1173 206.506 60.608C206.154 61.088 205.652 61.456 205.002 61.712C204.351 61.968 203.578 62.096 202.682 62.096ZM202.682 61.12C203.674 61.12 204.447 60.9173 205.002 60.512C205.567 60.1067 205.85 59.5573 205.85 58.864C205.85 58.1707 205.567 57.6267 205.002 57.232C204.447 56.8267 203.674 56.624 202.682 56.624C201.69 56.624 200.916 56.8267 200.362 57.232C199.807 57.6267 199.53 58.1707 199.53 58.864C199.53 59.5573 199.807 60.1067 200.362 60.512C200.916 60.9173 201.69 61.12 202.682 61.12ZM202.682 56.48C201.85 56.48 201.14 56.368 200.554 56.144C199.978 55.92 199.535 55.6 199.226 55.184C198.916 54.7573 198.762 54.2507 198.762 53.664C198.762 53.0453 198.922 52.5173 199.242 52.08C199.572 51.632 200.031 51.2907 200.618 51.056C201.204 50.8213 201.892 50.704 202.682 50.704C203.471 50.704 204.159 50.8213 204.746 51.056C205.343 51.2907 205.807 51.632 206.138 52.08C206.468 52.5173 206.634 53.0453 206.634 53.664C206.634 54.2507 206.479 54.7573 206.17 55.184C205.86 55.6 205.407 55.92 204.81 56.144C204.223 56.368 203.514 56.48 202.682 56.48ZM202.682 55.712C203.556 55.712 204.239 55.5307 204.73 55.168C205.22 54.8053 205.466 54.32 205.466 53.712C205.466 53.072 205.21 52.576 204.698 52.224C204.196 51.8613 203.524 51.68 202.682 51.68C201.839 51.68 201.167 51.8613 200.666 52.224C200.164 52.576 199.914 53.0667 199.914 53.696C199.914 54.3147 200.154 54.8053 200.634 55.168C201.124 55.5307 201.807 55.712 202.682 55.712ZM208.437 59.056V58.224L214.373 50.8H215.653L209.765 58.224L209.141 58.032H218.149V59.056H208.437ZM214.757 62V59.056L214.789 58.032V55.44H215.909V62H214.757ZM218.968 62V61.184L223.624 56.624C224.05 56.208 224.37 55.8453 224.584 55.536C224.797 55.216 224.941 54.9173 225.016 54.64C225.09 54.3627 225.128 54.1013 225.128 53.856C225.128 53.2053 224.904 52.6933 224.456 52.32C224.018 51.9467 223.368 51.76 222.504 51.76C221.842 51.76 221.256 51.8613 220.744 52.064C220.242 52.2667 219.81 52.5813 219.448 53.008L218.632 52.304C219.069 51.792 219.629 51.3973 220.312 51.12C220.994 50.8427 221.757 50.704 222.6 50.704C223.357 50.704 224.013 50.8267 224.568 51.072C225.122 51.3067 225.549 51.6533 225.848 52.112C226.157 52.5707 226.312 53.1093 226.312 53.728C226.312 54.0907 226.258 54.448 226.152 54.8C226.056 55.152 225.874 55.5253 225.608 55.92C225.352 56.304 224.973 56.7413 224.472 57.232L220.2 61.424L219.88 60.976H226.824V62H218.968ZM235.678 65.2C234.579 65.2 233.576 65.0187 232.67 64.656C231.763 64.304 230.979 63.8027 230.318 63.152C229.667 62.512 229.16 61.7493 228.798 60.864C228.446 59.968 228.27 58.992 228.27 57.936C228.27 56.8693 228.446 55.8987 228.798 55.024C229.16 54.1387 229.672 53.376 230.334 52.736C231.006 52.0853 231.8 51.584 232.718 51.232C233.635 50.88 234.643 50.704 235.742 50.704C236.83 50.704 237.822 50.8747 238.718 51.216C239.624 51.5573 240.408 52.0427 241.07 52.672C241.731 53.2907 242.238 54.032 242.59 54.896C242.952 55.76 243.134 56.7147 243.134 57.76C243.134 58.656 243.027 59.4293 242.814 60.08C242.611 60.72 242.312 61.216 241.918 61.568C241.523 61.9093 241.048 62.08 240.494 62.08C239.95 62.08 239.512 61.9147 239.182 61.584C238.851 61.2533 238.686 60.7893 238.686 60.192V58.928L238.814 57.904L238.654 56.304V53.888H239.694V59.952C239.694 60.4 239.79 60.7147 239.982 60.896C240.174 61.0773 240.408 61.168 240.686 61.168C241.016 61.168 241.304 61.0347 241.55 60.768C241.795 60.5013 241.982 60.1173 242.11 59.616C242.248 59.104 242.318 58.4907 242.318 57.776C242.318 56.8373 242.158 55.984 241.838 55.216C241.518 54.448 241.064 53.7867 240.478 53.232C239.891 52.6773 239.198 52.256 238.398 51.968C237.598 51.6693 236.712 51.52 235.742 51.52C234.771 51.52 233.88 51.6747 233.07 51.984C232.259 52.2933 231.56 52.736 230.974 53.312C230.398 53.8773 229.95 54.5547 229.63 55.344C229.31 56.1227 229.15 56.9867 229.15 57.936C229.15 58.8853 229.304 59.7547 229.614 60.544C229.934 61.3333 230.382 62.0107 230.958 62.576C231.534 63.152 232.222 63.5947 233.022 63.904C233.822 64.224 234.707 64.384 235.678 64.384C236.158 64.384 236.67 64.3253 237.214 64.208C237.768 64.0907 238.28 63.9147 238.75 63.68L239.022 64.464C238.542 64.7093 237.998 64.8907 237.39 65.008C236.782 65.136 236.211 65.2 235.678 65.2ZM235.486 62.08C234.728 62.08 234.051 61.904 233.454 61.552C232.856 61.1893 232.382 60.6987 232.03 60.08C231.688 59.4507 231.518 58.736 231.518 57.936C231.518 57.136 231.688 56.4267 232.03 55.808C232.382 55.1893 232.856 54.704 233.454 54.352C234.051 54 234.728 53.824 235.486 53.824C236.222 53.824 236.872 53.9893 237.438 54.32C238.014 54.6507 238.462 55.1253 238.782 55.744C239.112 56.352 239.278 57.0827 239.278 57.936C239.278 58.7893 239.112 59.5253 238.782 60.144C238.462 60.7627 238.019 61.2427 237.454 61.584C236.888 61.9147 236.232 62.08 235.486 62.08ZM235.63 61.152C236.206 61.152 236.723 61.0187 237.182 60.752C237.651 60.4853 238.014 60.112 238.27 59.632C238.536 59.1413 238.67 58.576 238.67 57.936C238.67 57.2853 238.536 56.7253 238.27 56.256C238.014 55.776 237.651 55.408 237.182 55.152C236.723 54.8853 236.206 54.752 235.63 54.752C235.032 54.752 234.504 54.8853 234.046 55.152C233.587 55.408 233.224 55.776 232.958 56.256C232.702 56.736 232.574 57.296 232.574 57.936C232.574 58.576 232.702 59.136 232.958 59.616C233.224 60.096 233.587 60.4747 234.046 60.752C234.504 61.0187 235.032 61.152 235.63 61.152ZM249.137 65.184C248.369 65.184 247.633 65.072 246.929 64.848C246.225 64.624 245.654 64.304 245.217 63.888L245.793 63.024C246.187 63.376 246.673 63.6533 247.249 63.856C247.835 64.0693 248.454 64.176 249.105 64.176C250.171 64.176 250.955 63.9253 251.457 63.424C251.958 62.9333 252.209 62.1653 252.209 61.12V59.024L252.369 57.584L252.257 56.144V53.6H253.345V60.976C253.345 62.4267 252.987 63.488 252.273 64.16C251.569 64.8427 250.523 65.184 249.137 65.184ZM248.929 61.68C248.129 61.68 247.409 61.5093 246.769 61.168C246.129 60.816 245.622 60.3307 245.249 59.712C244.886 59.0933 244.705 58.384 244.705 57.584C244.705 56.784 244.886 56.08 245.249 55.472C245.622 54.8533 246.129 54.3733 246.769 54.032C247.409 53.6907 248.129 53.52 248.929 53.52C249.675 53.52 250.347 53.6747 250.945 53.984C251.542 54.2933 252.017 54.752 252.369 55.36C252.721 55.968 252.897 56.7093 252.897 57.584C252.897 58.4587 252.721 59.2 252.369 59.808C252.017 60.416 251.542 60.88 250.945 61.2C250.347 61.52 249.675 61.68 248.929 61.68ZM249.041 60.672C249.659 60.672 250.209 60.544 250.689 60.288C251.169 60.0213 251.547 59.6587 251.825 59.2C252.102 58.7307 252.241 58.192 252.241 57.584C252.241 56.976 252.102 56.4427 251.825 55.984C251.547 55.5253 251.169 55.168 250.689 54.912C250.209 54.6453 249.659 54.512 249.041 54.512C248.433 54.512 247.883 54.6453 247.393 54.912C246.913 55.168 246.534 55.5253 246.257 55.984C245.99 56.4427 245.857 56.976 245.857 57.584C245.857 58.192 245.99 58.7307 246.257 59.2C246.534 59.6587 246.913 60.0213 247.393 60.288C247.883 60.544 248.433 60.672 249.041 60.672ZM267.002 53.52C267.685 53.52 268.277 53.6533 268.778 53.92C269.29 54.176 269.685 54.5707 269.962 55.104C270.25 55.6373 270.394 56.3093 270.394 57.12V62H269.258V57.232C269.258 56.3467 269.045 55.68 268.618 55.232C268.202 54.7733 267.61 54.544 266.842 54.544C266.266 54.544 265.765 54.6667 265.338 54.912C264.922 55.1467 264.597 55.4933 264.362 55.952C264.138 56.4 264.026 56.944 264.026 57.584V62H262.89V57.232C262.89 56.3467 262.677 55.68 262.25 55.232C261.823 54.7733 261.226 54.544 260.458 54.544C259.893 54.544 259.397 54.6667 258.97 54.912C258.543 55.1467 258.213 55.4933 257.978 55.952C257.754 56.4 257.642 56.944 257.642 57.584V62H256.506V53.6H257.594V55.872L257.418 55.472C257.674 54.864 258.085 54.3893 258.65 54.048C259.226 53.696 259.903 53.52 260.682 53.52C261.503 53.52 262.202 53.728 262.778 54.144C263.354 54.5493 263.727 55.1627 263.898 55.984L263.45 55.808C263.695 55.1253 264.127 54.576 264.746 54.16C265.375 53.7333 266.127 53.52 267.002 53.52ZM278.739 62V60.144L278.691 59.84V56.736C278.691 56.0213 278.488 55.472 278.083 55.088C277.688 54.704 277.096 54.512 276.307 54.512C275.763 54.512 275.245 54.6027 274.755 54.784C274.264 54.9653 273.848 55.2053 273.507 55.504L272.995 54.656C273.421 54.2933 273.933 54.016 274.531 53.824C275.128 53.6213 275.757 53.52 276.419 53.52C277.507 53.52 278.344 53.792 278.931 54.336C279.528 54.8693 279.827 55.6853 279.827 56.784V62H278.739ZM275.843 62.08C275.213 62.08 274.664 61.9787 274.195 61.776C273.736 61.5627 273.384 61.2747 273.139 60.912C272.893 60.5387 272.771 60.112 272.771 59.632C272.771 59.1947 272.872 58.8 273.075 58.448C273.288 58.0853 273.629 57.7973 274.099 57.584C274.579 57.36 275.219 57.248 276.019 57.248H278.915V58.096H276.051C275.24 58.096 274.675 58.24 274.355 58.528C274.045 58.816 273.891 59.1733 273.891 59.6C273.891 60.08 274.077 60.464 274.451 60.752C274.824 61.04 275.347 61.184 276.019 61.184C276.659 61.184 277.208 61.04 277.667 60.752C278.136 60.4533 278.477 60.0267 278.691 59.472L278.947 60.256C278.733 60.8107 278.36 61.2533 277.827 61.584C277.304 61.9147 276.643 62.08 275.843 62.08ZM282.912 62V53.6H284.048V62H282.912ZM283.488 51.744C283.253 51.744 283.056 51.664 282.896 51.504C282.736 51.344 282.656 51.152 282.656 50.928C282.656 50.704 282.736 50.5173 282.896 50.368C283.056 50.208 283.253 50.128 283.488 50.128C283.723 50.128 283.92 50.2027 284.08 50.352C284.24 50.5013 284.32 50.688 284.32 50.912C284.32 51.1467 284.24 51.344 284.08 51.504C283.931 51.664 283.733 51.744 283.488 51.744ZM287.209 62V50.128H288.345V62H287.209ZM291.618 62.08C291.383 62.08 291.181 61.9947 291.01 61.824C290.85 61.6533 290.77 61.4453 290.77 61.2C290.77 60.944 290.85 60.736 291.01 60.576C291.181 60.416 291.383 60.336 291.618 60.336C291.853 60.336 292.05 60.416 292.21 60.576C292.381 60.736 292.466 60.944 292.466 61.2C292.466 61.4453 292.381 61.6533 292.21 61.824C292.05 61.9947 291.853 62.08 291.618 62.08ZM298.15 62.08C297.318 62.08 296.571 61.8987 295.91 61.536C295.259 61.1627 294.747 60.656 294.374 60.016C294.001 59.3653 293.814 58.624 293.814 57.792C293.814 56.9493 294.001 56.208 294.374 55.568C294.747 54.928 295.259 54.4267 295.91 54.064C296.571 53.7013 297.318 53.52 298.15 53.52C298.865 53.52 299.51 53.6587 300.086 53.936C300.662 54.2133 301.115 54.6293 301.446 55.184L300.598 55.76C300.31 55.3333 299.953 55.0187 299.526 54.816C299.099 54.6133 298.635 54.512 298.134 54.512C297.537 54.512 296.998 54.6507 296.518 54.928C296.038 55.1947 295.659 55.5733 295.382 56.064C295.105 56.5547 294.966 57.1307 294.966 57.792C294.966 58.4533 295.105 59.0293 295.382 59.52C295.659 60.0107 296.038 60.3947 296.518 60.672C296.998 60.9387 297.537 61.072 298.134 61.072C298.635 61.072 299.099 60.9707 299.526 60.768C299.953 60.5653 300.31 60.256 300.598 59.84L301.446 60.416C301.115 60.96 300.662 61.376 300.086 61.664C299.51 61.9413 298.865 62.08 298.15 62.08ZM306.961 62.08C306.15 62.08 305.42 61.8987 304.769 61.536C304.129 61.1627 303.622 60.656 303.249 60.016C302.876 59.3653 302.689 58.624 302.689 57.792C302.689 56.9493 302.876 56.208 303.249 55.568C303.622 54.928 304.129 54.4267 304.769 54.064C305.409 53.7013 306.14 53.52 306.961 53.52C307.793 53.52 308.529 53.7013 309.169 54.064C309.82 54.4267 310.326 54.928 310.689 55.568C311.062 56.208 311.249 56.9493 311.249 57.792C311.249 58.624 311.062 59.3653 310.689 60.016C310.326 60.656 309.82 61.1627 309.169 61.536C308.518 61.8987 307.782 62.08 306.961 62.08ZM306.961 61.072C307.569 61.072 308.108 60.9387 308.577 60.672C309.046 60.3947 309.414 60.0107 309.681 59.52C309.958 59.0187 310.097 58.4427 310.097 57.792C310.097 57.1307 309.958 56.5547 309.681 56.064C309.414 55.5733 309.046 55.1947 308.577 54.928C308.108 54.6507 307.574 54.512 306.977 54.512C306.38 54.512 305.846 54.6507 305.377 54.928C304.908 55.1947 304.534 55.5733 304.257 56.064C303.98 56.5547 303.841 57.1307 303.841 57.792C303.841 58.4427 303.98 59.0187 304.257 59.52C304.534 60.0107 304.908 60.3947 305.377 60.672C305.846 60.9387 306.374 61.072 306.961 61.072ZM324.064 53.52C324.747 53.52 325.339 53.6533 325.84 53.92C326.352 54.176 326.747 54.5707 327.024 55.104C327.312 55.6373 327.456 56.3093 327.456 57.12V62H326.32V57.232C326.32 56.3467 326.107 55.68 325.68 55.232C325.264 54.7733 324.672 54.544 323.904 54.544C323.328 54.544 322.827 54.6667 322.4 54.912C321.984 55.1467 321.659 55.4933 321.424 55.952C321.2 56.4 321.088 56.944 321.088 57.584V62H319.952V57.232C319.952 56.3467 319.739 55.68 319.312 55.232C318.886 54.7733 318.288 54.544 317.52 54.544C316.955 54.544 316.459 54.6667 316.032 54.912C315.606 55.1467 315.275 55.4933 315.04 55.952C314.816 56.4 314.704 56.944 314.704 57.584V62H313.568V53.6H314.656V55.872L314.48 55.472C314.736 54.864 315.147 54.3893 315.712 54.048C316.288 53.696 316.966 53.52 317.744 53.52C318.566 53.52 319.264 53.728 319.84 54.144C320.416 54.5493 320.79 55.1627 320.96 55.984L320.512 55.808C320.758 55.1253 321.19 54.576 321.808 54.16C322.438 53.7333 323.19 53.52 324.064 53.52Z" fill="white" fill-opacity="0.8"/>
</svg>
