<svg width="273" height="50" viewBox="0 0 273 50" fill="none" xmlns="http://www.w3.org/2000/svg">
<path d="M57.2 24.52H72V27.04H57.2V24.52ZM57.52 37.44H74.36V40H54.56V12H73.76V14.56H57.52V37.44ZM76.9319 40L85.8119 28.48L85.7719 29.88L77.3319 19H80.5319L87.4519 28L86.2519 27.96L93.1719 19H96.2919L87.7719 30L87.8119 28.48L96.7719 40H93.5319L86.2119 30.4L87.3319 30.56L80.1319 40H76.9319ZM112.339 40.2C110.526 40.2 108.886 39.7867 107.419 38.96C105.952 38.1067 104.779 36.8933 103.899 35.32C103.046 33.72 102.619 31.7733 102.619 29.48C102.619 27.1867 103.046 25.2533 103.899 23.68C104.752 22.08 105.912 20.8667 107.379 20.04C108.846 19.2133 110.499 18.8 112.339 18.8C114.339 18.8 116.126 19.2533 117.699 20.16C119.299 21.04 120.552 22.2933 121.459 23.92C122.366 25.52 122.819 27.3733 122.819 29.48C122.819 31.6133 122.366 33.48 121.459 35.08C120.552 36.68 119.299 37.9333 117.699 38.84C116.126 39.7467 114.339 40.2 112.339 40.2ZM101.499 47.76V19H104.219V25.32L103.939 29.52L104.339 33.76V47.76H101.499ZM112.139 37.68C113.632 37.68 114.966 37.3467 116.139 36.68C117.312 35.9867 118.246 35.0267 118.939 33.8C119.632 32.5467 119.979 31.1067 119.979 29.48C119.979 27.8533 119.632 26.4267 118.939 25.2C118.246 23.9733 117.312 23.0133 116.139 22.32C114.966 21.6267 113.632 21.28 112.139 21.28C110.646 21.28 109.299 21.6267 108.099 22.32C106.926 23.0133 105.992 23.9733 105.299 25.2C104.632 26.4267 104.299 27.8533 104.299 29.48C104.299 31.1067 104.632 32.5467 105.299 33.8C105.992 35.0267 106.926 35.9867 108.099 36.68C109.299 37.3467 110.646 37.68 112.139 37.68ZM137.528 40.2C135.342 40.2 133.422 39.7467 131.768 38.84C130.115 37.9067 128.822 36.64 127.888 35.04C126.955 33.4133 126.488 31.56 126.488 29.48C126.488 27.4 126.928 25.56 127.808 23.96C128.715 22.36 129.942 21.1067 131.488 20.2C133.062 19.2667 134.822 18.8 136.768 18.8C138.742 18.8 140.488 19.2533 142.008 20.16C143.555 21.04 144.768 22.2933 145.648 23.92C146.528 25.52 146.968 27.3733 146.968 29.48C146.968 29.6133 146.955 29.76 146.928 29.92C146.928 30.0533 146.928 30.2 146.928 30.36H128.648V28.24H145.408L144.288 29.08C144.288 27.56 143.955 26.2133 143.288 25.04C142.648 23.84 141.768 22.9067 140.648 22.24C139.528 21.5733 138.235 21.24 136.768 21.24C135.328 21.24 134.035 21.5733 132.888 22.24C131.742 22.9067 130.848 23.84 130.208 25.04C129.568 26.24 129.248 27.6133 129.248 29.16V29.6C129.248 31.2 129.595 32.6133 130.288 33.84C131.008 35.04 131.995 35.9867 133.248 36.68C134.528 37.3467 135.982 37.68 137.608 37.68C138.888 37.68 140.075 37.4533 141.168 37C142.288 36.5467 143.248 35.8533 144.048 34.92L145.648 36.76C144.715 37.88 143.542 38.7333 142.128 39.32C140.742 39.9067 139.208 40.2 137.528 40.2ZM152.749 40V19H155.469V24.72L155.189 23.72C155.776 22.12 156.762 20.9067 158.149 20.08C159.536 19.2267 161.256 18.8 163.309 18.8V21.56C163.202 21.56 163.096 21.56 162.989 21.56C162.882 21.5333 162.776 21.52 162.669 21.52C160.456 21.52 158.722 22.2 157.469 23.56C156.216 24.8933 155.589 26.8 155.589 29.28V40H152.749ZM168.491 40V19H171.331V40H168.491ZM169.931 14.36C169.345 14.36 168.851 14.16 168.451 13.76C168.051 13.36 167.851 12.88 167.851 12.32C167.851 11.76 168.051 11.2933 168.451 10.92C168.851 10.52 169.345 10.32 169.931 10.32C170.518 10.32 171.011 10.5067 171.411 10.88C171.811 11.2533 172.011 11.72 172.011 12.28C172.011 12.8667 171.811 13.36 171.411 13.76C171.038 14.16 170.545 14.36 169.931 14.36ZM188.153 40.2C185.967 40.2 184.047 39.7467 182.393 38.84C180.74 37.9067 179.447 36.64 178.513 35.04C177.58 33.4133 177.113 31.56 177.113 29.48C177.113 27.4 177.553 25.56 178.433 23.96C179.34 22.36 180.567 21.1067 182.113 20.2C183.687 19.2667 185.447 18.8 187.393 18.8C189.367 18.8 191.113 19.2533 192.633 20.16C194.18 21.04 195.393 22.2933 196.273 23.92C197.153 25.52 197.593 27.3733 197.593 29.48C197.593 29.6133 197.58 29.76 197.553 29.92C197.553 30.0533 197.553 30.2 197.553 30.36H179.273V28.24H196.033L194.913 29.08C194.913 27.56 194.58 26.2133 193.913 25.04C193.273 23.84 192.393 22.9067 191.273 22.24C190.153 21.5733 188.86 21.24 187.393 21.24C185.953 21.24 184.66 21.5733 183.513 22.24C182.367 22.9067 181.473 23.84 180.833 25.04C180.193 26.24 179.873 27.6133 179.873 29.16V29.6C179.873 31.2 180.22 32.6133 180.913 33.84C181.633 35.04 182.62 35.9867 183.873 36.68C185.153 37.3467 186.607 37.68 188.233 37.68C189.513 37.68 190.7 37.4533 191.793 37C192.913 36.5467 193.873 35.8533 194.673 34.92L196.273 36.76C195.34 37.88 194.167 38.7333 192.753 39.32C191.367 39.9067 189.833 40.2 188.153 40.2ZM214.094 18.8C215.801 18.8 217.294 19.1333 218.574 19.8C219.881 20.44 220.894 21.4267 221.614 22.76C222.361 24.0933 222.734 25.7733 222.734 27.8V40H219.894V28.08C219.894 25.8667 219.334 24.2 218.214 23.08C217.121 21.9333 215.574 21.36 213.574 21.36C212.081 21.36 210.774 21.6667 209.654 22.28C208.561 22.8667 207.707 23.7333 207.094 24.88C206.507 26 206.214 27.36 206.214 28.96V40H203.374V19H206.094V24.76L205.654 23.68C206.321 22.16 207.387 20.9733 208.854 20.12C210.321 19.24 212.067 18.8 214.094 18.8ZM239.125 40.2C237.045 40.2 235.179 39.7467 233.525 38.84C231.899 37.9067 230.619 36.64 229.685 35.04C228.752 33.4133 228.285 31.56 228.285 29.48C228.285 27.3733 228.752 25.52 229.685 23.92C230.619 22.32 231.899 21.0667 233.525 20.16C235.179 19.2533 237.045 18.8 239.125 18.8C240.912 18.8 242.525 19.1467 243.965 19.84C245.405 20.5333 246.539 21.5733 247.365 22.96L245.245 24.4C244.525 23.3333 243.632 22.5467 242.565 22.04C241.499 21.5333 240.339 21.28 239.085 21.28C237.592 21.28 236.245 21.6267 235.045 22.32C233.845 22.9867 232.899 23.9333 232.205 25.16C231.512 26.3867 231.165 27.8267 231.165 29.48C231.165 31.1333 231.512 32.5733 232.205 33.8C232.899 35.0267 233.845 35.9867 235.045 36.68C236.245 37.3467 237.592 37.68 239.085 37.68C240.339 37.68 241.499 37.4267 242.565 36.92C243.632 36.4133 244.525 35.64 245.245 34.6L247.365 36.04C246.539 37.4 245.405 38.44 243.965 39.16C242.525 39.8533 240.912 40.2 239.125 40.2ZM261.513 40.2C259.326 40.2 257.406 39.7467 255.753 38.84C254.099 37.9067 252.806 36.64 251.873 35.04C250.939 33.4133 250.473 31.56 250.473 29.48C250.473 27.4 250.913 25.56 251.793 23.96C252.699 22.36 253.926 21.1067 255.473 20.2C257.046 19.2667 258.806 18.8 260.753 18.8C262.726 18.8 264.473 19.2533 265.993 20.16C267.539 21.04 268.753 22.2933 269.633 23.92C270.513 25.52 270.953 27.3733 270.953 29.48C270.953 29.6133 270.939 29.76 270.913 29.92C270.913 30.0533 270.913 30.2 270.913 30.36H252.633V28.24H269.393L268.273 29.08C268.273 27.56 267.939 26.2133 267.273 25.04C266.633 23.84 265.753 22.9067 264.633 22.24C263.513 21.5733 262.219 21.24 260.753 21.24C259.313 21.24 258.019 21.5733 256.873 22.24C255.726 22.9067 254.833 23.84 254.193 25.04C253.553 26.24 253.233 27.6133 253.233 29.16V29.6C253.233 31.2 253.579 32.6133 254.273 33.84C254.993 35.04 255.979 35.9867 257.233 36.68C258.513 37.3467 259.966 37.68 261.593 37.68C262.873 37.68 264.059 37.4533 265.153 37C266.273 36.5467 267.233 35.8533 268.033 34.92L269.633 36.76C268.699 37.88 267.526 38.7333 266.113 39.32C264.726 39.9067 263.193 40.2 261.513 40.2Z" fill="white"/>
<path fill-rule="evenodd" clip-rule="evenodd" d="M17.5 35C27.165 35 35 27.165 35 17.5C35 7.83503 27.165 0 17.5 0C7.83503 0 0 7.83503 0 17.5C0 27.165 7.83503 35 17.5 35ZM17.5 10C16.7897 10 16.3147 10.8521 15.3647 12.5563L15.119 12.9972C14.8492 13.4815 14.7143 13.7236 14.5038 13.8834C14.2933 14.0431 14.0312 14.1024 13.507 14.221L13.0297 14.329C11.1849 14.7464 10.2625 14.9551 10.0431 15.6608C9.82363 16.3665 10.4524 17.1018 11.7101 18.5724L12.0355 18.9529C12.3928 19.3708 12.5715 19.5798 12.652 19.8383C12.7322 20.0968 12.7053 20.3755 12.6513 20.9332L12.602 21.4408C12.4119 23.403 12.3168 24.384 12.8912 24.8202C13.466 25.2562 14.3295 24.8587 16.0567 24.0635L16.5035 23.8577C16.9945 23.6318 17.2397 23.5188 17.5 23.5188C17.7603 23.5188 18.0055 23.6318 18.4965 23.8577L18.9433 24.0635C20.6705 24.8587 21.534 25.2562 22.1087 24.8202C22.6833 24.384 22.588 23.403 22.398 21.4408L22.3487 20.9332C22.2948 20.3755 22.2678 20.0968 22.348 19.8383C22.4285 19.5798 22.6072 19.3708 22.9645 18.9529L23.29 18.5724C24.5475 17.1018 25.1765 16.3665 24.957 15.6608C24.7375 14.9551 23.815 14.7464 21.9703 14.329L21.493 14.221C20.9688 14.1024 20.7067 14.0431 20.4963 13.8834C20.2857 13.7236 20.1508 13.4815 19.881 12.9972L19.6353 12.5563C18.6853 10.8521 18.2103 10 17.5 10Z" fill="white"/>
<path d="M5.23252 34.8535L4.2856 38.3075C2.71475 44.037 1.92932 46.9018 2.97742 48.4703C3.34475 49.0198 3.8375 49.461 4.4093 49.752C6.04085 50.5828 8.56 49.2703 13.5982 46.645C15.2747 45.7715 16.113 45.3348 17.0035 45.2398C17.3337 45.2045 17.6662 45.2045 17.9965 45.2398C18.887 45.3348 19.7253 45.7715 21.4018 46.645C26.44 49.2703 28.9592 50.5828 30.5907 49.752C31.1625 49.461 31.6553 49.0198 32.0225 48.4703C33.0707 46.9018 32.2853 44.037 30.7145 38.3075L29.7675 34.8535C26.302 37.3078 22.0695 38.75 17.5 38.75C12.9305 38.75 8.69787 37.3078 5.23252 34.8535Z" fill="white"/>
</svg>
