<svg width="273" height="101" viewBox="0 0 273 101" fill="none" xmlns="http://www.w3.org/2000/svg">
<path d="M55.0137 80V79.235L59.3787 74.96C59.7787 74.57 60.0787 74.23 60.2787 73.94C60.4787 73.64 60.6137 73.36 60.6837 73.1C60.7537 72.84 60.7887 72.595 60.7887 72.365C60.7887 71.755 60.5787 71.275 60.1587 70.925C59.7487 70.575 59.1387 70.4 58.3287 70.4C57.7087 70.4 57.1587 70.495 56.6787 70.685C56.2087 70.875 55.8037 71.17 55.4637 71.57L54.6987 70.91C55.1087 70.43 55.6337 70.06 56.2737 69.8C56.9137 69.54 57.6287 69.41 58.4187 69.41C59.1287 69.41 59.7437 69.525 60.2637 69.755C60.7837 69.975 61.1837 70.3 61.4637 70.73C61.7537 71.16 61.8987 71.665 61.8987 72.245C61.8987 72.585 61.8487 72.92 61.7487 73.25C61.6587 73.58 61.4887 73.93 61.2387 74.3C60.9987 74.66 60.6437 75.07 60.1737 75.53L56.1687 79.46L55.8687 79.04H62.3787V80H55.0137ZM66.6769 77.93V71.57H67.6219V77.93H66.6769ZM63.8869 75.2V74.315H70.4119V75.2H63.8869ZM76.9356 82.985C76.5656 82.985 76.2106 82.925 75.8706 82.805C75.5406 82.685 75.2556 82.505 75.0156 82.265L75.5106 81.47C75.7106 81.66 75.9256 81.805 76.1556 81.905C76.3956 82.015 76.6606 82.07 76.9506 82.07C77.3006 82.07 77.6006 81.97 77.8506 81.77C78.1106 81.58 78.3556 81.24 78.5856 80.75L79.0956 79.595L79.2156 79.43L82.4556 72.125H83.5056L79.5606 80.945C79.3406 81.455 79.0956 81.86 78.8256 82.16C78.5656 82.46 78.2806 82.67 77.9706 82.79C77.6606 82.92 77.3156 82.985 76.9356 82.985ZM79.0356 80.225L75.4056 72.125H76.5156L79.7256 79.355L79.0356 80.225ZM88.1308 80.075C87.3108 80.075 86.5908 79.905 85.9708 79.565C85.3508 79.215 84.8658 78.74 84.5158 78.14C84.1658 77.53 83.9908 76.835 83.9908 76.055C83.9908 75.275 84.1558 74.585 84.4858 73.985C84.8258 73.385 85.2858 72.915 85.8658 72.575C86.4558 72.225 87.1158 72.05 87.8458 72.05C88.5858 72.05 89.2408 72.22 89.8108 72.56C90.3908 72.89 90.8458 73.36 91.1758 73.97C91.5058 74.57 91.6708 75.265 91.6708 76.055C91.6708 76.105 91.6658 76.16 91.6558 76.22C91.6558 76.27 91.6558 76.325 91.6558 76.385H84.8008V75.59H91.0858L90.6658 75.905C90.6658 75.335 90.5408 74.83 90.2908 74.39C90.0508 73.94 89.7208 73.59 89.3008 73.34C88.8808 73.09 88.3958 72.965 87.8458 72.965C87.3058 72.965 86.8208 73.09 86.3908 73.34C85.9608 73.59 85.6258 73.94 85.3858 74.39C85.1458 74.84 85.0258 75.355 85.0258 75.935V76.1C85.0258 76.7 85.1558 77.23 85.4158 77.69C85.6858 78.14 86.0558 78.495 86.5258 78.755C87.0058 79.005 87.5508 79.13 88.1608 79.13C88.6408 79.13 89.0858 79.045 89.4958 78.875C89.9158 78.705 90.2758 78.445 90.5758 78.095L91.1758 78.785C90.8258 79.205 90.3858 79.525 89.8558 79.745C89.3358 79.965 88.7608 80.075 88.1308 80.075ZM98.5538 80V78.26L98.5088 77.975V75.065C98.5088 74.395 98.3188 73.88 97.9388 73.52C97.5688 73.16 97.0138 72.98 96.2738 72.98C95.7638 72.98 95.2788 73.065 94.8188 73.235C94.3588 73.405 93.9688 73.63 93.6488 73.91L93.1688 73.115C93.5688 72.775 94.0488 72.515 94.6088 72.335C95.1688 72.145 95.7588 72.05 96.3788 72.05C97.3988 72.05 98.1838 72.305 98.7338 72.815C99.2938 73.315 99.5738 74.08 99.5738 75.11V80H98.5538ZM95.8388 80.075C95.2488 80.075 94.7338 79.98 94.2938 79.79C93.8638 79.59 93.5338 79.32 93.3038 78.98C93.0738 78.63 92.9588 78.23 92.9588 77.78C92.9588 77.37 93.0538 77 93.2438 76.67C93.4438 76.33 93.7638 76.06 94.2038 75.86C94.6538 75.65 95.2538 75.545 96.0038 75.545H98.7188V76.34H96.0338C95.2738 76.34 94.7438 76.475 94.4438 76.745C94.1538 77.015 94.0088 77.35 94.0088 77.75C94.0088 78.2 94.1838 78.56 94.5338 78.83C94.8838 79.1 95.3738 79.235 96.0038 79.235C96.6038 79.235 97.1188 79.1 97.5488 78.83C97.9888 78.55 98.3088 78.15 98.5088 77.63L98.7488 78.365C98.5488 78.885 98.1988 79.3 97.6988 79.61C97.2088 79.92 96.5888 80.075 95.8388 80.075ZM102.466 80V72.125H103.486V74.27L103.381 73.895C103.601 73.295 103.971 72.84 104.491 72.53C105.011 72.21 105.656 72.05 106.426 72.05V73.085C106.386 73.085 106.346 73.085 106.306 73.085C106.266 73.075 106.226 73.07 106.186 73.07C105.356 73.07 104.706 73.325 104.236 73.835C103.766 74.335 103.531 75.05 103.531 75.98V80H102.466ZM115.758 80.075C114.938 80.075 114.218 79.905 113.598 79.565C112.978 79.215 112.493 78.74 112.143 78.14C111.793 77.53 111.618 76.835 111.618 76.055C111.618 75.275 111.783 74.585 112.113 73.985C112.453 73.385 112.913 72.915 113.493 72.575C114.083 72.225 114.743 72.05 115.473 72.05C116.213 72.05 116.868 72.22 117.438 72.56C118.018 72.89 118.473 73.36 118.803 73.97C119.133 74.57 119.298 75.265 119.298 76.055C119.298 76.105 119.293 76.16 119.283 76.22C119.283 76.27 119.283 76.325 119.283 76.385H112.428V75.59H118.713L118.293 75.905C118.293 75.335 118.168 74.83 117.918 74.39C117.678 73.94 117.348 73.59 116.928 73.34C116.508 73.09 116.023 72.965 115.473 72.965C114.933 72.965 114.448 73.09 114.018 73.34C113.588 73.59 113.253 73.94 113.013 74.39C112.773 74.84 112.653 75.355 112.653 75.935V76.1C112.653 76.7 112.783 77.23 113.043 77.69C113.313 78.14 113.683 78.495 114.153 78.755C114.633 79.005 115.178 79.13 115.788 79.13C116.268 79.13 116.713 79.045 117.123 78.875C117.543 78.705 117.903 78.445 118.203 78.095L118.803 78.785C118.453 79.205 118.013 79.525 117.483 79.745C116.963 79.965 116.388 80.075 115.758 80.075ZM120.046 80L123.376 75.68L123.361 76.205L120.196 72.125H121.396L123.991 75.5L123.541 75.485L126.136 72.125H127.306L124.111 76.25L124.126 75.68L127.486 80H126.271L123.526 76.4L123.946 76.46L121.246 80H120.046ZM133.323 80.075C132.643 80.075 132.028 79.92 131.478 79.61C130.928 79.29 130.488 78.835 130.158 78.245C129.838 77.645 129.678 76.915 129.678 76.055C129.678 75.195 129.838 74.47 130.158 73.88C130.478 73.28 130.913 72.825 131.463 72.515C132.013 72.205 132.633 72.05 133.323 72.05C134.073 72.05 134.743 72.22 135.333 72.56C135.933 72.89 136.403 73.36 136.743 73.97C137.083 74.57 137.253 75.265 137.253 76.055C137.253 76.855 137.083 77.555 136.743 78.155C136.403 78.755 135.933 79.225 135.333 79.565C134.743 79.905 134.073 80.075 133.323 80.075ZM129.258 82.91V72.125H130.278V74.495L130.173 76.07L130.323 77.66V82.91H129.258ZM133.248 79.13C133.808 79.13 134.308 79.005 134.748 78.755C135.188 78.495 135.538 78.135 135.798 77.675C136.058 77.205 136.188 76.665 136.188 76.055C136.188 75.445 136.058 74.91 135.798 74.45C135.538 73.99 135.188 73.63 134.748 73.37C134.308 73.11 133.808 72.98 133.248 72.98C132.688 72.98 132.183 73.11 131.733 73.37C131.293 73.63 130.943 73.99 130.683 74.45C130.433 74.91 130.308 75.445 130.308 76.055C130.308 76.665 130.433 77.205 130.683 77.675C130.943 78.135 131.293 78.495 131.733 78.755C132.183 79.005 132.688 79.13 133.248 79.13ZM142.769 80.075C141.949 80.075 141.229 79.905 140.609 79.565C139.989 79.215 139.504 78.74 139.154 78.14C138.804 77.53 138.629 76.835 138.629 76.055C138.629 75.275 138.794 74.585 139.124 73.985C139.464 73.385 139.924 72.915 140.504 72.575C141.094 72.225 141.754 72.05 142.484 72.05C143.224 72.05 143.879 72.22 144.449 72.56C145.029 72.89 145.484 73.36 145.814 73.97C146.144 74.57 146.309 75.265 146.309 76.055C146.309 76.105 146.304 76.16 146.294 76.22C146.294 76.27 146.294 76.325 146.294 76.385H139.439V75.59H145.724L145.304 75.905C145.304 75.335 145.179 74.83 144.929 74.39C144.689 73.94 144.359 73.59 143.939 73.34C143.519 73.09 143.034 72.965 142.484 72.965C141.944 72.965 141.459 73.09 141.029 73.34C140.599 73.59 140.264 73.94 140.024 74.39C139.784 74.84 139.664 75.355 139.664 75.935V76.1C139.664 76.7 139.794 77.23 140.054 77.69C140.324 78.14 140.694 78.495 141.164 78.755C141.644 79.005 142.189 79.13 142.799 79.13C143.279 79.13 143.724 79.045 144.134 78.875C144.554 78.705 144.914 78.445 145.214 78.095L145.814 78.785C145.464 79.205 145.024 79.525 144.494 79.745C143.974 79.965 143.399 80.075 142.769 80.075ZM148.477 80V72.125H149.497V74.27L149.392 73.895C149.612 73.295 149.982 72.84 150.502 72.53C151.022 72.21 151.667 72.05 152.437 72.05V73.085C152.397 73.085 152.357 73.085 152.317 73.085C152.277 73.075 152.237 73.07 152.197 73.07C151.367 73.07 150.717 73.325 150.247 73.835C149.777 74.335 149.542 75.05 149.542 75.98V80H148.477ZM154.381 80V72.125H155.446V80H154.381ZM154.921 70.385C154.701 70.385 154.516 70.31 154.366 70.16C154.216 70.01 154.141 69.83 154.141 69.62C154.141 69.41 154.216 69.235 154.366 69.095C154.516 68.945 154.701 68.87 154.921 68.87C155.141 68.87 155.326 68.94 155.476 69.08C155.626 69.22 155.701 69.395 155.701 69.605C155.701 69.825 155.626 70.01 155.476 70.16C155.336 70.31 155.151 70.385 154.921 70.385ZM161.754 80.075C160.934 80.075 160.214 79.905 159.594 79.565C158.974 79.215 158.489 78.74 158.139 78.14C157.789 77.53 157.614 76.835 157.614 76.055C157.614 75.275 157.779 74.585 158.109 73.985C158.449 73.385 158.909 72.915 159.489 72.575C160.079 72.225 160.739 72.05 161.469 72.05C162.209 72.05 162.864 72.22 163.434 72.56C164.014 72.89 164.469 73.36 164.799 73.97C165.129 74.57 165.294 75.265 165.294 76.055C165.294 76.105 165.289 76.16 165.279 76.22C165.279 76.27 165.279 76.325 165.279 76.385H158.424V75.59H164.709L164.289 75.905C164.289 75.335 164.164 74.83 163.914 74.39C163.674 73.94 163.344 73.59 162.924 73.34C162.504 73.09 162.019 72.965 161.469 72.965C160.929 72.965 160.444 73.09 160.014 73.34C159.584 73.59 159.249 73.94 159.009 74.39C158.769 74.84 158.649 75.355 158.649 75.935V76.1C158.649 76.7 158.779 77.23 159.039 77.69C159.309 78.14 159.679 78.495 160.149 78.755C160.629 79.005 161.174 79.13 161.784 79.13C162.264 79.13 162.709 79.045 163.119 78.875C163.539 78.705 163.899 78.445 164.199 78.095L164.799 78.785C164.449 79.205 164.009 79.525 163.479 79.745C162.959 79.965 162.384 80.075 161.754 80.075ZM171.482 72.05C172.122 72.05 172.682 72.175 173.162 72.425C173.652 72.665 174.032 73.035 174.302 73.535C174.582 74.035 174.722 74.665 174.722 75.425V80H173.657V75.53C173.657 74.7 173.447 74.075 173.027 73.655C172.617 73.225 172.037 73.01 171.287 73.01C170.727 73.01 170.237 73.125 169.817 73.355C169.407 73.575 169.087 73.9 168.857 74.33C168.637 74.75 168.527 75.26 168.527 75.86V80H167.462V72.125H168.482V74.285L168.317 73.88C168.567 73.31 168.967 72.865 169.517 72.545C170.067 72.215 170.722 72.05 171.482 72.05ZM180.868 80.075C180.088 80.075 179.388 79.905 178.768 79.565C178.158 79.215 177.678 78.74 177.328 78.14C176.978 77.53 176.803 76.835 176.803 76.055C176.803 75.265 176.978 74.57 177.328 73.97C177.678 73.37 178.158 72.9 178.768 72.56C179.388 72.22 180.088 72.05 180.868 72.05C181.538 72.05 182.143 72.18 182.683 72.44C183.223 72.7 183.648 73.09 183.958 73.61L183.163 74.15C182.893 73.75 182.558 73.455 182.158 73.265C181.758 73.075 181.323 72.98 180.853 72.98C180.293 72.98 179.788 73.11 179.338 73.37C178.888 73.62 178.533 73.975 178.273 74.435C178.013 74.895 177.883 75.435 177.883 76.055C177.883 76.675 178.013 77.215 178.273 77.675C178.533 78.135 178.888 78.495 179.338 78.755C179.788 79.005 180.293 79.13 180.853 79.13C181.323 79.13 181.758 79.035 182.158 78.845C182.558 78.655 182.893 78.365 183.163 77.975L183.958 78.515C183.648 79.025 183.223 79.415 182.683 79.685C182.143 79.945 181.538 80.075 180.868 80.075ZM189.264 80.075C188.444 80.075 187.724 79.905 187.104 79.565C186.484 79.215 185.999 78.74 185.649 78.14C185.299 77.53 185.124 76.835 185.124 76.055C185.124 75.275 185.289 74.585 185.619 73.985C185.959 73.385 186.419 72.915 186.999 72.575C187.589 72.225 188.249 72.05 188.979 72.05C189.719 72.05 190.374 72.22 190.944 72.56C191.524 72.89 191.979 73.36 192.309 73.97C192.639 74.57 192.804 75.265 192.804 76.055C192.804 76.105 192.799 76.16 192.789 76.22C192.789 76.27 192.789 76.325 192.789 76.385H185.934V75.59H192.219L191.799 75.905C191.799 75.335 191.674 74.83 191.424 74.39C191.184 73.94 190.854 73.59 190.434 73.34C190.014 73.09 189.529 72.965 188.979 72.965C188.439 72.965 187.954 73.09 187.524 73.34C187.094 73.59 186.759 73.94 186.519 74.39C186.279 74.84 186.159 75.355 186.159 75.935V76.1C186.159 76.7 186.289 77.23 186.549 77.69C186.819 78.14 187.189 78.495 187.659 78.755C188.139 79.005 188.684 79.13 189.294 79.13C189.774 79.13 190.219 79.045 190.629 78.875C191.049 78.705 191.409 78.445 191.709 78.095L192.309 78.785C191.959 79.205 191.519 79.525 190.989 79.745C190.469 79.965 189.894 80.075 189.264 80.075ZM198.897 80V72.125H199.962V80H198.897ZM199.437 70.385C199.217 70.385 199.032 70.31 198.882 70.16C198.732 70.01 198.657 69.83 198.657 69.62C198.657 69.41 198.732 69.235 198.882 69.095C199.032 68.945 199.217 68.87 199.437 68.87C199.657 68.87 199.842 68.94 199.992 69.08C200.142 69.22 200.217 69.395 200.217 69.605C200.217 69.825 200.142 70.01 199.992 70.16C199.852 70.31 199.667 70.385 199.437 70.385ZM206.945 72.05C207.585 72.05 208.145 72.175 208.625 72.425C209.115 72.665 209.495 73.035 209.765 73.535C210.045 74.035 210.185 74.665 210.185 75.425V80H209.12V75.53C209.12 74.7 208.91 74.075 208.49 73.655C208.08 73.225 207.5 73.01 206.75 73.01C206.19 73.01 205.7 73.125 205.28 73.355C204.87 73.575 204.55 73.9 204.32 74.33C204.1 74.75 203.99 75.26 203.99 75.86V80H202.925V72.125H203.945V74.285L203.78 73.88C204.03 73.31 204.43 72.865 204.98 72.545C205.53 72.215 206.185 72.05 206.945 72.05ZM219.598 80L216.058 69.5H217.198L220.513 79.385H219.943L223.363 69.5H224.383L227.758 79.385H227.218L230.563 69.5H231.628L228.088 80H226.918L223.693 70.625H223.993L220.753 80H219.598ZM236.183 80.075C235.363 80.075 234.643 79.905 234.023 79.565C233.403 79.215 232.918 78.74 232.568 78.14C232.218 77.53 232.043 76.835 232.043 76.055C232.043 75.275 232.208 74.585 232.538 73.985C232.878 73.385 233.338 72.915 233.918 72.575C234.508 72.225 235.168 72.05 235.898 72.05C236.638 72.05 237.293 72.22 237.863 72.56C238.443 72.89 238.898 73.36 239.228 73.97C239.558 74.57 239.723 75.265 239.723 76.055C239.723 76.105 239.718 76.16 239.708 76.22C239.708 76.27 239.708 76.325 239.708 76.385H232.853V75.59H239.138L238.718 75.905C238.718 75.335 238.593 74.83 238.343 74.39C238.103 73.94 237.773 73.59 237.353 73.34C236.933 73.09 236.448 72.965 235.898 72.965C235.358 72.965 234.873 73.09 234.443 73.34C234.013 73.59 233.678 73.94 233.438 74.39C233.198 74.84 233.078 75.355 233.078 75.935V76.1C233.078 76.7 233.208 77.23 233.468 77.69C233.738 78.14 234.108 78.495 234.578 78.755C235.058 79.005 235.603 79.13 236.213 79.13C236.693 79.13 237.138 79.045 237.548 78.875C237.968 78.705 238.328 78.445 238.628 78.095L239.228 78.785C238.878 79.205 238.438 79.525 237.908 79.745C237.388 79.965 236.813 80.075 236.183 80.075ZM245.955 80.075C245.265 80.075 244.645 79.92 244.095 79.61C243.545 79.29 243.11 78.83 242.79 78.23C242.47 77.63 242.31 76.905 242.31 76.055C242.31 75.195 242.47 74.47 242.79 73.88C243.12 73.28 243.56 72.825 244.11 72.515C244.66 72.205 245.275 72.05 245.955 72.05C246.705 72.05 247.375 72.22 247.965 72.56C248.565 72.89 249.035 73.355 249.375 73.955C249.715 74.555 249.885 75.255 249.885 76.055C249.885 76.845 249.715 77.545 249.375 78.155C249.035 78.755 248.565 79.225 247.965 79.565C247.375 79.905 246.705 80.075 245.955 80.075ZM241.89 80V68.87H242.955V74.45L242.805 76.04L242.91 77.63V80H241.89ZM245.88 79.13C246.44 79.13 246.94 79.005 247.38 78.755C247.82 78.495 248.17 78.135 248.43 77.675C248.69 77.205 248.82 76.665 248.82 76.055C248.82 75.435 248.69 74.895 248.43 74.435C248.17 73.975 247.82 73.62 247.38 73.37C246.94 73.11 246.44 72.98 245.88 72.98C245.32 72.98 244.815 73.11 244.365 73.37C243.925 73.62 243.575 73.975 243.315 74.435C243.065 74.895 242.94 75.435 242.94 76.055C242.94 76.665 243.065 77.205 243.315 77.675C243.575 78.135 243.925 78.495 244.365 78.755C244.815 79.005 245.32 79.13 245.88 79.13ZM106.707 98.075C105.957 98.075 105.282 97.905 104.682 97.565C104.092 97.225 103.627 96.755 103.287 96.155C102.947 95.545 102.777 94.845 102.777 94.055C102.777 93.255 102.947 92.555 103.287 91.955C103.627 91.355 104.092 90.89 104.682 90.56C105.282 90.22 105.957 90.05 106.707 90.05C107.397 90.05 108.012 90.205 108.552 90.515C109.102 90.825 109.537 91.28 109.857 91.88C110.187 92.47 110.352 93.195 110.352 94.055C110.352 94.905 110.192 95.63 109.872 96.23C109.552 96.83 109.117 97.29 108.567 97.61C108.027 97.92 107.407 98.075 106.707 98.075ZM106.782 97.13C107.342 97.13 107.842 97.005 108.282 96.755C108.732 96.495 109.082 96.135 109.332 95.675C109.592 95.205 109.722 94.665 109.722 94.055C109.722 93.435 109.592 92.895 109.332 92.435C109.082 91.975 108.732 91.62 108.282 91.37C107.842 91.11 107.342 90.98 106.782 90.98C106.232 90.98 105.737 91.11 105.297 91.37C104.857 91.62 104.507 91.975 104.247 92.435C103.987 92.895 103.857 93.435 103.857 94.055C103.857 94.665 103.987 95.205 104.247 95.675C104.507 96.135 104.857 96.495 105.297 96.755C105.737 97.005 106.232 97.13 106.782 97.13ZM109.752 98V95.63L109.857 94.04L109.707 92.45V86.87H110.772V98H109.752ZM117.083 98.075C116.263 98.075 115.543 97.905 114.923 97.565C114.303 97.215 113.818 96.74 113.468 96.14C113.118 95.53 112.943 94.835 112.943 94.055C112.943 93.275 113.108 92.585 113.438 91.985C113.778 91.385 114.238 90.915 114.818 90.575C115.408 90.225 116.068 90.05 116.798 90.05C117.538 90.05 118.193 90.22 118.763 90.56C119.343 90.89 119.798 91.36 120.128 91.97C120.458 92.57 120.623 93.265 120.623 94.055C120.623 94.105 120.618 94.16 120.608 94.22C120.608 94.27 120.608 94.325 120.608 94.385H113.753V93.59H120.038L119.618 93.905C119.618 93.335 119.493 92.83 119.243 92.39C119.003 91.94 118.673 91.59 118.253 91.34C117.833 91.09 117.348 90.965 116.798 90.965C116.258 90.965 115.773 91.09 115.343 91.34C114.913 91.59 114.578 91.94 114.338 92.39C114.098 92.84 113.978 93.355 113.978 93.935V94.1C113.978 94.7 114.108 95.23 114.368 95.69C114.638 96.14 115.008 96.495 115.478 96.755C115.958 97.005 116.503 97.13 117.113 97.13C117.593 97.13 118.038 97.045 118.448 96.875C118.868 96.705 119.228 96.445 119.528 96.095L120.128 96.785C119.778 97.205 119.338 97.525 118.808 97.745C118.288 97.965 117.713 98.075 117.083 98.075ZM124.67 98L121.175 90.125H122.285L125.495 97.43H124.97L128.225 90.125H129.275L125.765 98H124.67ZM133.9 98.075C133.08 98.075 132.36 97.905 131.74 97.565C131.12 97.215 130.635 96.74 130.285 96.14C129.935 95.53 129.76 94.835 129.76 94.055C129.76 93.275 129.925 92.585 130.255 91.985C130.595 91.385 131.055 90.915 131.635 90.575C132.225 90.225 132.885 90.05 133.615 90.05C134.355 90.05 135.01 90.22 135.58 90.56C136.16 90.89 136.615 91.36 136.945 91.97C137.275 92.57 137.44 93.265 137.44 94.055C137.44 94.105 137.435 94.16 137.425 94.22C137.425 94.27 137.425 94.325 137.425 94.385H130.57V93.59H136.855L136.435 93.905C136.435 93.335 136.31 92.83 136.06 92.39C135.82 91.94 135.49 91.59 135.07 91.34C134.65 91.09 134.165 90.965 133.615 90.965C133.075 90.965 132.59 91.09 132.16 91.34C131.73 91.59 131.395 91.94 131.155 92.39C130.915 92.84 130.795 93.355 130.795 93.935V94.1C130.795 94.7 130.925 95.23 131.185 95.69C131.455 96.14 131.825 96.495 132.295 96.755C132.775 97.005 133.32 97.13 133.93 97.13C134.41 97.13 134.855 97.045 135.265 96.875C135.685 96.705 136.045 96.445 136.345 96.095L136.945 96.785C136.595 97.205 136.155 97.525 135.625 97.745C135.105 97.965 134.53 98.075 133.9 98.075ZM139.608 98V86.87H140.673V98H139.608ZM146.846 98.075C146.086 98.075 145.401 97.905 144.791 97.565C144.191 97.215 143.716 96.74 143.366 96.14C143.016 95.53 142.841 94.835 142.841 94.055C142.841 93.265 143.016 92.57 143.366 91.97C143.716 91.37 144.191 90.9 144.791 90.56C145.391 90.22 146.076 90.05 146.846 90.05C147.626 90.05 148.316 90.22 148.916 90.56C149.526 90.9 150.001 91.37 150.341 91.97C150.691 92.57 150.866 93.265 150.866 94.055C150.866 94.835 150.691 95.53 150.341 96.14C150.001 96.74 149.526 97.215 148.916 97.565C148.306 97.905 147.616 98.075 146.846 98.075ZM146.846 97.13C147.416 97.13 147.921 97.005 148.361 96.755C148.801 96.495 149.146 96.135 149.396 95.675C149.656 95.205 149.786 94.665 149.786 94.055C149.786 93.435 149.656 92.895 149.396 92.435C149.146 91.975 148.801 91.62 148.361 91.37C147.921 91.11 147.421 90.98 146.861 90.98C146.301 90.98 145.801 91.11 145.361 91.37C144.921 91.62 144.571 91.975 144.311 92.435C144.051 92.895 143.921 93.435 143.921 94.055C143.921 94.665 144.051 95.205 144.311 95.675C144.571 96.135 144.921 96.495 145.361 96.755C145.801 97.005 146.296 97.13 146.846 97.13ZM157.105 98.075C156.425 98.075 155.81 97.92 155.26 97.61C154.71 97.29 154.27 96.835 153.94 96.245C153.62 95.645 153.46 94.915 153.46 94.055C153.46 93.195 153.62 92.47 153.94 91.88C154.26 91.28 154.695 90.825 155.245 90.515C155.795 90.205 156.415 90.05 157.105 90.05C157.855 90.05 158.525 90.22 159.115 90.56C159.715 90.89 160.185 91.36 160.525 91.97C160.865 92.57 161.035 93.265 161.035 94.055C161.035 94.855 160.865 95.555 160.525 96.155C160.185 96.755 159.715 97.225 159.115 97.565C158.525 97.905 157.855 98.075 157.105 98.075ZM153.04 100.91V90.125H154.06V92.495L153.955 94.07L154.105 95.66V100.91H153.04ZM157.03 97.13C157.59 97.13 158.09 97.005 158.53 96.755C158.97 96.495 159.32 96.135 159.58 95.675C159.84 95.205 159.97 94.665 159.97 94.055C159.97 93.445 159.84 92.91 159.58 92.45C159.32 91.99 158.97 91.63 158.53 91.37C158.09 91.11 157.59 90.98 157.03 90.98C156.47 90.98 155.965 91.11 155.515 91.37C155.075 91.63 154.725 91.99 154.465 92.45C154.215 92.91 154.09 93.445 154.09 94.055C154.09 94.665 154.215 95.205 154.465 95.675C154.725 96.135 155.075 96.495 155.515 96.755C155.965 97.005 156.47 97.13 157.03 97.13ZM173.046 90.05C173.686 90.05 174.241 90.175 174.711 90.425C175.191 90.665 175.561 91.035 175.821 91.535C176.091 92.035 176.226 92.665 176.226 93.425V98H175.161V93.53C175.161 92.7 174.961 92.075 174.561 91.655C174.171 91.225 173.616 91.01 172.896 91.01C172.356 91.01 171.886 91.125 171.486 91.355C171.096 91.575 170.791 91.9 170.571 92.33C170.361 92.75 170.256 93.26 170.256 93.86V98H169.191V93.53C169.191 92.7 168.991 92.075 168.591 91.655C168.191 91.225 167.631 91.01 166.911 91.01C166.381 91.01 165.916 91.125 165.516 91.355C165.116 91.575 164.806 91.9 164.586 92.33C164.376 92.75 164.271 93.26 164.271 93.86V98H163.206V90.125H164.226V92.255L164.061 91.88C164.301 91.31 164.686 90.865 165.216 90.545C165.756 90.215 166.391 90.05 167.121 90.05C167.891 90.05 168.546 90.245 169.086 90.635C169.626 91.015 169.976 91.59 170.136 92.36L169.716 92.195C169.946 91.555 170.351 91.04 170.931 90.65C171.521 90.25 172.226 90.05 173.046 90.05ZM182.459 98.075C181.639 98.075 180.919 97.905 180.299 97.565C179.679 97.215 179.194 96.74 178.844 96.14C178.494 95.53 178.319 94.835 178.319 94.055C178.319 93.275 178.484 92.585 178.814 91.985C179.154 91.385 179.614 90.915 180.194 90.575C180.784 90.225 181.444 90.05 182.174 90.05C182.914 90.05 183.569 90.22 184.139 90.56C184.719 90.89 185.174 91.36 185.504 91.97C185.834 92.57 185.999 93.265 185.999 94.055C185.999 94.105 185.994 94.16 185.984 94.22C185.984 94.27 185.984 94.325 185.984 94.385H179.129V93.59H185.414L184.994 93.905C184.994 93.335 184.869 92.83 184.619 92.39C184.379 91.94 184.049 91.59 183.629 91.34C183.209 91.09 182.724 90.965 182.174 90.965C181.634 90.965 181.149 91.09 180.719 91.34C180.289 91.59 179.954 91.94 179.714 92.39C179.474 92.84 179.354 93.355 179.354 93.935V94.1C179.354 94.7 179.484 95.23 179.744 95.69C180.014 96.14 180.384 96.495 180.854 96.755C181.334 97.005 181.879 97.13 182.489 97.13C182.969 97.13 183.414 97.045 183.824 96.875C184.244 96.705 184.604 96.445 184.904 96.095L185.504 96.785C185.154 97.205 184.714 97.525 184.184 97.745C183.664 97.965 183.089 98.075 182.459 98.075ZM192.187 90.05C192.827 90.05 193.387 90.175 193.867 90.425C194.357 90.665 194.737 91.035 195.007 91.535C195.287 92.035 195.427 92.665 195.427 93.425V98H194.362V93.53C194.362 92.7 194.152 92.075 193.732 91.655C193.322 91.225 192.742 91.01 191.992 91.01C191.432 91.01 190.942 91.125 190.522 91.355C190.112 91.575 189.792 91.9 189.562 92.33C189.342 92.75 189.232 93.26 189.232 93.86V98H188.167V90.125H189.187V92.285L189.022 91.88C189.272 91.31 189.672 90.865 190.222 90.545C190.772 90.215 191.427 90.05 192.187 90.05ZM200.794 98.075C200.054 98.075 199.484 97.875 199.084 97.475C198.684 97.075 198.484 96.51 198.484 95.78V88.385H199.549V95.72C199.549 96.18 199.664 96.535 199.894 96.785C200.134 97.035 200.474 97.16 200.914 97.16C201.384 97.16 201.774 97.025 202.084 96.755L202.459 97.52C202.249 97.71 201.994 97.85 201.694 97.94C201.404 98.03 201.104 98.075 200.794 98.075ZM197.074 91.01V90.125H201.949V91.01H197.074Z" fill="white" fill-opacity="0.8"/>
<path d="M57.2 24.52H72V27.04H57.2V24.52ZM57.52 37.44H74.36V40H54.56V12H73.76V14.56H57.52V37.44ZM76.9319 40L85.8119 28.48L85.7719 29.88L77.3319 19H80.5319L87.4519 28L86.2519 27.96L93.1719 19H96.2919L87.7719 30L87.8119 28.48L96.7719 40H93.5319L86.2119 30.4L87.3319 30.56L80.1319 40H76.9319ZM112.339 40.2C110.526 40.2 108.886 39.7867 107.419 38.96C105.952 38.1067 104.779 36.8933 103.899 35.32C103.046 33.72 102.619 31.7733 102.619 29.48C102.619 27.1867 103.046 25.2533 103.899 23.68C104.752 22.08 105.912 20.8667 107.379 20.04C108.846 19.2133 110.499 18.8 112.339 18.8C114.339 18.8 116.126 19.2533 117.699 20.16C119.299 21.04 120.552 22.2933 121.459 23.92C122.366 25.52 122.819 27.3733 122.819 29.48C122.819 31.6133 122.366 33.48 121.459 35.08C120.552 36.68 119.299 37.9333 117.699 38.84C116.126 39.7467 114.339 40.2 112.339 40.2ZM101.499 47.76V19H104.219V25.32L103.939 29.52L104.339 33.76V47.76H101.499ZM112.139 37.68C113.632 37.68 114.966 37.3467 116.139 36.68C117.312 35.9867 118.246 35.0267 118.939 33.8C119.632 32.5467 119.979 31.1067 119.979 29.48C119.979 27.8533 119.632 26.4267 118.939 25.2C118.246 23.9733 117.312 23.0133 116.139 22.32C114.966 21.6267 113.632 21.28 112.139 21.28C110.646 21.28 109.299 21.6267 108.099 22.32C106.926 23.0133 105.992 23.9733 105.299 25.2C104.632 26.4267 104.299 27.8533 104.299 29.48C104.299 31.1067 104.632 32.5467 105.299 33.8C105.992 35.0267 106.926 35.9867 108.099 36.68C109.299 37.3467 110.646 37.68 112.139 37.68ZM137.528 40.2C135.342 40.2 133.422 39.7467 131.768 38.84C130.115 37.9067 128.822 36.64 127.888 35.04C126.955 33.4133 126.488 31.56 126.488 29.48C126.488 27.4 126.928 25.56 127.808 23.96C128.715 22.36 129.942 21.1067 131.488 20.2C133.062 19.2667 134.822 18.8 136.768 18.8C138.742 18.8 140.488 19.2533 142.008 20.16C143.555 21.04 144.768 22.2933 145.648 23.92C146.528 25.52 146.968 27.3733 146.968 29.48C146.968 29.6133 146.955 29.76 146.928 29.92C146.928 30.0533 146.928 30.2 146.928 30.36H128.648V28.24H145.408L144.288 29.08C144.288 27.56 143.955 26.2133 143.288 25.04C142.648 23.84 141.768 22.9067 140.648 22.24C139.528 21.5733 138.235 21.24 136.768 21.24C135.328 21.24 134.035 21.5733 132.888 22.24C131.742 22.9067 130.848 23.84 130.208 25.04C129.568 26.24 129.248 27.6133 129.248 29.16V29.6C129.248 31.2 129.595 32.6133 130.288 33.84C131.008 35.04 131.995 35.9867 133.248 36.68C134.528 37.3467 135.982 37.68 137.608 37.68C138.888 37.68 140.075 37.4533 141.168 37C142.288 36.5467 143.248 35.8533 144.048 34.92L145.648 36.76C144.715 37.88 143.542 38.7333 142.128 39.32C140.742 39.9067 139.208 40.2 137.528 40.2ZM152.749 40V19H155.469V24.72L155.189 23.72C155.776 22.12 156.762 20.9067 158.149 20.08C159.536 19.2267 161.256 18.8 163.309 18.8V21.56C163.202 21.56 163.096 21.56 162.989 21.56C162.882 21.5333 162.776 21.52 162.669 21.52C160.456 21.52 158.722 22.2 157.469 23.56C156.216 24.8933 155.589 26.8 155.589 29.28V40H152.749ZM168.491 40V19H171.331V40H168.491ZM169.931 14.36C169.345 14.36 168.851 14.16 168.451 13.76C168.051 13.36 167.851 12.88 167.851 12.32C167.851 11.76 168.051 11.2933 168.451 10.92C168.851 10.52 169.345 10.32 169.931 10.32C170.518 10.32 171.011 10.5067 171.411 10.88C171.811 11.2533 172.011 11.72 172.011 12.28C172.011 12.8667 171.811 13.36 171.411 13.76C171.038 14.16 170.545 14.36 169.931 14.36ZM188.153 40.2C185.967 40.2 184.047 39.7467 182.393 38.84C180.74 37.9067 179.447 36.64 178.513 35.04C177.58 33.4133 177.113 31.56 177.113 29.48C177.113 27.4 177.553 25.56 178.433 23.96C179.34 22.36 180.567 21.1067 182.113 20.2C183.687 19.2667 185.447 18.8 187.393 18.8C189.367 18.8 191.113 19.2533 192.633 20.16C194.18 21.04 195.393 22.2933 196.273 23.92C197.153 25.52 197.593 27.3733 197.593 29.48C197.593 29.6133 197.58 29.76 197.553 29.92C197.553 30.0533 197.553 30.2 197.553 30.36H179.273V28.24H196.033L194.913 29.08C194.913 27.56 194.58 26.2133 193.913 25.04C193.273 23.84 192.393 22.9067 191.273 22.24C190.153 21.5733 188.86 21.24 187.393 21.24C185.953 21.24 184.66 21.5733 183.513 22.24C182.367 22.9067 181.473 23.84 180.833 25.04C180.193 26.24 179.873 27.6133 179.873 29.16V29.6C179.873 31.2 180.22 32.6133 180.913 33.84C181.633 35.04 182.62 35.9867 183.873 36.68C185.153 37.3467 186.607 37.68 188.233 37.68C189.513 37.68 190.7 37.4533 191.793 37C192.913 36.5467 193.873 35.8533 194.673 34.92L196.273 36.76C195.34 37.88 194.167 38.7333 192.753 39.32C191.367 39.9067 189.833 40.2 188.153 40.2ZM214.094 18.8C215.801 18.8 217.294 19.1333 218.574 19.8C219.881 20.44 220.894 21.4267 221.614 22.76C222.361 24.0933 222.734 25.7733 222.734 27.8V40H219.894V28.08C219.894 25.8667 219.334 24.2 218.214 23.08C217.121 21.9333 215.574 21.36 213.574 21.36C212.081 21.36 210.774 21.6667 209.654 22.28C208.561 22.8667 207.707 23.7333 207.094 24.88C206.507 26 206.214 27.36 206.214 28.96V40H203.374V19H206.094V24.76L205.654 23.68C206.321 22.16 207.387 20.9733 208.854 20.12C210.321 19.24 212.067 18.8 214.094 18.8ZM239.125 40.2C237.045 40.2 235.179 39.7467 233.525 38.84C231.899 37.9067 230.619 36.64 229.685 35.04C228.752 33.4133 228.285 31.56 228.285 29.48C228.285 27.3733 228.752 25.52 229.685 23.92C230.619 22.32 231.899 21.0667 233.525 20.16C235.179 19.2533 237.045 18.8 239.125 18.8C240.912 18.8 242.525 19.1467 243.965 19.84C245.405 20.5333 246.539 21.5733 247.365 22.96L245.245 24.4C244.525 23.3333 243.632 22.5467 242.565 22.04C241.499 21.5333 240.339 21.28 239.085 21.28C237.592 21.28 236.245 21.6267 235.045 22.32C233.845 22.9867 232.899 23.9333 232.205 25.16C231.512 26.3867 231.165 27.8267 231.165 29.48C231.165 31.1333 231.512 32.5733 232.205 33.8C232.899 35.0267 233.845 35.9867 235.045 36.68C236.245 37.3467 237.592 37.68 239.085 37.68C240.339 37.68 241.499 37.4267 242.565 36.92C243.632 36.4133 244.525 35.64 245.245 34.6L247.365 36.04C246.539 37.4 245.405 38.44 243.965 39.16C242.525 39.8533 240.912 40.2 239.125 40.2ZM261.513 40.2C259.326 40.2 257.406 39.7467 255.753 38.84C254.099 37.9067 252.806 36.64 251.873 35.04C250.939 33.4133 250.473 31.56 250.473 29.48C250.473 27.4 250.913 25.56 251.793 23.96C252.699 22.36 253.926 21.1067 255.473 20.2C257.046 19.2667 258.806 18.8 260.753 18.8C262.726 18.8 264.473 19.2533 265.993 20.16C267.539 21.04 268.753 22.2933 269.633 23.92C270.513 25.52 270.953 27.3733 270.953 29.48C270.953 29.6133 270.939 29.76 270.913 29.92C270.913 30.0533 270.913 30.2 270.913 30.36H252.633V28.24H269.393L268.273 29.08C268.273 27.56 267.939 26.2133 267.273 25.04C266.633 23.84 265.753 22.9067 264.633 22.24C263.513 21.5733 262.219 21.24 260.753 21.24C259.313 21.24 258.019 21.5733 256.873 22.24C255.726 22.9067 254.833 23.84 254.193 25.04C253.553 26.24 253.233 27.6133 253.233 29.16V29.6C253.233 31.2 253.579 32.6133 254.273 33.84C254.993 35.04 255.979 35.9867 257.233 36.68C258.513 37.3467 259.966 37.68 261.593 37.68C262.873 37.68 264.059 37.4533 265.153 37C266.273 36.5467 267.233 35.8533 268.033 34.92L269.633 36.76C268.699 37.88 267.526 38.7333 266.113 39.32C264.726 39.9067 263.193 40.2 261.513 40.2Z" fill="white"/>
<path fill-rule="evenodd" clip-rule="evenodd" d="M17.5 35C27.165 35 35 27.165 35 17.5C35 7.83503 27.165 0 17.5 0C7.83503 0 0 7.83503 0 17.5C0 27.165 7.83503 35 17.5 35ZM17.5 10C16.7897 10 16.3147 10.8521 15.3647 12.5563L15.119 12.9972C14.8492 13.4815 14.7143 13.7236 14.5038 13.8834C14.2933 14.0431 14.0312 14.1024 13.507 14.221L13.0297 14.329C11.1849 14.7464 10.2625 14.9551 10.0431 15.6608C9.82363 16.3665 10.4524 17.1018 11.7101 18.5724L12.0355 18.9529C12.3928 19.3708 12.5715 19.5798 12.652 19.8383C12.7322 20.0968 12.7053 20.3755 12.6513 20.9332L12.602 21.4408C12.4119 23.403 12.3168 24.384 12.8912 24.8202C13.466 25.2562 14.3295 24.8587 16.0567 24.0635L16.5035 23.8577C16.9945 23.6318 17.2397 23.5188 17.5 23.5188C17.7603 23.5188 18.0055 23.6318 18.4965 23.8577L18.9433 24.0635C20.6705 24.8587 21.534 25.2562 22.1087 24.8202C22.6833 24.384 22.588 23.403 22.398 21.4408L22.3487 20.9332C22.2948 20.3755 22.2678 20.0968 22.348 19.8383C22.4285 19.5798 22.6072 19.3708 22.9645 18.9529L23.29 18.5724C24.5475 17.1018 25.1765 16.3665 24.957 15.6608C24.7375 14.9551 23.815 14.7464 21.9703 14.329L21.493 14.221C20.9688 14.1024 20.7067 14.0431 20.4963 13.8834C20.2857 13.7236 20.1508 13.4815 19.881 12.9972L19.6353 12.5563C18.6853 10.8521 18.2103 10 17.5 10Z" fill="white"/>
<path d="M5.23252 34.8535L4.2856 38.3075C2.71475 44.037 1.92932 46.9018 2.97742 48.4703C3.34475 49.0198 3.8375 49.461 4.4093 49.752C6.04085 50.5828 8.56 49.2703 13.5982 46.645C15.2747 45.7715 16.113 45.3348 17.0035 45.2398C17.3337 45.2045 17.6662 45.2045 17.9965 45.2398C18.887 45.3348 19.7253 45.7715 21.4018 46.645C26.44 49.2703 28.9592 50.5828 30.5907 49.752C31.1625 49.461 31.6553 49.0198 32.0225 48.4703C33.0707 46.9018 32.2853 44.037 30.7145 38.3075L29.7675 34.8535C26.302 37.3078 22.0695 38.75 17.5 38.75C12.9305 38.75 8.69787 37.3078 5.23252 34.8535Z" fill="white"/>
</svg>
