<svg width="38" height="38" viewBox="0 0 38 38" fill="none" xmlns="http://www.w3.org/2000/svg">
<path d="M19 0C8.54999 0 0 8.56525 0 19.1145C0 28.6526 6.95399 36.5693 16.036 38V24.6466H11.21V19.1145H16.036V14.8986C16.036 10.1104 18.867 7.4779 23.218 7.4779C25.289 7.4779 27.455 7.84035 27.455 7.84035V12.5522H25.061C22.705 12.5522 21.964 14.0211 21.964 15.5281V19.1145H27.246L26.391 24.6466H21.964V38C26.4411 37.29 30.5181 34.9964 33.4588 31.5331C36.3994 28.07 38.0102 23.6653 38 19.1145C38 8.56525 29.45 0 19 0Z" fill="white"/>
</svg>
