<svg width="128" height="133" viewBox="0 0 128 133" fill="none" xmlns="http://www.w3.org/2000/svg">
<path d="M5.81818 0C4.27515 0.000153337 2.79536 0.60944 1.70428 1.69386C0.613189 2.77827 0.00015428 4.24901 0 5.78261V98.3043C0.00015428 99.8379 0.613189 101.309 1.70428 102.393C2.79536 103.478 4.27515 104.087 5.81818 104.087H46.5341V115.652H22.2841C20.8063 115.652 19.3832 116.216 18.3068 117.222L6.73864 128.008C4.81282 129.795 6.103 133 8.73864 133H119.261C121.897 133 123.187 129.789 121.261 127.997L109.693 117.211C108.611 116.21 107.194 115.652 105.716 115.652H81.4432V104.087H122.182C123.725 104.087 125.205 103.478 126.296 102.393C127.387 101.309 128 99.8379 128 98.3043V5.78261C128 4.24901 127.387 2.77827 126.296 1.69386C125.205 0.60944 123.725 0.000153337 122.182 0H5.81818ZM11.6364 11.5652H116.364V92.5217H11.6364V11.5652ZM46.4318 28.8566C44.9203 28.9013 43.4856 29.5292 42.4318 30.6072L24.9773 47.955C23.8866 49.0395 23.2738 50.5101 23.2738 52.0435C23.2738 53.5769 23.8866 55.0475 24.9773 56.132L42.4318 73.4798C42.9679 74.0348 43.6101 74.4779 44.3207 74.7831C45.0312 75.0883 45.7959 75.2496 46.57 75.2574C47.344 75.2653 48.1119 75.1195 48.8286 74.8287C49.5452 74.5379 50.1963 74.1079 50.7437 73.5639C51.2911 73.0198 51.7237 72.3727 52.0163 71.6604C52.3089 70.9482 52.4555 70.185 52.4477 69.4157C52.4398 68.6464 52.2775 67.8863 51.9704 67.1801C51.6633 66.4739 51.2175 65.8357 50.6591 65.3028L37.3182 52.0435L50.6591 38.7841C51.4998 37.9719 52.0741 36.9262 52.3066 35.784C52.5391 34.6418 52.4189 33.4565 51.962 32.3833C51.505 31.3101 50.7325 30.3992 49.7457 29.7699C48.7589 29.1406 47.6038 28.8222 46.4318 28.8566ZM81.3977 28.8566C80.2403 28.8569 79.1093 29.2002 78.1492 29.8428C77.1891 30.4853 76.4437 31.3978 76.0082 32.4636C75.5726 33.5294 75.4668 34.7001 75.7042 35.826C75.9416 36.9519 76.5115 37.9818 77.3409 38.7841L90.6818 52.0435L77.3409 65.3028C76.7825 65.8357 76.3367 66.4739 76.0296 67.1801C75.7225 67.8863 75.5602 68.6464 75.5523 69.4157C75.5445 70.185 75.6911 70.9482 75.9837 71.6604C76.2763 72.3727 76.7089 73.0198 77.2563 73.5639C77.8037 74.1079 78.4548 74.5379 79.1714 74.8287C79.8881 75.1195 80.656 75.2653 81.43 75.2574C82.2041 75.2496 82.9688 75.0883 83.6794 74.7831C84.3899 74.4779 85.0321 74.0348 85.5682 73.4798L103.023 56.132C104.113 55.0475 104.726 53.5769 104.726 52.0435C104.726 50.5101 104.113 49.0395 103.023 47.955L85.5682 30.6072C85.026 30.0532 84.3776 29.6129 83.6613 29.3122C82.945 29.0116 82.1753 28.8566 81.3977 28.8566Z" fill="white"/>
</svg>
