<svg width="176" height="41" viewBox="0 0 176 41" fill="none" xmlns="http://www.w3.org/2000/svg">
<rect width="176" height="41" fill="white"/>
<path d="M46.7504 17.78H54.1504V19.06H46.7504V17.78ZM46.9104 25H45.4304V11H55.0304V12.28H46.9104V25ZM61.7151 25.1C60.7017 25.1 59.7884 24.8733 58.9751 24.42C58.1751 23.9533 57.5417 23.32 57.0751 22.52C56.6084 21.7067 56.3751 20.78 56.3751 19.74C56.3751 18.6867 56.6084 17.76 57.0751 16.96C57.5417 16.16 58.1751 15.5333 58.9751 15.08C59.7751 14.6267 60.6884 14.4 61.7151 14.4C62.7551 14.4 63.6751 14.6267 64.4751 15.08C65.2884 15.5333 65.9217 16.16 66.3751 16.96C66.8417 17.76 67.0751 18.6867 67.0751 19.74C67.0751 20.78 66.8417 21.7067 66.3751 22.52C65.9217 23.32 65.2884 23.9533 64.4751 24.42C63.6617 24.8733 62.7417 25.1 61.7151 25.1ZM61.7151 23.84C62.4751 23.84 63.1484 23.6733 63.7351 23.34C64.3217 22.9933 64.7817 22.5133 65.1151 21.9C65.4617 21.2733 65.6351 20.5533 65.6351 19.74C65.6351 18.9133 65.4617 18.1933 65.1151 17.58C64.7817 16.9667 64.3217 16.4933 63.7351 16.16C63.1484 15.8133 62.4817 15.64 61.7351 15.64C60.9884 15.64 60.3217 15.8133 59.7351 16.16C59.1484 16.4933 58.6817 16.9667 58.3351 17.58C57.9884 18.1933 57.8151 18.9133 57.8151 19.74C57.8151 20.5533 57.9884 21.2733 58.3351 21.9C58.6817 22.5133 59.1484 22.9933 59.7351 23.34C60.3217 23.6733 60.9817 23.84 61.7151 23.84ZM69.9741 25V10.16H71.3941V25H69.9741ZM75.3452 25V10.16H76.7652V25H75.3452ZM84.9963 25.1C83.983 25.1 83.0697 24.8733 82.2563 24.42C81.4563 23.9533 80.823 23.32 80.3563 22.52C79.8897 21.7067 79.6563 20.78 79.6563 19.74C79.6563 18.6867 79.8897 17.76 80.3563 16.96C80.823 16.16 81.4563 15.5333 82.2563 15.08C83.0563 14.6267 83.9697 14.4 84.9963 14.4C86.0363 14.4 86.9563 14.6267 87.7563 15.08C88.5697 15.5333 89.203 16.16 89.6563 16.96C90.123 17.76 90.3563 18.6867 90.3563 19.74C90.3563 20.78 90.123 21.7067 89.6563 22.52C89.203 23.32 88.5697 23.9533 87.7563 24.42C86.943 24.8733 86.023 25.1 84.9963 25.1ZM84.9963 23.84C85.7563 23.84 86.4297 23.6733 87.0163 23.34C87.603 22.9933 88.063 22.5133 88.3963 21.9C88.743 21.2733 88.9163 20.5533 88.9163 19.74C88.9163 18.9133 88.743 18.1933 88.3963 17.58C88.063 16.9667 87.603 16.4933 87.0163 16.16C86.4297 15.8133 85.763 15.64 85.0163 15.64C84.2697 15.64 83.603 15.8133 83.0163 16.16C82.4297 16.4933 81.963 16.9667 81.6163 17.58C81.2697 18.1933 81.0963 18.9133 81.0963 19.74C81.0963 20.5533 81.2697 21.2733 81.6163 21.9C81.963 22.5133 82.4297 22.9933 83.0163 23.34C83.603 23.6733 84.263 23.84 84.9963 23.84ZM95.1024 25L91.1424 14.5H92.5024L96.1024 24.24H95.4824L99.1824 14.5H100.402L104.062 24.24H103.442L107.102 14.5H108.402L104.422 25H103.082L99.5624 15.84H99.9824L96.4424 25H95.1024ZM120.055 25.1C119.042 25.1 118.128 24.8733 117.315 24.42C116.515 23.9533 115.882 23.32 115.415 22.52C114.948 21.7067 114.715 20.78 114.715 19.74C114.715 18.6867 114.948 17.76 115.415 16.96C115.882 16.16 116.515 15.5333 117.315 15.08C118.115 14.6267 119.028 14.4 120.055 14.4C121.095 14.4 122.015 14.6267 122.815 15.08C123.628 15.5333 124.262 16.16 124.715 16.96C125.182 17.76 125.415 18.6867 125.415 19.74C125.415 20.78 125.182 21.7067 124.715 22.52C124.262 23.32 123.628 23.9533 122.815 24.42C122.002 24.8733 121.082 25.1 120.055 25.1ZM120.055 23.84C120.815 23.84 121.488 23.6733 122.075 23.34C122.662 22.9933 123.122 22.5133 123.455 21.9C123.802 21.2733 123.975 20.5533 123.975 19.74C123.975 18.9133 123.802 18.1933 123.455 17.58C123.122 16.9667 122.662 16.4933 122.075 16.16C121.488 15.8133 120.822 15.64 120.075 15.64C119.328 15.64 118.662 15.8133 118.075 16.16C117.488 16.4933 117.022 16.9667 116.675 17.58C116.328 18.1933 116.155 18.9133 116.155 19.74C116.155 20.5533 116.328 21.2733 116.675 21.9C117.022 22.5133 117.488 22.9933 118.075 23.34C118.662 23.6733 119.322 23.84 120.055 23.84ZM133.674 14.4C134.527 14.4 135.274 14.5667 135.914 14.9C136.567 15.22 137.074 15.7133 137.434 16.38C137.807 17.0467 137.994 17.8867 137.994 18.9V25H136.574V19.04C136.574 17.9333 136.294 17.1 135.734 16.54C135.187 15.9667 134.414 15.68 133.414 15.68C132.667 15.68 132.014 15.8333 131.454 16.14C130.907 16.4333 130.481 16.8667 130.174 17.44C129.881 18 129.734 18.68 129.734 19.48V25H128.314V14.5H129.674V17.38L129.454 16.84C129.787 16.08 130.321 15.4867 131.054 15.06C131.787 14.62 132.661 14.4 133.674 14.4Z" fill="#181614"/>
</svg>
