<svg width="60" height="60" viewBox="0 0 60 60" fill="none" xmlns="http://www.w3.org/2000/svg">
<path d="M30.0025 5C16.1899 5 5.00244 16.1875 5.00244 30C5.00244 41.0625 12.1587 50.4062 22.0962 53.7188C23.3462 53.9375 23.8149 53.1875 23.8149 52.5312C23.8149 51.9375 23.7837 49.9688 23.7837 47.875C17.5024 49.0312 15.8774 46.3438 15.3774 44.9375C15.0962 44.2188 13.8774 42 12.8149 41.4062C11.9399 40.9375 10.6899 39.7812 12.7837 39.75C14.7524 39.7188 16.1587 41.5625 16.6274 42.3125C18.8774 46.0938 22.4712 45.0312 23.9087 44.375C24.1274 42.75 24.7837 41.6562 25.5025 41.0312C19.9399 40.4062 14.1274 38.25 14.1274 28.6875C14.1274 25.9688 15.0962 23.7188 16.6899 21.9688C16.4399 21.3438 15.5649 18.7812 16.9399 15.3438C16.9399 15.3438 19.0337 14.6875 23.8149 17.9062C25.815 17.3438 27.94 17.0625 30.065 17.0625C32.19 17.0625 34.315 17.3438 36.315 17.9062C41.0962 14.6562 43.19 15.3438 43.19 15.3438C44.565 18.7812 43.69 21.3438 43.44 21.9688C45.0337 23.7188 46.0025 25.9375 46.0025 28.6875C46.0025 38.2812 40.1587 40.4062 34.5962 41.0312C35.5025 41.8125 36.2837 43.3125 36.2837 45.6562C36.2837 49 36.2525 51.6875 36.2525 52.5312C36.2525 53.1875 36.7212 53.9688 37.9712 53.7188C48.1475 50.2832 54.9997 40.7407 55.0025 30C55.0025 16.1875 43.815 5 30.0025 5Z" fill="white"/>
</svg>
