<svg width="29" height="28" viewBox="0 0 29 28" fill="none" xmlns="http://www.w3.org/2000/svg">
<path fill-rule="evenodd" clip-rule="evenodd" d="M14.5796 0C22.3118 0 28.5796 6.4259 28.5796 14.3541C28.5796 20.6947 24.5728 26.0735 19.0134 27.9733C18.3036 28.1147 18.0516 27.6665 18.0516 27.2843C18.0516 26.8111 18.0684 25.2655 18.0684 23.3447C18.0684 22.0063 17.6204 21.1328 17.1178 20.6876C20.2356 20.332 23.5116 19.1181 23.5116 13.6049C23.5116 12.0369 22.9684 10.7573 22.0696 9.75215C22.2152 9.38955 22.6954 7.92953 21.9324 5.95273C21.9324 5.95273 20.7592 5.56811 18.0866 7.42451C16.968 7.10671 15.7696 6.94681 14.5796 6.94121C13.3896 6.94681 12.1926 7.10671 11.0754 7.42451C8.40002 5.56811 7.22402 5.95273 7.22402 5.95273C6.46382 7.92953 6.94402 9.38955 7.08822 9.75215C6.19362 10.7573 5.64622 12.0369 5.64622 13.6049C5.64622 19.1041 8.91522 20.3366 12.0246 20.6992C11.6242 21.0576 11.2616 21.6899 11.1356 22.6181C10.3376 22.9849 8.31042 23.6197 7.06162 21.4259C7.06162 21.4259 6.32102 20.0467 4.91542 19.9459C4.91542 19.9459 3.55042 19.9278 4.82022 20.8182C4.82022 20.8182 5.73722 21.2592 6.37422 22.9182C6.37422 22.9182 7.19602 25.4801 11.0908 24.6121C11.0978 25.8119 11.1104 26.9427 11.1104 27.2843C11.1104 27.6637 10.8528 28.1077 10.1542 27.9747C4.59062 26.0777 0.57962 20.6961 0.57962 14.3541C0.57962 6.4259 6.84882 0 14.5796 0Z" fill="black"/>
</svg>
