<svg xmlns="http://www.w3.org/2000/svg" viewBox="0 0 1280 1280"><defs>
<style>
    
    @media (prefers-color-scheme: dark){
        path{
            fill: white;
        }
    }

</style>
</defs>

<path class="cls-1" d="M640,114c-290.5,0-526,235.5-526,526s235.5,526,526,526,526-235.5,526-526S930.5,114,640,114ZM263.79,931.58A440.35,440.35,0,0,1,180.08,792.4a489.09,489.09,0,0,1,0-304.8c62.09-167.34,223.36-286.93,412-286.93,136.76,0,259.09,62.83,339.71,161.09C858.33,284.68,754.68,236.58,640,236.58c-222.45,0-403.41,181-403.41,403.41a401.22,401.22,0,0,0,77,236.81,286.22,286.22,0,0,0,28.87,35.34c73.8,80.62,179.88,131.28,297.55,131.28,114.69,0,218.34-48.1,291.84-125.18-80.62,98.26-203,161.07-339.71,161.07-120.67,0-230.12-48.91-309.6-127.95ZM892,697.77,559.67,915.18,754,701.22,621.64,604.59,965.45,374.38,757.78,596.54ZM386.76,589.27,724.67,364.83,524.4,581.13,660.13,683.48l-331.62,213L520.6,687ZM982.42,982.42C891,1073.89,769.34,1124.27,640,1124.27c-100.74,0-196.79-30.58-277.55-87.3a455.7,455.7,0,0,0,229.68,61.49c122.48,0,237.59-47.68,324.19-134.26S1050.59,762.47,1050.59,640c0-90.2-25.87-176.41-74.1-250.19L954,358.4a468,468,0,0,0-37.71-42.59c-86.6-86.59-201.71-134.29-324.19-134.29A455.72,455.72,0,0,0,362.44,243C443.2,186.31,539.25,155.74,640,155.74c129.35,0,251,50.37,342.43,141.84q12.62,12.6,24.15,25.93l14.74,17.87c66.74,84.86,103,189,103,298.61C1124.26,769.36,1073.89,891,982.42,982.42Z"/>
</svg>