<svg width="70" height="70" viewBox="0 0 70 70" fill="none" xmlns="http://www.w3.org/2000/svg">
<g id="Layer 1">
<path id="Vector" d="M35 0C15.6694 0 0 15.6705 0 35C0 54.3295 15.6694 70 35 70C54.3306 70 70 54.3306 70 35C70 15.6694 54.3295 0 35 0ZM9.9677 54.402C7.57666 51.7113 5.67249 48.5781 4.39691 45.1408C3.33122 41.9124 2.77728 38.4989 2.77728 34.9989C2.77728 31.4989 3.33122 28.0866 4.39691 24.8592C8.52875 13.7241 19.2592 5.76662 31.8138 5.76662C40.9138 5.76662 49.053 9.94714 54.4182 16.4852C49.5269 11.3569 42.6308 8.15549 34.9989 8.15549C20.1972 8.15549 8.15657 20.1961 8.15657 34.9978C8.15657 40.8802 10.0575 46.3266 13.2794 50.7549C13.2794 50.7549 14.0876 51.9612 15.2009 53.1059C20.1117 58.4711 27.1702 61.8413 35 61.8413C42.8298 61.8413 49.528 58.6399 54.4193 53.5116C49.0541 60.0496 40.9148 64.2291 31.8148 64.2291C23.7849 64.2291 16.5025 60.9746 11.2141 55.7155L9.96878 54.3988L9.9677 54.402ZM51.7708 38.844L29.6553 53.3104L42.5875 39.0734L33.7785 32.6436L56.6556 17.3247L42.8374 32.107L51.7708 38.843V38.844ZM18.1502 31.6244L40.6346 16.6896L27.3087 31.0824L36.3405 37.892L14.2748 52.0683L27.0566 38.1235L18.1513 31.6233L18.1502 31.6244ZM57.7852 57.7841C51.6994 63.8699 43.6066 67.2227 35 67.2227C28.2975 67.2227 21.9056 65.1876 16.5317 61.4139C21.1255 64.0819 26.3609 65.5057 31.8148 65.5057C39.9638 65.5057 47.6238 62.3325 53.3861 56.5713C59.1484 50.8079 62.3216 43.149 62.3216 34.9989C62.3216 28.9964 60.6003 23.2612 57.3913 18.3515L55.8961 16.2623C55.1247 15.2756 54.2862 14.3289 53.3861 13.4277C47.6249 7.66646 39.9649 4.49212 31.8148 4.49212C26.3609 4.49212 21.1255 5.91592 16.5317 8.58501C21.9056 4.81128 28.2964 2.77728 35 2.77728C43.6066 2.77728 51.6994 6.12906 57.7852 12.2148C58.3445 12.7731 58.8801 13.3487 59.3918 13.9405L60.3731 15.1295C64.8144 20.776 67.2227 27.7025 67.2227 34.9989C67.2227 43.6077 63.8709 51.6983 57.7852 57.7841Z" fill="#181614"/>
</g>
</svg>
