<svg width="60" height="60" viewBox="0 0 60 60" fill="none" xmlns="http://www.w3.org/2000/svg">
<path d="M32.5702 5.00245C35.3837 5.0071 36.8095 5.02197 38.0415 5.05865L38.5267 5.07452C39.0872 5.09445 39.6402 5.11945 40.307 5.1507C42.9672 5.2736 44.782 5.69445 46.3757 6.3132C48.0235 6.9486 49.4152 7.80695 50.8047 9.19652C52.1922 10.5861 53.0507 11.9819 53.6882 13.6257C54.3047 15.2174 54.7257 17.034 54.8507 19.6944C54.8805 20.3611 54.9045 20.9141 54.9242 21.4747L54.94 21.9599C54.9765 23.1918 54.9932 24.6177 54.9985 27.4312L55.0005 29.2955C55.0007 29.5233 55.0007 29.7583 55.0007 30.0008L55.0005 30.706L54.999 32.5703C54.9942 35.3838 54.9795 36.8095 54.9427 38.0415L54.9267 38.5267C54.907 39.0872 54.882 39.6403 54.8507 40.307C54.7277 42.9673 54.3047 44.782 53.6882 46.3757C53.0527 48.0235 52.1922 49.4152 50.8047 50.8047C49.4152 52.1922 48.0172 53.0507 46.3757 53.6882C44.782 54.3047 42.9672 54.7257 40.307 54.8507C39.6402 54.8805 39.0872 54.9045 38.5267 54.9242L38.0415 54.94C36.8095 54.9765 35.3837 54.9932 32.5702 54.9985L30.706 55.0005C30.4782 55.0007 30.2432 55.0007 30.0007 55.0007L29.2955 55.0005L27.4312 54.999C24.6177 54.9942 23.1918 54.9795 21.9599 54.9427L21.4747 54.9267C20.9141 54.907 20.3611 54.882 19.6944 54.8507C17.034 54.7277 15.2215 54.3047 13.6257 53.6882C11.9798 53.0527 10.5861 52.1922 9.19652 50.8047C7.80694 49.4152 6.95069 48.0173 6.31319 46.3757C5.69444 44.782 5.27569 42.9673 5.15069 40.307C5.12099 39.6403 5.09677 39.0872 5.07714 38.5267L5.06142 38.0415C5.02484 36.8095 5.00817 35.3838 5.00277 32.5703L5.00244 27.4312C5.00709 24.6177 5.02197 23.1918 5.05864 21.9599L5.07452 21.4747C5.09444 20.9141 5.11944 20.3611 5.15069 19.6944C5.27359 17.0319 5.69444 15.2194 6.31319 13.6257C6.94859 11.9798 7.80694 10.5861 9.19652 9.19652C10.5861 7.80695 11.9819 6.9507 13.6257 6.3132C15.2194 5.69445 17.0319 5.2757 19.6944 5.1507C20.3611 5.121 20.9141 5.09677 21.4747 5.07715L21.9599 5.06142C23.1918 5.02485 24.6177 5.00817 27.4312 5.00277L32.5702 5.00245ZM30.0007 17.5007C23.0934 17.5007 17.5007 23.0995 17.5007 30.0008C17.5007 36.908 23.0995 42.5007 30.0007 42.5007C36.908 42.5007 42.5007 36.9018 42.5007 30.0008C42.5007 23.0935 36.9017 17.5007 30.0007 17.5007ZM30.0007 22.5007C34.143 22.5007 37.5007 25.8573 37.5007 30.0008C37.5007 34.143 34.144 37.5008 30.0007 37.5008C25.8585 37.5008 22.5007 34.144 22.5007 30.0008C22.5007 25.8585 25.8572 22.5007 30.0007 22.5007ZM43.1257 13.7507C41.4025 13.7507 40.0007 15.1504 40.0007 16.8736C40.0007 18.5967 41.4005 19.9986 43.1257 19.9986C44.8487 19.9986 46.2507 18.5989 46.2507 16.8736C46.2507 15.1504 44.8465 13.7485 43.1257 13.7507Z" fill="white"/>
</svg>
