<svg id="visual" viewBox="0 0 900 600" width="900" height="600" xmlns="http://www.w3.org/2000/svg" xmlns:xlink="http://www.w3.org/1999/xlink" version="1.1"><rect x="0" y="0" width="900" height="600" fill="#333"></rect><path d="M0 280L21.5 264.3C43 248.7 86 217.3 128.8 196C171.7 174.7 214.3 163.3 257.2 155.2C300 147 343 142 385.8 150.7C428.7 159.3 471.3 181.7 514.2 188.8C557 196 600 188 642.8 171.5C685.7 155 728.3 130 771.2 145.2C814 160.3 857 215.7 878.5 243.3L900 271L900 601L878.5 601C857 601 814 601 771.2 601C728.3 601 685.7 601 642.8 601C600 601 557 601 514.2 601C471.3 601 428.7 601 385.8 601C343 601 300 601 257.2 601C214.3 601 171.7 601 128.8 601C86 601 43 601 21.5 601L0 601Z" fill="#212121"></path><path d="M0 284L21.5 268.2C43 252.3 86 220.7 128.8 216.5C171.7 212.3 214.3 235.7 257.2 256.2C300 276.7 343 294.3 385.8 311.3C428.7 328.3 471.3 344.7 514.2 326.2C557 307.7 600 254.3 642.8 247.3C685.7 240.3 728.3 279.7 771.2 288.8C814 298 857 277 878.5 266.5L900 256L900 601L878.5 601C857 601 814 601 771.2 601C728.3 601 685.7 601 642.8 601C600 601 557 601 514.2 601C471.3 601 428.7 601 385.8 601C343 601 300 601 257.2 601C214.3 601 171.7 601 128.8 601C86 601 43 601 21.5 601L0 601Z" fill="#1b1b1b"></path><path d="M0 327L21.5 319.5C43 312 86 297 128.8 302.2C171.7 307.3 214.3 332.7 257.2 342.3C300 352 343 346 385.8 337.2C428.7 328.3 471.3 316.7 514.2 308.3C557 300 600 295 642.8 313.5C685.7 332 728.3 374 771.2 385.5C814 397 857 378 878.5 368.5L900 359L900 601L878.5 601C857 601 814 601 771.2 601C728.3 601 685.7 601 642.8 601C600 601 557 601 514.2 601C471.3 601 428.7 601 385.8 601C343 601 300 601 257.2 601C214.3 601 171.7 601 128.8 601C86 601 43 601 21.5 601L0 601Z" fill="#141414"></path><path d="M0 444L21.5 445.5C43 447 86 450 128.8 450.5C171.7 451 214.3 449 257.2 439.5C300 430 343 413 385.8 412.3C428.7 411.7 471.3 427.3 514.2 428.5C557 429.7 600 416.3 642.8 405.7C685.7 395 728.3 387 771.2 394.8C814 402.7 857 426.3 878.5 438.2L900 450L900 601L878.5 601C857 601 814 601 771.2 601C728.3 601 685.7 601 642.8 601C600 601 557 601 514.2 601C471.3 601 428.7 601 385.8 601C343 601 300 601 257.2 601C214.3 601 171.7 601 128.8 601C86 601 43 601 21.5 601L0 601Z" fill="#0b0b0b"></path><path d="M0 463L21.5 461.8C43 460.7 86 458.3 128.8 461.3C171.7 464.3 214.3 472.7 257.2 475C300 477.3 343 473.7 385.8 477.5C428.7 481.3 471.3 492.7 514.2 494.8C557 497 600 490 642.8 482.3C685.7 474.7 728.3 466.3 771.2 472C814 477.7 857 497.3 878.5 507.2L900 517L900 601L878.5 601C857 601 814 601 771.2 601C728.3 601 685.7 601 642.8 601C600 601 557 601 514.2 601C471.3 601 428.7 601 385.8 601C343 601 300 601 257.2 601C214.3 601 171.7 601 128.8 601C86 601 43 601 21.5 601L0 601Z" fill="#000000"></path></svg>