<svg width="60" height="60" viewBox="0 0 60 60" fill="none" xmlns="http://www.w3.org/2000/svg">
<path d="M45.8405 45.8475H39.1767V35.4055C39.1767 32.9155 39.1262 29.7112 35.7042 29.7112C32.23 29.7112 31.6992 32.4208 31.6992 35.2218V45.8475H25.0355V24.375H31.4367V27.3018H31.523C32.4175 25.6143 34.5925 23.8331 37.8417 23.8331C44.5937 23.8331 45.8425 28.277 45.8425 34.0613L45.8405 45.8475ZM17.5093 21.4369C15.3643 21.4369 13.6412 19.7006 13.6412 17.565C13.6412 15.4313 15.3662 13.6969 17.5093 13.6969C19.6468 13.6969 21.3793 15.4313 21.3793 17.565C21.3793 19.7006 19.6449 21.4369 17.5093 21.4369ZM20.8506 45.8475H14.1681V24.375H20.8506V45.8475ZM49.1742 7.5H10.8231C8.98744 7.5 7.50244 8.95125 7.50244 10.7419V49.2583C7.50244 51.0505 8.98744 52.5 10.8231 52.5H49.1687C51.0025 52.5 52.5025 51.0505 52.5025 49.2583V10.7419C52.5025 8.95125 51.0025 7.5 49.1687 7.5H49.1742Z" fill="white"/>
</svg>
