<svg width="78" height="78" viewBox="0 0 78 78" fill="none" xmlns="http://www.w3.org/2000/svg">
<g id="Asset 3 2" clip-path="url(#clip0_16_46)">
<g id="Layer 1">
<path id="Vector" d="M39 0C17.4602 0 0 17.4614 0 39C0 60.5386 17.4602 78 39 78C60.5398 78 78 60.5398 78 39C78 17.4602 60.5386 0 39 0ZM11.1069 60.6194C8.44256 57.6211 6.32077 54.1298 4.89941 50.2998C3.71193 46.7024 3.09468 42.8988 3.09468 38.9988C3.09468 35.0988 3.71193 31.2964 4.89941 27.7002C9.50346 15.2926 21.4602 6.42566 35.4496 6.42566C45.5896 6.42566 54.6591 11.084 60.6375 18.3692C55.1871 12.6548 47.5028 9.08754 38.9988 9.08754C22.5055 9.08754 9.08875 22.5043 9.08875 38.9976C9.08875 45.5522 11.2069 51.6211 14.7971 56.5554C14.7971 56.5554 15.6977 57.8996 16.9382 59.1751C22.4102 65.1535 30.2753 68.9088 39 68.9088C47.7247 68.9088 55.1883 65.3416 60.6387 59.6272C54.6603 66.9124 45.5908 71.5695 35.4508 71.5695C26.5031 71.5695 18.3885 67.9432 12.4957 62.0829L11.1081 60.6158L11.1069 60.6194ZM57.6875 43.2834L33.0445 59.403L47.4546 43.5389L37.6389 36.3743L63.1306 19.3047L47.7331 35.7763L57.6875 43.2822V43.2834ZM20.2245 35.2386L45.2786 18.597L30.4296 34.6347L40.4937 42.2225L15.9062 58.019L30.1487 42.4805L20.2257 35.2374L20.2245 35.2386ZM64.3892 64.388C57.6079 71.1693 48.5903 74.9053 39 74.9053C31.5315 74.9053 24.4091 72.6376 18.421 68.4326C23.5398 71.4056 29.3736 72.9921 35.4508 72.9921C44.5311 72.9921 53.0665 69.4562 59.4874 63.0365C65.9082 56.6145 69.4441 48.0803 69.4441 38.9988C69.4441 32.3103 67.5261 25.9196 63.9504 20.4488L62.2843 18.1208C61.4247 17.0214 60.4904 15.9665 59.4874 14.9623C53.0677 8.54263 44.5323 5.0055 35.4508 5.0055C29.3736 5.0055 23.5398 6.59202 18.421 9.56615C24.4091 5.36114 31.5303 3.09468 39 3.09468C48.5903 3.09468 57.6079 6.82952 64.3892 13.6108C65.0125 14.2329 65.6092 14.8743 66.1794 15.5337L67.2729 16.8586C72.2217 23.1504 74.9053 30.8685 74.9053 38.9988C74.9053 48.5915 71.1705 57.6067 64.3892 64.388Z" fill="white"/>
</g>
</g>
<defs>
<clipPath id="clip0_16_46">
<rect width="78" height="78" fill="white"/>
</clipPath>
</defs>
</svg>
