<svg width="37" height="28" viewBox="0 0 37 28" fill="none" xmlns="http://www.w3.org/2000/svg">
<path d="M37 2C37 0.89375 35.819 0 34.3571 0H2.64286C1.18103 0 0 0.89375 0 2C0 3.10625 1.18103 4 2.64286 4H34.3571C35.819 4 37 3.10625 37 2ZM37 18C37 16.8937 35.819 16 34.3571 16H2.64286C1.18103 16 0 16.8937 0 18C0 19.1063 1.18103 20 2.64286 20H34.3571C35.819 20 37 19.1063 37 18ZM0 10C0 11.1062 1.18103 12 2.64286 12H34.3571C35.819 12 37 11.1062 37 10C37 8.89375 35.819 8 34.3571 8H2.64286C1.18103 8 0 8.89375 0 10ZM37 26C37 24.8937 35.819 24 34.3571 24H2.64286C1.18103 24 0 24.8937 0 26C0 27.1063 1.18103 28 2.64286 28H34.3571C35.819 28 37 27.1063 37 26Z" fill="white"/>
</svg>
