<svg width="30" height="30" viewBox="0 0 30 30" fill="none" xmlns="http://www.w3.org/2000/svg">
<path d="M3.75 9C3.75 7.59986 3.75 6.8998 4.02249 6.36503C4.26216 5.89461 4.64461 5.51216 5.11503 5.27249C5.6498 5 6.34987 5 7.75 5H22.25C23.6501 5 24.3503 5 24.885 5.27249C25.3554 5.51216 25.7379 5.89461 25.9775 6.36503C26.25 6.8998 26.25 7.59987 26.25 9V25L22.0946 22.9222C21.7796 22.7647 21.6221 22.686 21.457 22.6305C21.3105 22.5813 21.1596 22.5456 21.0065 22.5241C20.834 22.5 20.6579 22.5 20.3058 22.5H7.75C6.34986 22.5 5.6498 22.5 5.11503 22.2275C4.64461 21.9879 4.26216 21.6054 4.02249 21.135C3.75 20.6003 3.75 19.9001 3.75 18.5V9Z" stroke="white" stroke-width="5" stroke-linecap="round" stroke-linejoin="round"/>
</svg>
