<svg width="228" height="36" viewBox="0 0 228 36" fill="none" xmlns="http://www.w3.org/2000/svg">
<path d="M12.08 3.52C12.7627 3.52 13.3547 3.65333 13.856 3.92C14.368 4.176 14.7627 4.57067 15.04 5.104C15.328 5.63733 15.472 6.30933 15.472 7.12V12H14.336V7.232C14.336 6.34667 14.1227 5.68 13.696 5.232C13.28 4.77333 12.688 4.544 11.92 4.544C11.344 4.544 10.8427 4.66667 10.416 4.912C10 5.14667 9.67467 5.49333 9.44 5.952C9.216 6.4 9.104 6.944 9.104 7.584V12H7.968V7.232C7.968 6.34667 7.75467 5.68 7.328 5.232C6.90133 4.77333 6.304 4.544 5.536 4.544C4.97067 4.544 4.47467 4.66667 4.048 4.912C3.62133 5.14667 3.29067 5.49333 3.056 5.952C2.832 6.4 2.72 6.944 2.72 7.584V12H1.584V3.6H2.672V5.872L2.496 5.472C2.752 4.864 3.16267 4.38933 3.728 4.048C4.304 3.696 4.98133 3.52 5.76 3.52C6.58133 3.52 7.28 3.728 7.856 4.144C8.432 4.54933 8.80533 5.16267 8.976 5.984L8.528 5.808C8.77333 5.12533 9.20533 4.576 9.824 4.16C10.4533 3.73333 11.2053 3.52 12.08 3.52ZM21.9768 12.08C21.1661 12.08 20.4354 11.8987 19.7848 11.536C19.1448 11.1627 18.6381 10.656 18.2648 10.016C17.8914 9.36533 17.7048 8.624 17.7048 7.792C17.7048 6.94933 17.8914 6.208 18.2648 5.568C18.6381 4.928 19.1448 4.42667 19.7848 4.064C20.4248 3.70133 21.1554 3.52 21.9768 3.52C22.8088 3.52 23.5448 3.70133 24.1848 4.064C24.8354 4.42667 25.3421 4.928 25.7048 5.568C26.0781 6.208 26.2648 6.94933 26.2648 7.792C26.2648 8.624 26.0781 9.36533 25.7048 10.016C25.3421 10.656 24.8354 11.1627 24.1848 11.536C23.5341 11.8987 22.7981 12.08 21.9768 12.08ZM21.9768 11.072C22.5848 11.072 23.1234 10.9387 23.5928 10.672C24.0621 10.3947 24.4301 10.0107 24.6968 9.52C24.9741 9.01867 25.1128 8.44267 25.1128 7.792C25.1128 7.13067 24.9741 6.55467 24.6968 6.064C24.4301 5.57333 24.0621 5.19467 23.5928 4.928C23.1234 4.65067 22.5901 4.512 21.9928 4.512C21.3954 4.512 20.8621 4.65067 20.3928 4.928C19.9234 5.19467 19.5501 5.57333 19.2728 6.064C18.9954 6.55467 18.8568 7.13067 18.8568 7.792C18.8568 8.44267 18.9954 9.01867 19.2728 9.52C19.5501 10.0107 19.9234 10.3947 20.3928 10.672C20.8621 10.9387 21.3901 11.072 21.9768 11.072ZM32.872 3.52C33.5547 3.52 34.152 3.65333 34.664 3.92C35.1867 4.176 35.592 4.57067 35.88 5.104C36.1787 5.63733 36.328 6.30933 36.328 7.12V12H35.192V7.232C35.192 6.34667 34.968 5.68 34.52 5.232C34.0827 4.77333 33.464 4.544 32.664 4.544C32.0667 4.544 31.544 4.66667 31.096 4.912C30.6587 5.14667 30.3173 5.49333 30.072 5.952C29.8373 6.4 29.72 6.944 29.72 7.584V12H28.584V0.127999H29.72V5.904L29.496 5.472C29.7627 4.864 30.1893 4.38933 30.776 4.048C31.3627 3.696 32.0613 3.52 32.872 3.52ZM44.6605 12V10.144L44.6125 9.84V6.736C44.6125 6.02133 44.4098 5.472 44.0045 5.088C43.6098 4.704 43.0178 4.512 42.2285 4.512C41.6845 4.512 41.1672 4.60267 40.6765 4.784C40.1858 4.96533 39.7698 5.20533 39.4285 5.504L38.9165 4.656C39.3432 4.29333 39.8552 4.016 40.4525 3.824C41.0498 3.62133 41.6792 3.52 42.3405 3.52C43.4285 3.52 44.2658 3.792 44.8525 4.336C45.4498 4.86933 45.7485 5.68533 45.7485 6.784V12H44.6605ZM41.7645 12.08C41.1352 12.08 40.5858 11.9787 40.1165 11.776C39.6578 11.5627 39.3058 11.2747 39.0605 10.912C38.8152 10.5387 38.6925 10.112 38.6925 9.632C38.6925 9.19467 38.7938 8.8 38.9965 8.448C39.2098 8.08533 39.5512 7.79733 40.0205 7.584C40.5005 7.36 41.1405 7.248 41.9405 7.248H44.8365V8.096H41.9725C41.1618 8.096 40.5965 8.24 40.2765 8.528C39.9672 8.816 39.8125 9.17333 39.8125 9.6C39.8125 10.08 39.9992 10.464 40.3725 10.752C40.7458 11.04 41.2685 11.184 41.9405 11.184C42.5805 11.184 43.1298 11.04 43.5885 10.752C44.0578 10.4533 44.3992 10.0267 44.6125 9.472L44.8685 10.256C44.6552 10.8107 44.2818 11.2533 43.7485 11.584C43.2258 11.9147 42.5645 12.08 41.7645 12.08ZM48.834 12V0.127999H49.97V12H48.834ZM53.1309 12V0.127999H54.2669V12H53.1309ZM62.6918 12V10.144L62.6438 9.84V6.736C62.6438 6.02133 62.4411 5.472 62.0358 5.088C61.6411 4.704 61.0491 4.512 60.2598 4.512C59.7158 4.512 59.1984 4.60267 58.7078 4.784C58.2171 4.96533 57.8011 5.20533 57.4598 5.504L56.9478 4.656C57.3744 4.29333 57.8864 4.016 58.4838 3.824C59.0811 3.62133 59.7104 3.52 60.3718 3.52C61.4598 3.52 62.2971 3.792 62.8838 4.336C63.4811 4.86933 63.7798 5.68533 63.7798 6.784V12H62.6918ZM59.7958 12.08C59.1664 12.08 58.6171 11.9787 58.1478 11.776C57.6891 11.5627 57.3371 11.2747 57.0918 10.912C56.8464 10.5387 56.7238 10.112 56.7238 9.632C56.7238 9.19467 56.8251 8.8 57.0278 8.448C57.2411 8.08533 57.5824 7.79733 58.0518 7.584C58.5318 7.36 59.1718 7.248 59.9718 7.248H62.8678V8.096H60.0038C59.1931 8.096 58.6278 8.24 58.3078 8.528C57.9984 8.816 57.8438 9.17333 57.8438 9.6C57.8438 10.08 58.0304 10.464 58.4038 10.752C58.7771 11.04 59.2998 11.184 59.9718 11.184C60.6118 11.184 61.1611 11.04 61.6198 10.752C62.0891 10.4533 62.4304 10.0267 62.6438 9.472L62.8998 10.256C62.6864 10.8107 62.3131 11.2533 61.7798 11.584C61.2571 11.9147 60.5958 12.08 59.7958 12.08ZM73.7088 12.08C72.9194 12.08 72.3114 11.8667 71.8848 11.44C71.4581 11.0133 71.2448 10.4107 71.2448 9.632V1.744H72.3808V9.568C72.3808 10.0587 72.5034 10.4373 72.7488 10.704C73.0048 10.9707 73.3674 11.104 73.8368 11.104C74.3381 11.104 74.7541 10.96 75.0848 10.672L75.4848 11.488C75.2608 11.6907 74.9888 11.84 74.6688 11.936C74.3594 12.032 74.0394 12.08 73.7088 12.08ZM69.7408 4.544V3.6H74.9408V4.544H69.7408ZM82.8168 12V10.144L82.7688 9.84V6.736C82.7688 6.02133 82.5661 5.472 82.1608 5.088C81.7661 4.704 81.1741 4.512 80.3848 4.512C79.8408 4.512 79.3234 4.60267 78.8328 4.784C78.3421 4.96533 77.9261 5.20533 77.5848 5.504L77.0728 4.656C77.4994 4.29333 78.0114 4.016 78.6088 3.824C79.2061 3.62133 79.8354 3.52 80.4968 3.52C81.5848 3.52 82.4221 3.792 83.0088 4.336C83.6061 4.86933 83.9048 5.68533 83.9048 6.784V12H82.8168ZM79.9208 12.08C79.2914 12.08 78.7421 11.9787 78.2728 11.776C77.8141 11.5627 77.4621 11.2747 77.2168 10.912C76.9714 10.5387 76.8488 10.112 76.8488 9.632C76.8488 9.19467 76.9501 8.8 77.1528 8.448C77.3661 8.08533 77.7074 7.79733 78.1768 7.584C78.6568 7.36 79.2968 7.248 80.0968 7.248H82.9928V8.096H80.1288C79.3181 8.096 78.7528 8.24 78.4328 8.528C78.1234 8.816 77.9688 9.17333 77.9688 9.6C77.9688 10.08 78.1554 10.464 78.5288 10.752C78.9021 11.04 79.4248 11.184 80.0968 11.184C80.7368 11.184 81.2861 11.04 81.7448 10.752C82.2141 10.4533 82.5554 10.0267 82.7688 9.472L83.0248 10.256C82.8114 10.8107 82.4381 11.2533 81.9048 11.584C81.3821 11.9147 80.7208 12.08 79.9208 12.08ZM91.2783 3.52C91.9609 3.52 92.5583 3.65333 93.0703 3.92C93.5929 4.176 93.9983 4.57067 94.2863 5.104C94.5849 5.63733 94.7343 6.30933 94.7343 7.12V12H93.5983V7.232C93.5983 6.34667 93.3743 5.68 92.9263 5.232C92.4889 4.77333 91.8703 4.544 91.0703 4.544C90.4729 4.544 89.9503 4.66667 89.5023 4.912C89.0649 5.14667 88.7236 5.49333 88.4783 5.952C88.2436 6.4 88.1263 6.944 88.1263 7.584V12H86.9903V3.6H88.0783V5.904L87.9023 5.472C88.1689 4.864 88.5956 4.38933 89.1823 4.048C89.7689 3.696 90.4676 3.52 91.2783 3.52ZM101.147 12.08C100.347 12.08 99.6268 11.8987 98.9868 11.536C98.3574 11.1733 97.8614 10.672 97.4988 10.032C97.1361 9.38133 96.9548 8.63467 96.9548 7.792C96.9548 6.93867 97.1361 6.192 97.4988 5.552C97.8614 4.912 98.3574 4.416 98.9868 4.064C99.6268 3.70133 100.347 3.52 101.147 3.52C101.883 3.52 102.539 3.68533 103.115 4.016C103.701 4.34667 104.165 4.832 104.507 5.472C104.859 6.10133 105.035 6.87467 105.035 7.792C105.035 8.69867 104.864 9.472 104.523 10.112C104.181 10.752 103.717 11.2427 103.131 11.584C102.555 11.9147 101.893 12.08 101.147 12.08ZM101.227 11.072C101.824 11.072 102.357 10.9387 102.827 10.672C103.307 10.3947 103.68 10.0107 103.947 9.52C104.224 9.01867 104.363 8.44267 104.363 7.792C104.363 7.13067 104.224 6.55467 103.947 6.064C103.68 5.57333 103.307 5.19467 102.827 4.928C102.357 4.65067 101.824 4.512 101.227 4.512C100.64 4.512 100.112 4.65067 99.6428 4.928C99.1734 5.19467 98.8001 5.57333 98.5228 6.064C98.2454 6.55467 98.1068 7.13067 98.1068 7.792C98.1068 8.44267 98.2454 9.01867 98.5228 9.52C98.8001 10.0107 99.1734 10.3947 99.6428 10.672C100.112 10.9387 100.64 11.072 101.227 11.072ZM104.395 12V9.472L104.507 7.776L104.347 6.08V0.127999H105.483V12H104.395ZM112.071 12.08C111.26 12.08 110.529 11.8987 109.879 11.536C109.239 11.1627 108.732 10.656 108.359 10.016C107.985 9.36533 107.799 8.624 107.799 7.792C107.799 6.94933 107.985 6.208 108.359 5.568C108.732 4.928 109.239 4.42667 109.879 4.064C110.519 3.70133 111.249 3.52 112.071 3.52C112.903 3.52 113.639 3.70133 114.279 4.064C114.929 4.42667 115.436 4.928 115.799 5.568C116.172 6.208 116.359 6.94933 116.359 7.792C116.359 8.624 116.172 9.36533 115.799 10.016C115.436 10.656 114.929 11.1627 114.279 11.536C113.628 11.8987 112.892 12.08 112.071 12.08ZM112.071 11.072C112.679 11.072 113.217 10.9387 113.687 10.672C114.156 10.3947 114.524 10.0107 114.791 9.52C115.068 9.01867 115.207 8.44267 115.207 7.792C115.207 7.13067 115.068 6.55467 114.791 6.064C114.524 5.57333 114.156 5.19467 113.687 4.928C113.217 4.65067 112.684 4.512 112.087 4.512C111.489 4.512 110.956 4.65067 110.487 4.928C110.017 5.19467 109.644 5.57333 109.367 6.064C109.089 6.55467 108.951 7.13067 108.951 7.792C108.951 8.44267 109.089 9.01867 109.367 9.52C109.644 10.0107 110.017 10.3947 110.487 10.672C110.956 10.9387 111.484 11.072 112.071 11.072ZM118.678 12V0.127999H119.814V12H118.678ZM128.239 12V10.144L128.191 9.84V6.736C128.191 6.02133 127.988 5.472 127.583 5.088C127.188 4.704 126.596 4.512 125.807 4.512C125.263 4.512 124.745 4.60267 124.255 4.784C123.764 4.96533 123.348 5.20533 123.007 5.504L122.495 4.656C122.921 4.29333 123.433 4.016 124.031 3.824C124.628 3.62133 125.257 3.52 125.919 3.52C127.007 3.52 127.844 3.792 128.431 4.336C129.028 4.86933 129.327 5.68533 129.327 6.784V12H128.239ZM125.343 12.08C124.713 12.08 124.164 11.9787 123.695 11.776C123.236 11.5627 122.884 11.2747 122.639 10.912C122.393 10.5387 122.271 10.112 122.271 9.632C122.271 9.19467 122.372 8.8 122.575 8.448C122.788 8.08533 123.129 7.79733 123.599 7.584C124.079 7.36 124.719 7.248 125.519 7.248H128.415V8.096H125.551C124.74 8.096 124.175 8.24 123.855 8.528C123.545 8.816 123.391 9.17333 123.391 9.6C123.391 10.08 123.577 10.464 123.951 10.752C124.324 11.04 124.847 11.184 125.519 11.184C126.159 11.184 126.708 11.04 127.167 10.752C127.636 10.4533 127.977 10.0267 128.191 9.472L128.447 10.256C128.233 10.8107 127.86 11.2533 127.327 11.584C126.804 11.9147 126.143 12.08 125.343 12.08ZM139.256 12.08C138.466 12.08 137.858 11.8667 137.432 11.44C137.005 11.0133 136.792 10.4107 136.792 9.632V1.744H137.928V9.568C137.928 10.0587 138.05 10.4373 138.296 10.704C138.552 10.9707 138.914 11.104 139.384 11.104C139.885 11.104 140.301 10.96 140.632 10.672L141.032 11.488C140.808 11.6907 140.536 11.84 140.216 11.936C139.906 12.032 139.586 12.08 139.256 12.08ZM135.288 4.544V3.6H140.488V4.544H135.288ZM146.371 12.08C145.496 12.08 144.728 11.8987 144.067 11.536C143.405 11.1627 142.888 10.656 142.515 10.016C142.141 9.36533 141.955 8.624 141.955 7.792C141.955 6.96 142.131 6.224 142.483 5.584C142.845 4.944 143.336 4.44267 143.955 4.08C144.584 3.70667 145.288 3.52 146.067 3.52C146.856 3.52 147.555 3.70133 148.163 4.064C148.781 4.416 149.267 4.91733 149.619 5.568C149.971 6.208 150.147 6.94933 150.147 7.792C150.147 7.84533 150.141 7.904 150.131 7.968C150.131 8.02133 150.131 8.08 150.131 8.144H142.819V7.296H149.523L149.075 7.632C149.075 7.024 148.941 6.48533 148.675 6.016C148.419 5.536 148.067 5.16267 147.619 4.896C147.171 4.62933 146.653 4.496 146.067 4.496C145.491 4.496 144.973 4.62933 144.515 4.896C144.056 5.16267 143.699 5.536 143.443 6.016C143.187 6.496 143.059 7.04533 143.059 7.664V7.84C143.059 8.48 143.197 9.04533 143.475 9.536C143.763 10.016 144.157 10.3947 144.659 10.672C145.171 10.9387 145.752 11.072 146.403 11.072C146.915 11.072 147.389 10.9813 147.827 10.8C148.275 10.6187 148.659 10.3413 148.979 9.968L149.619 10.704C149.245 11.152 148.776 11.4933 148.211 11.728C147.656 11.9627 147.043 12.08 146.371 12.08ZM156.747 3.52C157.43 3.52 158.027 3.65333 158.539 3.92C159.062 4.176 159.467 4.57067 159.755 5.104C160.054 5.63733 160.203 6.30933 160.203 7.12V12H159.067V7.232C159.067 6.34667 158.843 5.68 158.395 5.232C157.958 4.77333 157.339 4.544 156.539 4.544C155.942 4.544 155.419 4.66667 154.971 4.912C154.534 5.14667 154.192 5.49333 153.947 5.952C153.712 6.4 153.595 6.944 153.595 7.584V12H152.459V0.127999H153.595V5.904L153.371 5.472C153.638 4.864 154.064 4.38933 154.651 4.048C155.238 3.696 155.936 3.52 156.747 3.52ZM165.528 12.08C164.834 12.08 164.178 11.984 163.56 11.792C162.941 11.5893 162.456 11.3387 162.104 11.04L162.616 10.144C162.957 10.4 163.394 10.624 163.928 10.816C164.461 10.9973 165.021 11.088 165.608 11.088C166.408 11.088 166.984 10.9653 167.336 10.72C167.688 10.464 167.864 10.128 167.864 9.712C167.864 9.40267 167.762 9.16267 167.56 8.992C167.368 8.81067 167.112 8.67733 166.792 8.592C166.472 8.496 166.114 8.416 165.72 8.352C165.325 8.288 164.93 8.21333 164.536 8.128C164.152 8.04267 163.8 7.92 163.48 7.76C163.16 7.58933 162.898 7.36 162.696 7.072C162.504 6.784 162.408 6.4 162.408 5.92C162.408 5.46133 162.536 5.05067 162.792 4.688C163.048 4.32533 163.421 4.04267 163.912 3.84C164.413 3.62667 165.021 3.52 165.736 3.52C166.28 3.52 166.824 3.59467 167.368 3.744C167.912 3.88267 168.36 4.06933 168.712 4.304L168.216 5.216C167.842 4.96 167.442 4.77867 167.016 4.672C166.589 4.55467 166.162 4.496 165.736 4.496C164.978 4.496 164.418 4.62933 164.056 4.896C163.704 5.152 163.528 5.48267 163.528 5.888C163.528 6.208 163.624 6.45867 163.816 6.64C164.018 6.82133 164.28 6.96533 164.6 7.072C164.93 7.168 165.288 7.248 165.672 7.312C166.066 7.376 166.456 7.456 166.84 7.552C167.234 7.63733 167.592 7.76 167.912 7.92C168.242 8.06933 168.504 8.288 168.696 8.576C168.898 8.85333 169 9.22133 169 9.68C169 10.1707 168.861 10.5973 168.584 10.96C168.317 11.312 167.922 11.5893 167.4 11.792C166.888 11.984 166.264 12.08 165.528 12.08ZM171.084 12V3.6H172.22V12H171.084ZM171.66 1.744C171.425 1.744 171.228 1.664 171.068 1.504C170.908 1.344 170.828 1.152 170.828 0.927999C170.828 0.703999 170.908 0.517332 171.068 0.367999C171.228 0.207999 171.425 0.127999 171.66 0.127999C171.895 0.127999 172.092 0.202666 172.252 0.351999C172.412 0.501333 172.492 0.687999 172.492 0.912C172.492 1.14667 172.412 1.344 172.252 1.504C172.103 1.664 171.905 1.744 171.66 1.744ZM175.381 12V0.127999H176.517V12H175.381ZM186.521 12.08C185.732 12.08 185.124 11.8667 184.697 11.44C184.271 11.0133 184.057 10.4107 184.057 9.632V1.744H185.193V9.568C185.193 10.0587 185.316 10.4373 185.561 10.704C185.817 10.9707 186.18 11.104 186.649 11.104C187.151 11.104 187.567 10.96 187.897 10.672L188.297 11.488C188.073 11.6907 187.801 11.84 187.481 11.936C187.172 12.032 186.852 12.08 186.521 12.08ZM182.553 4.544V3.6H187.753V4.544H182.553ZM195.629 12V10.144L195.581 9.84V6.736C195.581 6.02133 195.379 5.472 194.973 5.088C194.579 4.704 193.987 4.512 193.197 4.512C192.653 4.512 192.136 4.60267 191.645 4.784C191.155 4.96533 190.739 5.20533 190.397 5.504L189.885 4.656C190.312 4.29333 190.824 4.016 191.421 3.824C192.019 3.62133 192.648 3.52 193.309 3.52C194.397 3.52 195.235 3.792 195.821 4.336C196.419 4.86933 196.717 5.68533 196.717 6.784V12H195.629ZM192.733 12.08C192.104 12.08 191.555 11.9787 191.085 11.776C190.627 11.5627 190.275 11.2747 190.029 10.912C189.784 10.5387 189.661 10.112 189.661 9.632C189.661 9.19467 189.763 8.8 189.965 8.448C190.179 8.08533 190.52 7.79733 190.989 7.584C191.469 7.36 192.109 7.248 192.909 7.248H195.805V8.096H192.941C192.131 8.096 191.565 8.24 191.245 8.528C190.936 8.816 190.781 9.17333 190.781 9.6C190.781 10.08 190.968 10.464 191.341 10.752C191.715 11.04 192.237 11.184 192.909 11.184C193.549 11.184 194.099 11.04 194.557 10.752C195.027 10.4533 195.368 10.0267 195.581 9.472L195.837 10.256C195.624 10.8107 195.251 11.2533 194.717 11.584C194.195 11.9147 193.533 12.08 192.733 12.08ZM204.091 3.52C204.773 3.52 205.371 3.65333 205.883 3.92C206.405 4.176 206.811 4.57067 207.099 5.104C207.397 5.63733 207.547 6.30933 207.547 7.12V12H206.411V7.232C206.411 6.34667 206.187 5.68 205.739 5.232C205.301 4.77333 204.683 4.544 203.883 4.544C203.285 4.544 202.763 4.66667 202.315 4.912C201.877 5.14667 201.536 5.49333 201.291 5.952C201.056 6.4 200.939 6.944 200.939 7.584V12H199.803V3.6H200.891V5.904L200.715 5.472C200.981 4.864 201.408 4.38933 201.995 4.048C202.581 3.696 203.28 3.52 204.091 3.52ZM213.959 12.08C213.159 12.08 212.439 11.8987 211.799 11.536C211.17 11.1733 210.674 10.672 210.311 10.032C209.949 9.38133 209.767 8.63467 209.767 7.792C209.767 6.93867 209.949 6.192 210.311 5.552C210.674 4.912 211.17 4.416 211.799 4.064C212.439 3.70133 213.159 3.52 213.959 3.52C214.695 3.52 215.351 3.68533 215.927 4.016C216.514 4.34667 216.978 4.832 217.319 5.472C217.671 6.10133 217.847 6.87467 217.847 7.792C217.847 8.69867 217.677 9.472 217.335 10.112C216.994 10.752 216.53 11.2427 215.943 11.584C215.367 11.9147 214.706 12.08 213.959 12.08ZM214.039 11.072C214.637 11.072 215.17 10.9387 215.639 10.672C216.119 10.3947 216.493 10.0107 216.759 9.52C217.037 9.01867 217.175 8.44267 217.175 7.792C217.175 7.13067 217.037 6.55467 216.759 6.064C216.493 5.57333 216.119 5.19467 215.639 4.928C215.17 4.65067 214.637 4.512 214.039 4.512C213.453 4.512 212.925 4.65067 212.455 4.928C211.986 5.19467 211.613 5.57333 211.335 6.064C211.058 6.55467 210.919 7.13067 210.919 7.792C210.919 8.44267 211.058 9.01867 211.335 9.52C211.613 10.0107 211.986 10.3947 212.455 10.672C212.925 10.9387 213.453 11.072 214.039 11.072ZM217.207 12V9.472L217.319 7.776L217.159 6.08V0.127999H218.295V12H217.207ZM226.723 12V10.144L226.675 9.84V6.736C226.675 6.02133 226.472 5.472 226.067 5.088C225.672 4.704 225.08 4.512 224.291 4.512C223.747 4.512 223.23 4.60267 222.739 4.784C222.248 4.96533 221.832 5.20533 221.491 5.504L220.979 4.656C221.406 4.29333 221.918 4.016 222.515 3.824C223.112 3.62133 223.742 3.52 224.403 3.52C225.491 3.52 226.328 3.792 226.915 4.336C227.512 4.86933 227.811 5.68533 227.811 6.784V12H226.723ZM223.827 12.08C223.198 12.08 222.648 11.9787 222.179 11.776C221.72 11.5627 221.368 11.2747 221.123 10.912C220.878 10.5387 220.755 10.112 220.755 9.632C220.755 9.19467 220.856 8.8 221.059 8.448C221.272 8.08533 221.614 7.79733 222.083 7.584C222.563 7.36 223.203 7.248 224.003 7.248H226.899V8.096H224.035C223.224 8.096 222.659 8.24 222.339 8.528C222.03 8.816 221.875 9.17333 221.875 9.6C221.875 10.08 222.062 10.464 222.435 10.752C222.808 11.04 223.331 11.184 224.003 11.184C224.643 11.184 225.192 11.04 225.651 10.752C226.12 10.4533 226.462 10.0267 226.675 9.472L226.931 10.256C226.718 10.8107 226.344 11.2533 225.811 11.584C225.288 11.9147 224.627 12.08 223.827 12.08ZM4.928 32.08C4.128 32.08 3.408 31.8987 2.768 31.536C2.13867 31.1733 1.64267 30.672 1.28 30.032C0.917333 29.3813 0.736 28.6347 0.736 27.792C0.736 26.9387 0.917333 26.192 1.28 25.552C1.64267 24.912 2.13867 24.416 2.768 24.064C3.408 23.7013 4.128 23.52 4.928 23.52C5.664 23.52 6.32 23.6853 6.896 24.016C7.48267 24.3467 7.94667 24.832 8.288 25.472C8.64 26.1013 8.816 26.8747 8.816 27.792C8.816 28.6987 8.64533 29.472 8.304 30.112C7.96267 30.752 7.49867 31.2427 6.912 31.584C6.336 31.9147 5.67467 32.08 4.928 32.08ZM5.008 31.072C5.60533 31.072 6.13867 30.9387 6.608 30.672C7.088 30.3947 7.46133 30.0107 7.728 29.52C8.00533 29.0187 8.144 28.4427 8.144 27.792C8.144 27.1307 8.00533 26.5547 7.728 26.064C7.46133 25.5733 7.088 25.1947 6.608 24.928C6.13867 24.6507 5.60533 24.512 5.008 24.512C4.42133 24.512 3.89333 24.6507 3.424 24.928C2.95467 25.1947 2.58133 25.5733 2.304 26.064C2.02667 26.5547 1.888 27.1307 1.888 27.792C1.888 28.4427 2.02667 29.0187 2.304 29.52C2.58133 30.0107 2.95467 30.3947 3.424 30.672C3.89333 30.9387 4.42133 31.072 5.008 31.072ZM8.176 32V29.472L8.288 27.776L8.128 26.08V20.128H9.264V32H8.176ZM12.4278 32V23.6H13.5638V32H12.4278ZM13.0038 21.744C12.7691 21.744 12.5718 21.664 12.4118 21.504C12.2518 21.344 12.1718 21.152 12.1718 20.928C12.1718 20.704 12.2518 20.5173 12.4118 20.368C12.5718 20.208 12.7691 20.128 13.0038 20.128C13.2384 20.128 13.4358 20.2027 13.5958 20.352C13.7558 20.5013 13.8358 20.688 13.8358 20.912C13.8358 21.1467 13.7558 21.344 13.5958 21.504C13.4464 21.664 13.2491 21.744 13.0038 21.744ZM18.9806 32.08C18.2873 32.08 17.6313 31.984 17.0126 31.792C16.394 31.5893 15.9086 31.3387 15.5566 31.04L16.0686 30.144C16.41 30.4 16.8473 30.624 17.3806 30.816C17.914 30.9973 18.474 31.088 19.0606 31.088C19.8606 31.088 20.4366 30.9653 20.7886 30.72C21.1406 30.464 21.3166 30.128 21.3166 29.712C21.3166 29.4027 21.2153 29.1627 21.0126 28.992C20.8206 28.8107 20.5646 28.6773 20.2446 28.592C19.9246 28.496 19.5673 28.416 19.1726 28.352C18.778 28.288 18.3833 28.2133 17.9886 28.128C17.6046 28.0427 17.2526 27.92 16.9326 27.76C16.6126 27.5893 16.3513 27.36 16.1486 27.072C15.9566 26.784 15.8606 26.4 15.8606 25.92C15.8606 25.4613 15.9886 25.0507 16.2446 24.688C16.5006 24.3253 16.874 24.0427 17.3646 23.84C17.866 23.6267 18.474 23.52 19.1886 23.52C19.7326 23.52 20.2766 23.5947 20.8206 23.744C21.3646 23.8827 21.8126 24.0693 22.1646 24.304L21.6686 25.216C21.2953 24.96 20.8953 24.7787 20.4686 24.672C20.042 24.5547 19.6153 24.496 19.1886 24.496C18.4313 24.496 17.8713 24.6293 17.5086 24.896C17.1566 25.152 16.9806 25.4827 16.9806 25.888C16.9806 26.208 17.0766 26.4587 17.2686 26.64C17.4713 26.8213 17.7326 26.9653 18.0526 27.072C18.3833 27.168 18.7406 27.248 19.1246 27.312C19.5193 27.376 19.9086 27.456 20.2926 27.552C20.6873 27.6373 21.0446 27.76 21.3646 27.92C21.6953 28.0693 21.9566 28.288 22.1486 28.576C22.3513 28.8533 22.4526 29.2213 22.4526 29.68C22.4526 30.1707 22.314 30.5973 22.0366 30.96C21.77 31.312 21.3753 31.5893 20.8526 31.792C20.3406 31.984 19.7166 32.08 18.9806 32.08ZM27.1931 32.08C26.4038 32.08 25.7958 31.8667 25.3691 31.44C24.9425 31.0133 24.7291 30.4107 24.7291 29.632V21.744H25.8651V29.568C25.8651 30.0587 25.9878 30.4373 26.2331 30.704C26.4891 30.9707 26.8518 31.104 27.3211 31.104C27.8225 31.104 28.2385 30.96 28.5691 30.672L28.9691 31.488C28.7451 31.6907 28.4731 31.84 28.1531 31.936C27.8438 32.032 27.5238 32.08 27.1931 32.08ZM23.2251 24.544V23.6H28.4251V24.544H23.2251ZM31.0371 32V23.6H32.1251V25.888L32.0131 25.488C32.2478 24.848 32.6425 24.3627 33.1971 24.032C33.7518 23.6907 34.4398 23.52 35.2611 23.52V24.624C35.2185 24.624 35.1758 24.624 35.1331 24.624C35.0905 24.6133 35.0478 24.608 35.0051 24.608C34.1198 24.608 33.4265 24.88 32.9251 25.424C32.4238 25.9573 32.1731 26.72 32.1731 27.712V32H31.0371ZM37.334 32V23.6H38.47V32H37.334ZM37.91 21.744C37.6753 21.744 37.478 21.664 37.318 21.504C37.158 21.344 37.078 21.152 37.078 20.928C37.078 20.704 37.158 20.5173 37.318 20.368C37.478 20.208 37.6753 20.128 37.91 20.128C38.1447 20.128 38.342 20.2027 38.502 20.352C38.662 20.5013 38.742 20.688 38.742 20.912C38.742 21.1467 38.662 21.344 38.502 21.504C38.3527 21.664 38.1553 21.744 37.91 21.744ZM45.1189 32.08C44.2869 32.08 43.5402 31.8987 42.8789 31.536C42.2282 31.1627 41.7162 30.656 41.3429 30.016C40.9695 29.3653 40.7829 28.624 40.7829 27.792C40.7829 26.9493 40.9695 26.208 41.3429 25.568C41.7162 24.928 42.2282 24.4267 42.8789 24.064C43.5402 23.7013 44.2869 23.52 45.1189 23.52C45.8335 23.52 46.4789 23.6587 47.0549 23.936C47.6309 24.2133 48.0842 24.6293 48.4149 25.184L47.5669 25.76C47.2789 25.3333 46.9215 25.0187 46.4949 24.816C46.0682 24.6133 45.6042 24.512 45.1029 24.512C44.5055 24.512 43.9669 24.6507 43.4869 24.928C43.0069 25.1947 42.6282 25.5733 42.3509 26.064C42.0735 26.5547 41.9349 27.1307 41.9349 27.792C41.9349 28.4533 42.0735 29.0293 42.3509 29.52C42.6282 30.0107 43.0069 30.3947 43.4869 30.672C43.9669 30.9387 44.5055 31.072 45.1029 31.072C45.6042 31.072 46.0682 30.9707 46.4949 30.768C46.9215 30.5653 47.2789 30.256 47.5669 29.84L48.4149 30.416C48.0842 30.96 47.6309 31.376 47.0549 31.664C46.4789 31.9413 45.8335 32.08 45.1189 32.08ZM53.3963 32.08C52.6069 32.08 51.9989 31.8667 51.5723 31.44C51.1456 31.0133 50.9323 30.4107 50.9323 29.632V21.744H52.0683V29.568C52.0683 30.0587 52.1909 30.4373 52.4363 30.704C52.6923 30.9707 53.0549 31.104 53.5243 31.104C54.0256 31.104 54.4416 30.96 54.7723 30.672L55.1723 31.488C54.9483 31.6907 54.6763 31.84 54.3563 31.936C54.0469 32.032 53.7269 32.08 53.3963 32.08ZM49.4283 24.544V23.6H54.6283V24.544H49.4283ZM61.4278 32V23.6H62.5158V25.888L62.4038 25.488C62.6384 24.848 63.0331 24.3627 63.5878 24.032C64.1424 23.6907 64.8304 23.52 65.6518 23.52V24.624C65.6091 24.624 65.5664 24.624 65.5238 24.624C65.4811 24.6133 65.4384 24.608 65.3958 24.608C64.5104 24.608 63.8171 24.88 63.3158 25.424C62.8144 25.9573 62.5638 26.72 62.5638 27.712V32H61.4278ZM72.3636 32V30.144L72.3156 29.84V26.736C72.3156 26.0213 72.113 25.472 71.7076 25.088C71.313 24.704 70.721 24.512 69.9316 24.512C69.3876 24.512 68.8703 24.6027 68.3796 24.784C67.889 24.9653 67.473 25.2053 67.1316 25.504L66.6196 24.656C67.0463 24.2933 67.5583 24.016 68.1556 23.824C68.753 23.6213 69.3823 23.52 70.0436 23.52C71.1316 23.52 71.969 23.792 72.5556 24.336C73.153 24.8693 73.4516 25.6853 73.4516 26.784V32H72.3636ZM69.4676 32.08C68.8383 32.08 68.289 31.9787 67.8196 31.776C67.361 31.5627 67.009 31.2747 66.7636 30.912C66.5183 30.5387 66.3956 30.112 66.3956 29.632C66.3956 29.1947 66.497 28.8 66.6996 28.448C66.913 28.0853 67.2543 27.7973 67.7236 27.584C68.2036 27.36 68.8436 27.248 69.6436 27.248H72.5396V28.096H69.6756C68.865 28.096 68.2996 28.24 67.9796 28.528C67.6703 28.816 67.5156 29.1733 67.5156 29.6C67.5156 30.08 67.7023 30.464 68.0756 30.752C68.449 31.04 68.9716 31.184 69.6436 31.184C70.2836 31.184 70.833 31.04 71.2916 30.752C71.761 30.4533 72.1023 30.0267 72.3156 29.472L72.5716 30.256C72.3583 30.8107 71.985 31.2533 71.4516 31.584C70.929 31.9147 70.2676 32.08 69.4676 32.08ZM87.0331 23.52C87.7158 23.52 88.3078 23.6533 88.8091 23.92C89.3211 24.176 89.7158 24.5707 89.9931 25.104C90.2811 25.6373 90.4251 26.3093 90.4251 27.12V32H89.2891V27.232C89.2891 26.3467 89.0758 25.68 88.6491 25.232C88.2331 24.7733 87.6411 24.544 86.8731 24.544C86.2971 24.544 85.7958 24.6667 85.3691 24.912C84.9531 25.1467 84.6278 25.4933 84.3931 25.952C84.1691 26.4 84.0571 26.944 84.0571 27.584V32H82.9211V27.232C82.9211 26.3467 82.7078 25.68 82.2811 25.232C81.8545 24.7733 81.2571 24.544 80.4891 24.544C79.9238 24.544 79.4278 24.6667 79.0011 24.912C78.5745 25.1467 78.2438 25.4933 78.0091 25.952C77.7851 26.4 77.6731 26.944 77.6731 27.584V32H76.5371V23.6H77.6251V25.872L77.4491 25.472C77.7051 24.864 78.1158 24.3893 78.6811 24.048C79.2571 23.696 79.9345 23.52 80.7131 23.52C81.5345 23.52 82.2331 23.728 82.8091 24.144C83.3851 24.5493 83.7585 25.1627 83.9291 25.984L83.4811 25.808C83.7265 25.1253 84.1585 24.576 84.7771 24.16C85.4065 23.7333 86.1585 23.52 87.0331 23.52ZM97.8419 32.08C97.1165 32.08 96.4605 31.9147 95.8739 31.584C95.2872 31.2427 94.8179 30.7573 94.4659 30.128C94.1245 29.488 93.9539 28.7093 93.9539 27.792C93.9539 26.8747 94.1245 26.1013 94.4659 25.472C94.8072 24.832 95.2712 24.3467 95.8579 24.016C96.4445 23.6853 97.1059 23.52 97.8419 23.52C98.6419 23.52 99.3565 23.7013 99.9859 24.064C100.626 24.416 101.127 24.9173 101.49 25.568C101.853 26.208 102.034 26.9493 102.034 27.792C102.034 28.6453 101.853 29.392 101.49 30.032C101.127 30.672 100.626 31.1733 99.9859 31.536C99.3565 31.8987 98.6419 32.08 97.8419 32.08ZM93.5059 35.104V23.6H94.5939V26.128L94.4819 27.808L94.6419 29.504V35.104H93.5059ZM97.7619 31.072C98.3592 31.072 98.8925 30.9387 99.3619 30.672C99.8312 30.3947 100.205 30.0107 100.482 29.52C100.759 29.0187 100.898 28.4427 100.898 27.792C100.898 27.1413 100.759 26.5707 100.482 26.08C100.205 25.5893 99.8312 25.2053 99.3619 24.928C98.8925 24.6507 98.3592 24.512 97.7619 24.512C97.1645 24.512 96.6259 24.6507 96.1459 24.928C95.6765 25.2053 95.3032 25.5893 95.0259 26.08C94.7592 26.5707 94.6259 27.1413 94.6259 27.792C94.6259 28.4427 94.7592 29.0187 95.0259 29.52C95.3032 30.0107 95.6765 30.3947 96.1459 30.672C96.6259 30.9387 97.1645 31.072 97.7619 31.072ZM107.822 32.08C107.107 32.08 106.483 31.9467 105.95 31.68C105.416 31.4133 105 31.0133 104.702 30.48C104.414 29.9467 104.27 29.28 104.27 28.48V23.6H105.406V28.352C105.406 29.248 105.624 29.9253 106.062 30.384C106.51 30.832 107.134 31.056 107.934 31.056C108.52 31.056 109.027 30.9387 109.454 30.704C109.891 30.4587 110.222 30.1067 110.446 29.648C110.68 29.1893 110.798 28.64 110.798 28V23.6H111.934V32H110.846V29.696L111.022 30.112C110.755 30.7307 110.339 31.216 109.774 31.568C109.219 31.9093 108.568 32.08 107.822 32.08ZM115.1 32V23.6H116.188V25.888L116.076 25.488C116.31 24.848 116.705 24.3627 117.26 24.032C117.814 23.6907 118.502 23.52 119.324 23.52V24.624C119.281 24.624 119.238 24.624 119.196 24.624C119.153 24.6133 119.11 24.608 119.068 24.608C118.182 24.608 117.489 24.88 116.988 25.424C116.486 25.9573 116.236 26.72 116.236 27.712V32H115.1ZM129.181 32.08C128.466 32.08 127.842 31.9467 127.309 31.68C126.776 31.4133 126.36 31.0133 126.061 30.48C125.773 29.9467 125.629 29.28 125.629 28.48V23.6H126.765V28.352C126.765 29.248 126.984 29.9253 127.421 30.384C127.869 30.832 128.493 31.056 129.293 31.056C129.88 31.056 130.386 30.9387 130.813 30.704C131.25 30.4587 131.581 30.1067 131.805 29.648C132.04 29.1893 132.157 28.64 132.157 28V23.6H133.293V32H132.205V29.696L132.381 30.112C132.114 30.7307 131.698 31.216 131.133 31.568C130.578 31.9093 129.928 32.08 129.181 32.08ZM136.571 32.08C136.336 32.08 136.134 31.9947 135.963 31.824C135.803 31.6533 135.723 31.4453 135.723 31.2C135.723 30.944 135.803 30.736 135.963 30.576C136.134 30.416 136.336 30.336 136.571 30.336C136.806 30.336 137.003 30.416 137.163 30.576C137.334 30.736 137.419 30.944 137.419 31.2C137.419 31.4453 137.334 31.6533 137.163 31.824C137.003 31.9947 136.806 32.08 136.571 32.08ZM144.186 32.08C143.46 32.08 142.804 31.9147 142.218 31.584C141.631 31.2427 141.162 30.7573 140.81 30.128C140.468 29.488 140.298 28.7093 140.298 27.792C140.298 26.8747 140.468 26.1013 140.81 25.472C141.151 24.832 141.615 24.3467 142.202 24.016C142.788 23.6853 143.45 23.52 144.186 23.52C144.986 23.52 145.7 23.7013 146.33 24.064C146.97 24.416 147.471 24.9173 147.834 25.568C148.196 26.208 148.378 26.9493 148.378 27.792C148.378 28.6453 148.196 29.392 147.834 30.032C147.471 30.672 146.97 31.1733 146.33 31.536C145.7 31.8987 144.986 32.08 144.186 32.08ZM139.85 35.104V23.6H140.938V26.128L140.826 27.808L140.986 29.504V35.104H139.85ZM144.106 31.072C144.703 31.072 145.236 30.9387 145.706 30.672C146.175 30.3947 146.548 30.0107 146.826 29.52C147.103 29.0187 147.242 28.4427 147.242 27.792C147.242 27.1413 147.103 26.5707 146.826 26.08C146.548 25.5893 146.175 25.2053 145.706 24.928C145.236 24.6507 144.703 24.512 144.106 24.512C143.508 24.512 142.97 24.6507 142.49 24.928C142.02 25.2053 141.647 25.5893 141.37 26.08C141.103 26.5707 140.97 27.1413 140.97 27.792C140.97 28.4427 141.103 29.0187 141.37 29.52C141.647 30.0107 142.02 30.3947 142.49 30.672C142.97 30.9387 143.508 31.072 144.106 31.072ZM153.921 32V31.184L158.577 26.624C159.004 26.208 159.324 25.8453 159.537 25.536C159.75 25.216 159.894 24.9173 159.969 24.64C160.044 24.3627 160.081 24.1013 160.081 23.856C160.081 23.2053 159.857 22.6933 159.409 22.32C158.972 21.9467 158.321 21.76 157.457 21.76C156.796 21.76 156.209 21.8613 155.697 22.064C155.196 22.2667 154.764 22.5813 154.401 23.008L153.585 22.304C154.022 21.792 154.582 21.3973 155.265 21.12C155.948 20.8427 156.71 20.704 157.553 20.704C158.31 20.704 158.966 20.8267 159.521 21.072C160.076 21.3067 160.502 21.6533 160.801 22.112C161.11 22.5707 161.265 23.1093 161.265 23.728C161.265 24.0907 161.212 24.448 161.105 24.8C161.009 25.152 160.828 25.5253 160.561 25.92C160.305 26.304 159.926 26.7413 159.425 27.232L155.153 31.424L154.833 30.976H161.777V32H153.921ZM162.671 29.056V28.224L168.607 20.8H169.887L163.999 28.224L163.375 28.032H172.383V29.056H162.671ZM168.991 32V29.056L169.023 28.032V25.44H170.143V32H168.991ZM173.249 29.056V28.224L179.185 20.8H180.465L174.577 28.224L173.953 28.032H182.961V29.056H173.249ZM179.569 32V29.056L179.601 28.032V25.44H180.721V32H179.569ZM187.383 20.704C188.375 20.704 189.212 20.928 189.895 21.376C190.577 21.8133 191.095 22.448 191.447 23.28C191.799 24.112 191.975 25.12 191.975 26.304C191.975 27.5627 191.756 28.624 191.319 29.488C190.892 30.352 190.295 31.0027 189.527 31.44C188.759 31.8773 187.868 32.096 186.855 32.096C186.353 32.096 185.873 32.048 185.414 31.952C184.967 31.856 184.561 31.7013 184.199 31.488L184.663 30.56C184.951 30.752 185.281 30.8907 185.655 30.976C186.039 31.0507 186.433 31.088 186.839 31.088C188.044 31.088 189.004 30.704 189.719 29.936C190.444 29.168 190.807 28.0213 190.807 26.496C190.807 26.2507 190.791 25.9573 190.759 25.616C190.737 25.2747 190.679 24.9333 190.583 24.592L190.983 24.896C190.876 25.4507 190.647 25.9253 190.295 26.32C189.953 26.704 189.527 26.9973 189.015 27.2C188.513 27.4027 187.953 27.504 187.335 27.504C186.599 27.504 185.943 27.3653 185.367 27.088C184.801 26.8107 184.359 26.4213 184.039 25.92C183.719 25.4187 183.559 24.8267 183.559 24.144C183.559 23.44 183.724 22.832 184.055 22.32C184.385 21.808 184.839 21.4133 185.414 21.136C186.001 20.848 186.657 20.704 187.383 20.704ZM187.431 21.68C186.897 21.68 186.423 21.7813 186.007 21.984C185.601 22.176 185.281 22.4533 185.047 22.816C184.812 23.1787 184.695 23.6107 184.695 24.112C184.695 24.848 184.945 25.4347 185.447 25.872C185.959 26.3093 186.647 26.528 187.511 26.528C188.087 26.528 188.588 26.4213 189.015 26.208C189.452 25.9947 189.788 25.7013 190.023 25.328C190.268 24.9547 190.391 24.5387 190.391 24.08C190.391 23.664 190.279 23.2747 190.055 22.912C189.831 22.5493 189.5 22.256 189.063 22.032C188.625 21.7973 188.081 21.68 187.431 21.68ZM193.437 32V31.184L198.093 26.624C198.519 26.208 198.839 25.8453 199.053 25.536C199.266 25.216 199.41 24.9173 199.485 24.64C199.559 24.3627 199.597 24.1013 199.597 23.856C199.597 23.2053 199.373 22.6933 198.925 22.32C198.487 21.9467 197.837 21.76 196.973 21.76C196.311 21.76 195.725 21.8613 195.213 22.064C194.711 22.2667 194.279 22.5813 193.917 23.008L193.101 22.304C193.538 21.792 194.098 21.3973 194.781 21.12C195.463 20.8427 196.226 20.704 197.069 20.704C197.826 20.704 198.482 20.8267 199.037 21.072C199.591 21.3067 200.018 21.6533 200.317 22.112C200.626 22.5707 200.781 23.1093 200.781 23.728C200.781 24.0907 200.727 24.448 200.621 24.8C200.525 25.152 200.343 25.5253 200.077 25.92C199.821 26.304 199.442 26.7413 198.941 27.232L194.669 31.424L194.349 30.976H201.293V32H193.437ZM206.274 32.096C205.474 32.096 204.712 31.968 203.986 31.712C203.261 31.4453 202.685 31.0933 202.258 30.656L202.818 29.744C203.17 30.1173 203.65 30.4267 204.258 30.672C204.877 30.9173 205.544 31.04 206.258 31.04C207.208 31.04 207.928 30.832 208.418 30.416C208.92 29.9893 209.17 29.4347 209.17 28.752C209.17 28.272 209.053 27.8613 208.818 27.52C208.594 27.168 208.21 26.896 207.666 26.704C207.122 26.512 206.376 26.416 205.426 26.416H203.042L203.618 20.8H209.746V21.824H204.082L204.674 21.264L204.178 25.968L203.586 25.392H205.682C206.813 25.392 207.72 25.5307 208.402 25.808C209.085 26.0853 209.576 26.4747 209.874 26.976C210.184 27.4667 210.338 28.0427 210.338 28.704C210.338 29.3333 210.189 29.9093 209.89 30.432C209.592 30.944 209.144 31.3493 208.546 31.648C207.949 31.9467 207.192 32.096 206.274 32.096Z" fill="white" fill-opacity="0.8"/>
</svg>
