<svg xmlns="http://www.w3.org/2000/svg" viewBox="0 0 570.14 184.13"><defs><style>.cls-1{fill:#333;}</style></defs><g id="Layer_2" data-name="Layer 2"><g id="Layer_1-2" data-name="Layer 1"><polygon class="cls-1" points="136.97 0.01 21.42 76.76 67.19 110.16 0 184.13 114.9 108.97 68.49 73.97 136.97 0.01"/><polygon class="cls-1" points="385.09 0 269.54 76.75 315.3 110.16 248.11 184.12 363.01 108.96 316.6 73.97 385.09 0"/><path class="cls-1" d="M157.6,104.74q-1.54,5.15-7.9,5.15H137.49c-3.48,0-5.22-1.11-5.22-3.35a11,11,0,0,1-8.64,4,8.37,8.37,0,0,1-6.12-2.32,8.14,8.14,0,0,1-2.35-6.06,12.64,12.64,0,0,1,5.15-10.64A18.61,18.61,0,0,1,131.88,88h18.4l-6.06,16.76Zm-20.79-11.6h-7.12l-2.26,7.5a5.44,5.44,0,0,0-.19,1.29q0,2.8,5.48,2.81Z"/><path class="cls-1" d="M199.17,104.74q-1.54,5.15-7.9,5.15H179.06c-3.48,0-5.22-1.11-5.22-3.35a11,11,0,0,1-8.64,4,8.37,8.37,0,0,1-6.12-2.32,8.14,8.14,0,0,1-2.35-6.06,12.64,12.64,0,0,1,5.15-10.64A18.61,18.61,0,0,1,173.45,88h18.4l-6.06,16.76Zm-20.79-11.6h-7.12l-2.26,7.5a5.44,5.44,0,0,0-.19,1.29q0,2.8,5.48,2.81Z"/><path class="cls-1" d="M242.19,104.74q-1.62,5.15-7.9,5.15H222c-3.55,0-5.29-1.11-5.22-3.35a11.89,11.89,0,0,1-9.51,4.16,9.05,9.05,0,0,1-6.32-2.19,7.85,7.85,0,0,1-2.51-6.13,12.63,12.63,0,0,1,5.67-10.95A21.08,21.08,0,0,1,216.41,88h6.7l6-17h11.73l-12,33.77Zm-20.85-11.6h-8.19l-2.45,6.92a5.76,5.76,0,0,0-.32,1.74c0,1.44.92,2.36,2.74,2.74a26.5,26.5,0,0,0,4.13.2Z"/><path class="cls-1" d="M396.87,103.82q-1.25,4.14-6.34,4.14h-9.8q-4.19,0-4.19-2.69a8.87,8.87,0,0,1-6.93,3.21,6.69,6.69,0,0,1-4.91-1.86,6.53,6.53,0,0,1-1.89-4.86A10.13,10.13,0,0,1,367,93.22a14.94,14.94,0,0,1,9.28-2.84H391l-4.86,13.44Zm-16.68-9.31h-5.72l-1.81,6a4.07,4.07,0,0,0-.15,1q0,2.25,4.39,2.25Z"/><path class="cls-1" d="M416.83,103.82a5.18,5.18,0,0,1-3,3.37,8.06,8.06,0,0,1-3.49.77h-9.95q-3.82,0-3.83-2.61a4.92,4.92,0,0,1,.29-1.53l9.59-27h9.15l-9.64,27Z"/><path class="cls-1" d="M467.3,103.82c-.5,2.76-2.45,4.14-5.87,4.14H450.94a3.23,3.23,0,0,1-2.29-1,3.15,3.15,0,0,1-1-2.31,3.1,3.1,0,0,1,.1-.81q.57-1.91,1.71-5.56l-8.74,7.32c-2.21,1.83-4.09,2.74-5.66,2.74q-3.52,0-3.52-2.63a5.26,5.26,0,0,1,.39-1.87L434,98.26l-10.29,8.59a4.94,4.94,0,0,1-3.29,1.11H415.1l6.18-17.58h9.33l-2.92,8.27,7.94-6.51a10.18,10.18,0,0,1,6.67-2.46c2,0,3.05.78,3.05,2.35a4.46,4.46,0,0,1-.28,1.48l-1.87,5.14,7.74-6.57a9.39,9.39,0,0,1,6.25-2.4c2.18,0,3.26.92,3.26,2.77a6.16,6.16,0,0,1-.41,2.06l-3.34,9.31Z"/><path class="cls-1" d="M500.66,103.82q-1.25,4.14-6.33,4.14h-9.8c-2.8,0-4.19-.9-4.19-2.69a8.87,8.87,0,0,1-6.93,3.21,6.71,6.71,0,0,1-4.92-1.86,6.56,6.56,0,0,1-1.88-4.86,10.15,10.15,0,0,1,4.13-8.54A15,15,0,0,1,480,90.38h14.76l-4.86,13.44ZM484,94.51h-5.71l-1.81,6a3.7,3.7,0,0,0-.16,1q0,2.25,4.4,2.25Z"/><path class="cls-1" d="M536,103.82a5.28,5.28,0,0,1-3,3.37,8.09,8.09,0,0,1-3.49.77H519.25c-2.36,0-3.54-.77-3.54-2.33a5.66,5.66,0,0,1,.36-1.81l2-5.56-8.9,7.53c-2.08,1.45-3.8,2.17-5.14,2.17h-4.76l6.18-17.58h9.33l-2.92,8.27,7.89-6.46a10.33,10.33,0,0,1,7-2.51,2.37,2.37,0,0,1,2.53,2.69,6.69,6.69,0,0,1-.41,2.14l-3.34,9.31Z"/><path class="cls-1" d="M570.14,103.82a5.67,5.67,0,0,1-5.71,4.14h-6.31a31,31,0,0,1-4.73,9.05,10.83,10.83,0,0,1-8.61,4.09,6.51,6.51,0,0,1-5-1.89,6.08,6.08,0,0,1-1.52-4.27,9.59,9.59,0,0,1,.89-4,7.39,7.39,0,0,1,2.34-3h-2a4,4,0,0,1-2.83-1,3.42,3.42,0,0,1-1.13-2.62,4.56,4.56,0,0,1,.26-1.47l4.5-12.44h9.38l-4.83,13.44h5.25l4.76-13.44h9.33l-4.76,13.44Zm-21.64,4.84a4.06,4.06,0,0,0-3.17,1.93,6.35,6.35,0,0,0-1.46,3.84,3.19,3.19,0,0,0,1.5,2.74Z"/></g></g></svg>