<svg width="161" height="52" viewBox="0 0 161 52" fill="none" xmlns="http://www.w3.org/2000/svg">
<path d="M38.6785 0L6.04872 21.6777L18.9736 31.1102L0 52L32.4462 30.7741L19.3407 20.8898L38.6785 0Z" fill="white"/>
<path d="M108.744 0L76.1145 21.6749L89.0366 31.1074L70.063 51.9972L102.509 30.7713L89.4037 20.8898L108.744 0Z" fill="white"/>
<path d="M44.5041 29.5796C44.2133 30.5511 43.4706 31.0368 42.2733 31.0368H38.8254C37.8426 31.0368 37.3513 30.7205 37.3513 30.0907C36.6905 30.8419 35.8772 31.2204 34.9115 31.2204C34.2027 31.2204 33.6266 31.0029 33.1833 30.5652C32.7399 30.1275 32.5197 29.557 32.5197 28.8538C32.5197 27.5858 33.0054 26.586 33.9768 25.8518C34.855 25.1853 35.945 24.8521 37.244 24.8521H42.4399L40.7286 29.5852H44.5041V29.5796ZM38.6333 26.3036H36.6227L35.9845 28.4245C35.9478 28.5573 35.9309 28.6787 35.9309 28.7888C35.9309 29.3169 36.4477 29.5796 37.4784 29.5796L38.6333 26.3036Z" fill="white"/>
<path d="M56.2429 29.5796C55.9521 30.5511 55.2094 31.0368 54.0121 31.0368H50.5642C49.5814 31.0368 49.0901 30.7205 49.0901 30.0907C48.4293 30.8419 47.616 31.2204 46.6503 31.2204C45.9415 31.2204 45.3654 31.0029 44.9221 30.5652C44.4787 30.1275 44.2585 29.557 44.2585 28.8538C44.2585 27.5858 44.7442 26.586 45.7156 25.8518C46.5938 25.1853 47.6838 24.8521 48.9828 24.8521H54.1787L52.4674 29.5852H56.2429V29.5796ZM50.3721 26.3036H48.3615L47.7233 28.4245C47.6866 28.5573 47.6697 28.6787 47.6697 28.7888C47.6697 29.3169 48.1865 29.5796 49.2172 29.5796L50.3721 26.3036Z" fill="white"/>
<path d="M68.3912 29.5795C68.0891 30.551 67.3436 31.0368 66.1604 31.0368H62.6927C61.693 31.0368 61.1988 30.7205 61.2186 30.0907C60.5522 30.873 59.657 31.2655 58.5331 31.2655C57.7989 31.2655 57.2031 31.0594 56.7484 30.647C56.274 30.2234 56.0396 29.6473 56.0396 28.9187C56.0396 27.6027 56.5734 26.5719 57.6408 25.8235C58.5811 25.174 59.7361 24.8492 61.1085 24.8492H63.0005L64.7033 20.0454H68.0157L64.6298 29.5824H68.3884L68.3912 29.5795ZM62.5035 26.3036H60.1907L59.4989 28.2607C59.4396 28.4414 59.4085 28.6052 59.4085 28.7521C59.4085 29.1588 59.6655 29.4157 60.1823 29.5259C60.363 29.5626 60.7527 29.5795 61.3457 29.5795L62.5007 26.3036H62.5035Z" fill="white"/>
<path d="M112.071 29.3196C111.836 30.0991 111.241 30.4888 110.281 30.4888H107.513C106.725 30.4888 106.33 30.2346 106.33 29.7291C105.799 30.3335 105.147 30.6356 104.373 30.6356C103.803 30.6356 103.342 30.4605 102.986 30.1104C102.631 29.7602 102.453 29.3027 102.453 28.7378C102.453 27.7212 102.842 26.9163 103.622 26.3289C104.328 25.7923 105.2 25.5269 106.242 25.5269H110.413L109.041 29.3253H112.071V29.3196ZM107.361 26.6904H105.748L105.237 28.3933C105.209 28.5006 105.192 28.5966 105.192 28.6842C105.192 29.1078 105.607 29.3196 106.434 29.3196L107.361 26.6904Z" fill="white"/>
<path d="M117.707 29.3198C117.586 29.7491 117.306 30.0654 116.869 30.2687C116.561 30.4156 116.233 30.489 115.883 30.489H113.07C112.35 30.489 111.989 30.2433 111.989 29.7519C111.989 29.6248 112.014 29.4808 112.068 29.3198L114.776 21.6807H117.36L114.635 29.3198H117.702H117.707Z" fill="white"/>
<path d="M131.959 29.3199C131.818 30.0994 131.265 30.4891 130.302 30.4891H127.337C127.102 30.4891 126.888 30.3931 126.69 30.201C126.492 30.009 126.394 29.7915 126.394 29.5487C126.394 29.4696 126.402 29.3962 126.422 29.3228C126.529 28.9613 126.69 28.4388 126.905 27.7526L124.437 29.8198C123.812 30.3366 123.282 30.5936 122.838 30.5936C122.177 30.5936 121.844 30.3451 121.844 29.848C121.844 29.6871 121.881 29.512 121.954 29.3228L122.539 27.7526L119.633 30.1784C119.385 30.3874 119.077 30.4919 118.707 30.4919H117.216L118.961 25.5272H121.596L120.771 27.8627L123.013 26.0214C123.572 25.5582 124.202 25.3267 124.897 25.3267C125.47 25.3267 125.758 25.5469 125.758 25.9903C125.758 26.1174 125.733 26.2558 125.679 26.4055L125.154 27.8599L127.337 26.0044C127.868 25.5526 128.458 25.3267 129.104 25.3267C129.717 25.3267 130.025 25.5865 130.025 26.1089C130.025 26.284 129.985 26.4789 129.909 26.6935L128.966 29.3228H131.959V29.3199Z" fill="white"/>
<path d="M141.38 29.3196C141.145 30.0991 140.55 30.4888 139.589 30.4888H136.822C136.034 30.4888 135.639 30.2346 135.639 29.7291C135.108 30.3335 134.456 30.6356 133.682 30.6356C133.111 30.6356 132.651 30.4605 132.295 30.1104C131.94 29.7602 131.762 29.3027 131.762 28.7378C131.762 27.7212 132.151 26.9163 132.931 26.3289C133.637 25.7923 134.509 25.5269 135.551 25.5269H139.722L138.35 29.3253H141.38V29.3196ZM136.67 26.6904H135.057L134.546 28.3933C134.518 28.5006 134.501 28.5966 134.501 28.6842C134.501 29.1078 134.916 29.3196 135.743 29.3196L136.67 26.6904Z" fill="white"/>
<path d="M151.371 29.32C151.244 29.7492 150.964 30.0655 150.532 30.2689C150.224 30.4157 149.897 30.4892 149.546 30.4892H146.632C145.966 30.4892 145.632 30.2689 145.632 29.8311C145.632 29.6843 145.666 29.5148 145.734 29.32L146.29 27.7498L143.777 29.8735C143.187 30.283 142.704 30.4863 142.323 30.4863H140.979L142.724 25.5216H145.359L144.534 27.8571L146.762 26.0327C147.366 25.5414 148.021 25.3041 148.727 25.3239C149.205 25.3437 149.442 25.5978 149.442 26.0836C149.442 26.2643 149.402 26.4648 149.326 26.6908L148.383 29.32H151.371Z" fill="white"/>
<path d="M161 29.32C160.712 30.0994 160.175 30.4892 159.388 30.4892H157.606C157.182 31.6386 156.736 32.4914 156.27 33.045C155.618 33.8131 154.807 34.2 153.839 34.2C153.229 34.2 152.76 34.0221 152.43 33.6663C152.142 33.3556 151.998 32.9518 151.998 32.4604C151.998 32.0707 152.082 31.6922 152.249 31.3279C152.415 30.9636 152.636 30.684 152.91 30.4892H152.353C152.031 30.4892 151.766 30.3903 151.554 30.1926C151.342 29.995 151.238 29.7493 151.238 29.4527C151.238 29.3172 151.263 29.1788 151.311 29.0376L152.582 25.5244H155.234L153.867 29.3228H155.349L156.694 25.5244H159.328L157.984 29.3228H161V29.32ZM154.889 30.6869C154.567 30.6869 154.271 30.8676 153.994 31.2319C153.72 31.5934 153.582 31.9549 153.582 32.3164C153.582 32.6383 153.723 32.8953 154.005 33.0902L154.889 30.6869Z" fill="white"/>
</svg>
