<svg id="visual" viewBox="0 0 900 530" width="900" height="530" xmlns="http://www.w3.org/2000/svg" xmlns:xlink="http://www.w3.org/1999/xlink" version="1.1"><rect x="0" y="0" width="900" height="530" fill="#fff"></rect><path d="M236 530L311.3 508C386.7 486 537.3 442 546.2 397.8C555 353.7 422 309.3 359.7 265.2C297.3 221 305.7 177 367.5 132.8C429.3 88.7 544.7 44.3 602.3 22.2L660 0L900 0L900 22.2C900 44.3 900 88.7 900 132.8C900 177 900 221 900 265.2C900 309.3 900 353.7 900 397.8C900 442 900 486 900 508L900 530Z" fill="#333" stroke-linecap="round" stroke-linejoin="miter"></path></svg>