<svg width="21" height="30" viewBox="0 0 21 30" fill="none" xmlns="http://www.w3.org/2000/svg">
<path d="M10.042 15.5454C14.3341 15.5454 17.8141 12.0654 17.8141 7.7727C17.8141 3.48117 14.3341 0 10.042 0C5.74928 0 2.26993 3.48117 2.26993 7.7727C2.26993 12.0654 5.74928 15.5454 10.042 15.5454Z" fill="white"/>
<path d="M19.9955 23.0336C19.6485 20.955 17.8862 18.0819 16.6233 16.7368C16.2818 16.3728 15.6889 16.5242 15.4805 16.6532C13.8962 17.6301 12.0363 18.2 10.0419 18.2C8.04763 18.2 6.18774 17.6301 4.60337 16.6532C4.39507 16.5242 3.8021 16.3728 3.4605 16.7368C2.1978 18.0819 0.435421 20.955 0.0883699 23.0336C-0.764286 28.1511 4.70274 30.0001 10.042 30.0001C15.3812 30.0001 20.8483 28.1511 19.9955 23.0336Z" fill="white"/>
</svg>
