<svg width="13" height="13" viewBox="0 0 13 13" fill="none" xmlns="http://www.w3.org/2000/svg">
<path d="M13 2.88889V0V2.88889ZM13 0H10.1111H13ZM13 0L8.66667 4.33333L13 0ZM11.1944 13C5.01192 13 0 7.98807 0 1.80556C0 1.52662 0.0102049 1.25007 0.0302538 0.976249C0.0532638 0.662003 0.0647689 0.504884 0.147117 0.361855C0.215323 0.243396 0.336194 0.131054 0.459319 0.0716806C0.607974 5.09777e-08 0.781358 0 1.12812 0H3.16284C3.45445 0 3.60025 9.17598e-08 3.72524 0.0479918C3.83564 0.0903862 3.93395 0.159243 4.01153 0.248517C4.09934 0.349577 4.14917 0.486604 4.24883 0.760651L5.09102 3.0767C5.20693 3.39555 5.26493 3.55497 5.25511 3.70623C5.24644 3.8396 5.20087 3.96795 5.12359 4.07699C5.03595 4.20065 4.89049 4.28793 4.59957 4.46248L3.61111 5.05556C4.47915 6.96865 6.03063 8.52215 7.94444 9.38889L8.53753 8.40046C8.71209 8.10947 8.79934 7.96402 8.92298 7.87641C9.03204 7.79913 9.16038 7.75356 9.29377 7.74489C9.445 7.73507 9.60447 7.79307 9.92333 7.90898L12.2394 8.75117C12.5134 8.85083 12.6504 8.90067 12.7515 8.98849C12.8407 9.06605 12.9096 9.16435 12.952 9.27478C13 9.39972 13 9.54554 13 9.83717V11.8719C13 12.2186 13 12.392 12.9283 12.5407C12.8689 12.6638 12.7566 12.7847 12.6382 12.8529C12.4951 12.9352 12.338 12.9467 12.0238 12.9697C11.7499 12.9898 11.4734 13 11.1944 13Z" fill="white" fill-opacity="0.8"/>
</svg>
