<svg width="226" height="67" viewBox="0 0 226 67" fill="none" xmlns="http://www.w3.org/2000/svg">
<path d="M60 20.1111V7V20.1111ZM60 7H46.8889H60ZM60 7L40.3333 26.6667L60 7ZM51.8056 66C23.7464 66 1 43.2535 1 15.1944C1 13.9285 1.04631 12.6734 1.13731 11.4307C1.24174 10.0045 1.29395 9.2914 1.66768 8.64226C1.97724 8.10464 2.52581 7.59479 3.0846 7.32532C3.75927 7 4.54616 7 6.11992 7H15.3544C16.6779 7 17.3396 7 17.9068 7.21781C18.4079 7.41021 18.8541 7.72272 19.2062 8.12788C19.6047 8.58654 19.8308 9.20843 20.2831 10.4522L24.1054 20.9635C24.6315 22.4106 24.8947 23.1341 24.8501 23.8206C24.8108 24.4259 24.6039 25.0084 24.2532 25.5033C23.8555 26.0645 23.1953 26.4606 21.875 27.2528L17.3889 29.9444C21.3284 38.6269 28.3698 45.6775 37.0556 49.6111L39.7473 45.1251C40.5395 43.8045 40.9355 43.1444 41.4966 42.7468C41.9916 42.3961 42.574 42.1892 43.1794 42.1499C43.8658 42.1053 44.5895 42.3685 46.0367 42.8946L56.5478 46.7168C57.7914 47.1692 58.4136 47.3953 58.8721 47.7939C59.2772 48.1459 59.5899 48.592 59.782 49.0932C60 49.6603 60 50.3221 60 51.6456V60.8801C60 62.4538 60 63.2408 59.6745 63.9153C59.4051 64.4742 58.8954 65.0229 58.3578 65.3323C57.7085 65.706 56.9956 65.7581 55.5694 65.8627C54.3265 65.9538 53.0714 66 51.8056 66Z" fill="white"/>
<path d="M60 20.1111V7M60 7H46.8889M60 7L40.3333 26.6667M51.8056 66C23.7464 66 1 43.2535 1 15.1944C1 13.9285 1.04631 12.6734 1.13731 11.4307C1.24174 10.0045 1.29395 9.2914 1.66768 8.64226C1.97724 8.10464 2.52581 7.59479 3.0846 7.32532C3.75927 7 4.54616 7 6.11992 7H15.3544C16.6779 7 17.3396 7 17.9068 7.21781C18.4079 7.41021 18.8541 7.72272 19.2062 8.12788C19.6047 8.58654 19.8308 9.20843 20.2831 10.4522L24.1054 20.9635C24.6315 22.4106 24.8947 23.1341 24.8501 23.8206C24.8108 24.4259 24.6039 25.0084 24.2532 25.5033C23.8555 26.0645 23.1953 26.4606 21.875 27.2528L17.3889 29.9444C21.3284 38.6269 28.3698 45.6775 37.0556 49.6111L39.7473 45.1251C40.5395 43.8045 40.9355 43.1444 41.4966 42.7468C41.9916 42.3961 42.574 42.1892 43.1794 42.1499C43.8658 42.1053 44.5895 42.3685 46.0367 42.8946L56.5478 46.7168C57.7914 47.1692 58.4136 47.3953 58.8721 47.7939C59.2772 48.1459 59.5899 48.592 59.782 49.0932C60 49.6603 60 50.3221 60 51.6456V60.8801C60 62.4538 60 63.2408 59.6745 63.9153C59.4051 64.4742 58.8954 65.0229 58.3578 65.3323C57.7085 65.706 56.9956 65.7581 55.5694 65.8627C54.3265 65.9538 53.0714 66 51.8056 66Z" stroke="white" stroke-linecap="round" stroke-linejoin="round"/>
<path d="M94.648 31V8.6H103.032C104.931 8.6 106.563 8.90933 107.928 9.528C109.293 10.1253 110.339 11 111.064 12.152C111.811 13.2827 112.184 14.6587 112.184 16.28C112.184 17.8587 111.811 19.224 111.064 20.376C110.339 21.5067 109.293 22.3813 107.928 23C106.563 23.6187 104.931 23.928 103.032 23.928H95.96L97.016 22.808V31H94.648ZM97.016 23L95.96 21.848H102.968C105.208 21.848 106.904 21.368 108.056 20.408C109.229 19.4267 109.816 18.0507 109.816 16.28C109.816 14.488 109.229 13.1013 108.056 12.12C106.904 11.1387 105.208 10.648 102.968 10.648H95.96L97.016 9.528V23ZM125.713 14.04C127.078 14.04 128.273 14.3067 129.297 14.84C130.342 15.352 131.153 16.1413 131.729 17.208C132.326 18.2747 132.625 19.6187 132.625 21.24V31H130.353V21.464C130.353 19.6933 129.905 18.36 129.009 17.464C128.134 16.5467 126.897 16.088 125.297 16.088C124.102 16.088 123.057 16.3333 122.161 16.824C121.286 17.2933 120.603 17.9867 120.113 18.904C119.643 19.8 119.409 20.888 119.409 22.168V31H117.137V7.256H119.409V18.808L118.961 17.944C119.494 16.728 120.347 15.7787 121.521 15.096C122.694 14.392 124.091 14.04 125.713 14.04ZM145.61 31.16C143.988 31.16 142.527 30.7973 141.226 30.072C139.946 29.3253 138.932 28.312 138.186 27.032C137.439 25.7307 137.066 24.248 137.066 22.584C137.066 20.8987 137.439 19.416 138.186 18.136C138.932 16.856 139.946 15.8533 141.226 15.128C142.506 14.4027 143.967 14.04 145.61 14.04C147.274 14.04 148.746 14.4027 150.026 15.128C151.327 15.8533 152.34 16.856 153.066 18.136C153.812 19.416 154.186 20.8987 154.186 22.584C154.186 24.248 153.812 25.7307 153.066 27.032C152.34 28.312 151.327 29.3253 150.026 30.072C148.724 30.7973 147.252 31.16 145.61 31.16ZM145.61 29.144C146.826 29.144 147.903 28.8773 148.842 28.344C149.78 27.7893 150.516 27.0213 151.05 26.04C151.604 25.0373 151.882 23.8853 151.882 22.584C151.882 21.2613 151.604 20.1093 151.05 19.128C150.516 18.1467 149.78 17.3893 148.842 16.856C147.903 16.3013 146.836 16.024 145.642 16.024C144.447 16.024 143.38 16.3013 142.442 16.856C141.503 17.3893 140.756 18.1467 140.202 19.128C139.647 20.1093 139.37 21.2613 139.37 22.584C139.37 23.8853 139.647 25.0373 140.202 26.04C140.756 27.0213 141.503 27.7893 142.442 28.344C143.38 28.8773 144.436 29.144 145.61 29.144ZM167.4 14.04C168.766 14.04 169.96 14.3067 170.984 14.84C172.03 15.352 172.84 16.1413 173.416 17.208C174.014 18.2747 174.312 19.6187 174.312 21.24V31H172.04V21.464C172.04 19.6933 171.592 18.36 170.696 17.464C169.822 16.5467 168.584 16.088 166.984 16.088C165.79 16.088 164.744 16.3333 163.848 16.824C162.974 17.2933 162.291 17.9867 161.8 18.904C161.331 19.8 161.096 20.888 161.096 22.168V31H158.824V14.2H161V18.808L160.648 17.944C161.182 16.728 162.035 15.7787 163.208 15.096C164.382 14.392 165.779 14.04 167.4 14.04ZM187.585 31.16C185.836 31.16 184.3 30.7973 182.977 30.072C181.655 29.3253 180.62 28.312 179.873 27.032C179.127 25.7307 178.753 24.248 178.753 22.584C178.753 20.92 179.105 19.448 179.809 18.168C180.535 16.888 181.516 15.8853 182.753 15.16C184.012 14.4133 185.42 14.04 186.977 14.04C188.556 14.04 189.953 14.4027 191.169 15.128C192.407 15.832 193.377 16.8347 194.081 18.136C194.785 19.416 195.137 20.8987 195.137 22.584C195.137 22.6907 195.127 22.808 195.105 22.936C195.105 23.0427 195.105 23.16 195.105 23.288H180.481V21.592H193.889L192.993 22.264C192.993 21.048 192.727 19.9707 192.193 19.032C191.681 18.072 190.977 17.3253 190.081 16.792C189.185 16.2587 188.151 15.992 186.977 15.992C185.825 15.992 184.791 16.2587 183.873 16.792C182.956 17.3253 182.241 18.072 181.729 19.032C181.217 19.992 180.961 21.0907 180.961 22.328V22.68C180.961 23.96 181.239 25.0907 181.793 26.072C182.369 27.032 183.159 27.7893 184.161 28.344C185.185 28.8773 186.348 29.144 187.649 29.144C188.673 29.144 189.623 28.9627 190.497 28.6C191.393 28.2373 192.161 27.6827 192.801 26.936L194.081 28.408C193.335 29.304 192.396 29.9867 191.265 30.456C190.156 30.9253 188.929 31.16 187.585 31.16Z" fill="white"/>
<path d="M95.096 59.792V53.008H96.104V59.792H95.096ZM92.12 56.88V55.936H99.08V56.88H92.12ZM104.523 50.704C105.515 50.704 106.352 50.928 107.035 51.376C107.718 51.8133 108.235 52.448 108.587 53.28C108.939 54.112 109.115 55.12 109.115 56.304C109.115 57.5627 108.896 58.624 108.459 59.488C108.032 60.352 107.435 61.0027 106.667 61.44C105.899 61.8773 105.008 62.096 103.995 62.096C103.494 62.096 103.014 62.048 102.555 61.952C102.107 61.856 101.702 61.7013 101.339 61.488L101.803 60.56C102.091 60.752 102.422 60.8907 102.795 60.976C103.179 61.0507 103.574 61.088 103.979 61.088C105.184 61.088 106.144 60.704 106.859 59.936C107.584 59.168 107.947 58.0213 107.947 56.496C107.947 56.2507 107.931 55.9573 107.899 55.616C107.878 55.2747 107.819 54.9333 107.723 54.592L108.123 54.896C108.016 55.4507 107.787 55.9253 107.435 56.32C107.094 56.704 106.667 56.9973 106.155 57.2C105.654 57.4027 105.094 57.504 104.475 57.504C103.739 57.504 103.083 57.3653 102.507 57.088C101.942 56.8107 101.499 56.4213 101.179 55.92C100.859 55.4187 100.699 54.8267 100.699 54.144C100.699 53.44 100.864 52.832 101.195 52.32C101.526 51.808 101.979 51.4133 102.555 51.136C103.142 50.848 103.798 50.704 104.523 50.704ZM104.571 51.68C104.038 51.68 103.563 51.7813 103.147 51.984C102.742 52.176 102.422 52.4533 102.187 52.816C101.952 53.1787 101.835 53.6107 101.835 54.112C101.835 54.848 102.086 55.4347 102.587 55.872C103.099 56.3093 103.787 56.528 104.651 56.528C105.227 56.528 105.728 56.4213 106.155 56.208C106.592 55.9947 106.928 55.7013 107.163 55.328C107.408 54.9547 107.531 54.5387 107.531 54.08C107.531 53.664 107.419 53.2747 107.195 52.912C106.971 52.5493 106.64 52.256 106.203 52.032C105.766 51.7973 105.222 51.68 104.571 51.68ZM112.737 62V51.28L113.249 51.824H110.097V50.8H113.889V62H112.737ZM120.882 58.16V57.168H125.074V58.16H120.882ZM135.307 62.096C134.411 62.096 133.637 61.968 132.987 61.712C132.347 61.456 131.851 61.088 131.499 60.608C131.157 60.1173 130.987 59.5413 130.987 58.88C130.987 58.24 131.152 57.696 131.483 57.248C131.824 56.7893 132.315 56.4373 132.955 56.192C133.605 55.9467 134.389 55.824 135.307 55.824C136.213 55.824 136.992 55.9467 137.643 56.192C138.293 56.4373 138.789 56.7893 139.131 57.248C139.483 57.696 139.659 58.24 139.659 58.88C139.659 59.5413 139.483 60.1173 139.131 60.608C138.779 61.088 138.277 61.456 137.627 61.712C136.976 61.968 136.203 62.096 135.307 62.096ZM135.307 61.12C136.299 61.12 137.072 60.9173 137.627 60.512C138.192 60.1067 138.475 59.5573 138.475 58.864C138.475 58.1707 138.192 57.6267 137.627 57.232C137.072 56.8267 136.299 56.624 135.307 56.624C134.315 56.624 133.541 56.8267 132.987 57.232C132.432 57.6267 132.155 58.1707 132.155 58.864C132.155 59.5573 132.432 60.1067 132.987 60.512C133.541 60.9173 134.315 61.12 135.307 61.12ZM135.307 56.48C134.475 56.48 133.765 56.368 133.179 56.144C132.603 55.92 132.16 55.6 131.851 55.184C131.541 54.7573 131.387 54.2507 131.387 53.664C131.387 53.0453 131.547 52.5173 131.867 52.08C132.197 51.632 132.656 51.2907 133.243 51.056C133.829 50.8213 134.517 50.704 135.307 50.704C136.096 50.704 136.784 50.8213 137.371 51.056C137.968 51.2907 138.432 51.632 138.763 52.08C139.093 52.5173 139.259 53.0453 139.259 53.664C139.259 54.2507 139.104 54.7573 138.795 55.184C138.485 55.6 138.032 55.92 137.435 56.144C136.848 56.368 136.139 56.48 135.307 56.48ZM135.307 55.712C136.181 55.712 136.864 55.5307 137.355 55.168C137.845 54.8053 138.091 54.32 138.091 53.712C138.091 53.072 137.835 52.576 137.323 52.224C136.821 51.8613 136.149 51.68 135.307 51.68C134.464 51.68 133.792 51.8613 133.291 52.224C132.789 52.576 132.539 53.0667 132.539 53.696C132.539 54.3147 132.779 54.8053 133.259 55.168C133.749 55.5307 134.432 55.712 135.307 55.712ZM141.046 62V61.184L145.702 56.624C146.129 56.208 146.449 55.8453 146.662 55.536C146.875 55.216 147.019 54.9173 147.094 54.64C147.169 54.3627 147.206 54.1013 147.206 53.856C147.206 53.2053 146.982 52.6933 146.534 52.32C146.097 51.9467 145.446 51.76 144.582 51.76C143.921 51.76 143.334 51.8613 142.822 52.064C142.321 52.2667 141.889 52.5813 141.526 53.008L140.71 52.304C141.147 51.792 141.707 51.3973 142.39 51.12C143.073 50.8427 143.835 50.704 144.678 50.704C145.435 50.704 146.091 50.8267 146.646 51.072C147.201 51.3067 147.627 51.6533 147.926 52.112C148.235 52.5707 148.39 53.1093 148.39 53.728C148.39 54.0907 148.337 54.448 148.23 54.8C148.134 55.152 147.953 55.5253 147.686 55.92C147.43 56.304 147.051 56.7413 146.55 57.232L142.278 61.424L141.958 60.976H148.902V62H141.046ZM154.908 62.096C153.916 62.096 153.079 61.8773 152.396 61.44C151.714 60.992 151.196 60.352 150.844 59.52C150.492 58.6773 150.316 57.6693 150.316 56.496C150.316 55.2267 150.53 54.1653 150.956 53.312C151.394 52.448 151.996 51.7973 152.764 51.36C153.532 50.9227 154.423 50.704 155.436 50.704C155.938 50.704 156.418 50.752 156.876 50.848C157.335 50.944 157.74 51.0987 158.092 51.312L157.628 52.24C157.34 52.048 157.01 51.9147 156.636 51.84C156.263 51.7547 155.868 51.712 155.452 51.712C154.247 51.712 153.282 52.096 152.556 52.864C151.842 53.632 151.484 54.7787 151.484 56.304C151.484 56.5387 151.495 56.832 151.516 57.184C151.548 57.5253 151.612 57.8667 151.708 58.208L151.308 57.904C151.426 57.3493 151.655 56.88 151.996 56.496C152.338 56.1013 152.764 55.8027 153.276 55.6C153.788 55.3973 154.348 55.296 154.956 55.296C155.703 55.296 156.359 55.4347 156.924 55.712C157.49 55.9893 157.932 56.3787 158.252 56.88C158.572 57.3813 158.732 57.9733 158.732 58.656C158.732 59.3493 158.567 59.9573 158.236 60.48C157.906 60.992 157.447 61.392 156.86 61.68C156.284 61.9573 155.634 62.096 154.908 62.096ZM154.86 61.12C155.394 61.12 155.863 61.024 156.268 60.832C156.684 60.6293 157.01 60.3467 157.244 59.984C157.479 59.6107 157.596 59.1787 157.596 58.688C157.596 57.952 157.34 57.3653 156.828 56.928C156.327 56.4907 155.644 56.272 154.78 56.272C154.204 56.272 153.703 56.3787 153.276 56.592C152.85 56.8053 152.514 57.0987 152.268 57.472C152.023 57.8347 151.9 58.2507 151.9 58.72C151.9 59.1253 152.012 59.5147 152.236 59.888C152.46 60.2507 152.791 60.5493 153.228 60.784C153.676 61.008 154.22 61.12 154.86 61.12ZM161.909 62L166.741 51.312L167.093 51.824H160.165L160.757 51.264V53.92H159.621V50.8H167.845V51.616L163.157 62H161.909ZM172.851 50.704C173.843 50.704 174.681 50.928 175.363 51.376C176.046 51.8133 176.563 52.448 176.915 53.28C177.267 54.112 177.443 55.12 177.443 56.304C177.443 57.5627 177.225 58.624 176.787 59.488C176.361 60.352 175.763 61.0027 174.995 61.44C174.227 61.8773 173.337 62.096 172.323 62.096C171.822 62.096 171.342 62.048 170.883 61.952C170.435 61.856 170.03 61.7013 169.667 61.488L170.131 60.56C170.419 60.752 170.75 60.8907 171.123 60.976C171.507 61.0507 171.902 61.088 172.307 61.088C173.513 61.088 174.473 60.704 175.187 59.936C175.913 59.168 176.275 58.0213 176.275 56.496C176.275 56.2507 176.259 55.9573 176.227 55.616C176.206 55.2747 176.147 54.9333 176.051 54.592L176.451 54.896C176.345 55.4507 176.115 55.9253 175.763 56.32C175.422 56.704 174.995 56.9973 174.483 57.2C173.982 57.4027 173.422 57.504 172.803 57.504C172.067 57.504 171.411 57.3653 170.835 57.088C170.27 56.8107 169.827 56.4213 169.507 55.92C169.187 55.4187 169.027 54.8267 169.027 54.144C169.027 53.44 169.193 52.832 169.523 52.32C169.854 51.808 170.307 51.4133 170.883 51.136C171.47 50.848 172.126 50.704 172.851 50.704ZM172.899 51.68C172.366 51.68 171.891 51.7813 171.475 51.984C171.07 52.176 170.75 52.4533 170.515 52.816C170.281 53.1787 170.163 53.6107 170.163 54.112C170.163 54.848 170.414 55.4347 170.915 55.872C171.427 56.3093 172.115 56.528 172.979 56.528C173.555 56.528 174.057 56.4213 174.483 56.208C174.921 55.9947 175.257 55.7013 175.491 55.328C175.737 54.9547 175.859 54.5387 175.859 54.08C175.859 53.664 175.747 53.2747 175.523 52.912C175.299 52.5493 174.969 52.256 174.531 52.032C174.094 51.7973 173.55 51.68 172.899 51.68ZM178.905 62V61.184L183.561 56.624C183.988 56.208 184.308 55.8453 184.521 55.536C184.735 55.216 184.879 54.9173 184.953 54.64C185.028 54.3627 185.065 54.1013 185.065 53.856C185.065 53.2053 184.841 52.6933 184.393 52.32C183.956 51.9467 183.305 51.76 182.441 51.76C181.78 51.76 181.193 51.8613 180.681 52.064C180.18 52.2667 179.748 52.5813 179.385 53.008L178.569 52.304C179.007 51.792 179.567 51.3973 180.249 51.12C180.932 50.8427 181.695 50.704 182.537 50.704C183.295 50.704 183.951 50.8267 184.505 51.072C185.06 51.3067 185.487 51.6533 185.785 52.112C186.095 52.5707 186.249 53.1093 186.249 53.728C186.249 54.0907 186.196 54.448 186.089 54.8C185.993 55.152 185.812 55.5253 185.545 55.92C185.289 56.304 184.911 56.7413 184.409 57.232L180.137 61.424L179.817 60.976H186.761V62H178.905ZM191.743 62.096C190.943 62.096 190.18 61.968 189.455 61.712C188.73 61.4453 188.154 61.0933 187.727 60.656L188.287 59.744C188.639 60.1173 189.119 60.4267 189.727 60.672C190.346 60.9173 191.012 61.04 191.727 61.04C192.676 61.04 193.396 60.832 193.887 60.416C194.388 59.9893 194.639 59.4347 194.639 58.752C194.639 58.272 194.522 57.8613 194.287 57.52C194.063 57.168 193.679 56.896 193.135 56.704C192.591 56.512 191.844 56.416 190.895 56.416H188.511L189.087 50.8H195.215V51.824H189.551L190.143 51.264L189.647 55.968L189.055 55.392H191.151C192.282 55.392 193.188 55.5307 193.871 55.808C194.554 56.0853 195.044 56.4747 195.343 56.976C195.652 57.4667 195.807 58.0427 195.807 58.704C195.807 59.3333 195.658 59.9093 195.359 60.432C195.06 60.944 194.612 61.3493 194.015 61.648C193.418 61.9467 192.66 62.096 191.743 62.096ZM197.078 59.056V58.224L203.014 50.8H204.294L198.406 58.224L197.782 58.032H206.79V59.056H197.078ZM203.398 62V59.056L203.43 58.032V55.44H204.55V62H203.398ZM209.019 62L213.851 51.312L214.203 51.824H207.275L207.867 51.264V53.92H206.731V50.8H214.955V51.616L210.267 62H209.019ZM220.624 62.096C219.76 62.096 218.992 61.872 218.32 61.424C217.648 60.9653 217.12 60.3147 216.736 59.472C216.352 58.6187 216.16 57.5947 216.16 56.4C216.16 55.2053 216.352 54.1867 216.736 53.344C217.12 52.4907 217.648 51.84 218.32 51.392C218.992 50.9333 219.76 50.704 220.624 50.704C221.488 50.704 222.256 50.9333 222.928 51.392C223.6 51.84 224.128 52.4907 224.512 53.344C224.907 54.1867 225.104 55.2053 225.104 56.4C225.104 57.5947 224.907 58.6187 224.512 59.472C224.128 60.3147 223.6 60.9653 222.928 61.424C222.256 61.872 221.488 62.096 220.624 62.096ZM220.624 61.04C221.285 61.04 221.861 60.864 222.352 60.512C222.843 60.1493 223.227 59.6267 223.504 58.944C223.781 58.2507 223.92 57.4027 223.92 56.4C223.92 55.3973 223.781 54.5547 223.504 53.872C223.227 53.1787 222.843 52.656 222.352 52.304C221.861 51.9413 221.285 51.76 220.624 51.76C219.984 51.76 219.413 51.9413 218.912 52.304C218.411 52.656 218.021 53.1787 217.744 53.872C217.467 54.5547 217.328 55.3973 217.328 56.4C217.328 57.4027 217.467 58.2507 217.744 58.944C218.021 59.6267 218.411 60.1493 218.912 60.512C219.413 60.864 219.984 61.04 220.624 61.04Z" fill="white" fill-opacity="0.8"/>
</svg>
