<svg width="36" height="36" viewBox="0 0 36 36" fill="none" xmlns="http://www.w3.org/2000/svg">
<g id="logo-google-playstore_svgrepo.com">
<path id="Vector" d="M3.375 4.18291V31.8157C3.37519 31.8757 3.39307 31.9342 3.4264 31.9841C3.45974 32.0339 3.50704 32.0728 3.56238 32.0958C3.61772 32.1189 3.67864 32.1251 3.73749 32.1137C3.79634 32.1022 3.85051 32.0737 3.8932 32.0316L18.2812 18L3.8932 3.96705C3.85051 3.92496 3.79634 3.89641 3.73749 3.88498C3.67864 3.87355 3.61772 3.87975 3.56238 3.9028C3.50704 3.92586 3.45974 3.96473 3.4264 4.01456C3.39307 4.06439 3.37519 4.12296 3.375 4.18291Z" fill="black"/>
<path id="Vector_2" d="M24.3141 12.2343L6.2733 2.29497L6.26205 2.28864C5.95127 2.11989 5.65595 2.54036 5.91049 2.78504L20.0524 16.3075L24.3141 12.2343Z" fill="black"/>
<path id="Vector_3" d="M5.91186 33.2149C5.65592 33.4596 5.95123 33.8801 6.26342 33.7114L6.27467 33.705L24.314 23.7656L20.0524 19.691L5.91186 33.2149Z" fill="black"/>
<path id="Vector_4" d="M31.597 16.2422L26.5592 13.4677L21.8222 18L26.5592 22.5302L31.597 19.7578C32.9674 19.0005 32.9674 16.9994 31.597 16.2422Z" fill="black"/>
</g>
</svg>
