<svg width="320" height="154" viewBox="0 0 320 154" fill="none" xmlns="http://www.w3.org/2000/svg">
<path d="M11.2581 90.045C11.0581 90.045 10.8681 89.995 10.6881 89.895C10.5181 89.795 10.3831 89.66 10.2831 89.49C10.1831 89.32 10.1331 89.12 10.1331 88.89C10.1331 88.68 10.1831 88.49 10.2831 88.32C10.3831 88.15 10.5181 88.015 10.6881 87.915C10.8681 87.815 11.0581 87.765 11.2581 87.765C11.4581 87.765 11.6431 87.815 11.8131 87.915C11.9831 88.015 12.1181 88.15 12.2181 88.32C12.3281 88.49 12.3831 88.68 12.3831 88.89C12.3831 89.12 12.3281 89.32 12.2181 89.49C12.1181 89.66 11.9831 89.795 11.8131 89.895C11.6431 89.995 11.4581 90.045 11.2581 90.045ZM25.2 87.585H30.75V88.545H25.2V87.585ZM25.32 93H24.21V82.5H31.41V83.46H25.32V93ZM33.3307 93V85.125H34.3507V87.27L34.2457 86.895C34.4657 86.295 34.8357 85.84 35.3557 85.53C35.8757 85.21 36.5207 85.05 37.2907 85.05V86.085C37.2507 86.085 37.2107 86.085 37.1707 86.085C37.1307 86.075 37.0907 86.07 37.0507 86.07C36.2207 86.07 35.5707 86.325 35.1007 86.835C34.6307 87.335 34.3957 88.05 34.3957 88.98V93H33.3307ZM42.3708 93.075C41.6108 93.075 40.9258 92.905 40.3158 92.565C39.7158 92.215 39.2408 91.74 38.8908 91.14C38.5408 90.53 38.3658 89.835 38.3658 89.055C38.3658 88.265 38.5408 87.57 38.8908 86.97C39.2408 86.37 39.7158 85.9 40.3158 85.56C40.9158 85.22 41.6008 85.05 42.3708 85.05C43.1508 85.05 43.8408 85.22 44.4408 85.56C45.0508 85.9 45.5258 86.37 45.8658 86.97C46.2158 87.57 46.3908 88.265 46.3908 89.055C46.3908 89.835 46.2158 90.53 45.8658 91.14C45.5258 91.74 45.0508 92.215 44.4408 92.565C43.8308 92.905 43.1408 93.075 42.3708 93.075ZM42.3708 92.13C42.9408 92.13 43.4458 92.005 43.8858 91.755C44.3258 91.495 44.6708 91.135 44.9208 90.675C45.1808 90.205 45.3108 89.665 45.3108 89.055C45.3108 88.435 45.1808 87.895 44.9208 87.435C44.6708 86.975 44.3258 86.62 43.8858 86.37C43.4458 86.11 42.9458 85.98 42.3858 85.98C41.8258 85.98 41.3258 86.11 40.8858 86.37C40.4458 86.62 40.0958 86.975 39.8358 87.435C39.5758 87.895 39.4458 88.435 39.4458 89.055C39.4458 89.665 39.5758 90.205 39.8358 90.675C40.0958 91.135 40.4458 91.495 40.8858 91.755C41.3258 92.005 41.8208 92.13 42.3708 92.13ZM52.5851 85.05C53.2251 85.05 53.7851 85.175 54.2651 85.425C54.7551 85.665 55.1351 86.035 55.4051 86.535C55.6851 87.035 55.8251 87.665 55.8251 88.425V93H54.7601V88.53C54.7601 87.7 54.5501 87.075 54.1301 86.655C53.7201 86.225 53.1401 86.01 52.3901 86.01C51.8301 86.01 51.3401 86.125 50.9201 86.355C50.5101 86.575 50.1901 86.9 49.9601 87.33C49.7401 87.75 49.6301 88.26 49.6301 88.86V93H48.5651V85.125H49.5851V87.285L49.4201 86.88C49.6701 86.31 50.0701 85.865 50.6201 85.545C51.1701 85.215 51.8251 85.05 52.5851 85.05ZM61.1918 93.075C60.4518 93.075 59.8818 92.875 59.4818 92.475C59.0818 92.075 58.8818 91.51 58.8818 90.78V83.385H59.9468V90.72C59.9468 91.18 60.0618 91.535 60.2918 91.785C60.5318 92.035 60.8718 92.16 61.3118 92.16C61.7818 92.16 62.1718 92.025 62.4818 91.755L62.8568 92.52C62.6468 92.71 62.3918 92.85 62.0918 92.94C61.8018 93.03 61.5018 93.075 61.1918 93.075ZM57.4718 86.01V85.125H62.3468V86.01H57.4718ZM67.8622 93.075C67.0422 93.075 66.3222 92.905 65.7022 92.565C65.0822 92.215 64.5972 91.74 64.2472 91.14C63.8972 90.53 63.7222 89.835 63.7222 89.055C63.7222 88.275 63.8872 87.585 64.2172 86.985C64.5572 86.385 65.0172 85.915 65.5972 85.575C66.1872 85.225 66.8472 85.05 67.5772 85.05C68.3172 85.05 68.9722 85.22 69.5422 85.56C70.1222 85.89 70.5772 86.36 70.9072 86.97C71.2372 87.57 71.4022 88.265 71.4022 89.055C71.4022 89.105 71.3972 89.16 71.3872 89.22C71.3872 89.27 71.3872 89.325 71.3872 89.385H64.5322V88.59H70.8172L70.3972 88.905C70.3972 88.335 70.2722 87.83 70.0222 87.39C69.7822 86.94 69.4522 86.59 69.0322 86.34C68.6122 86.09 68.1272 85.965 67.5772 85.965C67.0372 85.965 66.5522 86.09 66.1222 86.34C65.6922 86.59 65.3572 86.94 65.1172 87.39C64.8772 87.84 64.7572 88.355 64.7572 88.935V89.1C64.7572 89.7 64.8872 90.23 65.1472 90.69C65.4172 91.14 65.7872 91.495 66.2572 91.755C66.7372 92.005 67.2822 92.13 67.8922 92.13C68.3722 92.13 68.8172 92.045 69.2272 91.875C69.6472 91.705 70.0072 91.445 70.3072 91.095L70.9072 91.785C70.5572 92.205 70.1172 92.525 69.5872 92.745C69.0672 92.965 68.4922 93.075 67.8622 93.075ZM76.705 93.075C75.955 93.075 75.28 92.905 74.68 92.565C74.09 92.225 73.625 91.755 73.285 91.155C72.945 90.545 72.775 89.845 72.775 89.055C72.775 88.255 72.945 87.555 73.285 86.955C73.625 86.355 74.09 85.89 74.68 85.56C75.28 85.22 75.955 85.05 76.705 85.05C77.395 85.05 78.01 85.205 78.55 85.515C79.1 85.825 79.535 86.28 79.855 86.88C80.185 87.47 80.35 88.195 80.35 89.055C80.35 89.905 80.19 90.63 79.87 91.23C79.55 91.83 79.115 92.29 78.565 92.61C78.025 92.92 77.405 93.075 76.705 93.075ZM76.78 92.13C77.34 92.13 77.84 92.005 78.28 91.755C78.73 91.495 79.08 91.135 79.33 90.675C79.59 90.205 79.72 89.665 79.72 89.055C79.72 88.435 79.59 87.895 79.33 87.435C79.08 86.975 78.73 86.62 78.28 86.37C77.84 86.11 77.34 85.98 76.78 85.98C76.23 85.98 75.735 86.11 75.295 86.37C74.855 86.62 74.505 86.975 74.245 87.435C73.985 87.895 73.855 88.435 73.855 89.055C73.855 89.665 73.985 90.205 74.245 90.675C74.505 91.135 74.855 91.495 75.295 91.755C75.735 92.005 76.23 92.13 76.78 92.13ZM79.75 93V90.63L79.855 89.04L79.705 87.45V81.87H80.77V93H79.75ZM87.0768 89.4V88.47H91.0068V89.4H87.0768ZM105.22 82.5H106.315V93H105.22V82.5ZM98.6501 93H97.5401V82.5H98.6501V93ZM105.325 88.155H98.5301V87.18H105.325V88.155ZM111.782 93V83.46H108.092V82.5H116.582V83.46H112.892V93H111.782ZM118.356 93V82.5H119.271L124.071 90.69H123.591L128.346 82.5H129.261V93H128.196V84.165H128.451L124.071 91.665H123.546L119.136 84.165H119.421V93H118.356ZM132.682 93V82.5H133.792V92.04H139.672V93H132.682ZM141.099 95.19L141.759 92.415L141.879 93.06C141.649 93.06 141.454 92.985 141.294 92.835C141.144 92.685 141.069 92.49 141.069 92.25C141.069 92.01 141.144 91.815 141.294 91.665C141.454 91.515 141.644 91.44 141.864 91.44C142.094 91.44 142.279 91.52 142.419 91.68C142.569 91.84 142.644 92.03 142.644 92.25C142.644 92.33 142.639 92.41 142.629 92.49C142.619 92.57 142.599 92.66 142.569 92.76C142.539 92.86 142.499 92.98 142.449 93.12L141.819 95.19H141.099ZM153.633 93.09C152.843 93.09 152.113 92.96 151.443 92.7C150.773 92.43 150.193 92.055 149.703 91.575C149.213 91.095 148.828 90.53 148.548 89.88C148.278 89.23 148.143 88.52 148.143 87.75C148.143 86.98 148.278 86.27 148.548 85.62C148.828 84.97 149.213 84.405 149.703 83.925C150.203 83.445 150.788 83.075 151.458 82.815C152.128 82.545 152.858 82.41 153.648 82.41C154.408 82.41 155.123 82.54 155.793 82.8C156.463 83.05 157.028 83.43 157.488 83.94L156.783 84.645C156.353 84.205 155.878 83.89 155.358 83.7C154.838 83.5 154.278 83.4 153.678 83.4C153.048 83.4 152.463 83.51 151.923 83.73C151.383 83.94 150.913 84.245 150.513 84.645C150.113 85.035 149.798 85.495 149.568 86.025C149.348 86.545 149.238 87.12 149.238 87.75C149.238 88.38 149.348 88.96 149.568 89.49C149.798 90.01 150.113 90.47 150.513 90.87C150.913 91.26 151.383 91.565 151.923 91.785C152.463 91.995 153.048 92.1 153.678 92.1C154.278 92.1 154.838 92 155.358 91.8C155.878 91.6 156.353 91.28 156.783 90.84L157.488 91.545C157.028 92.055 156.463 92.44 155.793 92.7C155.123 92.96 154.403 93.09 153.633 93.09ZM162.72 93.09C161.94 93.09 161.19 92.965 160.47 92.715C159.76 92.455 159.21 92.125 158.82 91.725L159.255 90.87C159.625 91.23 160.12 91.535 160.74 91.785C161.37 92.025 162.03 92.145 162.72 92.145C163.38 92.145 163.915 92.065 164.325 91.905C164.745 91.735 165.05 91.51 165.24 91.23C165.44 90.95 165.54 90.64 165.54 90.3C165.54 89.89 165.42 89.56 165.18 89.31C164.95 89.06 164.645 88.865 164.265 88.725C163.885 88.575 163.465 88.445 163.005 88.335C162.545 88.225 162.085 88.11 161.625 87.99C161.165 87.86 160.74 87.69 160.35 87.48C159.97 87.27 159.66 86.995 159.42 86.655C159.19 86.305 159.075 85.85 159.075 85.29C159.075 84.77 159.21 84.295 159.48 83.865C159.76 83.425 160.185 83.075 160.755 82.815C161.325 82.545 162.055 82.41 162.945 82.41C163.535 82.41 164.12 82.495 164.7 82.665C165.28 82.825 165.78 83.05 166.2 83.34L165.825 84.225C165.375 83.925 164.895 83.705 164.385 83.565C163.885 83.425 163.4 83.355 162.93 83.355C162.3 83.355 161.78 83.44 161.37 83.61C160.96 83.78 160.655 84.01 160.455 84.3C160.265 84.58 160.17 84.9 160.17 85.26C160.17 85.67 160.285 86 160.515 86.25C160.755 86.5 161.065 86.695 161.445 86.835C161.835 86.975 162.26 87.1 162.72 87.21C163.18 87.32 163.635 87.44 164.085 87.57C164.545 87.7 164.965 87.87 165.345 88.08C165.735 88.28 166.045 88.55 166.275 88.89C166.515 89.23 166.635 89.675 166.635 90.225C166.635 90.735 166.495 91.21 166.215 91.65C165.935 92.08 165.505 92.43 164.925 92.7C164.355 92.96 163.62 93.09 162.72 93.09ZM171.949 93.09C171.169 93.09 170.419 92.965 169.699 92.715C168.989 92.455 168.439 92.125 168.049 91.725L168.484 90.87C168.854 91.23 169.349 91.535 169.969 91.785C170.599 92.025 171.259 92.145 171.949 92.145C172.609 92.145 173.144 92.065 173.554 91.905C173.974 91.735 174.279 91.51 174.469 91.23C174.669 90.95 174.769 90.64 174.769 90.3C174.769 89.89 174.649 89.56 174.409 89.31C174.179 89.06 173.874 88.865 173.494 88.725C173.114 88.575 172.694 88.445 172.234 88.335C171.774 88.225 171.314 88.11 170.854 87.99C170.394 87.86 169.969 87.69 169.579 87.48C169.199 87.27 168.889 86.995 168.649 86.655C168.419 86.305 168.304 85.85 168.304 85.29C168.304 84.77 168.439 84.295 168.709 83.865C168.989 83.425 169.414 83.075 169.984 82.815C170.554 82.545 171.284 82.41 172.174 82.41C172.764 82.41 173.349 82.495 173.929 82.665C174.509 82.825 175.009 83.05 175.429 83.34L175.054 84.225C174.604 83.925 174.124 83.705 173.614 83.565C173.114 83.425 172.629 83.355 172.159 83.355C171.529 83.355 171.009 83.44 170.599 83.61C170.189 83.78 169.884 84.01 169.684 84.3C169.494 84.58 169.399 84.9 169.399 85.26C169.399 85.67 169.514 86 169.744 86.25C169.984 86.5 170.294 86.695 170.674 86.835C171.064 86.975 171.489 87.1 171.949 87.21C172.409 87.32 172.864 87.44 173.314 87.57C173.774 87.7 174.194 87.87 174.574 88.08C174.964 88.28 175.274 88.55 175.504 88.89C175.744 89.23 175.864 89.675 175.864 90.225C175.864 90.735 175.724 91.21 175.444 91.65C175.164 92.08 174.734 92.43 174.154 92.7C173.584 92.96 172.849 93.09 171.949 93.09ZM177.705 95.19L178.365 92.415L178.485 93.06C178.255 93.06 178.06 92.985 177.9 92.835C177.75 92.685 177.675 92.49 177.675 92.25C177.675 92.01 177.75 91.815 177.9 91.665C178.06 91.515 178.25 91.44 178.47 91.44C178.7 91.44 178.885 91.52 179.025 91.68C179.175 91.84 179.25 92.03 179.25 92.25C179.25 92.33 179.245 92.41 179.235 92.49C179.225 92.57 179.205 92.66 179.175 92.76C179.145 92.86 179.105 92.98 179.055 93.12L178.425 95.19H177.705ZM186.805 93.09C186.215 93.09 185.66 92.96 185.14 92.7C184.63 92.44 184.22 92.07 183.91 91.59L184.555 90.84C184.845 91.26 185.18 91.58 185.56 91.8C185.94 92.02 186.36 92.13 186.82 92.13C188.12 92.13 188.77 91.36 188.77 89.82V83.46H184.93V82.5H189.865V89.775C189.865 90.885 189.605 91.715 189.085 92.265C188.575 92.815 187.815 93.09 186.805 93.09ZM197.904 93V91.26L197.859 90.975V88.065C197.859 87.395 197.669 86.88 197.289 86.52C196.919 86.16 196.364 85.98 195.624 85.98C195.114 85.98 194.629 86.065 194.169 86.235C193.709 86.405 193.319 86.63 192.999 86.91L192.519 86.115C192.919 85.775 193.399 85.515 193.959 85.335C194.519 85.145 195.109 85.05 195.729 85.05C196.749 85.05 197.534 85.305 198.084 85.815C198.644 86.315 198.924 87.08 198.924 88.11V93H197.904ZM195.189 93.075C194.599 93.075 194.084 92.98 193.644 92.79C193.214 92.59 192.884 92.32 192.654 91.98C192.424 91.63 192.309 91.23 192.309 90.78C192.309 90.37 192.404 90 192.594 89.67C192.794 89.33 193.114 89.06 193.554 88.86C194.004 88.65 194.604 88.545 195.354 88.545H198.069V89.34H195.384C194.624 89.34 194.094 89.475 193.794 89.745C193.504 90.015 193.359 90.35 193.359 90.75C193.359 91.2 193.534 91.56 193.884 91.83C194.234 92.1 194.724 92.235 195.354 92.235C195.954 92.235 196.469 92.1 196.899 91.83C197.339 91.55 197.659 91.15 197.859 90.63L198.099 91.365C197.899 91.885 197.549 92.3 197.049 92.61C196.559 92.92 195.939 93.075 195.189 93.075ZM203.696 93L200.201 85.125H201.311L204.521 92.43H203.996L207.251 85.125H208.301L204.791 93H203.696ZM214.501 93V91.26L214.456 90.975V88.065C214.456 87.395 214.266 86.88 213.886 86.52C213.516 86.16 212.961 85.98 212.221 85.98C211.711 85.98 211.226 86.065 210.766 86.235C210.306 86.405 209.916 86.63 209.596 86.91L209.116 86.115C209.516 85.775 209.996 85.515 210.556 85.335C211.116 85.145 211.706 85.05 212.326 85.05C213.346 85.05 214.131 85.305 214.681 85.815C215.241 86.315 215.521 87.08 215.521 88.11V93H214.501ZM211.786 93.075C211.196 93.075 210.681 92.98 210.241 92.79C209.811 92.59 209.481 92.32 209.251 91.98C209.021 91.63 208.906 91.23 208.906 90.78C208.906 90.37 209.001 90 209.191 89.67C209.391 89.33 209.711 89.06 210.151 88.86C210.601 88.65 211.201 88.545 211.951 88.545H214.666V89.34H211.981C211.221 89.34 210.691 89.475 210.391 89.745C210.101 90.015 209.956 90.35 209.956 90.75C209.956 91.2 210.131 91.56 210.481 91.83C210.831 92.1 211.321 92.235 211.951 92.235C212.551 92.235 213.066 92.1 213.496 91.83C213.936 91.55 214.256 91.15 214.456 90.63L214.696 91.365C214.496 91.885 214.146 92.3 213.646 92.61C213.156 92.92 212.536 93.075 211.786 93.075ZM220.529 93.075C219.879 93.075 219.264 92.985 218.684 92.805C218.104 92.615 217.649 92.38 217.319 92.1L217.799 91.26C218.119 91.5 218.529 91.71 219.029 91.89C219.529 92.06 220.054 92.145 220.604 92.145C221.354 92.145 221.894 92.03 222.224 91.8C222.554 91.56 222.719 91.245 222.719 90.855C222.719 90.565 222.624 90.34 222.434 90.18C222.254 90.01 222.014 89.885 221.714 89.805C221.414 89.715 221.079 89.64 220.709 89.58C220.339 89.52 219.969 89.45 219.599 89.37C219.239 89.29 218.909 89.175 218.609 89.025C218.309 88.865 218.064 88.65 217.874 88.38C217.694 88.11 217.604 87.75 217.604 87.3C217.604 86.87 217.724 86.485 217.964 86.145C218.204 85.805 218.554 85.54 219.014 85.35C219.484 85.15 220.054 85.05 220.724 85.05C221.234 85.05 221.744 85.12 222.254 85.26C222.764 85.39 223.184 85.565 223.514 85.785L223.049 86.64C222.699 86.4 222.324 86.23 221.924 86.13C221.524 86.02 221.124 85.965 220.724 85.965C220.014 85.965 219.489 86.09 219.149 86.34C218.819 86.58 218.654 86.89 218.654 87.27C218.654 87.57 218.744 87.805 218.924 87.975C219.114 88.145 219.359 88.28 219.659 88.38C219.969 88.47 220.304 88.545 220.664 88.605C221.034 88.665 221.399 88.74 221.759 88.83C222.129 88.91 222.464 89.025 222.764 89.175C223.074 89.315 223.319 89.52 223.499 89.79C223.689 90.05 223.784 90.395 223.784 90.825C223.784 91.285 223.654 91.685 223.394 92.025C223.144 92.355 222.774 92.615 222.284 92.805C221.804 92.985 221.219 93.075 220.529 93.075ZM229.008 93.075C228.228 93.075 227.528 92.905 226.908 92.565C226.298 92.215 225.818 91.74 225.468 91.14C225.118 90.53 224.943 89.835 224.943 89.055C224.943 88.265 225.118 87.57 225.468 86.97C225.818 86.37 226.298 85.9 226.908 85.56C227.528 85.22 228.228 85.05 229.008 85.05C229.678 85.05 230.283 85.18 230.823 85.44C231.363 85.7 231.788 86.09 232.098 86.61L231.303 87.15C231.033 86.75 230.698 86.455 230.298 86.265C229.898 86.075 229.463 85.98 228.993 85.98C228.433 85.98 227.928 86.11 227.478 86.37C227.028 86.62 226.673 86.975 226.413 87.435C226.153 87.895 226.023 88.435 226.023 89.055C226.023 89.675 226.153 90.215 226.413 90.675C226.673 91.135 227.028 91.495 227.478 91.755C227.928 92.005 228.433 92.13 228.993 92.13C229.463 92.13 229.898 92.035 230.298 91.845C230.698 91.655 231.033 91.365 231.303 90.975L232.098 91.515C231.788 92.025 231.363 92.415 230.823 92.685C230.283 92.945 229.678 93.075 229.008 93.075ZM234.19 93V85.125H235.21V87.27L235.105 86.895C235.325 86.295 235.695 85.84 236.215 85.53C236.735 85.21 237.38 85.05 238.15 85.05V86.085C238.11 86.085 238.07 86.085 238.03 86.085C237.99 86.075 237.95 86.07 237.91 86.07C237.08 86.07 236.43 86.325 235.96 86.835C235.49 87.335 235.255 88.05 235.255 88.98V93H234.19ZM240.093 93V85.125H241.158V93H240.093ZM240.633 83.385C240.413 83.385 240.228 83.31 240.078 83.16C239.928 83.01 239.853 82.83 239.853 82.62C239.853 82.41 239.928 82.235 240.078 82.095C240.228 81.945 240.413 81.87 240.633 81.87C240.853 81.87 241.038 81.94 241.188 82.08C241.338 82.22 241.413 82.395 241.413 82.605C241.413 82.825 241.338 83.01 241.188 83.16C241.048 83.31 240.863 83.385 240.633 83.385ZM248.187 93.075C247.507 93.075 246.892 92.92 246.342 92.61C245.792 92.29 245.352 91.835 245.022 91.245C244.702 90.645 244.542 89.915 244.542 89.055C244.542 88.195 244.702 87.47 245.022 86.88C245.342 86.28 245.777 85.825 246.327 85.515C246.877 85.205 247.497 85.05 248.187 85.05C248.937 85.05 249.607 85.22 250.197 85.56C250.797 85.89 251.267 86.36 251.607 86.97C251.947 87.57 252.117 88.265 252.117 89.055C252.117 89.855 251.947 90.555 251.607 91.155C251.267 91.755 250.797 92.225 250.197 92.565C249.607 92.905 248.937 93.075 248.187 93.075ZM244.122 95.91V85.125H245.142V87.495L245.037 89.07L245.187 90.66V95.91H244.122ZM248.112 92.13C248.672 92.13 249.172 92.005 249.612 91.755C250.052 91.495 250.402 91.135 250.662 90.675C250.922 90.205 251.052 89.665 251.052 89.055C251.052 88.445 250.922 87.91 250.662 87.45C250.402 86.99 250.052 86.63 249.612 86.37C249.172 86.11 248.672 85.98 248.112 85.98C247.552 85.98 247.047 86.11 246.597 86.37C246.157 86.63 245.807 86.99 245.547 87.45C245.297 87.91 245.172 88.445 245.172 89.055C245.172 89.665 245.297 90.205 245.547 90.675C245.807 91.135 246.157 91.495 246.597 91.755C247.047 92.005 247.552 92.13 248.112 92.13ZM256.778 93.075C256.038 93.075 255.468 92.875 255.068 92.475C254.668 92.075 254.468 91.51 254.468 90.78V83.385H255.533V90.72C255.533 91.18 255.648 91.535 255.878 91.785C256.118 92.035 256.458 92.16 256.898 92.16C257.368 92.16 257.758 92.025 258.068 91.755L258.443 92.52C258.233 92.71 257.978 92.85 257.678 92.94C257.388 93.03 257.088 93.075 256.778 93.075ZM253.058 86.01V85.125H257.933V86.01H253.058ZM267.082 93.09C266.402 93.09 265.797 92.98 265.267 92.76C264.737 92.53 264.317 92.215 264.007 91.815C263.707 91.415 263.557 90.95 263.557 90.42C263.557 89.97 263.657 89.56 263.857 89.19C264.057 88.81 264.377 88.44 264.817 88.08C265.267 87.71 265.862 87.325 266.602 86.925C267.232 86.575 267.722 86.275 268.072 86.025C268.432 85.765 268.687 85.52 268.837 85.29C268.987 85.05 269.062 84.795 269.062 84.525C269.062 84.135 268.927 83.82 268.657 83.58C268.397 83.34 268.022 83.22 267.532 83.22C267.002 83.22 266.592 83.355 266.302 83.625C266.012 83.885 265.867 84.225 265.867 84.645C265.867 84.855 265.897 85.055 265.957 85.245C266.027 85.435 266.152 85.645 266.332 85.875C266.522 86.105 266.782 86.395 267.112 86.745L272.662 92.46L272.047 93.165L266.257 87.21C265.907 86.84 265.627 86.52 265.417 86.25C265.217 85.97 265.077 85.705 264.997 85.455C264.917 85.205 264.877 84.94 264.877 84.66C264.877 84.21 264.982 83.82 265.192 83.49C265.412 83.15 265.722 82.89 266.122 82.71C266.522 82.52 266.992 82.425 267.532 82.425C268.022 82.425 268.447 82.51 268.807 82.68C269.177 82.84 269.462 83.075 269.662 83.385C269.872 83.695 269.977 84.07 269.977 84.51C269.977 84.89 269.882 85.245 269.692 85.575C269.512 85.905 269.212 86.23 268.792 86.55C268.372 86.86 267.802 87.21 267.082 87.6C266.452 87.95 265.952 88.27 265.582 88.56C265.222 88.85 264.967 89.135 264.817 89.415C264.667 89.685 264.592 89.985 264.592 90.315C264.592 90.695 264.697 91.03 264.907 91.32C265.127 91.6 265.427 91.82 265.807 91.98C266.197 92.13 266.642 92.205 267.142 92.205C267.842 92.205 268.467 92.06 269.017 91.77C269.567 91.48 270.027 91.04 270.397 90.45C270.777 89.86 271.052 89.12 271.222 88.23L272.077 88.5C271.887 89.5 271.562 90.34 271.102 91.02C270.642 91.7 270.072 92.215 269.392 92.565C268.712 92.915 267.942 93.09 267.082 93.09ZM278.492 93V82.5H282.422C283.312 82.5 284.077 82.645 284.717 82.935C285.357 83.215 285.847 83.625 286.187 84.165C286.537 84.695 286.712 85.34 286.712 86.1C286.712 86.84 286.537 87.48 286.187 88.02C285.847 88.55 285.357 88.96 284.717 89.25C284.077 89.53 283.312 89.67 282.422 89.67H279.107L279.602 89.16V93H278.492ZM285.662 93L282.962 89.19H284.162L286.877 93H285.662ZM279.602 89.25L279.107 88.725H282.392C283.442 88.725 284.237 88.495 284.777 88.035C285.327 87.575 285.602 86.93 285.602 86.1C285.602 85.26 285.327 84.61 284.777 84.15C284.237 83.69 283.442 83.46 282.392 83.46H279.107L279.602 82.935V89.25ZM292.452 93.075C291.632 93.075 290.912 92.905 290.292 92.565C289.672 92.215 289.187 91.74 288.837 91.14C288.487 90.53 288.312 89.835 288.312 89.055C288.312 88.275 288.477 87.585 288.807 86.985C289.147 86.385 289.607 85.915 290.187 85.575C290.777 85.225 291.437 85.05 292.167 85.05C292.907 85.05 293.562 85.22 294.132 85.56C294.712 85.89 295.167 86.36 295.497 86.97C295.827 87.57 295.992 88.265 295.992 89.055C295.992 89.105 295.987 89.16 295.977 89.22C295.977 89.27 295.977 89.325 295.977 89.385H289.122V88.59H295.407L294.987 88.905C294.987 88.335 294.862 87.83 294.612 87.39C294.372 86.94 294.042 86.59 293.622 86.34C293.202 86.09 292.717 85.965 292.167 85.965C291.627 85.965 291.142 86.09 290.712 86.34C290.282 86.59 289.947 86.94 289.707 87.39C289.467 87.84 289.347 88.355 289.347 88.935V89.1C289.347 89.7 289.477 90.23 289.737 90.69C290.007 91.14 290.377 91.495 290.847 91.755C291.327 92.005 291.872 92.13 292.482 92.13C292.962 92.13 293.407 92.045 293.817 91.875C294.237 91.705 294.597 91.445 294.897 91.095L295.497 91.785C295.147 92.205 294.707 92.525 294.177 92.745C293.657 92.965 293.082 93.075 292.452 93.075ZM302.875 93V91.26L302.83 90.975V88.065C302.83 87.395 302.64 86.88 302.26 86.52C301.89 86.16 301.335 85.98 300.595 85.98C300.085 85.98 299.6 86.065 299.14 86.235C298.68 86.405 298.29 86.63 297.97 86.91L297.49 86.115C297.89 85.775 298.37 85.515 298.93 85.335C299.49 85.145 300.08 85.05 300.7 85.05C301.72 85.05 302.505 85.305 303.055 85.815C303.615 86.315 303.895 87.08 303.895 88.11V93H302.875ZM300.16 93.075C299.57 93.075 299.055 92.98 298.615 92.79C298.185 92.59 297.855 92.32 297.625 91.98C297.395 91.63 297.28 91.23 297.28 90.78C297.28 90.37 297.375 90 297.565 89.67C297.765 89.33 298.085 89.06 298.525 88.86C298.975 88.65 299.575 88.545 300.325 88.545H303.04V89.34H300.355C299.595 89.34 299.065 89.475 298.765 89.745C298.475 90.015 298.33 90.35 298.33 90.75C298.33 91.2 298.505 91.56 298.855 91.83C299.205 92.1 299.695 92.235 300.325 92.235C300.925 92.235 301.44 92.1 301.87 91.83C302.31 91.55 302.63 91.15 302.83 90.63L303.07 91.365C302.87 91.885 302.52 92.3 302.02 92.61C301.53 92.92 300.91 93.075 300.16 93.075ZM310.058 93.075C309.278 93.075 308.578 92.905 307.958 92.565C307.348 92.215 306.868 91.74 306.518 91.14C306.168 90.53 305.993 89.835 305.993 89.055C305.993 88.265 306.168 87.57 306.518 86.97C306.868 86.37 307.348 85.9 307.958 85.56C308.578 85.22 309.278 85.05 310.058 85.05C310.728 85.05 311.333 85.18 311.873 85.44C312.413 85.7 312.838 86.09 313.148 86.61L312.353 87.15C312.083 86.75 311.748 86.455 311.348 86.265C310.948 86.075 310.513 85.98 310.043 85.98C309.483 85.98 308.978 86.11 308.528 86.37C308.078 86.62 307.723 86.975 307.463 87.435C307.203 87.895 307.073 88.435 307.073 89.055C307.073 89.675 307.203 90.215 307.463 90.675C307.723 91.135 308.078 91.495 308.528 91.755C308.978 92.005 309.483 92.13 310.043 92.13C310.513 92.13 310.948 92.035 311.348 91.845C311.748 91.655 312.083 91.365 312.353 90.975L313.148 91.515C312.838 92.025 312.413 92.415 311.873 92.685C311.333 92.945 310.728 93.075 310.058 93.075ZM317.818 93.075C317.078 93.075 316.508 92.875 316.108 92.475C315.708 92.075 315.508 91.51 315.508 90.78V83.385H316.573V90.72C316.573 91.18 316.688 91.535 316.918 91.785C317.158 92.035 317.498 92.16 317.938 92.16C318.408 92.16 318.798 92.025 319.108 91.755L319.483 92.52C319.273 92.71 319.018 92.85 318.718 92.94C318.428 93.03 318.128 93.075 317.818 93.075ZM314.098 86.01V85.125H318.973V86.01H314.098ZM11.2581 108.045C11.0581 108.045 10.8681 107.995 10.6881 107.895C10.5181 107.795 10.3831 107.66 10.2831 107.49C10.1831 107.32 10.1331 107.12 10.1331 106.89C10.1331 106.68 10.1831 106.49 10.2831 106.32C10.3831 106.15 10.5181 106.015 10.6881 105.915C10.8681 105.815 11.0581 105.765 11.2581 105.765C11.4581 105.765 11.6431 105.815 11.8131 105.915C11.9831 106.015 12.1181 106.15 12.2181 106.32C12.3281 106.49 12.3831 106.68 12.3831 106.89C12.3831 107.12 12.3281 107.32 12.2181 107.49C12.1181 107.66 11.9831 107.795 11.8131 107.895C11.6431 107.995 11.4581 108.045 11.2581 108.045ZM24.21 111V100.5H28.74C29.91 100.5 30.815 100.735 31.455 101.205C32.105 101.675 32.43 102.34 32.43 103.2C32.43 103.77 32.295 104.25 32.025 104.64C31.765 105.03 31.405 105.325 30.945 105.525C30.495 105.725 30 105.825 29.46 105.825L29.715 105.465C30.385 105.465 30.96 105.57 31.44 105.78C31.93 105.98 32.31 106.285 32.58 106.695C32.85 107.095 32.985 107.595 32.985 108.195C32.985 109.085 32.655 109.775 31.995 110.265C31.345 110.755 30.36 111 29.04 111H24.21ZM25.32 110.085H29.025C29.945 110.085 30.65 109.93 31.14 109.62C31.63 109.3 31.875 108.795 31.875 108.105C31.875 107.425 31.63 106.93 31.14 106.62C30.65 106.3 29.945 106.14 29.025 106.14H25.2V105.225H28.665C29.505 105.225 30.155 105.065 30.615 104.745C31.085 104.425 31.32 103.95 31.32 103.32C31.32 102.68 31.085 102.205 30.615 101.895C30.155 101.575 29.505 101.415 28.665 101.415H25.32V110.085ZM40.2286 111V109.26L40.1836 108.975V106.065C40.1836 105.395 39.9936 104.88 39.6136 104.52C39.2436 104.16 38.6886 103.98 37.9486 103.98C37.4386 103.98 36.9536 104.065 36.4936 104.235C36.0336 104.405 35.6436 104.63 35.3236 104.91L34.8436 104.115C35.2436 103.775 35.7236 103.515 36.2836 103.335C36.8436 103.145 37.4336 103.05 38.0536 103.05C39.0736 103.05 39.8586 103.305 40.4086 103.815C40.9686 104.315 41.2486 105.08 41.2486 106.11V111H40.2286ZM37.5136 111.075C36.9236 111.075 36.4086 110.98 35.9686 110.79C35.5386 110.59 35.2086 110.32 34.9786 109.98C34.7486 109.63 34.6336 109.23 34.6336 108.78C34.6336 108.37 34.7286 108 34.9186 107.67C35.1186 107.33 35.4386 107.06 35.8786 106.86C36.3286 106.65 36.9286 106.545 37.6786 106.545H40.3936V107.34H37.7086C36.9486 107.34 36.4186 107.475 36.1186 107.745C35.8286 108.015 35.6836 108.35 35.6836 108.75C35.6836 109.2 35.8586 109.56 36.2086 109.83C36.5586 110.1 37.0486 110.235 37.6786 110.235C38.2786 110.235 38.7936 110.1 39.2236 109.83C39.6636 109.55 39.9836 109.15 40.1836 108.63L40.4236 109.365C40.2236 109.885 39.8736 110.3 39.3736 110.61C38.8836 110.92 38.2636 111.075 37.5136 111.075ZM47.4113 111.075C46.6313 111.075 45.9313 110.905 45.3113 110.565C44.7013 110.215 44.2213 109.74 43.8713 109.14C43.5213 108.53 43.3463 107.835 43.3463 107.055C43.3463 106.265 43.5213 105.57 43.8713 104.97C44.2213 104.37 44.7013 103.9 45.3113 103.56C45.9313 103.22 46.6313 103.05 47.4113 103.05C48.0813 103.05 48.6863 103.18 49.2263 103.44C49.7663 103.7 50.1913 104.09 50.5013 104.61L49.7063 105.15C49.4363 104.75 49.1013 104.455 48.7013 104.265C48.3013 104.075 47.8663 103.98 47.3963 103.98C46.8363 103.98 46.3313 104.11 45.8813 104.37C45.4313 104.62 45.0763 104.975 44.8163 105.435C44.5563 105.895 44.4263 106.435 44.4263 107.055C44.4263 107.675 44.5563 108.215 44.8163 108.675C45.0763 109.135 45.4313 109.495 45.8813 109.755C46.3313 110.005 46.8363 110.13 47.3963 110.13C47.8663 110.13 48.3013 110.035 48.7013 109.845C49.1013 109.655 49.4363 109.365 49.7063 108.975L50.5013 109.515C50.1913 110.025 49.7663 110.415 49.2263 110.685C48.6863 110.945 48.0813 111.075 47.4113 111.075ZM53.3162 108.96L53.3462 107.595L58.2512 103.125H59.5562L56.0912 106.44L55.4912 106.95L53.3162 108.96ZM52.4762 111V99.87H53.5412V111H52.4762ZM58.5812 111L55.2962 106.905L55.9862 106.08L59.8862 111H58.5812ZM64.5224 111.075C63.7024 111.075 62.9824 110.905 62.3624 110.565C61.7424 110.215 61.2574 109.74 60.9074 109.14C60.5574 108.53 60.3824 107.835 60.3824 107.055C60.3824 106.275 60.5474 105.585 60.8774 104.985C61.2174 104.385 61.6774 103.915 62.2574 103.575C62.8474 103.225 63.5074 103.05 64.2374 103.05C64.9774 103.05 65.6324 103.22 66.2024 103.56C66.7824 103.89 67.2374 104.36 67.5674 104.97C67.8974 105.57 68.0624 106.265 68.0624 107.055C68.0624 107.105 68.0574 107.16 68.0474 107.22C68.0474 107.27 68.0474 107.325 68.0474 107.385H61.1924V106.59H67.4774L67.0574 106.905C67.0574 106.335 66.9324 105.83 66.6824 105.39C66.4424 104.94 66.1124 104.59 65.6924 104.34C65.2724 104.09 64.7874 103.965 64.2374 103.965C63.6974 103.965 63.2124 104.09 62.7824 104.34C62.3524 104.59 62.0174 104.94 61.7774 105.39C61.5374 105.84 61.4174 106.355 61.4174 106.935V107.1C61.4174 107.7 61.5474 108.23 61.8074 108.69C62.0774 109.14 62.4474 109.495 62.9174 109.755C63.3974 110.005 63.9424 110.13 64.5524 110.13C65.0324 110.13 65.4774 110.045 65.8874 109.875C66.3074 109.705 66.6674 109.445 66.9674 109.095L67.5674 109.785C67.2174 110.205 66.7774 110.525 66.2474 110.745C65.7274 110.965 65.1524 111.075 64.5224 111.075ZM74.2501 103.05C74.8901 103.05 75.4501 103.175 75.9301 103.425C76.4201 103.665 76.8001 104.035 77.0701 104.535C77.3501 105.035 77.4901 105.665 77.4901 106.425V111H76.4251V106.53C76.4251 105.7 76.2151 105.075 75.7951 104.655C75.3851 104.225 74.8051 104.01 74.0551 104.01C73.4951 104.01 73.0051 104.125 72.5851 104.355C72.1751 104.575 71.8551 104.9 71.6251 105.33C71.4051 105.75 71.2951 106.26 71.2951 106.86V111H70.2301V103.125H71.2501V105.285L71.0851 104.88C71.3351 104.31 71.7351 103.865 72.2851 103.545C72.8351 103.215 73.4901 103.05 74.2501 103.05ZM83.5018 111.075C82.7518 111.075 82.0768 110.905 81.4768 110.565C80.8868 110.225 80.4218 109.755 80.0818 109.155C79.7418 108.545 79.5718 107.845 79.5718 107.055C79.5718 106.255 79.7418 105.555 80.0818 104.955C80.4218 104.355 80.8868 103.89 81.4768 103.56C82.0768 103.22 82.7518 103.05 83.5018 103.05C84.1918 103.05 84.8068 103.205 85.3468 103.515C85.8968 103.825 86.3318 104.28 86.6518 104.88C86.9818 105.47 87.1468 106.195 87.1468 107.055C87.1468 107.905 86.9868 108.63 86.6668 109.23C86.3468 109.83 85.9118 110.29 85.3618 110.61C84.8218 110.92 84.2018 111.075 83.5018 111.075ZM83.5768 110.13C84.1368 110.13 84.6368 110.005 85.0768 109.755C85.5268 109.495 85.8768 109.135 86.1268 108.675C86.3868 108.205 86.5168 107.665 86.5168 107.055C86.5168 106.435 86.3868 105.895 86.1268 105.435C85.8768 104.975 85.5268 104.62 85.0768 104.37C84.6368 104.11 84.1368 103.98 83.5768 103.98C83.0268 103.98 82.5318 104.11 82.0918 104.37C81.6518 104.62 81.3018 104.975 81.0418 105.435C80.7818 105.895 80.6518 106.435 80.6518 107.055C80.6518 107.665 80.7818 108.205 81.0418 108.675C81.3018 109.135 81.6518 109.495 82.0918 109.755C82.5318 110.005 83.0268 110.13 83.5768 110.13ZM86.5468 111V108.63L86.6518 107.04L86.5018 105.45V99.87H87.5668V111H86.5468ZM93.8736 107.4V106.47H97.8036V107.4H93.8736ZM105.327 105.195H110.877V106.14H105.327V105.195ZM105.447 110.04H111.762V111H104.337V100.5H111.537V101.46H105.447V110.04ZM112.726 111L116.056 106.68L116.041 107.205L112.876 103.125H114.076L116.671 106.5L116.221 106.485L118.816 103.125H119.986L116.791 107.25L116.806 106.68L120.166 111H118.951L116.206 107.4L116.626 107.46L113.926 111H112.726ZM126.004 111.075C125.324 111.075 124.709 110.92 124.159 110.61C123.609 110.29 123.169 109.835 122.839 109.245C122.519 108.645 122.359 107.915 122.359 107.055C122.359 106.195 122.519 105.47 122.839 104.88C123.159 104.28 123.594 103.825 124.144 103.515C124.694 103.205 125.314 103.05 126.004 103.05C126.754 103.05 127.424 103.22 128.014 103.56C128.614 103.89 129.084 104.36 129.424 104.97C129.764 105.57 129.934 106.265 129.934 107.055C129.934 107.855 129.764 108.555 129.424 109.155C129.084 109.755 128.614 110.225 128.014 110.565C127.424 110.905 126.754 111.075 126.004 111.075ZM121.939 113.91V103.125H122.959V105.495L122.854 107.07L123.004 108.66V113.91H121.939ZM125.929 110.13C126.489 110.13 126.989 110.005 127.429 109.755C127.869 109.495 128.219 109.135 128.479 108.675C128.739 108.205 128.869 107.665 128.869 107.055C128.869 106.445 128.739 105.91 128.479 105.45C128.219 104.99 127.869 104.63 127.429 104.37C126.989 104.11 126.489 103.98 125.929 103.98C125.369 103.98 124.864 104.11 124.414 104.37C123.974 104.63 123.624 104.99 123.364 105.45C123.114 105.91 122.989 106.445 122.989 107.055C122.989 107.665 123.114 108.205 123.364 108.675C123.624 109.135 123.974 109.495 124.414 109.755C124.864 110.005 125.369 110.13 125.929 110.13ZM132.105 111V103.125H133.125V105.27L133.02 104.895C133.24 104.295 133.61 103.84 134.13 103.53C134.65 103.21 135.295 103.05 136.065 103.05V104.085C136.025 104.085 135.985 104.085 135.945 104.085C135.905 104.075 135.865 104.07 135.825 104.07C134.995 104.07 134.345 104.325 133.875 104.835C133.405 105.335 133.17 106.05 133.17 106.98V111H132.105ZM141.28 111.075C140.46 111.075 139.74 110.905 139.12 110.565C138.5 110.215 138.015 109.74 137.665 109.14C137.315 108.53 137.14 107.835 137.14 107.055C137.14 106.275 137.305 105.585 137.635 104.985C137.975 104.385 138.435 103.915 139.015 103.575C139.605 103.225 140.265 103.05 140.995 103.05C141.735 103.05 142.39 103.22 142.96 103.56C143.54 103.89 143.995 104.36 144.325 104.97C144.655 105.57 144.82 106.265 144.82 107.055C144.82 107.105 144.815 107.16 144.805 107.22C144.805 107.27 144.805 107.325 144.805 107.385H137.95V106.59H144.235L143.815 106.905C143.815 106.335 143.69 105.83 143.44 105.39C143.2 104.94 142.87 104.59 142.45 104.34C142.03 104.09 141.545 103.965 140.995 103.965C140.455 103.965 139.97 104.09 139.54 104.34C139.11 104.59 138.775 104.94 138.535 105.39C138.295 105.84 138.175 106.355 138.175 106.935V107.1C138.175 107.7 138.305 108.23 138.565 108.69C138.835 109.14 139.205 109.495 139.675 109.755C140.155 110.005 140.7 110.13 141.31 110.13C141.79 110.13 142.235 110.045 142.645 109.875C143.065 109.705 143.425 109.445 143.725 109.095L144.325 109.785C143.975 110.205 143.535 110.525 143.005 110.745C142.485 110.965 141.91 111.075 141.28 111.075ZM149.103 111.075C148.453 111.075 147.838 110.985 147.258 110.805C146.678 110.615 146.223 110.38 145.893 110.1L146.373 109.26C146.693 109.5 147.103 109.71 147.603 109.89C148.103 110.06 148.628 110.145 149.178 110.145C149.928 110.145 150.468 110.03 150.798 109.8C151.128 109.56 151.293 109.245 151.293 108.855C151.293 108.565 151.198 108.34 151.008 108.18C150.828 108.01 150.588 107.885 150.288 107.805C149.988 107.715 149.653 107.64 149.283 107.58C148.913 107.52 148.543 107.45 148.173 107.37C147.813 107.29 147.483 107.175 147.183 107.025C146.883 106.865 146.638 106.65 146.448 106.38C146.268 106.11 146.178 105.75 146.178 105.3C146.178 104.87 146.298 104.485 146.538 104.145C146.778 103.805 147.128 103.54 147.588 103.35C148.058 103.15 148.628 103.05 149.298 103.05C149.808 103.05 150.318 103.12 150.828 103.26C151.338 103.39 151.758 103.565 152.088 103.785L151.623 104.64C151.273 104.4 150.898 104.23 150.498 104.13C150.098 104.02 149.698 103.965 149.298 103.965C148.588 103.965 148.063 104.09 147.723 104.34C147.393 104.58 147.228 104.89 147.228 105.27C147.228 105.57 147.318 105.805 147.498 105.975C147.688 106.145 147.933 106.28 148.233 106.38C148.543 106.47 148.878 106.545 149.238 106.605C149.608 106.665 149.973 106.74 150.333 106.83C150.703 106.91 151.038 107.025 151.338 107.175C151.648 107.315 151.893 107.52 152.073 107.79C152.263 108.05 152.358 108.395 152.358 108.825C152.358 109.285 152.228 109.685 151.968 110.025C151.718 110.355 151.348 110.615 150.858 110.805C150.378 110.985 149.793 111.075 149.103 111.075ZM156.427 111.075C155.777 111.075 155.162 110.985 154.582 110.805C154.002 110.615 153.547 110.38 153.217 110.1L153.697 109.26C154.017 109.5 154.427 109.71 154.927 109.89C155.427 110.06 155.952 110.145 156.502 110.145C157.252 110.145 157.792 110.03 158.122 109.8C158.452 109.56 158.617 109.245 158.617 108.855C158.617 108.565 158.522 108.34 158.332 108.18C158.152 108.01 157.912 107.885 157.612 107.805C157.312 107.715 156.977 107.64 156.607 107.58C156.237 107.52 155.867 107.45 155.497 107.37C155.137 107.29 154.807 107.175 154.507 107.025C154.207 106.865 153.962 106.65 153.772 106.38C153.592 106.11 153.502 105.75 153.502 105.3C153.502 104.87 153.622 104.485 153.862 104.145C154.102 103.805 154.452 103.54 154.912 103.35C155.382 103.15 155.952 103.05 156.622 103.05C157.132 103.05 157.642 103.12 158.152 103.26C158.662 103.39 159.082 103.565 159.412 103.785L158.947 104.64C158.597 104.4 158.222 104.23 157.822 104.13C157.422 104.02 157.022 103.965 156.622 103.965C155.912 103.965 155.387 104.09 155.047 104.34C154.717 104.58 154.552 104.89 154.552 105.27C154.552 105.57 154.642 105.805 154.822 105.975C155.012 106.145 155.257 106.28 155.557 106.38C155.867 106.47 156.202 106.545 156.562 106.605C156.932 106.665 157.297 106.74 157.657 106.83C158.027 106.91 158.362 107.025 158.662 107.175C158.972 107.315 159.217 107.52 159.397 107.79C159.587 108.05 159.682 108.395 159.682 108.825C159.682 109.285 159.552 109.685 159.292 110.025C159.042 110.355 158.672 110.615 158.182 110.805C157.702 110.985 157.117 111.075 156.427 111.075ZM164.392 113.985C164.072 113.985 163.767 113.94 163.477 113.85C163.177 113.77 162.927 113.645 162.727 113.475L163.102 112.665C163.422 112.935 163.832 113.07 164.332 113.07C164.752 113.07 165.072 112.945 165.292 112.695C165.522 112.445 165.637 112.075 165.637 111.585V103.125H166.702V111.585C166.702 112.315 166.502 112.895 166.102 113.325C165.712 113.765 165.142 113.985 164.392 113.985ZM166.177 101.385C165.957 101.385 165.772 101.31 165.622 101.16C165.472 101.01 165.397 100.83 165.397 100.62C165.397 100.41 165.472 100.235 165.622 100.095C165.772 99.945 165.957 99.87 166.177 99.87C166.397 99.87 166.582 99.94 166.732 100.08C166.882 100.22 166.957 100.395 166.957 100.605C166.957 100.825 166.882 101.01 166.732 101.16C166.592 101.31 166.407 101.385 166.177 101.385ZM171.793 111.075C171.143 111.075 170.528 110.985 169.948 110.805C169.368 110.615 168.913 110.38 168.583 110.1L169.063 109.26C169.383 109.5 169.793 109.71 170.293 109.89C170.793 110.06 171.318 110.145 171.868 110.145C172.618 110.145 173.158 110.03 173.488 109.8C173.818 109.56 173.983 109.245 173.983 108.855C173.983 108.565 173.888 108.34 173.698 108.18C173.518 108.01 173.278 107.885 172.978 107.805C172.678 107.715 172.343 107.64 171.973 107.58C171.603 107.52 171.233 107.45 170.863 107.37C170.503 107.29 170.173 107.175 169.873 107.025C169.573 106.865 169.328 106.65 169.138 106.38C168.958 106.11 168.868 105.75 168.868 105.3C168.868 104.87 168.988 104.485 169.228 104.145C169.468 103.805 169.818 103.54 170.278 103.35C170.748 103.15 171.318 103.05 171.988 103.05C172.498 103.05 173.008 103.12 173.518 103.26C174.028 103.39 174.448 103.565 174.778 103.785L174.313 104.64C173.963 104.4 173.588 104.23 173.188 104.13C172.788 104.02 172.388 103.965 171.988 103.965C171.278 103.965 170.753 104.09 170.413 104.34C170.083 104.58 169.918 104.89 169.918 105.27C169.918 105.57 170.008 105.805 170.188 105.975C170.378 106.145 170.623 106.28 170.923 106.38C171.233 106.47 171.568 106.545 171.928 106.605C172.298 106.665 172.663 106.74 173.023 106.83C173.393 106.91 173.728 107.025 174.028 107.175C174.338 107.315 174.583 107.52 174.763 107.79C174.953 108.05 175.048 108.395 175.048 108.825C175.048 109.285 174.918 109.685 174.658 110.025C174.408 110.355 174.038 110.615 173.548 110.805C173.068 110.985 172.483 111.075 171.793 111.075ZM176.358 113.19L177.018 110.415L177.138 111.06C176.908 111.06 176.713 110.985 176.553 110.835C176.403 110.685 176.328 110.49 176.328 110.25C176.328 110.01 176.403 109.815 176.553 109.665C176.713 109.515 176.903 109.44 177.123 109.44C177.353 109.44 177.538 109.52 177.678 109.68C177.828 109.84 177.903 110.03 177.903 110.25C177.903 110.33 177.898 110.41 177.888 110.49C177.878 110.57 177.858 110.66 177.828 110.76C177.798 110.86 177.758 110.98 177.708 111.12L177.078 113.19H176.358ZM188.127 103.05C188.767 103.05 189.327 103.175 189.807 103.425C190.297 103.665 190.677 104.035 190.947 104.535C191.227 105.035 191.367 105.665 191.367 106.425V111H190.302V106.53C190.302 105.7 190.092 105.075 189.672 104.655C189.262 104.225 188.682 104.01 187.932 104.01C187.372 104.01 186.882 104.125 186.462 104.355C186.052 104.575 185.732 104.9 185.502 105.33C185.282 105.75 185.172 106.26 185.172 106.86V111H184.107V103.125H185.127V105.285L184.962 104.88C185.212 104.31 185.612 103.865 186.162 103.545C186.712 103.215 187.367 103.05 188.127 103.05ZM197.454 111.075C196.694 111.075 196.009 110.905 195.399 110.565C194.799 110.215 194.324 109.74 193.974 109.14C193.624 108.53 193.449 107.835 193.449 107.055C193.449 106.265 193.624 105.57 193.974 104.97C194.324 104.37 194.799 103.9 195.399 103.56C195.999 103.22 196.684 103.05 197.454 103.05C198.234 103.05 198.924 103.22 199.524 103.56C200.134 103.9 200.609 104.37 200.949 104.97C201.299 105.57 201.474 106.265 201.474 107.055C201.474 107.835 201.299 108.53 200.949 109.14C200.609 109.74 200.134 110.215 199.524 110.565C198.914 110.905 198.224 111.075 197.454 111.075ZM197.454 110.13C198.024 110.13 198.529 110.005 198.969 109.755C199.409 109.495 199.754 109.135 200.004 108.675C200.264 108.205 200.394 107.665 200.394 107.055C200.394 106.435 200.264 105.895 200.004 105.435C199.754 104.975 199.409 104.62 198.969 104.37C198.529 104.11 198.029 103.98 197.469 103.98C196.909 103.98 196.409 104.11 195.969 104.37C195.529 104.62 195.179 104.975 194.919 105.435C194.659 105.895 194.529 106.435 194.529 107.055C194.529 107.665 194.659 108.205 194.919 108.675C195.179 109.135 195.529 109.495 195.969 109.755C196.409 110.005 196.904 110.13 197.454 110.13ZM206.783 111.075C206.033 111.075 205.358 110.905 204.758 110.565C204.168 110.225 203.703 109.755 203.363 109.155C203.023 108.545 202.853 107.845 202.853 107.055C202.853 106.255 203.023 105.555 203.363 104.955C203.703 104.355 204.168 103.89 204.758 103.56C205.358 103.22 206.033 103.05 206.783 103.05C207.473 103.05 208.088 103.205 208.628 103.515C209.178 103.825 209.613 104.28 209.933 104.88C210.263 105.47 210.428 106.195 210.428 107.055C210.428 107.905 210.268 108.63 209.948 109.23C209.628 109.83 209.193 110.29 208.643 110.61C208.103 110.92 207.483 111.075 206.783 111.075ZM206.858 110.13C207.418 110.13 207.918 110.005 208.358 109.755C208.808 109.495 209.158 109.135 209.408 108.675C209.668 108.205 209.798 107.665 209.798 107.055C209.798 106.435 209.668 105.895 209.408 105.435C209.158 104.975 208.808 104.62 208.358 104.37C207.918 104.11 207.418 103.98 206.858 103.98C206.308 103.98 205.813 104.11 205.373 104.37C204.933 104.62 204.583 104.975 204.323 105.435C204.063 105.895 203.933 106.435 203.933 107.055C203.933 107.665 204.063 108.205 204.323 108.675C204.583 109.135 204.933 109.495 205.373 109.755C205.813 110.005 206.308 110.13 206.858 110.13ZM209.828 111V108.63L209.933 107.04L209.783 105.45V99.87H210.848V111H209.828ZM217.159 111.075C216.339 111.075 215.619 110.905 214.999 110.565C214.379 110.215 213.894 109.74 213.544 109.14C213.194 108.53 213.019 107.835 213.019 107.055C213.019 106.275 213.184 105.585 213.514 104.985C213.854 104.385 214.314 103.915 214.894 103.575C215.484 103.225 216.144 103.05 216.874 103.05C217.614 103.05 218.269 103.22 218.839 103.56C219.419 103.89 219.874 104.36 220.204 104.97C220.534 105.57 220.699 106.265 220.699 107.055C220.699 107.105 220.694 107.16 220.684 107.22C220.684 107.27 220.684 107.325 220.684 107.385H213.829V106.59H220.114L219.694 106.905C219.694 106.335 219.569 105.83 219.319 105.39C219.079 104.94 218.749 104.59 218.329 104.34C217.909 104.09 217.424 103.965 216.874 103.965C216.334 103.965 215.849 104.09 215.419 104.34C214.989 104.59 214.654 104.94 214.414 105.39C214.174 105.84 214.054 106.355 214.054 106.935V107.1C214.054 107.7 214.184 108.23 214.444 108.69C214.714 109.14 215.084 109.495 215.554 109.755C216.034 110.005 216.579 110.13 217.189 110.13C217.669 110.13 218.114 110.045 218.524 109.875C218.944 109.705 219.304 109.445 219.604 109.095L220.204 109.785C219.854 110.205 219.414 110.525 218.884 110.745C218.364 110.965 217.789 111.075 217.159 111.075ZM225.623 113.985C225.303 113.985 224.998 113.94 224.708 113.85C224.408 113.77 224.158 113.645 223.958 113.475L224.333 112.665C224.653 112.935 225.063 113.07 225.563 113.07C225.983 113.07 226.303 112.945 226.523 112.695C226.753 112.445 226.868 112.075 226.868 111.585V103.125H227.933V111.585C227.933 112.315 227.733 112.895 227.333 113.325C226.943 113.765 226.373 113.985 225.623 113.985ZM227.408 101.385C227.188 101.385 227.003 101.31 226.853 101.16C226.703 101.01 226.628 100.83 226.628 100.62C226.628 100.41 226.703 100.235 226.853 100.095C227.003 99.945 227.188 99.87 227.408 99.87C227.628 99.87 227.813 99.94 227.963 100.08C228.113 100.22 228.188 100.395 228.188 100.605C228.188 100.825 228.113 101.01 227.963 101.16C227.823 101.31 227.638 101.385 227.408 101.385ZM233.024 111.075C232.374 111.075 231.759 110.985 231.179 110.805C230.599 110.615 230.144 110.38 229.814 110.1L230.294 109.26C230.614 109.5 231.024 109.71 231.524 109.89C232.024 110.06 232.549 110.145 233.099 110.145C233.849 110.145 234.389 110.03 234.719 109.8C235.049 109.56 235.214 109.245 235.214 108.855C235.214 108.565 235.119 108.34 234.929 108.18C234.749 108.01 234.509 107.885 234.209 107.805C233.909 107.715 233.574 107.64 233.204 107.58C232.834 107.52 232.464 107.45 232.094 107.37C231.734 107.29 231.404 107.175 231.104 107.025C230.804 106.865 230.559 106.65 230.369 106.38C230.189 106.11 230.099 105.75 230.099 105.3C230.099 104.87 230.219 104.485 230.459 104.145C230.699 103.805 231.049 103.54 231.509 103.35C231.979 103.15 232.549 103.05 233.219 103.05C233.729 103.05 234.239 103.12 234.749 103.26C235.259 103.39 235.679 103.565 236.009 103.785L235.544 104.64C235.194 104.4 234.819 104.23 234.419 104.13C234.019 104.02 233.619 103.965 233.219 103.965C232.509 103.965 231.984 104.09 231.644 104.34C231.314 104.58 231.149 104.89 231.149 105.27C231.149 105.57 231.239 105.805 231.419 105.975C231.609 106.145 231.854 106.28 232.154 106.38C232.464 106.47 232.799 106.545 233.159 106.605C233.529 106.665 233.894 106.74 234.254 106.83C234.624 106.91 234.959 107.025 235.259 107.175C235.569 107.315 235.814 107.52 235.994 107.79C236.184 108.05 236.279 108.395 236.279 108.825C236.279 109.285 236.149 109.685 235.889 110.025C235.639 110.355 235.269 110.615 234.779 110.805C234.299 110.985 233.714 111.075 233.024 111.075ZM11.2581 126.045C11.0581 126.045 10.8681 125.995 10.6881 125.895C10.5181 125.795 10.3831 125.66 10.2831 125.49C10.1831 125.32 10.1331 125.12 10.1331 124.89C10.1331 124.68 10.1831 124.49 10.2831 124.32C10.3831 124.15 10.5181 124.015 10.6881 123.915C10.8681 123.815 11.0581 123.765 11.2581 123.765C11.4581 123.765 11.6431 123.815 11.8131 123.915C11.9831 124.015 12.1181 124.15 12.2181 124.32C12.3281 124.49 12.3831 124.68 12.3831 124.89C12.3831 125.12 12.3281 125.32 12.2181 125.49C12.1181 125.66 11.9831 125.795 11.8131 125.895C11.6431 125.995 11.4581 126.045 11.2581 126.045ZM28.44 129.09C27.1 129.09 26.045 128.705 25.275 127.935C24.505 127.165 24.12 126.025 24.12 124.515V118.5H25.23V124.47C25.23 125.71 25.51 126.625 26.07 127.215C26.63 127.805 27.42 128.1 28.44 128.1C29.47 128.1 30.265 127.805 30.825 127.215C31.385 126.625 31.665 125.71 31.665 124.47V118.5H32.745V124.515C32.745 126.025 32.36 127.165 31.59 127.935C30.83 128.705 29.78 129.09 28.44 129.09ZM36.0899 129V118.5H37.1999V129H36.0899ZM38.5312 130.5L43.4813 116.37H44.4563L39.5063 130.5H38.5312ZM49.8707 129.09C48.5307 129.09 47.4757 128.705 46.7057 127.935C45.9357 127.165 45.5507 126.025 45.5507 124.515V118.5H46.6607V124.47C46.6607 125.71 46.9407 126.625 47.5007 127.215C48.0607 127.805 48.8507 128.1 49.8707 128.1C50.9007 128.1 51.6957 127.805 52.2557 127.215C52.8157 126.625 53.0957 125.71 53.0957 124.47V118.5H54.1757V124.515C54.1757 126.025 53.7907 127.165 53.0207 127.935C52.2607 128.705 51.2107 129.09 49.8707 129.09ZM55.9191 129L60.2241 123.18V124.035L56.1741 118.5H57.4491L60.8541 123.12L60.3591 123.135L63.7641 118.5H64.9641L60.9591 123.96V123.18L65.2491 129H63.9591L60.3291 124.065H60.7941L57.1941 129H55.9191ZM71.1436 129V118.5H75.4186C76.5386 118.5 77.5186 118.725 78.3586 119.175C79.2086 119.615 79.8686 120.23 80.3386 121.02C80.8086 121.81 81.0436 122.72 81.0436 123.75C81.0436 124.78 80.8086 125.69 80.3386 126.48C79.8686 127.27 79.2086 127.89 78.3586 128.34C77.5186 128.78 76.5386 129 75.4186 129H71.1436ZM72.2536 128.04H75.3586C76.2886 128.04 77.0936 127.86 77.7736 127.5C78.4636 127.13 78.9986 126.625 79.3786 125.985C79.7586 125.335 79.9486 124.59 79.9486 123.75C79.9486 122.9 79.7586 122.155 79.3786 121.515C78.9986 120.875 78.4636 120.375 77.7736 120.015C77.0936 119.645 76.2886 119.46 75.3586 119.46H72.2536V128.04ZM86.6562 129.075C85.8362 129.075 85.1162 128.905 84.4962 128.565C83.8762 128.215 83.3912 127.74 83.0412 127.14C82.6912 126.53 82.5162 125.835 82.5162 125.055C82.5162 124.275 82.6812 123.585 83.0112 122.985C83.3512 122.385 83.8112 121.915 84.3912 121.575C84.9812 121.225 85.6412 121.05 86.3712 121.05C87.1112 121.05 87.7662 121.22 88.3362 121.56C88.9162 121.89 89.3712 122.36 89.7012 122.97C90.0312 123.57 90.1962 124.265 90.1962 125.055C90.1962 125.105 90.1912 125.16 90.1812 125.22C90.1812 125.27 90.1812 125.325 90.1812 125.385H83.3262V124.59H89.6112L89.1912 124.905C89.1912 124.335 89.0662 123.83 88.8162 123.39C88.5762 122.94 88.2462 122.59 87.8262 122.34C87.4062 122.09 86.9212 121.965 86.3712 121.965C85.8312 121.965 85.3462 122.09 84.9162 122.34C84.4862 122.59 84.1512 122.94 83.9112 123.39C83.6712 123.84 83.5512 124.355 83.5512 124.935V125.1C83.5512 125.7 83.6812 126.23 83.9412 126.69C84.2112 127.14 84.5812 127.495 85.0512 127.755C85.5312 128.005 86.0762 128.13 86.6862 128.13C87.1662 128.13 87.6112 128.045 88.0212 127.875C88.4412 127.705 88.8012 127.445 89.1012 127.095L89.7012 127.785C89.3512 128.205 88.9112 128.525 88.3812 128.745C87.8612 128.965 87.2862 129.075 86.6562 129.075ZM94.4789 129.075C93.8289 129.075 93.2139 128.985 92.6339 128.805C92.0539 128.615 91.5989 128.38 91.2689 128.1L91.7489 127.26C92.0689 127.5 92.4789 127.71 92.9789 127.89C93.4789 128.06 94.0039 128.145 94.5539 128.145C95.3039 128.145 95.8439 128.03 96.1739 127.8C96.5039 127.56 96.6689 127.245 96.6689 126.855C96.6689 126.565 96.5739 126.34 96.3839 126.18C96.2039 126.01 95.9639 125.885 95.6639 125.805C95.3639 125.715 95.0289 125.64 94.6589 125.58C94.2889 125.52 93.9189 125.45 93.5489 125.37C93.1889 125.29 92.8589 125.175 92.5589 125.025C92.2589 124.865 92.0139 124.65 91.8239 124.38C91.6439 124.11 91.5539 123.75 91.5539 123.3C91.5539 122.87 91.6739 122.485 91.9139 122.145C92.1539 121.805 92.5039 121.54 92.9639 121.35C93.4339 121.15 94.0039 121.05 94.6739 121.05C95.1839 121.05 95.6939 121.12 96.2039 121.26C96.7139 121.39 97.1339 121.565 97.4639 121.785L96.9989 122.64C96.6489 122.4 96.2739 122.23 95.8739 122.13C95.4739 122.02 95.0739 121.965 94.6739 121.965C93.9639 121.965 93.4389 122.09 93.0989 122.34C92.7689 122.58 92.6039 122.89 92.6039 123.27C92.6039 123.57 92.6939 123.805 92.8739 123.975C93.0639 124.145 93.3089 124.28 93.6089 124.38C93.9189 124.47 94.2539 124.545 94.6139 124.605C94.9839 124.665 95.3489 124.74 95.7089 124.83C96.0789 124.91 96.4139 125.025 96.7139 125.175C97.0239 125.315 97.2689 125.52 97.4489 125.79C97.6389 126.05 97.7339 126.395 97.7339 126.825C97.7339 127.285 97.6039 127.685 97.3439 128.025C97.0939 128.355 96.7239 128.615 96.2339 128.805C95.7539 128.985 95.1689 129.075 94.4789 129.075ZM99.6881 129V121.125H100.753V129H99.6881ZM100.228 119.385C100.008 119.385 99.8231 119.31 99.6731 119.16C99.5231 119.01 99.4481 118.83 99.4481 118.62C99.4481 118.41 99.5231 118.235 99.6731 118.095C99.8231 117.945 100.008 117.87 100.228 117.87C100.448 117.87 100.633 117.94 100.783 118.08C100.933 118.22 101.008 118.395 101.008 118.605C101.008 118.825 100.933 119.01 100.783 119.16C100.643 119.31 100.458 119.385 100.228 119.385ZM107.076 131.985C106.356 131.985 105.666 131.88 105.006 131.67C104.346 131.46 103.811 131.16 103.401 130.77L103.941 129.96C104.311 130.29 104.766 130.55 105.306 130.74C105.856 130.94 106.436 131.04 107.046 131.04C108.046 131.04 108.781 130.805 109.251 130.335C109.721 129.875 109.956 129.155 109.956 128.175V126.21L110.106 124.86L110.001 123.51V121.125H111.021V128.04C111.021 129.4 110.686 130.395 110.016 131.025C109.356 131.665 108.376 131.985 107.076 131.985ZM106.881 128.7C106.131 128.7 105.456 128.54 104.856 128.22C104.256 127.89 103.781 127.435 103.431 126.855C103.091 126.275 102.921 125.61 102.921 124.86C102.921 124.11 103.091 123.45 103.431 122.88C103.781 122.3 104.256 121.85 104.856 121.53C105.456 121.21 106.131 121.05 106.881 121.05C107.581 121.05 108.211 121.195 108.771 121.485C109.331 121.775 109.776 122.205 110.106 122.775C110.436 123.345 110.601 124.04 110.601 124.86C110.601 125.68 110.436 126.375 110.106 126.945C109.776 127.515 109.331 127.95 108.771 128.25C108.211 128.55 107.581 128.7 106.881 128.7ZM106.986 127.755C107.566 127.755 108.081 127.635 108.531 127.395C108.981 127.145 109.336 126.805 109.596 126.375C109.856 125.935 109.986 125.43 109.986 124.86C109.986 124.29 109.856 123.79 109.596 123.36C109.336 122.93 108.981 122.595 108.531 122.355C108.081 122.105 107.566 121.98 106.986 121.98C106.416 121.98 105.901 122.105 105.441 122.355C104.991 122.595 104.636 122.93 104.376 123.36C104.126 123.79 104.001 124.29 104.001 124.86C104.001 125.43 104.126 125.935 104.376 126.375C104.636 126.805 104.991 127.145 105.441 127.395C105.901 127.635 106.416 127.755 106.986 127.755ZM118.005 121.05C118.645 121.05 119.205 121.175 119.685 121.425C120.175 121.665 120.555 122.035 120.825 122.535C121.105 123.035 121.245 123.665 121.245 124.425V129H120.18V124.53C120.18 123.7 119.97 123.075 119.55 122.655C119.14 122.225 118.56 122.01 117.81 122.01C117.25 122.01 116.76 122.125 116.34 122.355C115.93 122.575 115.61 122.9 115.38 123.33C115.16 123.75 115.05 124.26 115.05 124.86V129H113.985V121.125H115.005V123.285L114.84 122.88C115.09 122.31 115.49 121.865 116.04 121.545C116.59 121.215 117.245 121.05 118.005 121.05ZM124.122 129V121.125H125.187V129H124.122ZM124.662 119.385C124.442 119.385 124.257 119.31 124.107 119.16C123.957 119.01 123.882 118.83 123.882 118.62C123.882 118.41 123.957 118.235 124.107 118.095C124.257 117.945 124.442 117.87 124.662 117.87C124.882 117.87 125.067 117.94 125.217 118.08C125.367 118.22 125.442 118.395 125.442 118.605C125.442 118.825 125.367 119.01 125.217 119.16C125.077 119.31 124.892 119.385 124.662 119.385ZM132.17 121.05C132.81 121.05 133.37 121.175 133.85 121.425C134.34 121.665 134.72 122.035 134.99 122.535C135.27 123.035 135.41 123.665 135.41 124.425V129H134.345V124.53C134.345 123.7 134.135 123.075 133.715 122.655C133.305 122.225 132.725 122.01 131.975 122.01C131.415 122.01 130.925 122.125 130.505 122.355C130.095 122.575 129.775 122.9 129.545 123.33C129.325 123.75 129.215 124.26 129.215 124.86V129H128.15V121.125H129.17V123.285L129.005 122.88C129.255 122.31 129.655 121.865 130.205 121.545C130.755 121.215 131.41 121.05 132.17 121.05ZM141.647 131.985C140.927 131.985 140.237 131.88 139.577 131.67C138.917 131.46 138.382 131.16 137.972 130.77L138.512 129.96C138.882 130.29 139.337 130.55 139.877 130.74C140.427 130.94 141.007 131.04 141.617 131.04C142.617 131.04 143.352 130.805 143.822 130.335C144.292 129.875 144.527 129.155 144.527 128.175V126.21L144.677 124.86L144.572 123.51V121.125H145.592V128.04C145.592 129.4 145.257 130.395 144.587 131.025C143.927 131.665 142.947 131.985 141.647 131.985ZM141.452 128.7C140.702 128.7 140.027 128.54 139.427 128.22C138.827 127.89 138.352 127.435 138.002 126.855C137.662 126.275 137.492 125.61 137.492 124.86C137.492 124.11 137.662 123.45 138.002 122.88C138.352 122.3 138.827 121.85 139.427 121.53C140.027 121.21 140.702 121.05 141.452 121.05C142.152 121.05 142.782 121.195 143.342 121.485C143.902 121.775 144.347 122.205 144.677 122.775C145.007 123.345 145.172 124.04 145.172 124.86C145.172 125.68 145.007 126.375 144.677 126.945C144.347 127.515 143.902 127.95 143.342 128.25C142.782 128.55 142.152 128.7 141.452 128.7ZM141.557 127.755C142.137 127.755 142.652 127.635 143.102 127.395C143.552 127.145 143.907 126.805 144.167 126.375C144.427 125.935 144.557 125.43 144.557 124.86C144.557 124.29 144.427 123.79 144.167 123.36C143.907 122.93 143.552 122.595 143.102 122.355C142.652 122.105 142.137 121.98 141.557 121.98C140.987 121.98 140.472 122.105 140.012 122.355C139.562 122.595 139.207 122.93 138.947 123.36C138.697 123.79 138.572 124.29 138.572 124.86C138.572 125.43 138.697 125.935 138.947 126.375C139.207 126.805 139.562 127.145 140.012 127.395C140.472 127.635 140.987 127.755 141.557 127.755ZM155.736 129.075C155.066 129.075 154.481 128.95 153.981 128.7C153.481 128.45 153.091 128.075 152.811 127.575C152.541 127.075 152.406 126.45 152.406 125.7V121.125H153.471V125.58C153.471 126.42 153.676 127.055 154.086 127.485C154.506 127.905 155.091 128.115 155.841 128.115C156.391 128.115 156.866 128.005 157.266 127.785C157.676 127.555 157.986 127.225 158.196 126.795C158.416 126.365 158.526 125.85 158.526 125.25V121.125H159.591V129H158.571V126.84L158.736 127.23C158.486 127.81 158.096 128.265 157.566 128.595C157.046 128.915 156.436 129.075 155.736 129.075ZM164.674 129.075C164.024 129.075 163.409 128.985 162.829 128.805C162.249 128.615 161.794 128.38 161.464 128.1L161.944 127.26C162.264 127.5 162.674 127.71 163.174 127.89C163.674 128.06 164.199 128.145 164.749 128.145C165.499 128.145 166.039 128.03 166.369 127.8C166.699 127.56 166.864 127.245 166.864 126.855C166.864 126.565 166.769 126.34 166.579 126.18C166.399 126.01 166.159 125.885 165.859 125.805C165.559 125.715 165.224 125.64 164.854 125.58C164.484 125.52 164.114 125.45 163.744 125.37C163.384 125.29 163.054 125.175 162.754 125.025C162.454 124.865 162.209 124.65 162.019 124.38C161.839 124.11 161.749 123.75 161.749 123.3C161.749 122.87 161.869 122.485 162.109 122.145C162.349 121.805 162.699 121.54 163.159 121.35C163.629 121.15 164.199 121.05 164.869 121.05C165.379 121.05 165.889 121.12 166.399 121.26C166.909 121.39 167.329 121.565 167.659 121.785L167.194 122.64C166.844 122.4 166.469 122.23 166.069 122.13C165.669 122.02 165.269 121.965 164.869 121.965C164.159 121.965 163.634 122.09 163.294 122.34C162.964 122.58 162.799 122.89 162.799 123.27C162.799 123.57 162.889 123.805 163.069 123.975C163.259 124.145 163.504 124.28 163.804 124.38C164.114 124.47 164.449 124.545 164.809 124.605C165.179 124.665 165.544 124.74 165.904 124.83C166.274 124.91 166.609 125.025 166.909 125.175C167.219 125.315 167.464 125.52 167.644 125.79C167.834 126.05 167.929 126.395 167.929 126.825C167.929 127.285 167.799 127.685 167.539 128.025C167.289 128.355 166.919 128.615 166.429 128.805C165.949 128.985 165.364 129.075 164.674 129.075ZM169.883 129V121.125H170.948V129H169.883ZM170.423 119.385C170.203 119.385 170.018 119.31 169.868 119.16C169.718 119.01 169.643 118.83 169.643 118.62C169.643 118.41 169.718 118.235 169.868 118.095C170.018 117.945 170.203 117.87 170.423 117.87C170.643 117.87 170.828 117.94 170.978 118.08C171.128 118.22 171.203 118.395 171.203 118.605C171.203 118.825 171.128 119.01 170.978 119.16C170.838 119.31 170.653 119.385 170.423 119.385ZM177.932 121.05C178.572 121.05 179.132 121.175 179.612 121.425C180.102 121.665 180.482 122.035 180.752 122.535C181.032 123.035 181.172 123.665 181.172 124.425V129H180.107V124.53C180.107 123.7 179.897 123.075 179.477 122.655C179.067 122.225 178.487 122.01 177.737 122.01C177.177 122.01 176.687 122.125 176.267 122.355C175.857 122.575 175.537 122.9 175.307 123.33C175.087 123.75 174.977 124.26 174.977 124.86V129H173.912V121.125H174.932V123.285L174.767 122.88C175.017 122.31 175.417 121.865 175.967 121.545C176.517 121.215 177.172 121.05 177.932 121.05ZM187.408 131.985C186.688 131.985 185.998 131.88 185.338 131.67C184.678 131.46 184.143 131.16 183.733 130.77L184.273 129.96C184.643 130.29 185.098 130.55 185.638 130.74C186.188 130.94 186.768 131.04 187.378 131.04C188.378 131.04 189.113 130.805 189.583 130.335C190.053 129.875 190.288 129.155 190.288 128.175V126.21L190.438 124.86L190.333 123.51V121.125H191.353V128.04C191.353 129.4 191.018 130.395 190.348 131.025C189.688 131.665 188.708 131.985 187.408 131.985ZM187.213 128.7C186.463 128.7 185.788 128.54 185.188 128.22C184.588 127.89 184.113 127.435 183.763 126.855C183.423 126.275 183.253 125.61 183.253 124.86C183.253 124.11 183.423 123.45 183.763 122.88C184.113 122.3 184.588 121.85 185.188 121.53C185.788 121.21 186.463 121.05 187.213 121.05C187.913 121.05 188.543 121.195 189.103 121.485C189.663 121.775 190.108 122.205 190.438 122.775C190.768 123.345 190.933 124.04 190.933 124.86C190.933 125.68 190.768 126.375 190.438 126.945C190.108 127.515 189.663 127.95 189.103 128.25C188.543 128.55 187.913 128.7 187.213 128.7ZM187.318 127.755C187.898 127.755 188.413 127.635 188.863 127.395C189.313 127.145 189.668 126.805 189.928 126.375C190.188 125.935 190.318 125.43 190.318 124.86C190.318 124.29 190.188 123.79 189.928 123.36C189.668 122.93 189.313 122.595 188.863 122.355C188.413 122.105 187.898 121.98 187.318 121.98C186.748 121.98 186.233 122.105 185.773 122.355C185.323 122.595 184.968 122.93 184.708 123.36C184.458 123.79 184.333 124.29 184.333 124.86C184.333 125.43 184.458 125.935 184.708 126.375C184.968 126.805 185.323 127.145 185.773 127.395C186.233 127.635 186.748 127.755 187.318 127.755ZM199.458 123.585H205.008V124.545H199.458V123.585ZM199.578 129H198.468V118.5H205.668V119.46H199.578V129ZM207.735 129V121.125H208.8V129H207.735ZM208.275 119.385C208.055 119.385 207.87 119.31 207.72 119.16C207.57 119.01 207.495 118.83 207.495 118.62C207.495 118.41 207.57 118.235 207.72 118.095C207.87 117.945 208.055 117.87 208.275 117.87C208.495 117.87 208.68 117.94 208.83 118.08C208.98 118.22 209.055 118.395 209.055 118.605C209.055 118.825 208.98 119.01 208.83 119.16C208.69 119.31 208.505 119.385 208.275 119.385ZM215.123 131.985C214.403 131.985 213.713 131.88 213.053 131.67C212.393 131.46 211.858 131.16 211.448 130.77L211.988 129.96C212.358 130.29 212.813 130.55 213.353 130.74C213.903 130.94 214.483 131.04 215.093 131.04C216.093 131.04 216.828 130.805 217.298 130.335C217.768 129.875 218.003 129.155 218.003 128.175V126.21L218.153 124.86L218.048 123.51V121.125H219.068V128.04C219.068 129.4 218.733 130.395 218.063 131.025C217.403 131.665 216.423 131.985 215.123 131.985ZM214.928 128.7C214.178 128.7 213.503 128.54 212.903 128.22C212.303 127.89 211.828 127.435 211.478 126.855C211.138 126.275 210.968 125.61 210.968 124.86C210.968 124.11 211.138 123.45 211.478 122.88C211.828 122.3 212.303 121.85 212.903 121.53C213.503 121.21 214.178 121.05 214.928 121.05C215.628 121.05 216.258 121.195 216.818 121.485C217.378 121.775 217.823 122.205 218.153 122.775C218.483 123.345 218.648 124.04 218.648 124.86C218.648 125.68 218.483 126.375 218.153 126.945C217.823 127.515 217.378 127.95 216.818 128.25C216.258 128.55 215.628 128.7 214.928 128.7ZM215.033 127.755C215.613 127.755 216.128 127.635 216.578 127.395C217.028 127.145 217.383 126.805 217.643 126.375C217.903 125.935 218.033 125.43 218.033 124.86C218.033 124.29 217.903 123.79 217.643 123.36C217.383 122.93 217.028 122.595 216.578 122.355C216.128 122.105 215.613 121.98 215.033 121.98C214.463 121.98 213.948 122.105 213.488 122.355C213.038 122.595 212.683 122.93 212.423 123.36C212.173 123.79 212.048 124.29 212.048 124.86C212.048 125.43 212.173 125.935 212.423 126.375C212.683 126.805 213.038 127.145 213.488 127.395C213.948 127.635 214.463 127.755 215.033 127.755ZM231.872 121.05C232.512 121.05 233.067 121.175 233.537 121.425C234.017 121.665 234.387 122.035 234.647 122.535C234.917 123.035 235.052 123.665 235.052 124.425V129H233.987V124.53C233.987 123.7 233.787 123.075 233.387 122.655C232.997 122.225 232.442 122.01 231.722 122.01C231.182 122.01 230.712 122.125 230.312 122.355C229.922 122.575 229.617 122.9 229.397 123.33C229.187 123.75 229.082 124.26 229.082 124.86V129H228.017V124.53C228.017 123.7 227.817 123.075 227.417 122.655C227.017 122.225 226.457 122.01 225.737 122.01C225.207 122.01 224.742 122.125 224.342 122.355C223.942 122.575 223.632 122.9 223.412 123.33C223.202 123.75 223.097 124.26 223.097 124.86V129H222.032V121.125H223.052V123.255L222.887 122.88C223.127 122.31 223.512 121.865 224.042 121.545C224.582 121.215 225.217 121.05 225.947 121.05C226.717 121.05 227.372 121.245 227.912 121.635C228.452 122.015 228.802 122.59 228.962 123.36L228.542 123.195C228.772 122.555 229.177 122.04 229.757 121.65C230.347 121.25 231.052 121.05 231.872 121.05ZM242.875 129V127.26L242.83 126.975V124.065C242.83 123.395 242.64 122.88 242.26 122.52C241.89 122.16 241.335 121.98 240.595 121.98C240.085 121.98 239.6 122.065 239.14 122.235C238.68 122.405 238.29 122.63 237.97 122.91L237.49 122.115C237.89 121.775 238.37 121.515 238.93 121.335C239.49 121.145 240.08 121.05 240.7 121.05C241.72 121.05 242.505 121.305 243.055 121.815C243.615 122.315 243.895 123.08 243.895 124.11V129H242.875ZM240.16 129.075C239.57 129.075 239.055 128.98 238.615 128.79C238.185 128.59 237.855 128.32 237.625 127.98C237.395 127.63 237.28 127.23 237.28 126.78C237.28 126.37 237.375 126 237.565 125.67C237.765 125.33 238.085 125.06 238.525 124.86C238.975 124.65 239.575 124.545 240.325 124.545H243.04V125.34H240.355C239.595 125.34 239.065 125.475 238.765 125.745C238.475 126.015 238.33 126.35 238.33 126.75C238.33 127.2 238.505 127.56 238.855 127.83C239.205 128.1 239.695 128.235 240.325 128.235C240.925 128.235 241.44 128.1 241.87 127.83C242.31 127.55 242.63 127.15 242.83 126.63L243.07 127.365C242.87 127.885 242.52 128.3 242.02 128.61C241.53 128.92 240.91 129.075 240.16 129.075ZM11.2581 144.045C11.0581 144.045 10.8681 143.995 10.6881 143.895C10.5181 143.795 10.3831 143.66 10.2831 143.49C10.1831 143.32 10.1331 143.12 10.1331 142.89C10.1331 142.68 10.1831 142.49 10.2831 142.32C10.3831 142.15 10.5181 142.015 10.6881 141.915C10.8681 141.815 11.0581 141.765 11.2581 141.765C11.4581 141.765 11.6431 141.815 11.8131 141.915C11.9831 142.015 12.1181 142.15 12.2181 142.32C12.3281 142.49 12.3831 142.68 12.3831 142.89C12.3831 143.12 12.3281 143.32 12.2181 143.49C12.1181 143.66 11.9831 143.795 11.8131 143.895C11.6431 143.995 11.4581 144.045 11.2581 144.045ZM22.53 147L27.33 136.5H28.425L33.225 147H32.055L27.645 137.145H28.095L23.685 147H22.53ZM24.42 144.195L24.75 143.295H30.855L31.185 144.195H24.42ZM38.757 139.05C39.397 139.05 39.957 139.175 40.437 139.425C40.927 139.665 41.307 140.035 41.577 140.535C41.857 141.035 41.997 141.665 41.997 142.425V147H40.932V142.53C40.932 141.7 40.722 141.075 40.302 140.655C39.892 140.225 39.312 140.01 38.562 140.01C38.002 140.01 37.512 140.125 37.092 140.355C36.682 140.575 36.362 140.9 36.132 141.33C35.912 141.75 35.802 142.26 35.802 142.86V147H34.737V139.125H35.757V141.285L35.592 140.88C35.842 140.31 36.242 139.865 36.792 139.545C37.342 139.215 37.997 139.05 38.757 139.05ZM48.0087 147.075C47.2587 147.075 46.5837 146.905 45.9837 146.565C45.3937 146.225 44.9287 145.755 44.5887 145.155C44.2487 144.545 44.0787 143.845 44.0787 143.055C44.0787 142.255 44.2487 141.555 44.5887 140.955C44.9287 140.355 45.3937 139.89 45.9837 139.56C46.5837 139.22 47.2587 139.05 48.0087 139.05C48.6987 139.05 49.3137 139.205 49.8537 139.515C50.4037 139.825 50.8387 140.28 51.1587 140.88C51.4887 141.47 51.6537 142.195 51.6537 143.055C51.6537 143.905 51.4937 144.63 51.1737 145.23C50.8537 145.83 50.4187 146.29 49.8687 146.61C49.3287 146.92 48.7087 147.075 48.0087 147.075ZM48.0837 146.13C48.6437 146.13 49.1437 146.005 49.5837 145.755C50.0337 145.495 50.3837 145.135 50.6337 144.675C50.8937 144.205 51.0237 143.665 51.0237 143.055C51.0237 142.435 50.8937 141.895 50.6337 141.435C50.3837 140.975 50.0337 140.62 49.5837 140.37C49.1437 140.11 48.6437 139.98 48.0837 139.98C47.5337 139.98 47.0387 140.11 46.5987 140.37C46.1587 140.62 45.8087 140.975 45.5487 141.435C45.2887 141.895 45.1587 142.435 45.1587 143.055C45.1587 143.665 45.2887 144.205 45.5487 144.675C45.8087 145.135 46.1587 145.495 46.5987 145.755C47.0387 146.005 47.5337 146.13 48.0837 146.13ZM51.0537 147V144.63L51.1587 143.04L51.0087 141.45V135.87H52.0737V147H51.0537ZM55.0397 147V139.125H56.0597V141.27L55.9547 140.895C56.1747 140.295 56.5447 139.84 57.0647 139.53C57.5847 139.21 58.2297 139.05 58.9997 139.05V140.085C58.9597 140.085 58.9197 140.085 58.8797 140.085C58.8397 140.075 58.7997 140.07 58.7597 140.07C57.9297 140.07 57.2797 140.325 56.8097 140.835C56.3397 141.335 56.1047 142.05 56.1047 142.98V147H55.0397ZM64.0798 147.075C63.3198 147.075 62.6348 146.905 62.0248 146.565C61.4248 146.215 60.9498 145.74 60.5998 145.14C60.2498 144.53 60.0748 143.835 60.0748 143.055C60.0748 142.265 60.2498 141.57 60.5998 140.97C60.9498 140.37 61.4248 139.9 62.0248 139.56C62.6248 139.22 63.3098 139.05 64.0798 139.05C64.8598 139.05 65.5498 139.22 66.1498 139.56C66.7598 139.9 67.2348 140.37 67.5748 140.97C67.9248 141.57 68.0998 142.265 68.0998 143.055C68.0998 143.835 67.9248 144.53 67.5748 145.14C67.2348 145.74 66.7598 146.215 66.1498 146.565C65.5398 146.905 64.8498 147.075 64.0798 147.075ZM64.0798 146.13C64.6498 146.13 65.1548 146.005 65.5948 145.755C66.0348 145.495 66.3798 145.135 66.6298 144.675C66.8898 144.205 67.0198 143.665 67.0198 143.055C67.0198 142.435 66.8898 141.895 66.6298 141.435C66.3798 140.975 66.0348 140.62 65.5948 140.37C65.1548 140.11 64.6548 139.98 64.0948 139.98C63.5348 139.98 63.0348 140.11 62.5948 140.37C62.1548 140.62 61.8048 140.975 61.5448 141.435C61.2848 141.895 61.1548 142.435 61.1548 143.055C61.1548 143.665 61.2848 144.205 61.5448 144.675C61.8048 145.135 62.1548 145.495 62.5948 145.755C63.0348 146.005 63.5298 146.13 64.0798 146.13ZM70.2741 147V139.125H71.3391V147H70.2741ZM70.8141 137.385C70.5941 137.385 70.4091 137.31 70.2591 137.16C70.1091 137.01 70.0341 136.83 70.0341 136.62C70.0341 136.41 70.1091 136.235 70.2591 136.095C70.4091 135.945 70.5941 135.87 70.8141 135.87C71.0341 135.87 71.2191 135.94 71.3691 136.08C71.5191 136.22 71.5941 136.395 71.5941 136.605C71.5941 136.825 71.5191 137.01 71.3691 137.16C71.2291 137.31 71.0441 137.385 70.8141 137.385ZM77.4374 147.075C76.6874 147.075 76.0124 146.905 75.4124 146.565C74.8224 146.225 74.3574 145.755 74.0174 145.155C73.6774 144.545 73.5074 143.845 73.5074 143.055C73.5074 142.255 73.6774 141.555 74.0174 140.955C74.3574 140.355 74.8224 139.89 75.4124 139.56C76.0124 139.22 76.6874 139.05 77.4374 139.05C78.1274 139.05 78.7424 139.205 79.2824 139.515C79.8324 139.825 80.2674 140.28 80.5874 140.88C80.9174 141.47 81.0824 142.195 81.0824 143.055C81.0824 143.905 80.9224 144.63 80.6024 145.23C80.2824 145.83 79.8474 146.29 79.2974 146.61C78.7574 146.92 78.1374 147.075 77.4374 147.075ZM77.5124 146.13C78.0724 146.13 78.5724 146.005 79.0124 145.755C79.4624 145.495 79.8124 145.135 80.0624 144.675C80.3224 144.205 80.4524 143.665 80.4524 143.055C80.4524 142.435 80.3224 141.895 80.0624 141.435C79.8124 140.975 79.4624 140.62 79.0124 140.37C78.5724 140.11 78.0724 139.98 77.5124 139.98C76.9624 139.98 76.4674 140.11 76.0274 140.37C75.5874 140.62 75.2374 140.975 74.9774 141.435C74.7174 141.895 74.5874 142.435 74.5874 143.055C74.5874 143.665 74.7174 144.205 74.9774 144.675C75.2374 145.135 75.5874 145.495 76.0274 145.755C76.4674 146.005 76.9624 146.13 77.5124 146.13ZM80.4824 147V144.63L80.5874 143.04L80.4374 141.45V135.87H81.5024V147H80.4824ZM88.6192 147V136.5H92.8942C94.0142 136.5 94.9942 136.725 95.8342 137.175C96.6842 137.615 97.3442 138.23 97.8142 139.02C98.2842 139.81 98.5192 140.72 98.5192 141.75C98.5192 142.78 98.2842 143.69 97.8142 144.48C97.3442 145.27 96.6842 145.89 95.8342 146.34C94.9942 146.78 94.0142 147 92.8942 147H88.6192ZM89.7292 146.04H92.8342C93.7642 146.04 94.5692 145.86 95.2492 145.5C95.9392 145.13 96.4742 144.625 96.8542 143.985C97.2342 143.335 97.4242 142.59 97.4242 141.75C97.4242 140.9 97.2342 140.155 96.8542 139.515C96.4742 138.875 95.9392 138.375 95.2492 138.015C94.5692 137.645 93.7642 137.46 92.8342 137.46H89.7292V146.04ZM104.132 147.075C103.312 147.075 102.592 146.905 101.972 146.565C101.352 146.215 100.867 145.74 100.517 145.14C100.167 144.53 99.9918 143.835 99.9918 143.055C99.9918 142.275 100.157 141.585 100.487 140.985C100.827 140.385 101.287 139.915 101.867 139.575C102.457 139.225 103.117 139.05 103.847 139.05C104.587 139.05 105.242 139.22 105.812 139.56C106.392 139.89 106.847 140.36 107.177 140.97C107.507 141.57 107.672 142.265 107.672 143.055C107.672 143.105 107.667 143.16 107.657 143.22C107.657 143.27 107.657 143.325 107.657 143.385H100.802V142.59H107.087L106.667 142.905C106.667 142.335 106.542 141.83 106.292 141.39C106.052 140.94 105.722 140.59 105.302 140.34C104.882 140.09 104.397 139.965 103.847 139.965C103.307 139.965 102.822 140.09 102.392 140.34C101.962 140.59 101.627 140.94 101.387 141.39C101.147 141.84 101.027 142.355 101.027 142.935V143.1C101.027 143.7 101.157 144.23 101.417 144.69C101.687 145.14 102.057 145.495 102.527 145.755C103.007 146.005 103.552 146.13 104.162 146.13C104.642 146.13 105.087 146.045 105.497 145.875C105.917 145.705 106.277 145.445 106.577 145.095L107.177 145.785C106.827 146.205 106.387 146.525 105.857 146.745C105.337 146.965 104.762 147.075 104.132 147.075ZM111.718 147L108.223 139.125H109.333L112.543 146.43H112.018L115.273 139.125H116.323L112.813 147H111.718ZM120.948 147.075C120.128 147.075 119.408 146.905 118.788 146.565C118.168 146.215 117.683 145.74 117.333 145.14C116.983 144.53 116.808 143.835 116.808 143.055C116.808 142.275 116.973 141.585 117.303 140.985C117.643 140.385 118.103 139.915 118.683 139.575C119.273 139.225 119.933 139.05 120.663 139.05C121.403 139.05 122.058 139.22 122.628 139.56C123.208 139.89 123.663 140.36 123.993 140.97C124.323 141.57 124.488 142.265 124.488 143.055C124.488 143.105 124.483 143.16 124.473 143.22C124.473 143.27 124.473 143.325 124.473 143.385H117.618V142.59H123.903L123.483 142.905C123.483 142.335 123.358 141.83 123.108 141.39C122.868 140.94 122.538 140.59 122.118 140.34C121.698 140.09 121.213 139.965 120.663 139.965C120.123 139.965 119.638 140.09 119.208 140.34C118.778 140.59 118.443 140.94 118.203 141.39C117.963 141.84 117.843 142.355 117.843 142.935V143.1C117.843 143.7 117.973 144.23 118.233 144.69C118.503 145.14 118.873 145.495 119.343 145.755C119.823 146.005 120.368 146.13 120.978 146.13C121.458 146.13 121.903 146.045 122.313 145.875C122.733 145.705 123.093 145.445 123.393 145.095L123.993 145.785C123.643 146.205 123.203 146.525 122.673 146.745C122.153 146.965 121.578 147.075 120.948 147.075ZM126.656 147V135.87H127.721V147H126.656ZM133.894 147.075C133.134 147.075 132.449 146.905 131.839 146.565C131.239 146.215 130.764 145.74 130.414 145.14C130.064 144.53 129.889 143.835 129.889 143.055C129.889 142.265 130.064 141.57 130.414 140.97C130.764 140.37 131.239 139.9 131.839 139.56C132.439 139.22 133.124 139.05 133.894 139.05C134.674 139.05 135.364 139.22 135.964 139.56C136.574 139.9 137.049 140.37 137.389 140.97C137.739 141.57 137.914 142.265 137.914 143.055C137.914 143.835 137.739 144.53 137.389 145.14C137.049 145.74 136.574 146.215 135.964 146.565C135.354 146.905 134.664 147.075 133.894 147.075ZM133.894 146.13C134.464 146.13 134.969 146.005 135.409 145.755C135.849 145.495 136.194 145.135 136.444 144.675C136.704 144.205 136.834 143.665 136.834 143.055C136.834 142.435 136.704 141.895 136.444 141.435C136.194 140.975 135.849 140.62 135.409 140.37C134.969 140.11 134.469 139.98 133.909 139.98C133.349 139.98 132.849 140.11 132.409 140.37C131.969 140.62 131.619 140.975 131.359 141.435C131.099 141.895 130.969 142.435 130.969 143.055C130.969 143.665 131.099 144.205 131.359 144.675C131.619 145.135 131.969 145.495 132.409 145.755C132.849 146.005 133.344 146.13 133.894 146.13ZM144.154 147.075C143.474 147.075 142.859 146.92 142.309 146.61C141.759 146.29 141.319 145.835 140.989 145.245C140.669 144.645 140.509 143.915 140.509 143.055C140.509 142.195 140.669 141.47 140.989 140.88C141.309 140.28 141.744 139.825 142.294 139.515C142.844 139.205 143.464 139.05 144.154 139.05C144.904 139.05 145.574 139.22 146.164 139.56C146.764 139.89 147.234 140.36 147.574 140.97C147.914 141.57 148.084 142.265 148.084 143.055C148.084 143.855 147.914 144.555 147.574 145.155C147.234 145.755 146.764 146.225 146.164 146.565C145.574 146.905 144.904 147.075 144.154 147.075ZM140.089 149.91V139.125H141.109V141.495L141.004 143.07L141.154 144.66V149.91H140.089ZM144.079 146.13C144.639 146.13 145.139 146.005 145.579 145.755C146.019 145.495 146.369 145.135 146.629 144.675C146.889 144.205 147.019 143.665 147.019 143.055C147.019 142.445 146.889 141.91 146.629 141.45C146.369 140.99 146.019 140.63 145.579 140.37C145.139 140.11 144.639 139.98 144.079 139.98C143.519 139.98 143.014 140.11 142.564 140.37C142.124 140.63 141.774 140.99 141.514 141.45C141.264 141.91 141.139 142.445 141.139 143.055C141.139 143.665 141.264 144.205 141.514 144.675C141.774 145.135 142.124 145.495 142.564 145.755C143.014 146.005 143.519 146.13 144.079 146.13ZM160.095 139.05C160.735 139.05 161.29 139.175 161.76 139.425C162.24 139.665 162.61 140.035 162.87 140.535C163.14 141.035 163.275 141.665 163.275 142.425V147H162.21V142.53C162.21 141.7 162.01 141.075 161.61 140.655C161.22 140.225 160.665 140.01 159.945 140.01C159.405 140.01 158.935 140.125 158.535 140.355C158.145 140.575 157.84 140.9 157.62 141.33C157.41 141.75 157.305 142.26 157.305 142.86V147H156.24V142.53C156.24 141.7 156.04 141.075 155.64 140.655C155.24 140.225 154.68 140.01 153.96 140.01C153.43 140.01 152.965 140.125 152.565 140.355C152.165 140.575 151.855 140.9 151.635 141.33C151.425 141.75 151.32 142.26 151.32 142.86V147H150.255V139.125H151.275V141.255L151.11 140.88C151.35 140.31 151.735 139.865 152.265 139.545C152.805 139.215 153.44 139.05 154.17 139.05C154.94 139.05 155.595 139.245 156.135 139.635C156.675 140.015 157.025 140.59 157.185 141.36L156.765 141.195C156.995 140.555 157.4 140.04 157.98 139.65C158.57 139.25 159.275 139.05 160.095 139.05ZM169.508 147.075C168.688 147.075 167.968 146.905 167.348 146.565C166.728 146.215 166.243 145.74 165.893 145.14C165.543 144.53 165.368 143.835 165.368 143.055C165.368 142.275 165.533 141.585 165.863 140.985C166.203 140.385 166.663 139.915 167.243 139.575C167.833 139.225 168.493 139.05 169.223 139.05C169.963 139.05 170.618 139.22 171.188 139.56C171.768 139.89 172.223 140.36 172.553 140.97C172.883 141.57 173.048 142.265 173.048 143.055C173.048 143.105 173.043 143.16 173.033 143.22C173.033 143.27 173.033 143.325 173.033 143.385H166.178V142.59H172.463L172.043 142.905C172.043 142.335 171.918 141.83 171.668 141.39C171.428 140.94 171.098 140.59 170.678 140.34C170.258 140.09 169.773 139.965 169.223 139.965C168.683 139.965 168.198 140.09 167.768 140.34C167.338 140.59 167.003 140.94 166.763 141.39C166.523 141.84 166.403 142.355 166.403 142.935V143.1C166.403 143.7 166.533 144.23 166.793 144.69C167.063 145.14 167.433 145.495 167.903 145.755C168.383 146.005 168.928 146.13 169.538 146.13C170.018 146.13 170.463 146.045 170.873 145.875C171.293 145.705 171.653 145.445 171.953 145.095L172.553 145.785C172.203 146.205 171.763 146.525 171.233 146.745C170.713 146.965 170.138 147.075 169.508 147.075ZM179.235 139.05C179.875 139.05 180.435 139.175 180.915 139.425C181.405 139.665 181.785 140.035 182.055 140.535C182.335 141.035 182.475 141.665 182.475 142.425V147H181.41V142.53C181.41 141.7 181.2 141.075 180.78 140.655C180.37 140.225 179.79 140.01 179.04 140.01C178.48 140.01 177.99 140.125 177.57 140.355C177.16 140.575 176.84 140.9 176.61 141.33C176.39 141.75 176.28 142.26 176.28 142.86V147H175.215V139.125H176.235V141.285L176.07 140.88C176.32 140.31 176.72 139.865 177.27 139.545C177.82 139.215 178.475 139.05 179.235 139.05ZM187.842 147.075C187.102 147.075 186.532 146.875 186.132 146.475C185.732 146.075 185.532 145.51 185.532 144.78V137.385H186.597V144.72C186.597 145.18 186.712 145.535 186.942 145.785C187.182 146.035 187.522 146.16 187.962 146.16C188.432 146.16 188.822 146.025 189.132 145.755L189.507 146.52C189.297 146.71 189.042 146.85 188.742 146.94C188.452 147.03 188.152 147.075 187.842 147.075ZM184.122 140.01V139.125H188.997V140.01H184.122Z" fill="white" fill-opacity="0.8"/>
<path d="M104.28 39.24C102.2 39.24 100.2 38.9067 98.28 38.24C96.3867 37.5467 94.92 36.6667 93.88 35.6L95.04 33.32C96.0267 34.28 97.3467 35.0933 99 35.76C100.68 36.4 102.44 36.72 104.28 36.72C106.04 36.72 107.467 36.5067 108.56 36.08C109.68 35.6267 110.493 35.0267 111 34.28C111.533 33.5333 111.8 32.7067 111.8 31.8C111.8 30.7067 111.48 29.8267 110.84 29.16C110.227 28.4933 109.413 27.9733 108.4 27.6C107.387 27.2 106.267 26.8533 105.04 26.56C103.813 26.2667 102.587 25.96 101.36 25.64C100.133 25.2933 99 24.84 97.96 24.28C96.9467 23.72 96.12 22.9867 95.48 22.08C94.8667 21.1467 94.56 19.9333 94.56 18.44C94.56 17.0533 94.92 15.7867 95.64 14.64C96.3867 13.4667 97.52 12.5333 99.04 11.84C100.56 11.12 102.507 10.76 104.88 10.76C106.453 10.76 108.013 10.9867 109.56 11.44C111.107 11.8667 112.44 12.4667 113.56 13.24L112.56 15.6C111.36 14.8 110.08 14.2133 108.72 13.84C107.387 13.4667 106.093 13.28 104.84 13.28C103.16 13.28 101.773 13.5067 100.68 13.96C99.5867 14.4133 98.7733 15.0267 98.24 15.8C97.7333 16.5467 97.48 17.4 97.48 18.36C97.48 19.4533 97.7867 20.3333 98.4 21C99.04 21.6667 99.8667 22.1867 100.88 22.56C101.92 22.9333 103.053 23.2667 104.28 23.56C105.507 23.8533 106.72 24.1733 107.92 24.52C109.147 24.8667 110.267 25.32 111.28 25.88C112.32 26.4133 113.147 27.1333 113.76 28.04C114.4 28.9467 114.72 30.1333 114.72 31.6C114.72 32.96 114.347 34.2267 113.6 35.4C112.853 36.5467 111.707 37.48 110.16 38.2C108.64 38.8933 106.68 39.24 104.28 39.24ZM122.809 33.56L122.889 29.92L135.969 18H139.449L130.209 26.84L128.609 28.2L122.809 33.56ZM120.569 39V9.32H123.409V39H120.569ZM136.849 39L128.089 28.08L129.929 25.88L140.329 39H136.849ZM144.593 39V18H147.433V39H144.593ZM146.033 13.36C145.446 13.36 144.953 13.16 144.553 12.76C144.153 12.36 143.953 11.88 143.953 11.32C143.953 10.76 144.153 10.2933 144.553 9.92C144.953 9.52 145.446 9.32 146.033 9.32C146.619 9.32 147.113 9.50666 147.513 9.88C147.913 10.2533 148.113 10.72 148.113 11.28C148.113 11.8667 147.913 12.36 147.513 12.76C147.139 13.16 146.646 13.36 146.033 13.36ZM155.335 39V9.32H158.175V39H155.335ZM166.077 39V9.32H168.917V39H166.077ZM182.459 39.2C180.726 39.2 179.086 38.96 177.539 38.48C175.993 37.9733 174.779 37.3467 173.899 36.6L175.179 34.36C176.033 35 177.126 35.56 178.459 36.04C179.793 36.4933 181.193 36.72 182.659 36.72C184.659 36.72 186.099 36.4133 186.979 35.8C187.859 35.16 188.299 34.32 188.299 33.28C188.299 32.5067 188.046 31.9067 187.539 31.48C187.059 31.0267 186.419 30.6933 185.619 30.48C184.819 30.24 183.926 30.04 182.939 29.88C181.953 29.72 180.966 29.5333 179.979 29.32C179.019 29.1067 178.139 28.8 177.339 28.4C176.539 27.9733 175.886 27.4 175.379 26.68C174.899 25.96 174.659 25 174.659 23.8C174.659 22.6533 174.979 21.6267 175.619 20.72C176.259 19.8133 177.193 19.1067 178.419 18.6C179.673 18.0667 181.193 17.8 182.979 17.8C184.339 17.8 185.699 17.9867 187.059 18.36C188.419 18.7067 189.539 19.1733 190.419 19.76L189.179 22.04C188.246 21.4 187.246 20.9467 186.179 20.68C185.113 20.3867 184.046 20.24 182.979 20.24C181.086 20.24 179.686 20.5733 178.779 21.24C177.899 21.88 177.459 22.7067 177.459 23.72C177.459 24.52 177.699 25.1467 178.179 25.6C178.686 26.0533 179.339 26.4133 180.139 26.68C180.966 26.92 181.859 27.12 182.819 27.28C183.806 27.44 184.779 27.64 185.739 27.88C186.726 28.0933 187.619 28.4 188.419 28.8C189.246 29.1733 189.899 29.72 190.379 30.44C190.886 31.1333 191.139 32.0533 191.139 33.2C191.139 34.4267 190.793 35.4933 190.099 36.4C189.433 37.28 188.446 37.9733 187.139 38.48C185.859 38.96 184.299 39.2 182.459 39.2Z" fill="white"/>
<path d="M37.1897 12.7323H68.1325C70.2685 12.7323 72.0003 11.0005 72.0003 8.86442C72.0003 6.72834 70.2685 4.99658 68.1325 4.99658H37.1897C35.0537 4.99658 33.3219 6.72834 33.3219 8.86442C33.3219 11.0005 35.0534 12.7323 37.1897 12.7323Z" fill="white"/>
<path d="M68.1325 23.0464H37.1897C35.0537 23.0464 33.3219 24.7781 33.3219 26.9142C33.3219 29.0503 35.0537 30.7821 37.1897 30.7821H68.1325C70.2685 30.7821 72.0003 29.0503 72.0003 26.9142C72.0003 24.7781 70.2685 23.0464 68.1325 23.0464Z" fill="white"/>
<path d="M68.1325 41.0962H37.1897C35.0537 41.0962 33.3219 42.828 33.3219 44.964C33.3219 47.1001 35.0537 48.8319 37.1897 48.8319H68.1325C70.2685 48.8319 72.0003 47.1001 72.0003 44.964C72.0003 42.828 70.2685 41.0962 68.1325 41.0962Z" fill="white"/>
<path d="M24.5798 23.8364L22.0041 23.462L20.8522 21.1279C20.5263 20.4678 19.8543 20.0498 19.1179 20.0498C18.382 20.0498 17.7095 20.4678 17.3836 21.1279L16.2315 23.462L13.656 23.8364C12.9275 23.9421 12.3221 24.4524 12.0947 25.1525C11.8672 25.8526 12.057 26.621 12.5838 27.1349L14.4476 28.9515L14.0074 31.5169C13.8829 32.2425 14.1812 32.9759 14.7766 33.4086C15.1137 33.6535 15.5123 33.7781 15.9135 33.7781C16.2211 33.7781 16.5303 33.7046 16.8132 33.556L19.1174 32.3446L21.4216 33.556C21.7047 33.7048 22.0136 33.7781 22.3212 33.7781C22.323 33.7781 22.3251 33.7781 22.3267 33.7781C23.3947 33.7778 24.2603 32.9122 24.2603 31.8441C24.2603 31.6819 24.2405 31.5241 24.2028 31.3736L23.7872 28.9515L25.6509 27.1349C26.1783 26.621 26.3678 25.8526 26.1403 25.1525C25.9137 24.4524 25.3082 23.9421 24.5798 23.8364Z" fill="white"/>
<path d="M24.5798 5.78662L22.0041 5.41221L20.8522 3.0781C20.5263 2.41798 19.8543 2 19.1179 2C18.382 2 17.7095 2.41798 17.3836 3.0781L16.2315 5.41221L13.656 5.78662C12.9275 5.89234 12.3221 6.40263 12.0947 7.10271C11.8672 7.80279 12.057 8.5712 12.5838 9.08511L14.4476 10.9017L14.0074 13.4671C13.8829 14.1927 14.1812 14.9261 14.7766 15.3587C15.1137 15.6037 15.5123 15.7283 15.9135 15.7283C16.2211 15.7283 16.5303 15.6548 16.8132 15.5062L19.1174 14.2948L21.4216 15.5062C21.7047 15.655 22.0136 15.7283 22.3212 15.7283C22.323 15.7283 22.3251 15.7283 22.3267 15.7283C23.3947 15.7283 24.2603 14.8624 24.2603 13.7943C24.2603 13.6321 24.2405 13.4743 24.2028 13.3237L23.7872 10.9017L25.6509 9.08511C26.1783 8.5712 26.3678 7.80279 26.1403 7.10271C25.9137 6.40263 25.3082 5.89234 24.5798 5.78662Z" fill="white"/>
<path d="M24.5798 41.8862L22.0041 41.5118L20.8522 39.1777C20.5263 38.5176 19.8543 38.0996 19.1179 38.0996C18.382 38.0996 17.7095 38.5176 17.3836 39.1777L16.2315 41.5118L13.656 41.8862C12.9275 41.9919 12.3221 42.5022 12.0947 43.2023C11.8672 43.9024 12.057 44.6708 12.5838 45.1847L14.4476 47.0013L14.0074 49.5667C13.8829 50.2923 14.1812 51.0257 14.7766 51.4584C15.1137 51.7033 15.5123 51.8279 15.9135 51.8279C16.2211 51.8279 16.5303 51.7544 16.8132 51.6058L19.1174 50.3944L21.4216 51.6058C21.7047 51.7546 22.0136 51.8279 22.3212 51.8279C22.323 51.8279 22.3251 51.8279 22.3267 51.8279C23.3947 51.8276 24.2603 50.962 24.2603 49.8939C24.2603 49.7317 24.2405 49.5739 24.2028 49.4234L23.7872 47.0013L25.6509 45.1847C26.1783 44.6708 26.3678 43.9024 26.1403 43.2023C25.9137 42.5022 25.3082 41.9919 24.5798 41.8862Z" fill="white"/>
</svg>
