<svg width="181" height="52" viewBox="0 0 181 52" fill="none" xmlns="http://www.w3.org/2000/svg">
<path d="M92.28 39.24C90.2 39.24 88.2 38.9067 86.28 38.24C84.3867 37.5467 82.92 36.6667 81.88 35.6L83.04 33.32C84.0267 34.28 85.3467 35.0933 87 35.76C88.68 36.4 90.44 36.72 92.28 36.72C94.04 36.72 95.4667 36.5067 96.56 36.08C97.68 35.6267 98.4933 35.0267 99 34.28C99.5333 33.5333 99.8 32.7067 99.8 31.8C99.8 30.7067 99.48 29.8267 98.84 29.16C98.2267 28.4933 97.4133 27.9733 96.4 27.6C95.3867 27.2 94.2667 26.8533 93.04 26.56C91.8133 26.2667 90.5867 25.96 89.36 25.64C88.1333 25.2933 87 24.84 85.96 24.28C84.9467 23.72 84.12 22.9867 83.48 22.08C82.8667 21.1467 82.56 19.9333 82.56 18.44C82.56 17.0533 82.92 15.7867 83.64 14.64C84.3867 13.4667 85.52 12.5333 87.04 11.84C88.56 11.12 90.5067 10.76 92.88 10.76C94.4533 10.76 96.0133 10.9867 97.56 11.44C99.1067 11.8667 100.44 12.4667 101.56 13.24L100.56 15.6C99.36 14.8 98.08 14.2133 96.72 13.84C95.3867 13.4667 94.0933 13.28 92.84 13.28C91.16 13.28 89.7733 13.5067 88.68 13.96C87.5867 14.4133 86.7733 15.0267 86.24 15.8C85.7333 16.5467 85.48 17.4 85.48 18.36C85.48 19.4533 85.7867 20.3333 86.4 21C87.04 21.6667 87.8667 22.1867 88.88 22.56C89.92 22.9333 91.0533 23.2667 92.28 23.56C93.5067 23.8533 94.72 24.1733 95.92 24.52C97.1467 24.8667 98.2667 25.32 99.28 25.88C100.32 26.4133 101.147 27.1333 101.76 28.04C102.4 28.9467 102.72 30.1333 102.72 31.6C102.72 32.96 102.347 34.2267 101.6 35.4C100.853 36.5467 99.7067 37.48 98.16 38.2C96.64 38.8933 94.68 39.24 92.28 39.24ZM110.809 33.56L110.889 29.92L123.969 18H127.449L118.209 26.84L116.609 28.2L110.809 33.56ZM108.569 39V9.32H111.409V39H108.569ZM124.849 39L116.089 28.08L117.929 25.88L128.329 39H124.849ZM132.593 39V18H135.433V39H132.593ZM134.033 13.36C133.446 13.36 132.953 13.16 132.553 12.76C132.153 12.36 131.953 11.88 131.953 11.32C131.953 10.76 132.153 10.2933 132.553 9.92C132.953 9.52 133.446 9.32 134.033 9.32C134.619 9.32 135.113 9.50666 135.513 9.88C135.913 10.2533 136.113 10.72 136.113 11.28C136.113 11.8667 135.913 12.36 135.513 12.76C135.139 13.16 134.646 13.36 134.033 13.36ZM143.335 39V9.32H146.175V39H143.335ZM154.077 39V9.32H156.917V39H154.077ZM170.459 39.2C168.726 39.2 167.086 38.96 165.539 38.48C163.993 37.9733 162.779 37.3467 161.899 36.6L163.179 34.36C164.033 35 165.126 35.56 166.459 36.04C167.793 36.4933 169.193 36.72 170.659 36.72C172.659 36.72 174.099 36.4133 174.979 35.8C175.859 35.16 176.299 34.32 176.299 33.28C176.299 32.5067 176.046 31.9067 175.539 31.48C175.059 31.0267 174.419 30.6933 173.619 30.48C172.819 30.24 171.926 30.04 170.939 29.88C169.953 29.72 168.966 29.5333 167.979 29.32C167.019 29.1067 166.139 28.8 165.339 28.4C164.539 27.9733 163.886 27.4 163.379 26.68C162.899 25.96 162.659 25 162.659 23.8C162.659 22.6533 162.979 21.6267 163.619 20.72C164.259 19.8133 165.193 19.1067 166.419 18.6C167.673 18.0667 169.193 17.8 170.979 17.8C172.339 17.8 173.699 17.9867 175.059 18.36C176.419 18.7067 177.539 19.1733 178.419 19.76L177.179 22.04C176.246 21.4 175.246 20.9467 174.179 20.68C173.113 20.3867 172.046 20.24 170.979 20.24C169.086 20.24 167.686 20.5733 166.779 21.24C165.899 21.88 165.459 22.7067 165.459 23.72C165.459 24.52 165.699 25.1467 166.179 25.6C166.686 26.0533 167.339 26.4133 168.139 26.68C168.966 26.92 169.859 27.12 170.819 27.28C171.806 27.44 172.779 27.64 173.739 27.88C174.726 28.0933 175.619 28.4 176.419 28.8C177.246 29.1733 177.899 29.72 178.379 30.44C178.886 31.1333 179.139 32.0533 179.139 33.2C179.139 34.4267 178.793 35.4933 178.099 36.4C177.433 37.28 176.446 37.9733 175.139 38.48C173.859 38.96 172.299 39.2 170.459 39.2Z" fill="white"/>
<path d="M25.1897 12.7323H56.1325C58.2685 12.7323 60.0003 11.0005 60.0003 8.86442C60.0003 6.72834 58.2685 4.99658 56.1325 4.99658H25.1897C23.0537 4.99658 21.3219 6.72834 21.3219 8.86442C21.3219 11.0005 23.0534 12.7323 25.1897 12.7323Z" fill="white"/>
<path d="M56.1325 23.0464H25.1897C23.0537 23.0464 21.3219 24.7781 21.3219 26.9142C21.3219 29.0503 23.0537 30.7821 25.1897 30.7821H56.1325C58.2685 30.7821 60.0003 29.0503 60.0003 26.9142C60.0003 24.7781 58.2685 23.0464 56.1325 23.0464Z" fill="white"/>
<path d="M56.1325 41.0962H25.1897C23.0537 41.0962 21.3219 42.828 21.3219 44.964C21.3219 47.1001 23.0537 48.8319 25.1897 48.8319H56.1325C58.2685 48.8319 60.0003 47.1001 60.0003 44.964C60.0003 42.828 58.2685 41.0962 56.1325 41.0962Z" fill="white"/>
<path d="M12.5798 23.8364L10.0041 23.462L8.85224 21.1279C8.52631 20.4678 7.85433 20.0498 7.1179 20.0498C6.38198 20.0498 5.70949 20.4678 5.38356 21.1279L4.23146 23.462L1.65599 23.8364C0.927548 23.9421 0.322102 24.4524 0.0946727 25.1525C-0.132756 25.8526 0.0570258 26.621 0.583826 27.1349L2.44761 28.9515L2.00745 31.5169C1.8829 32.2425 2.18124 32.9759 2.77663 33.4086C3.11365 33.6535 3.5123 33.7781 3.91352 33.7781C4.22114 33.7781 4.53031 33.7046 4.81318 33.556L7.11738 32.3446L9.42158 33.556C9.70471 33.7048 10.0136 33.7781 10.3212 33.7781C10.323 33.7781 10.3251 33.7781 10.3267 33.7781C11.3947 33.7778 12.2603 32.9122 12.2603 31.8441C12.2603 31.6819 12.2405 31.5241 12.2028 31.3736L11.7872 28.9515L13.6509 27.1349C14.1783 26.621 14.3678 25.8526 14.1403 25.1525C13.9137 24.4524 13.3082 23.9421 12.5798 23.8364Z" fill="white"/>
<path d="M12.5798 5.78662L10.0041 5.41221L8.85224 3.0781C8.52631 2.41798 7.85433 2 7.1179 2C6.38198 2 5.70949 2.41798 5.38356 3.0781L4.23146 5.41221L1.65599 5.78662C0.927548 5.89234 0.322102 6.40263 0.0946727 7.10271C-0.132756 7.80279 0.0570258 8.5712 0.583826 9.08511L2.44761 10.9017L2.00745 13.4671C1.8829 14.1927 2.18124 14.9261 2.77663 15.3587C3.11365 15.6037 3.5123 15.7283 3.91352 15.7283C4.22114 15.7283 4.53031 15.6548 4.81318 15.5062L7.11738 14.2948L9.42158 15.5062C9.70471 15.655 10.0136 15.7283 10.3212 15.7283C10.323 15.7283 10.3251 15.7283 10.3267 15.7283C11.3947 15.7283 12.2603 14.8624 12.2603 13.7943C12.2603 13.6321 12.2405 13.4743 12.2028 13.3237L11.7872 10.9017L13.6509 9.08511C14.1783 8.5712 14.3678 7.80279 14.1403 7.10271C13.9137 6.40263 13.3082 5.89234 12.5798 5.78662Z" fill="white"/>
<path d="M12.5798 41.8862L10.0041 41.5118L8.85224 39.1777C8.52631 38.5176 7.85433 38.0996 7.1179 38.0996C6.38198 38.0996 5.70949 38.5176 5.38356 39.1777L4.23146 41.5118L1.65599 41.8862C0.927548 41.9919 0.322102 42.5022 0.0946727 43.2023C-0.132756 43.9024 0.0570258 44.6708 0.583826 45.1847L2.44761 47.0013L2.00745 49.5667C1.8829 50.2923 2.18124 51.0257 2.77663 51.4584C3.11365 51.7033 3.5123 51.8279 3.91352 51.8279C4.22114 51.8279 4.53031 51.7544 4.81318 51.6058L7.11738 50.3944L9.42158 51.6058C9.70471 51.7546 10.0136 51.8279 10.3212 51.8279C10.323 51.8279 10.3251 51.8279 10.3267 51.8279C11.3947 51.8276 12.2603 50.962 12.2603 49.8939C12.2603 49.7317 12.2405 49.5739 12.2028 49.4234L11.7872 47.0013L13.6509 45.1847C14.1783 44.6708 14.3678 43.9024 14.1403 43.2023C13.9137 42.5022 13.3082 41.9919 12.5798 41.8862Z" fill="white"/>
</svg>
