<svg width="32" height="26" viewBox="0 0 32 26" fill="none" xmlns="http://www.w3.org/2000/svg">
<path d="M28.7106 6.47713C28.7309 6.76138 28.7309 7.04569 28.7309 7.32994C28.7309 15.9999 22.132 25.9898 10.0711 25.9898C6.35531 25.9898 2.90356 24.9136 0 23.0457C0.527937 23.1066 1.0355 23.1269 1.58375 23.1269C4.64969 23.1269 7.47206 22.0914 9.72587 20.3249C6.84262 20.2639 4.42637 18.3756 3.59387 15.7766C4 15.8375 4.40606 15.8781 4.8325 15.8781C5.42131 15.8781 6.01019 15.7969 6.55837 15.6548C3.55331 15.0456 1.29944 12.4061 1.29944 9.21825V9.13706C2.1725 9.62437 3.18781 9.92894 4.26388 9.9695C2.49738 8.79181 1.34006 6.78169 1.34006 4.50756C1.34006 3.28931 1.66488 2.17256 2.23344 1.19794C5.46187 5.17762 10.3147 7.77656 15.7563 8.06087C15.6548 7.57356 15.5938 7.066 15.5938 6.55838C15.5938 2.94413 18.5177 0 22.1522 0C24.0405 0 25.7461 0.791875 26.9441 2.07106C28.4263 1.78681 29.8476 1.23856 31.1065 0.487313C30.6191 2.01019 29.5836 3.28938 28.2232 4.1015C29.5431 3.95944 30.8222 3.59387 31.9999 3.08631C31.1066 4.38575 29.9898 5.54306 28.7106 6.47713Z" fill="white"/>
</svg>
