<svg width="294" height="95" viewBox="0 0 294 95" fill="none" xmlns="http://www.w3.org/2000/svg">
<g clip-path="url(#clip0_3_93)">
<path d="M70.6303 0L11.0455 39.6035L34.6474 56.8359L0 95L59.2497 56.222L35.3177 38.1641L70.6303 0Z" fill="white"/>
<path d="M198.577 0L138.992 39.5984L162.588 56.8308L127.941 94.9948L187.191 56.2168L163.259 38.1641L198.577 0Z" fill="white"/>
<path d="M81.2685 54.0395C80.7373 55.8144 79.3811 56.7018 77.1947 56.7018H70.8985C69.104 56.7018 68.2067 56.1239 68.2067 54.9734C67.0001 56.3458 65.515 57.0371 63.7514 57.0371C62.4571 57.0371 61.4051 56.6399 60.5955 55.8402C59.7859 55.0405 59.3837 53.9983 59.3837 52.7136C59.3837 50.397 60.2707 48.5706 62.0445 47.2291C63.6483 46.0115 65.6387 45.4027 68.0108 45.4027H77.499L74.374 54.0498H81.2685V54.0395ZM70.5478 48.0546H66.8763L65.7109 51.9293C65.6439 52.1718 65.6129 52.3937 65.6129 52.5949C65.6129 53.5597 66.5566 54.0395 68.4388 54.0395L70.5478 48.0546Z" fill="white"/>
<path d="M102.705 54.0395C102.173 55.8144 100.817 56.7018 98.6308 56.7018H92.3346C90.5401 56.7018 89.6428 56.1239 89.6428 54.9734C88.4362 56.3458 86.9511 57.0371 85.1875 57.0371C83.8932 57.0371 82.8412 56.6399 82.0316 55.8402C81.2221 55.0405 80.8198 53.9983 80.8198 52.7136C80.8198 50.397 81.7068 48.5706 83.4807 47.2291C85.0844 46.0115 87.0748 45.4027 89.4469 45.4027H98.9351L95.8102 54.0498H102.705V54.0395ZM91.9839 48.0546H88.3124L87.147 51.9293C87.08 52.1718 87.049 52.3937 87.049 52.5949C87.049 53.5597 87.9927 54.0395 89.8749 54.0395L91.9839 48.0546Z" fill="white"/>
<path d="M124.888 54.0395C124.337 55.8144 122.975 56.7018 120.815 56.7018H114.482C112.657 56.7018 111.754 56.1239 111.791 54.9734C110.574 56.4025 108.939 57.1197 106.887 57.1197C105.546 57.1197 104.458 56.743 103.628 55.9898C102.761 55.2159 102.333 54.1634 102.333 52.8322C102.333 50.4279 103.308 48.5448 105.257 47.1775C106.974 45.9909 109.083 45.3975 111.589 45.3975H115.044L118.154 36.6214H124.203L118.02 54.0447H124.883L124.888 54.0395ZM114.137 48.0546H109.914L108.65 51.6301C108.542 51.9603 108.485 52.2595 108.485 52.5278C108.485 53.2708 108.954 53.7403 109.898 53.9415C110.228 54.0086 110.94 54.0395 112.023 54.0395L114.132 48.0546H114.137Z" fill="white"/>
<path d="M204.651 53.5649C204.223 54.9889 203.135 55.7009 201.382 55.7009H196.328C194.89 55.7009 194.168 55.2365 194.168 54.313C193.198 55.4171 192.007 55.9692 190.594 55.9692C189.552 55.9692 188.712 55.6493 188.062 55.0095C187.412 54.3697 187.088 53.5339 187.088 52.502C187.088 50.6447 187.799 49.1742 189.222 48.1011C190.512 47.1208 192.105 46.6358 194.008 46.6358H201.624L199.118 53.5752H204.651V53.5649ZM196.05 48.7615H193.105L192.172 51.8726C192.121 52.0686 192.09 52.2441 192.09 52.404C192.09 53.1779 192.848 53.5649 194.358 53.5649L196.05 48.7615Z" fill="white"/>
<path d="M214.944 53.5649C214.722 54.3491 214.211 54.927 213.412 55.2984C212.85 55.5667 212.252 55.7009 211.613 55.7009H206.477C205.162 55.7009 204.502 55.252 204.502 54.3543C204.502 54.1221 204.548 53.859 204.646 53.5649L209.591 39.6087H214.309L209.333 53.5649H214.933H214.944Z" fill="white"/>
<path d="M240.969 53.5649C240.711 54.9889 239.701 55.7009 237.942 55.7009H232.528C232.1 55.7009 231.708 55.5254 231.347 55.1746C230.986 54.8238 230.806 54.4265 230.806 53.9828C230.806 53.8383 230.821 53.7042 230.857 53.57C231.053 52.9096 231.347 51.9551 231.739 50.7014L227.232 54.4781C226.092 55.4223 225.123 55.8918 224.313 55.8918C223.107 55.8918 222.498 55.4377 222.498 54.5297C222.498 54.2356 222.565 53.9157 222.699 53.57L223.767 50.7014L218.461 55.1333C218.007 55.5151 217.445 55.706 216.769 55.706H214.046L217.233 46.6358H222.044L220.539 50.9026L224.633 47.5387C225.654 46.6926 226.804 46.2695 228.073 46.2695C229.119 46.2695 229.645 46.6719 229.645 47.4819C229.645 47.7141 229.599 47.9669 229.501 48.2404L228.542 50.8975L232.528 47.5077C233.497 46.6822 234.575 46.2695 235.756 46.2695C236.875 46.2695 237.437 46.7441 237.437 47.6986C237.437 48.0185 237.365 48.3745 237.226 48.7666L235.503 53.57H240.969V53.5649Z" fill="white"/>
<path d="M258.172 53.5649C257.744 54.9889 256.656 55.7009 254.902 55.7009H249.849C248.41 55.7009 247.688 55.2365 247.688 54.313C246.719 55.4171 245.528 55.9692 244.115 55.9692C243.073 55.9692 242.233 55.6493 241.583 55.0095C240.933 54.3697 240.608 53.5339 240.608 52.502C240.608 50.6447 241.32 49.1742 242.743 48.1011C244.032 47.1208 245.626 46.6358 247.528 46.6358H255.145L252.639 53.5752H258.172V53.5649ZM249.57 48.7615H246.626L245.693 51.8726C245.641 52.0686 245.61 52.2441 245.61 52.404C245.61 53.1779 246.368 53.5649 247.879 53.5649L249.57 48.7615Z" fill="white"/>
<path d="M276.416 53.5649C276.184 54.3491 275.673 54.927 274.884 55.2984C274.322 55.5667 273.724 55.7009 273.085 55.7009H267.763C266.546 55.7009 265.938 55.2984 265.938 54.4987C265.938 54.2304 265.999 53.9209 266.123 53.5649L267.139 50.6962L262.55 54.5761C261.472 55.3242 260.59 55.6957 259.894 55.6957H257.439L260.626 46.6255H265.437L263.932 50.8923L268 47.5593C269.104 46.6616 270.3 46.2282 271.589 46.2643C272.461 46.3004 272.894 46.7648 272.894 47.6522C272.894 47.9824 272.822 48.3487 272.682 48.7615L270.96 53.5649H276.416Z" fill="white"/>
<path d="M294 53.5649C293.474 54.9889 292.494 55.7009 291.056 55.7009H287.802C287.028 57.8007 286.213 59.3589 285.363 60.3701C284.171 61.7735 282.692 62.4803 280.923 62.4803C279.809 62.4803 278.953 62.1553 278.35 61.5052C277.824 60.9377 277.561 60.1999 277.561 59.3021C277.561 58.5901 277.715 57.8988 278.02 57.2332C278.324 56.5676 278.726 56.0569 279.226 55.7009H278.21C277.623 55.7009 277.138 55.5203 276.751 55.1591C276.364 54.798 276.174 54.3491 276.174 53.8074C276.174 53.5597 276.22 53.3069 276.308 53.0489L278.628 46.6306H283.47L280.974 53.57H283.682L286.136 46.6306H290.947L288.493 53.57H294V53.5649ZM282.841 56.062C282.253 56.062 281.712 56.3922 281.206 57.0578C280.706 57.7182 280.454 58.3786 280.454 59.039C280.454 59.6272 280.711 60.0967 281.227 60.4527L282.841 56.062Z" fill="white"/>
</g>
<defs>
<clipPath id="clip0_3_93">
<rect width="294" height="95" fill="white"/>
</clipPath>
</defs>
</svg>
