<svg width="159" height="117" viewBox="0 0 159 117" fill="none" xmlns="http://www.w3.org/2000/svg">
<path d="M92.7527 58.5C88.5285 58.5 85.0357 60.1699 82.7884 62.7173C80.5411 65.2701 79.5023 68.5567 79.5023 71.7955C79.5023 75.9436 76.4918 79.3366 75.2092 80.3418C73.2375 81.9053 74.3346 85.0856 76.8522 85.0909H90.1026C94.2685 85.0909 98.1429 83.8677 101.085 81.5703C104.026 79.2728 106.003 75.7735 106.003 71.7955C106.003 68.1631 104.98 64.7755 102.664 62.3025C100.332 59.8295 96.8497 58.5 92.7527 58.5ZM92.7527 63.8182C95.7738 63.8182 97.597 64.6691 98.7949 65.9455C99.998 67.2218 100.703 69.147 100.703 71.7955C100.703 74.0929 99.6959 75.9224 97.8408 77.3795C95.9699 78.8261 93.2191 79.7727 90.1026 79.7727H82.5605C83.8166 77.6455 84.7971 74.9864 84.7971 71.7955C84.7971 69.7214 85.4862 67.6898 86.7476 66.2486C88.0196 64.8127 89.8429 63.8182 92.7527 63.8182ZM155.21 5.37137C154.542 5.45114 153.975 5.62664 153.344 5.85C152.083 6.27545 150.625 6.96682 148.903 7.839C145.457 9.594 141.074 12.1627 136.447 15.0983C127.172 20.9643 117.049 28.1651 111.844 33.3822C106.888 38.3494 103.279 42.8699 101.583 47.4063C99.8867 51.9374 100.597 56.8567 104.116 60.3826C107.641 63.9192 112.543 64.6372 117.059 62.9354C121.58 61.2335 126.085 57.6065 131.036 52.6394C136.23 47.4116 143.412 37.2539 149.268 27.963C152.194 23.3043 154.754 18.9008 156.503 15.4493C157.377 13.7262 158.056 12.2584 158.49 10.9927C158.702 10.3545 158.872 9.79077 158.946 9.12068C159.015 8.45059 159.195 7.38164 158.061 6.24886C156.927 5.10546 155.872 5.29159 155.199 5.36073L155.21 5.37137ZM151.78 13.0508C150.153 16.2577 147.646 20.5814 144.784 25.1231C139.06 34.2331 131.746 44.4175 127.294 48.8847C122.587 53.602 118.4 56.7556 115.194 57.9629C111.992 59.1595 110.137 58.9042 107.863 56.6333C105.6 54.3465 105.346 52.4851 106.538 49.273C107.747 46.0608 110.885 41.8594 115.602 37.1475C120.054 32.6802 130.198 25.3411 139.272 19.5975C143.809 16.715 148.113 14.1995 151.314 12.5669C152.024 12.3754 152.003 12.6839 151.791 13.0455L151.78 13.0508ZM13.2504 21.2727H103.353C104.821 21.2727 106.003 22.4587 106.003 23.9318C106.003 25.405 104.821 26.5909 103.353 26.5909H13.2504C11.7822 26.5909 10.6003 25.405 10.6003 23.9318C10.6003 22.4587 11.7822 21.2727 13.2504 21.2727ZM37.1011 13.2955C37.1011 14.7633 35.9138 15.9545 34.451 15.9545C32.9882 15.9545 31.8009 14.7633 31.8009 13.2955C31.8009 11.8276 32.9882 10.6364 34.451 10.6364C35.9138 10.6364 37.1011 11.8276 37.1011 13.2955ZM26.5008 13.2955C26.5008 14.7633 25.3135 15.9545 23.8507 15.9545C22.3878 15.9545 21.2006 14.7633 21.2006 13.2955C21.2006 11.8276 22.3878 10.6364 23.8507 10.6364C25.3135 10.6364 26.5008 11.8276 26.5008 13.2955ZM15.9005 13.2955C15.9005 14.7633 14.7132 15.9545 13.2504 15.9545C11.7875 15.9545 10.6003 14.7633 10.6003 13.2955C10.6003 11.8276 11.7875 10.6364 13.2504 10.6364C14.7132 10.6364 15.9005 11.8276 15.9005 13.2955ZM7.95023 0C3.5935 0 0 3.60573 0 7.97727V109.023C0 113.394 3.5935 117 7.95023 117H140.454C144.811 117 148.404 113.394 148.404 109.023V45.2045C148.404 41.652 143.104 41.668 143.104 45.2045V109.023C143.104 110.544 141.97 111.682 140.454 111.682H7.95023C6.43439 111.682 5.30015 110.544 5.30015 109.023V7.97727C5.30015 6.45627 6.43439 5.31818 7.95023 5.31818H140.454C143.979 5.31818 143.936 0 140.454 0H7.95023Z" fill="white"/>
</svg>
