<svg width="74" height="73" viewBox="0 0 74 73" fill="none" xmlns="http://www.w3.org/2000/svg">
<path d="M37.0579 73C18.6739 73 0 69.0446 0 61.4829C0 54.7355 14.3824 51.9434 20.5297 51.0709H20.7617C21.6316 51.0709 22.3855 51.7108 22.5015 52.5833C22.5595 53.0486 22.4435 53.5139 22.1536 53.8629C21.8636 54.212 21.4576 54.5028 20.9937 54.561C8.1771 56.4223 3.42162 59.796 3.42162 61.541C3.42162 64.7984 16.5282 69.5681 36.9999 69.5681C57.4717 69.5681 70.5782 64.7984 70.5782 61.541C70.5782 59.796 65.7648 56.4223 52.8322 54.561C52.3682 54.5028 51.9623 54.2701 51.6723 53.8629C51.3824 53.5139 51.2664 53.0486 51.3244 52.5833C51.4403 51.7108 52.1943 51.0709 53.0642 51.0709H53.2961C59.5015 51.9434 73.9999 54.7355 73.9999 61.4829C74.0579 68.9865 55.4419 73 37.0579 73ZM35.8401 60.6685C34.9702 59.8542 14.9044 40.8335 14.9044 22.1618C14.9044 9.94662 24.8213 0 36.9999 0C49.1786 0 59.0955 9.94662 59.0955 22.1618C59.0955 40.31 39.0297 59.796 38.1598 60.6104L36.9999 61.7737L35.8401 60.6685ZM37.0579 3.49004C26.7931 3.49004 18.442 11.8661 18.442 22.1618C18.442 36.7618 32.6504 52.4088 37.0579 56.8877C41.5234 52.2924 55.7319 36.3546 55.7319 22.1618C55.6739 11.9243 47.3228 3.49004 37.0579 3.49004ZM37.0579 32.0502C31.2586 32.0502 26.5611 27.3386 26.5611 21.5219C26.5611 15.7052 31.2586 10.9936 37.0579 10.9936C42.8573 10.9936 47.5548 15.7052 47.5548 21.5219C47.5548 27.3386 42.8573 32.0502 37.0579 32.0502ZM37.0579 14.4837C33.1724 14.4837 30.0407 17.6247 30.0407 21.5219C30.0407 25.4191 33.1724 28.5602 37.0579 28.5602C40.9435 28.5602 44.0752 25.4191 44.0752 21.5219C44.0752 17.6247 40.8855 14.4837 37.0579 14.4837Z" fill="white"/>
</svg>
