<svg id="visual" viewBox="0 0 900 600" width="900" height="600" xmlns="http://www.w3.org/2000/svg" xmlns:xlink="http://www.w3.org/1999/xlink" version="1.1"><rect x="0" y="0" width="900" height="600" fill="#333"></rect><path d="M0 375L37.5 369C75 363 150 351 225 320.8C300 290.7 375 242.3 450 273.7C525 305 600 416 675 435.8C750 455.7 825 384.3 862.5 348.7L900 313L900 601L862.5 601C825 601 750 601 675 601C600 601 525 601 450 601C375 601 300 601 225 601C150 601 75 601 37.5 601L0 601Z" fill="#151515" stroke-linecap="round" stroke-linejoin="miter"></path></svg>