<svg id="visual" viewBox="0 0 900 600" width="900" height="600" xmlns="http://www.w3.org/2000/svg" xmlns:xlink="http://www.w3.org/1999/xlink" version="1.1"><rect x="0" y="0" width="900" height="600" fill="#fff"></rect><path d="M419 600L434.3 575C449.7 550 480.3 500 471.3 450C462.3 400 413.7 350 419.2 300C424.7 250 484.3 200 538.3 150C592.3 100 640.7 50 664.8 25L689 0L900 0L900 25C900 50 900 100 900 150C900 200 900 250 900 300C900 350 900 400 900 450C900 500 900 550 900 575L900 600Z" fill="#333" stroke-linecap="round" stroke-linejoin="miter"></path></svg>